<svg xmlns="http://www.w3.org/2000/svg" width="77.732" height="65.282" viewBox="0 0 77.732 65.282">
  <g id="Icon_feather-settings" data-name="Icon feather-settings" transform="translate(25.232 12.782)">
    <path id="Path_161" data-name="Path 161" d="M27.136,20.318A6.818,6.818,0,1,1,20.318,13.5,6.818,6.818,0,0,1,27.136,20.318Z" transform="translate(6.182 6.182)" fill="none" stroke="#e36860" stroke-width="2"/>
    <path id="Path_181" data-name="Path 181" d="M22.081,17.791A4.291,4.291,0,1,1,17.791,13.5,4.291,4.291,0,0,1,22.081,17.791Z" transform="translate(-26.291 -13.841)" fill="none" stroke="#e36860" stroke-width="2"/>
    <path id="Path_162" data-name="Path 162" d="M43.318,33.318a3.75,3.75,0,0,0,.75,4.136l.136.136a4.548,4.548,0,1,1-6.432,6.432l-.136-.136a3.78,3.78,0,0,0-6.409,2.682v.386a4.545,4.545,0,0,1-9.091,0v-.2a3.75,3.75,0,0,0-2.455-3.432,3.75,3.75,0,0,0-4.136.75l-.136.136a4.548,4.548,0,1,1-6.432-6.432l.136-.136a3.78,3.78,0,0,0-2.682-6.409H6.045a4.545,4.545,0,0,1,0-9.091h.2a3.75,3.75,0,0,0,3.432-2.455,3.75,3.75,0,0,0-.75-4.136L8.8,15.409a4.548,4.548,0,1,1,6.432-6.432l.136.136a3.75,3.75,0,0,0,4.136.75h.182a3.75,3.75,0,0,0,2.273-3.432V6.045a4.545,4.545,0,1,1,9.091,0v.2a3.78,3.78,0,0,0,6.409,2.682l.136-.136a4.548,4.548,0,1,1,6.432,6.432l-.136.136a3.75,3.75,0,0,0-.75,4.136v.182a3.75,3.75,0,0,0,3.432,2.273h.386a4.545,4.545,0,0,1,0,9.091h-.2a3.75,3.75,0,0,0-3.432,2.273Z" transform="translate(0 0)" fill="none" stroke="#e36860" stroke-width="2"/>
    <path id="Path_182" data-name="Path 182" d="M27.815,21.522a2.36,2.36,0,0,0,.472,2.6l.086.086a2.862,2.862,0,1,1-4.047,4.047l-.086-.086a2.379,2.379,0,0,0-4.033,1.688V30.1a2.86,2.86,0,0,1-5.721,0v-.129a2.36,2.36,0,0,0-1.545-2.16,2.36,2.36,0,0,0-2.6.472l-.086.086a2.862,2.862,0,1,1-4.047-4.047l.086-.086A2.379,2.379,0,0,0,4.6,20.207H4.36a2.86,2.86,0,0,1,0-5.721h.129a2.36,2.36,0,0,0,2.16-1.545,2.36,2.36,0,0,0-.472-2.6l-.086-.086a2.862,2.862,0,1,1,4.047-4.047l.086.086a2.36,2.36,0,0,0,2.6.472h.114a2.36,2.36,0,0,0,1.43-2.16V4.36a2.86,2.86,0,0,1,5.721,0v.129a2.379,2.379,0,0,0,4.033,1.688l.086-.086a2.862,2.862,0,1,1,4.047,4.047l-.086.086a2.36,2.36,0,0,0-.472,2.6v.114a2.36,2.36,0,0,0,2.16,1.43H30.1a2.86,2.86,0,0,1,0,5.721h-.129a2.36,2.36,0,0,0-2.16,1.43Z" transform="translate(-25.732 -13.282)" fill="none" stroke="#e36860" stroke-width="2"/>
  </g>
</svg>
