<svg xmlns="http://www.w3.org/2000/svg" width="43.697" height="36.796" viewBox="0 0 43.697 36.796">
  <path id="Linearicons_diamond" d="M43.466,13.959l-6.9-9.2a1.146,1.146,0,0,0-.731-.444l-13.8-2.3a1.153,1.153,0,0,0-.377,0l-13.8,2.3a1.146,1.146,0,0,0-.731.444l-6.9,9.2a1.152,1.152,0,0,0,.064,1.458l20.7,23a1.149,1.149,0,0,0,1.711,0l20.7-23A1.146,1.146,0,0,0,43.466,13.959ZM29.405,13.5,21.848,34.282,14.291,13.5H29.405ZM15.424,11.2l6.423-6.423L28.271,11.2ZM25.2,4.874l8.5,1.417-2.836,4.252L25.2,4.874ZM12.828,10.543,9.992,6.291l8.5-1.417ZM10.74,11.558,3.875,12.931,7.994,7.439Zm1.166,2.114,6.84,18.81L3.355,15.38l8.551-1.711Zm19.884,0,8.551,1.711-15.39,17.1,6.84-18.81Zm1.166-2.114L35.7,7.439l4.119,5.492-6.865-1.373Z" transform="translate(0 -2)" fill="#e36860"/>
</svg>
