<svg xmlns="http://www.w3.org/2000/svg" width="647.323" height="689.032" viewBox="0 0 647.323 689.032">
  <path id="Union_3" data-name="Union 3" d="M237.434,625.1S127.5,456.564,119.126,443.523a1.967,1.967,0,0,0-1.453-.93H39.406a7.321,7.321,0,0,1-6.189-3.1c-5.824-9-22.932-35.384-32.4-49.662a6.3,6.3,0,0,1,0-6.209,7.831,7.831,0,0,1,6.191-3.1H80.166V0h81.54V381.955a7.652,7.652,0,0,1,1.831,1.666c17.474,26.7,137.6,211.06,137.6,211.06,12.374,19.859,36.764,32.277,63.338,32.277s50.963-12.106,63.7-31.97c0,0,118.537-182.22,137.239-210.506V0h81.9V384.555l-.173.007c-.276,3.717-.868,3.942-1.644,5.267C616.382,434.524,492.25,625.1,492.25,625.1c-25.846,39.416-74.625,63.935-127.407,63.935S263.279,664.513,237.434,625.1Z" fill="#fbfbfb"/>
</svg>
