<svg xmlns="http://www.w3.org/2000/svg" xmlns:xlink="http://www.w3.org/1999/xlink" width="87" height="87" viewBox="0 0 87 87">
  <defs>
    <radialGradient id="radial-gradient" cx="0.318" cy="0.148" r="0.949" gradientTransform="matrix(1, 0.028, -0.023, 0.851, 0.005, 0.025)" gradientUnits="objectBoundingBox">
      <stop offset="0" stop-color="#e36860"/>
      <stop offset="1" stop-color="#c7564e"/>
    </radialGradient>
  </defs>
  <g id="Group_59" data-name="Group 59" transform="translate(-808.366 -2817.641)">
    <path id="Path_168" data-name="Path 168" d="M43.5,0A43.5,43.5,0,1,1,0,43.5,43.5,43.5,0,0,1,43.5,0Z" transform="translate(808.366 2817.641)" fill="url(#radial-gradient)"/>
    <g id="Icon_feather-check-square" data-name="Icon feather-check-square" transform="translate(833.763 2843.842)">
      <path id="Path_169" data-name="Path 169" d="M13.5,17.252l4.822,4.822L34.4,6" transform="translate(0.644 0.107)" fill="none" stroke="#fff" stroke-linecap="round" stroke-linejoin="round" stroke-width="6" opacity="0"/>
      <path id="Path_170" data-name="Path 170" d="M33.433,18.966V30.218a3.215,3.215,0,0,1-3.215,3.215H7.715A3.215,3.215,0,0,1,4.5,30.218V7.715A3.215,3.215,0,0,1,7.715,4.5H25.4" transform="translate(0 0)" fill="none" stroke="#fff" stroke-linecap="round" stroke-linejoin="round" stroke-width="6"/>
    </g>
  </g>
</svg>
