<svg xmlns="http://www.w3.org/2000/svg" xmlns:xlink="http://www.w3.org/1999/xlink" width="87" height="87" viewBox="0 0 87 87">
  <defs>
    <radialGradient id="radial-gradient" cx="0.318" cy="0.148" r="0.949" gradientTransform="matrix(1, 0.028, -0.023, 0.851, 0.005, 0.025)" gradientUnits="objectBoundingBox">
      <stop offset="0" stop-color="#e36860"/>
      <stop offset="1" stop-color="#c7564e"/>
    </radialGradient>
  </defs>
  <g id="Group_58" data-name="Group 58" transform="translate(-215.213 -2566.346)">
    <path id="Path_167" data-name="Path 167" d="M43.5,0A43.5,43.5,0,1,1,0,43.5,43.5,43.5,0,0,1,43.5,0Z" transform="translate(215.213 2566.346)" fill="url(#radial-gradient)"/>
    <path id="Icon_ionic-ios-settings" data-name="Icon ionic-ios-settings" d="M41.042,24.415a5.125,5.125,0,0,1,3.288-4.782,20.316,20.316,0,0,0-2.458-5.923,5.194,5.194,0,0,1-2.085.446,5.114,5.114,0,0,1-4.678-7.2A20.254,20.254,0,0,0,29.2,4.5a5.121,5.121,0,0,1-9.563,0,20.316,20.316,0,0,0-5.923,2.458,5.114,5.114,0,0,1-4.678,7.2,5.025,5.025,0,0,1-2.085-.446A20.765,20.765,0,0,0,4.5,19.644a5.124,5.124,0,0,1,.01,9.563,20.316,20.316,0,0,0,2.458,5.923,5.116,5.116,0,0,1,6.752,6.752,20.434,20.434,0,0,0,5.923,2.458,5.112,5.112,0,0,1,9.543,0,20.316,20.316,0,0,0,5.923-2.458,5.121,5.121,0,0,1,6.752-6.752,20.434,20.434,0,0,0,2.458-5.923A5.15,5.15,0,0,1,41.042,24.415ZM24.508,32.7a8.3,8.3,0,1,1,8.3-8.3A8.3,8.3,0,0,1,24.508,32.7Z" transform="translate(234.298 2585.426)" fill="#fff"/>
  </g>
</svg>
