<svg xmlns="http://www.w3.org/2000/svg" xmlns:xlink="http://www.w3.org/1999/xlink" width="58.52" height="68.136" viewBox="0 0 58.52 68.136">
  <defs>
    <radialGradient id="radial-gradient" cx="0.211" cy="0.077" r="0.82" gradientTransform="translate(0 0) scale(1 1.22)" gradientUnits="objectBoundingBox">
      <stop offset="0" stop-color="#864bf6"/>
      <stop offset="1" stop-color="#501eaf"/>
    </radialGradient>
  </defs>
  <path id="Icon_awesome-drupal" data-name="Icon awesome-drupal" d="M46.064,14.779c-3.383-2.134-6.629-2.972-9.86-5.105-1.981-1.341-4.77-4.572-7.086-7.361-.411,4.465-1.753,6.279-3.353,7.544-3.246,2.591-5.3,3.383-8.153,4.922C15.2,16.044,2.25,24.959,2.25,41.571c0,16.642,13.99,28.879,29.534,28.879,15.5,0,28.986-11.277,28.986-28.346C60.77,24.99,48.121,16.044,46.064,14.779Zm.381,49.62c-3.063,3.063-13.731,4.374-17.785.64-.732-.731.046-1.829.991-1.829,0,0,2.591,2.027,7.848,2.027,4.115,0,7.01-1.173,8.306-2.134C46.734,62.4,47.085,63.759,46.445,64.4Zm-8.306-8.016c1.326-.549,4.419-.579,5.608.2.625.427,2.454,2.865.945,3.612-1.28.64-.183-2.393-4.038-2.393a5.318,5.318,0,0,0-4.069,1.676c-1.067.914-1.493,1.219-1.859.716C33.811,58.944,37.149,56.795,38.139,56.383Zm14.1,2.636c-2.316-.152-6.934-7.437-9.906-7.544-4.709-.137-15.864,12.3-24.582,6.4-5.913-4.054-2.225-15.971,7.894-16.032,7.544-.076,12.771,7.467,16.535,7.391,3.246-.046,9.418-6.37,12.466-6.37C62.066,42.866,58.195,59.523,52.236,59.02Z" transform="translate(-2.25 -2.313)" fill="url(#radial-gradient)"/>
</svg>
