<svg xmlns="http://www.w3.org/2000/svg" xmlns:xlink="http://www.w3.org/1999/xlink" width="65.882" height="74.026" viewBox="0 0 65.882 74.026">
  <defs>
    <radialGradient id="radial-gradient" cx="0.211" cy="0.077" r="0.82" gradientTransform="translate(0 0) scale(1 1.22)" gradientUnits="objectBoundingBox">
      <stop offset="0" stop-color="#864bf6"/>
      <stop offset="1" stop-color="#501eaf"/>
    </radialGradient>
  </defs>
  <path id="Icon_simple-graphql" data-name="Icon simple-graphql" d="M41.247,8.485l15.221,8.791a6.594,6.594,0,1,1,6.338,10.953V45.806a6.6,6.6,0,1,1-6.493,10.8L41.186,65.346a6.6,6.6,0,1,1-12.594.213L13.368,56.778A6.6,6.6,0,1,1,7.038,45.8l0-17.578a6.6,6.6,0,1,1,4.842-12.128,6.42,6.42,0,0,1,1.481,1.163L28.6,8.467a6.6,6.6,0,1,1,12.652.018ZM39.659,11.19a2.448,2.448,0,0,1-.179.179L59.408,45.884c.08-.028.173-.049.253-.071V28.21a6.585,6.585,0,0,1-4.805-7.982c.019-.074.037-.151.059-.222L39.659,11.19Zm-9.3.182-.185-.185-15.255,8.8a6.588,6.588,0,0,1-4.506,8.158c-.08.025-.157.043-.234.065V45.813l.259.071L30.366,11.369l-.006,0Zm6.4,1.564a6.651,6.651,0,0,1-3.677,0L13.161,47.447a6.692,6.692,0,0,1,1.851,3.211H54.834a6.635,6.635,0,0,1,1.86-3.22l-19.931-34.5ZM39.8,62.987l15.154-8.754c-.046-.145-.083-.29-.117-.438H15l-.065.256,15.234,8.8a6.611,6.611,0,0,1,9.633.139Z" transform="translate(-1.98 0)" fill="url(#radial-gradient)"/>
</svg>
