<svg xmlns="http://www.w3.org/2000/svg" xmlns:xlink="http://www.w3.org/1999/xlink" width="74.025" height="74.026" viewBox="0 0 74.025 74.026">
  <defs>
    <radialGradient id="radial-gradient" cx="0.211" cy="0.077" r="0.82" gradientTransform="translate(0 0) scale(1 1.22)" gradientUnits="objectBoundingBox">
      <stop offset="0" stop-color="#864bf6"/>
      <stop offset="1" stop-color="#501eaf"/>
    </radialGradient>
  </defs>
  <path id="Icon_simple-javascript" data-name="Icon simple-javascript" d="M0,0H74.025V74.026H0ZM67.961,56.371c-.54-3.377-2.739-6.215-9.262-8.861-2.27-1.064-4.793-1.8-5.543-3.516a3.642,3.642,0,0,1-.142-2.175c.463-1.993,2.822-2.591,4.673-2.036a5.018,5.018,0,0,1,3.01,2.776c3.189-2.085,3.189-2.085,5.413-3.47A12.73,12.73,0,0,0,64.3,36.683c-1.943-2.175-4.531-3.285-8.741-3.189l-2.174.275a9.943,9.943,0,0,0-5.274,3.1c-3.516,3.982-2.5,10.922,1.755,13.79,4.21,3.146,10.367,3.837,11.153,6.8.74,3.609-2.683,4.765-6.064,4.349-2.5-.555-3.886-1.807-5.413-4.121L43.9,60.929a12.473,12.473,0,0,0,2.5,3.421c5.367,5.416,18.784,5.139,21.193-3.1a10.439,10.439,0,0,0,.228-5.089l.142.207ZM40.254,34.024H33.321c0,5.978-.028,11.918-.028,17.9,0,3.8.194,7.288-.426,8.362-1.018,2.125-3.64,1.854-4.83,1.481a5.951,5.951,0,0,1-2.56-2.637,2.646,2.646,0,0,0-.392-.6L19.456,62a10.91,10.91,0,0,0,4.084,4.679,13.574,13.574,0,0,0,9.892,1.249,8.663,8.663,0,0,0,5.586-4.352c1.573-2.868,1.24-6.385,1.225-10.32.037-6.335,0-12.674,0-19.059l.012-.173Z" fill="url(#radial-gradient)"/>
</svg>
