<svg xmlns="http://www.w3.org/2000/svg" xmlns:xlink="http://www.w3.org/1999/xlink" width="74.022" height="74.021" viewBox="0 0 74.022 74.021">
  <defs>
    <radialGradient id="radial-gradient" cx="0.211" cy="0.077" r="0.82" gradientTransform="translate(0 0) scale(1 1.22)" gradientUnits="objectBoundingBox">
      <stop offset="0" stop-color="#864bf6"/>
      <stop offset="1" stop-color="#501eaf"/>
    </radialGradient>
  </defs>
  <path id="Icon_simple-next-dot-js" data-name="Icon simple-next-dot-js" d="M54.941,69.4c-.275.145-.259.2.015.065a.7.7,0,0,0,.216-.145c0-.049-.006-.043-.231.08Zm.549-.29c-.13.1-.13.108.028.028a.444.444,0,0,0,.16-.108C55.678,68.973,55.641,68.988,55.49,69.111Zm.361-.219c-.13.1-.13.108.028.028a.444.444,0,0,0,.16-.108C56.039,68.754,56,68.769,55.851,68.892Zm.361-.216c-.13.1-.13.108.028.028a.444.444,0,0,0,.16-.108C56.4,68.538,56.363,68.553,56.211,68.677Zm.5-.324c-.253.16-.333.268-.108.145.16-.093.419-.29.376-.3a1.437,1.437,0,0,0-.268.151ZM34.587.015c-.16.015-.666.065-1.123.1a37.092,37.092,0,0,0-26.6,15.339A36.63,36.63,0,0,0,.335,31.627,28.378,28.378,0,0,0,0,37.018,28.4,28.4,0,0,0,.335,42.41a37.164,37.164,0,0,0,25.317,29.9,39.106,39.106,0,0,0,7.813,1.619,67.973,67.973,0,0,0,7.091,0,37.364,37.364,0,0,0,13.334-3.9c.635-.327.759-.413.672-.484q-3.042-4.019-6.027-8.081l-5.919-7.995L35.2,42.5q-3.7-5.508-7.467-10.968c-.028-.006-.059,4.87-.071,10.823-.022,10.425-.028,10.845-.16,11.091a1.308,1.308,0,0,1-.635.657c-.231.117-.435.139-1.527.139H24.087l-.333-.21a1.363,1.363,0,0,1-.484-.527l-.151-.327.015-14.506.022-14.512.225-.281a1.965,1.965,0,0,1,.537-.441c.3-.145.413-.16,1.666-.16,1.477,0,1.721.059,2.107.478q4.5,6.7,8.929,13.451c4.805,7.285,11.372,17.232,14.6,22.118l5.86,8.877.3-.194a38.062,38.062,0,0,0,7.6-6.672,36.828,36.828,0,0,0,8.71-18.92,28.378,28.378,0,0,0,.333-5.392,28.4,28.4,0,0,0-.333-5.392A37.164,37.164,0,0,0,48.374,1.73a38.715,38.715,0,0,0-7.7-1.613c-.694-.071-5.478-.151-6.076-.093ZM49.737,22.4a1.453,1.453,0,0,1,.731.854c.059.188.071,4.21.059,13.275l-.022,13.01-2.295-3.516-2.3-3.516V33.052c0-6.113.028-9.549.071-9.716a1.493,1.493,0,0,1,.716-.913c.3-.151.4-.167,1.542-.167C49.309,22.256,49.5,22.272,49.737,22.4Z" transform="translate(-0.001 -0.004)" fill="url(#radial-gradient)"/>
</svg>
