<svg xmlns="http://www.w3.org/2000/svg" xmlns:xlink="http://www.w3.org/1999/xlink" width="64.599" height="72.862" viewBox="0 0 64.599 72.862">
  <defs>
    <radialGradient id="radial-gradient" cx="0.211" cy="0.077" r="0.82" gradientTransform="translate(0 0) scale(1 1.22)" gradientUnits="objectBoundingBox">
      <stop offset="0" stop-color="#864bf6"/>
      <stop offset="1" stop-color="#501eaf"/>
    </radialGradient>
  </defs>
  <path id="Icon_awesome-node-js" data-name="Icon awesome-node-js" d="M32.334,73.147a5.663,5.663,0,0,1-2.8-.752l-8.921-5.277c-1.33-.752-.68-1.012-.246-1.157A17.572,17.572,0,0,0,24.4,64.125a.652.652,0,0,1,.665.058l6.853,4.063a.837.837,0,0,0,.824,0l26.7-15.412a.856.856,0,0,0,.4-.723V21.285a.861.861,0,0,0-.419-.737L32.739,5.15a.837.837,0,0,0-.824,0L5.24,20.562a.844.844,0,0,0-.419.737V52.11a.8.8,0,0,0,.419.708l7.316,4.222c3.976,1.981,6.4-.347,6.4-2.7V23.917a.765.765,0,0,1,.781-.766h3.383a.774.774,0,0,1,.781.766V54.351c0,5.292-2.892,8.328-7.909,8.328-1.547,0-2.761,0-6.145-1.677l-7-4.034A5.622,5.622,0,0,1,.049,52.1V21.285a5.64,5.64,0,0,1,2.8-4.872L29.529,1a5.854,5.854,0,0,1,5.61,0l26.7,15.427a5.622,5.622,0,0,1,2.8,4.872V52.11a5.657,5.657,0,0,1-2.8,4.872l-26.7,15.412A5.623,5.623,0,0,1,32.334,73.147ZM53.891,42.77c0-5.769-3.9-7.3-12.1-8.386-8.3-1.1-9.138-1.663-9.138-3.6,0-1.6.708-3.745,6.853-3.745,5.48,0,7.5,1.186,8.342,4.887a.774.774,0,0,0,.752.607h3.47a.755.755,0,0,0,.564-.246.8.8,0,0,0,.2-.593c-.535-6.376-4.771-9.34-13.33-9.34-7.619,0-12.159,3.21-12.159,8.6,0,5.841,4.525,7.46,11.827,8.183,8.747.853,9.427,2.14,9.427,3.86,0,2.978-2.4,4.251-8.024,4.251-7.07,0-8.617-1.778-9.138-5.292a.765.765,0,0,0-.766-.651H27.216a.762.762,0,0,0-.766.766c0,4.5,2.443,9.86,14.14,9.86,8.444-.014,13.3-3.354,13.3-9.166Z" transform="translate(-0.049 -0.285)" fill="url(#radial-gradient)"/>
</svg>
