<svg xmlns="http://www.w3.org/2000/svg" xmlns:xlink="http://www.w3.org/1999/xlink" width="74.025" height="64.776" viewBox="0 0 74.025 64.776">
  <defs>
    <radialGradient id="radial-gradient" cx="0.211" cy="0.077" r="0.82" gradientTransform="translate(0 0) scale(1 1.22)" gradientUnits="objectBoundingBox">
      <stop offset="0" stop-color="#864bf6"/>
      <stop offset="1" stop-color="#501eaf"/>
    </radialGradient>
  </defs>
  <path id="Icon_awesome-react" data-name="Icon awesome-react" d="M60.464,23.242q-1.171-.39-2.342-.737c.13-.535.246-1.07.361-1.6,1.778-8.617.607-15.542-3.34-17.827-3.8-2.183-10,.087-16.28,5.552-.622.535-1.229,1.1-1.807,1.663-.39-.376-.8-.752-1.2-1.113-6.578-5.841-13.171-8.3-17.118-6-3.788,2.2-4.916,8.718-3.325,16.873.159.81.333,1.6.535,2.415-.925.26-1.836.549-2.689.853C5.537,25.989,0,30.211,0,34.577c0,4.511,5.9,9.036,13.923,11.783.651.217,1.3.434,1.966.622-.217.867-.4,1.721-.578,2.6-1.518,8.024-.333,14.386,3.455,16.569,3.9,2.255,10.468-.058,16.858-5.653.506-.448,1.012-.911,1.518-1.4.636.622,1.3,1.214,1.966,1.793,6.188,5.321,12.3,7.475,16.077,5.292,3.9-2.255,5.176-9.094,3.528-17.422q-.2-.954-.434-1.952c.463-.13.911-.275,1.359-.419,8.342-2.762,14.386-7.229,14.386-11.812,0-4.381-5.7-8.632-13.562-11.335ZM40.9,10.967c5.378-4.684,10.4-6.521,12.68-5.2,2.443,1.4,3.383,7.07,1.851,14.516-.1.492-.2.969-.333,1.446a74.014,74.014,0,0,0-9.73-1.533,73.049,73.049,0,0,0-6.159-7.677C39.774,11.979,40.324,11.473,40.9,10.967ZM24.174,42.081c.737,1.258,1.489,2.516,2.284,3.745a65.468,65.468,0,0,1-6.709-1.084,67.539,67.539,0,0,1,2.357-6.434c.665,1.272,1.345,2.53,2.068,3.774ZM19.793,24.688c2.082-.463,4.294-.839,6.593-1.128-.766,1.2-1.518,2.429-2.227,3.672s-1.4,2.487-2.053,3.759c-.911-2.154-1.677-4.265-2.313-6.3Zm3.962,9.962c.954-2,2-3.947,3.094-5.87s2.284-3.788,3.528-5.624c2.169-.159,4.381-.246,6.636-.246s4.482.087,6.636.246q1.843,2.733,3.513,5.6T50.3,34.592q-1.453,2.993-3.123,5.9c-1.1,1.923-2.27,3.788-3.5,5.639-2.154.159-4.4.231-6.665.231s-4.468-.072-6.593-.2Q28.533,43.4,26.863,40.52c-1.113-1.923-2.14-3.875-3.108-5.87Zm26.111,7.4c.737-1.272,1.431-2.559,2.111-3.86a67.116,67.116,0,0,1,2.443,6.4,63.5,63.5,0,0,1-6.8,1.157C48.406,44.539,49.143,43.3,49.866,42.052Zm2.082-11.06c-.68-1.272-1.374-2.545-2.1-3.788s-1.446-2.443-2.212-3.643a66.534,66.534,0,0,1,6.636,1.157,63.986,63.986,0,0,1-2.328,6.275ZM37.042,14.726a63.489,63.489,0,0,1,4.28,5.176c-2.863-.13-5.74-.13-8.6,0C34.136,18.037,35.6,16.3,37.042,14.726ZM20.27,5.864c2.429-1.417,7.822.607,13.5,5.639.361.318.723.665,1.1,1.012a73.455,73.455,0,0,0-6.2,7.677,76.213,76.213,0,0,0-9.716,1.5c-.188-.737-.347-1.489-.506-2.241-1.359-7-.463-12.275,1.822-13.591ZM16.728,43.975c-.607-.173-1.2-.361-1.793-.564A29.488,29.488,0,0,1,5.827,38.9a6.488,6.488,0,0,1-2.718-4.323c0-2.646,4.569-6.029,11.162-8.328.824-.289,1.663-.549,2.5-.8a76.88,76.88,0,0,0,3.542,9.2,79.031,79.031,0,0,0-3.586,9.325ZM33.586,58.144a26.463,26.463,0,0,1-8.154,5.1,6.4,6.4,0,0,1-5.1.188c-2.3-1.33-3.253-6.434-1.952-13.3.159-.81.333-1.619.535-2.415a72.329,72.329,0,0,0,9.817,1.417,76.3,76.3,0,0,0,6.246,7.721C34.511,57.306,34.049,57.739,33.586,58.144Zm3.542-3.513c-1.475-1.59-2.949-3.354-4.381-5.248,1.388.058,2.819.087,4.265.087,1.489,0,2.949-.029,4.4-.1a62.351,62.351,0,0,1-4.28,5.263Zm18.9,4.337a6.426,6.426,0,0,1-2.386,4.525c-2.3,1.33-7.2-.4-12.492-4.945-.607-.52-1.214-1.084-1.836-1.663a71.522,71.522,0,0,0,6.1-7.75,71.272,71.272,0,0,0,9.86-1.518c.145.593.275,1.186.39,1.764a26.356,26.356,0,0,1,.361,9.586Zm2.631-15.542c-.4.13-.81.26-1.229.376a73.447,73.447,0,0,0-3.687-9.224,73.082,73.082,0,0,0,3.542-9.094c.752.217,1.475.448,2.169.68,6.737,2.313,11.465,5.754,11.465,8.386,0,2.834-5.046,6.492-12.26,8.877ZM37.013,41.257a6.622,6.622,0,1,0-6.622-6.622A6.621,6.621,0,0,0,37.013,41.257Z" transform="translate(0 -2.251)" fill="url(#radial-gradient)"/>
</svg>
