<svg xmlns="http://www.w3.org/2000/svg" xmlns:xlink="http://www.w3.org/1999/xlink" width="74.025" height="74.026" viewBox="0 0 74.025 74.026">
  <defs>
    <radialGradient id="radial-gradient" cx="0.211" cy="0.077" r="0.82" gradientTransform="translate(0 0) scale(1 1.22)" gradientUnits="objectBoundingBox">
      <stop offset="0" stop-color="#864bf6"/>
      <stop offset="1" stop-color="#501eaf"/>
    </radialGradient>
  </defs>
  <path id="Icon_simple-typescript" data-name="Icon simple-typescript" d="M0,37.013V74.026H74.025V0H0Zm59.655-2.949a9.2,9.2,0,0,1,4.63,2.668,11.967,11.967,0,0,1,1.774,2.375c.025.093-3.2,2.252-5.145,3.464-.071.046-.355-.259-.669-.728a4.2,4.2,0,0,0-3.479-2.091c-2.245-.154-3.689,1.021-3.677,2.983a2.714,2.714,0,0,0,.315,1.388C53.9,45.143,54.816,45.757,57.69,47c5.3,2.282,7.569,3.785,8.979,5.922a10.745,10.745,0,0,1,.857,9.025c-1.172,3.078-4.087,5.169-8.189,5.86a22.587,22.587,0,0,1-5.638-.056,13.612,13.612,0,0,1-7.532-3.926,13.038,13.038,0,0,1-1.928-2.853,4.876,4.876,0,0,1,.679-.435c.333-.188,1.576-.907,2.751-1.588L49.8,57.715l.447.66a9.945,9.945,0,0,0,2.807,2.69c2.363,1.246,5.6,1.07,7.2-.364a3.211,3.211,0,0,0,.41-4.1c-.574-.82-1.749-1.511-5.086-2.961-3.818-1.644-5.462-2.665-6.968-4.287a9.762,9.762,0,0,1-2.033-3.7,14.888,14.888,0,0,1-.13-4.722c.787-3.692,3.572-6.261,7.591-7.026a18.736,18.736,0,0,1,5.617.163ZM42.278,37.155l.025,3.032H32.664V67.564H25.847V40.187H16.218V37.213a29.584,29.584,0,0,1,.08-3.054c.037-.049,5.9-.074,13.007-.062l12.939.037Z" fill="url(#radial-gradient)"/>
</svg>
