<svg xmlns="http://www.w3.org/2000/svg" xmlns:xlink="http://www.w3.org/1999/xlink" width="68.135" height="68.135" viewBox="0 0 68.135 68.135">
  <defs>
    <radialGradient id="radial-gradient" cx="0.211" cy="0.077" r="0.82" gradientTransform="translate(0 0) scale(1 1.22)" gradientUnits="objectBoundingBox">
      <stop offset="0" stop-color="#864bf6"/>
      <stop offset="1" stop-color="#501eaf"/>
    </radialGradient>
  </defs>
  <path id="Icon_awesome-wordpress-simple" data-name="Icon awesome-wordpress-simple" d="M34.63.563A34.068,34.068,0,1,0,68.7,34.63,34.106,34.106,0,0,0,34.63.563ZM4,34.63A30.419,30.419,0,0,1,6.648,22.171L21.264,62.2A30.656,30.656,0,0,1,4,34.63ZM34.63,65.264a30.513,30.513,0,0,1-8.654-1.25l9.19-26.7,9.41,25.8a4.141,4.141,0,0,0,.22.426A30.667,30.667,0,0,1,34.63,65.264Zm4.217-44.989c1.841-.1,3.5-.288,3.5-.288a1.268,1.268,0,0,0-.192-2.528s-4.959.385-8.16.385c-3.008,0-8.064-.385-8.064-.385a1.268,1.268,0,0,0-.192,2.528s1.566.192,3.214.288l4.767,13.078-6.7,20.1L15.865,20.275c1.841-.1,3.5-.288,3.5-.288a1.268,1.268,0,0,0-.192-2.528s-4.959.385-8.16.385c-.577,0-1.25-.014-1.978-.041a30.633,30.633,0,0,1,46.28-5.77,3.881,3.881,0,0,0-.4-.027,5.3,5.3,0,0,0-5.138,5.44c0,2.528,1.456,4.657,3.008,7.184a16.076,16.076,0,0,1,2.528,8.448c0,2.624-1,5.66-2.335,9.9l-3.05,10.207L38.847,20.275ZM50.029,61.1l9.355-27.048a28.974,28.974,0,0,0,2.335-10.976,22.545,22.545,0,0,0-.206-3.146A30.635,30.635,0,0,1,50.029,61.1Z" transform="translate(-0.563 -0.563)" fill="url(#radial-gradient)"/>
</svg>
