<svg id="Icon_awesome-linkedin-in" data-name="Icon awesome-linkedin-in" xmlns="http://www.w3.org/2000/svg" width="32.349" height="32.348" viewBox="0 0 32.349 32.348">
  <path id="Icon_awesome-linkedin-in-2" data-name="Icon awesome-linkedin-in" d="M7.241,32.349H.534v-21.6H7.241ZM3.884,7.806A3.9,3.9,0,1,1,7.768,3.885,3.917,3.917,0,0,1,3.884,7.806ZM32.342,32.349H25.65V21.836c0-2.506-.051-5.719-3.487-5.719-3.487,0-4.021,2.722-4.021,5.538V32.349h-6.7v-21.6h6.432V13.7h.094a7.047,7.047,0,0,1,6.346-3.488c6.788,0,8.035,4.47,8.035,10.275V32.349Z" transform="translate(0 -0.001)" fill="#7e7e7e"/>
</svg>
