<svg xmlns="http://www.w3.org/2000/svg" width="17.64" height="13.23" viewBox="0 0 17.64 13.23">
  <path id="Icon_awesome-envelope" data-name="Icon awesome-envelope" d="M17.306,8.869a.207.207,0,0,1,.334.162v7.046a1.654,1.654,0,0,1-1.654,1.654H1.654A1.654,1.654,0,0,1,0,16.076V9.034a.206.206,0,0,1,.334-.162c.772.6,1.8,1.361,5.309,3.914.727.531,1.954,1.647,3.177,1.64,1.23.01,2.481-1.13,3.18-1.64C15.514,10.233,16.534,9.468,17.306,8.869ZM8.82,13.32c.8.014,1.95-1.006,2.529-1.426,4.572-3.318,4.92-3.607,5.974-4.434a.824.824,0,0,0,.317-.651V6.154A1.654,1.654,0,0,0,15.986,4.5H1.654A1.654,1.654,0,0,0,0,6.154v.655a.83.83,0,0,0,.317.651c1.054.823,1.4,1.116,5.974,4.434C6.87,12.314,8.021,13.334,8.82,13.32Z" transform="translate(0 -4.5)" fill="#fff"/>
</svg>
