<svg id="Icon_awesome-twitter" data-name="Icon awesome-twitter" xmlns="http://www.w3.org/2000/svg" width="38.767" height="31.486" viewBox="0 0 38.767 31.486">
  <path id="Icon_awesome-twitter-2" data-name="Icon awesome-twitter" d="M34.783,11.228c.025.344.025.689.025,1.033,0,10.5-7.995,22.606-22.606,22.606A22.453,22.453,0,0,1,0,31.3a16.437,16.437,0,0,0,1.919.1A15.912,15.912,0,0,0,11.783,28a7.959,7.959,0,0,1-7.429-5.51,10.019,10.019,0,0,0,1.5.123,8.4,8.4,0,0,0,2.091-.271,7.946,7.946,0,0,1-6.371-7.8v-.1a8,8,0,0,0,3.591,1.008A7.957,7.957,0,0,1,2.706,4.832a22.584,22.584,0,0,0,16.383,8.314,8.969,8.969,0,0,1-.2-1.82A7.953,7.953,0,0,1,32.642,5.89a15.643,15.643,0,0,0,5.043-1.919A7.924,7.924,0,0,1,34.192,8.35a15.928,15.928,0,0,0,4.575-1.23,17.079,17.079,0,0,1-3.985,4.108Z" transform="translate(0 -3.381)" fill="#7e7e7e"/>
</svg>
