<?xml version="1.0" encoding="utf-8"?>
<!-- Generator: Adobe Illustrator 25.2.1, SVG Export Plug-In . SVG Version: 6.00 Build 0)  -->
<svg version="1.1" id="Warstwa_1" xmlns="http://www.w3.org/2000/svg" xmlns:xlink="http://www.w3.org/1999/xlink" x="0px" y="0px"
	 viewBox="0 0 57 54" style="enable-background:new 0 0 57 54;" xml:space="preserve">
<style type="text/css">
	.st0{fill:url(#SVGID_1_);}
	.st1{fill:url(#SVGID_2_);}
	.st2{fill:url(#SVGID_3_);}
	.st3{fill:url(#SVGID_4_);}
	.st4{fill:url(#SVGID_5_);}
	.st5{fill:url(#SVGID_6_);}
	.st6{fill:url(#SVGID_7_);}
	.st7{fill:url(#SVGID_8_);}
	.st8{fill:url(#SVGID_9_);}
	.st9{fill:url(#SVGID_10_);}
	.st10{fill:url(#SVGID_11_);}
	.st11{fill:url(#SVGID_12_);}
	.st12{fill:url(#SVGID_13_);}
	.st13{fill:url(#SVGID_14_);}
	.st14{fill:url(#SVGID_15_);}
	.st15{fill:url(#SVGID_16_);}
	.st16{fill:url(#SVGID_17_);}
	.st17{fill:url(#SVGID_18_);}
	.st18{fill:url(#SVGID_19_);}
	.st19{fill:url(#SVGID_20_);}
	.st20{fill:url(#SVGID_21_);}
	.st21{fill:url(#SVGID_22_);}
	.st22{fill:url(#SVGID_23_);}
	.st23{fill:url(#SVGID_24_);}
	.st24{fill:url(#SVGID_25_);}
	.st25{fill:url(#SVGID_26_);}
	.st26{fill:url(#SVGID_27_);}
	.st27{fill:url(#SVGID_28_);}
	.st28{fill:url(#SVGID_29_);}
	.st29{fill:url(#SVGID_30_);}
	.st30{fill:url(#SVGID_31_);}
	.st31{fill:url(#SVGID_32_);}
	.st32{fill:url(#SVGID_33_);}
	.st33{fill:url(#SVGID_34_);}
	.st34{fill:url(#SVGID_35_);}
	.st35{fill:url(#SVGID_36_);}
	.st36{fill:url(#SVGID_37_);}
	.st37{fill:url(#SVGID_38_);}
	.st38{fill:url(#SVGID_39_);}
	.st39{fill:url(#SVGID_40_);}
	.st40{fill:url(#SVGID_41_);}
	.st41{fill:url(#SVGID_42_);}
	.st42{fill:url(#SVGID_43_);}
	.st43{fill:url(#SVGID_44_);}
	.st44{fill:url(#SVGID_45_);}
	.st45{fill:url(#SVGID_46_);}
	.st46{fill:url(#SVGID_47_);}
	.st47{fill:url(#SVGID_48_);}
	.st48{fill:url(#SVGID_49_);}
	.st49{fill-rule:evenodd;clip-rule:evenodd;fill:#FFFFFF;}
	.st50{fill:#FFFFFF;filter:url(#Adobe_OpacityMaskFilter);}
	.st51{fill-rule:evenodd;clip-rule:evenodd;}
	.st52{mask:url(#path-1-outside-1_1_);fill:#FFFFFF;}
</style>
<g>
	<g>
		
			<linearGradient id="SVGID_1_" gradientUnits="userSpaceOnUse" x1="0.348" y1="47.8049" x2="3.5507" y2="47.8049" gradientTransform="matrix(1 0 0 -1 0 56)">
			<stop  offset="0" style="stop-color:#414243"/>
			<stop  offset="1" style="stop-color:#3D3D3F"/>
		</linearGradient>
		<circle class="st0" cx="2" cy="8.2" r="1.6"/>
		
			<linearGradient id="SVGID_2_" gradientUnits="userSpaceOnUse" x1="7.6227" y1="47.8049" x2="10.8254" y2="47.8049" gradientTransform="matrix(1 0 0 -1 0 56)">
			<stop  offset="0" style="stop-color:#414243"/>
			<stop  offset="1" style="stop-color:#3D3D3F"/>
		</linearGradient>
		<circle class="st1" cx="9.2" cy="8.2" r="1.6"/>
		
			<linearGradient id="SVGID_3_" gradientUnits="userSpaceOnUse" x1="14.8974" y1="47.8049" x2="18.1001" y2="47.8049" gradientTransform="matrix(1 0 0 -1 0 56)">
			<stop  offset="0" style="stop-color:#414243"/>
			<stop  offset="1" style="stop-color:#3D3D3F"/>
		</linearGradient>
		<circle class="st2" cx="16.5" cy="8.2" r="1.6"/>
		
			<linearGradient id="SVGID_4_" gradientUnits="userSpaceOnUse" x1="22.1721" y1="47.8049" x2="25.3748" y2="47.8049" gradientTransform="matrix(1 0 0 -1 0 56)">
			<stop  offset="0" style="stop-color:#414243"/>
			<stop  offset="1" style="stop-color:#3D3D3F"/>
		</linearGradient>
		<circle class="st3" cx="23.8" cy="8.2" r="1.6"/>
		
			<linearGradient id="SVGID_5_" gradientUnits="userSpaceOnUse" x1="29.4468" y1="47.8049" x2="32.6495" y2="47.8049" gradientTransform="matrix(1 0 0 -1 0 56)">
			<stop  offset="0" style="stop-color:#414243"/>
			<stop  offset="1" style="stop-color:#3D3D3F"/>
		</linearGradient>
		<circle class="st4" cx="31" cy="8.2" r="1.6"/>
		
			<linearGradient id="SVGID_6_" gradientUnits="userSpaceOnUse" x1="36.7215" y1="47.8049" x2="39.9242" y2="47.8049" gradientTransform="matrix(1 0 0 -1 0 56)">
			<stop  offset="0" style="stop-color:#414243"/>
			<stop  offset="1" style="stop-color:#3D3D3F"/>
		</linearGradient>
		<circle class="st5" cx="38.3" cy="8.2" r="1.6"/>
		
			<linearGradient id="SVGID_7_" gradientUnits="userSpaceOnUse" x1="43.9962" y1="47.8049" x2="47.1989" y2="47.8049" gradientTransform="matrix(1 0 0 -1 0 56)">
			<stop  offset="0" style="stop-color:#414243"/>
			<stop  offset="1" style="stop-color:#3D3D3F"/>
		</linearGradient>
		<circle class="st6" cx="45.6" cy="8.2" r="1.6"/>
	</g>
	<g>
		
			<linearGradient id="SVGID_8_" gradientUnits="userSpaceOnUse" x1="0.348" y1="40.5316" x2="3.5507" y2="40.5316" gradientTransform="matrix(1 0 0 -1 0 56)">
			<stop  offset="0" style="stop-color:#414243"/>
			<stop  offset="1" style="stop-color:#3D3D3F"/>
		</linearGradient>
		<circle class="st7" cx="2" cy="15.5" r="1.6"/>
		
			<linearGradient id="SVGID_9_" gradientUnits="userSpaceOnUse" x1="7.6227" y1="40.5316" x2="10.8254" y2="40.5316" gradientTransform="matrix(1 0 0 -1 0 56)">
			<stop  offset="0" style="stop-color:#414243"/>
			<stop  offset="1" style="stop-color:#3D3D3F"/>
		</linearGradient>
		<circle class="st8" cx="9.2" cy="15.5" r="1.6"/>
		
			<linearGradient id="SVGID_10_" gradientUnits="userSpaceOnUse" x1="14.8974" y1="40.5316" x2="18.1001" y2="40.5316" gradientTransform="matrix(1 0 0 -1 0 56)">
			<stop  offset="0" style="stop-color:#414243"/>
			<stop  offset="1" style="stop-color:#3D3D3F"/>
		</linearGradient>
		<circle class="st9" cx="16.5" cy="15.5" r="1.6"/>
		
			<linearGradient id="SVGID_11_" gradientUnits="userSpaceOnUse" x1="22.1721" y1="40.5316" x2="25.3748" y2="40.5316" gradientTransform="matrix(1 0 0 -1 0 56)">
			<stop  offset="0" style="stop-color:#414243"/>
			<stop  offset="1" style="stop-color:#3D3D3F"/>
		</linearGradient>
		<circle class="st10" cx="23.8" cy="15.5" r="1.6"/>
		
			<linearGradient id="SVGID_12_" gradientUnits="userSpaceOnUse" x1="29.4468" y1="40.5316" x2="32.6495" y2="40.5316" gradientTransform="matrix(1 0 0 -1 0 56)">
			<stop  offset="0" style="stop-color:#414243"/>
			<stop  offset="1" style="stop-color:#3D3D3F"/>
		</linearGradient>
		<circle class="st11" cx="31" cy="15.5" r="1.6"/>
		
			<linearGradient id="SVGID_13_" gradientUnits="userSpaceOnUse" x1="36.7215" y1="40.5316" x2="39.9242" y2="40.5316" gradientTransform="matrix(1 0 0 -1 0 56)">
			<stop  offset="0" style="stop-color:#414243"/>
			<stop  offset="1" style="stop-color:#3D3D3F"/>
		</linearGradient>
		<circle class="st12" cx="38.3" cy="15.5" r="1.6"/>
		
			<linearGradient id="SVGID_14_" gradientUnits="userSpaceOnUse" x1="43.9962" y1="40.5316" x2="47.1989" y2="40.5316" gradientTransform="matrix(1 0 0 -1 0 56)">
			<stop  offset="0" style="stop-color:#414243"/>
			<stop  offset="1" style="stop-color:#3D3D3F"/>
		</linearGradient>
		<circle class="st13" cx="45.6" cy="15.5" r="1.6"/>
	</g>
	<g>
		
			<linearGradient id="SVGID_15_" gradientUnits="userSpaceOnUse" x1="0.348" y1="33.2905" x2="3.5507" y2="33.2905" gradientTransform="matrix(1 0 0 -1 0 56)">
			<stop  offset="0" style="stop-color:#414243"/>
			<stop  offset="1" style="stop-color:#3D3D3F"/>
		</linearGradient>
		<circle class="st14" cx="2" cy="22.7" r="1.6"/>
		
			<linearGradient id="SVGID_16_" gradientUnits="userSpaceOnUse" x1="7.6227" y1="33.2905" x2="10.8254" y2="33.2905" gradientTransform="matrix(1 0 0 -1 0 56)">
			<stop  offset="0" style="stop-color:#414243"/>
			<stop  offset="1" style="stop-color:#3D3D3F"/>
		</linearGradient>
		<circle class="st15" cx="9.2" cy="22.7" r="1.6"/>
		
			<linearGradient id="SVGID_17_" gradientUnits="userSpaceOnUse" x1="14.8974" y1="33.2905" x2="18.1001" y2="33.2905" gradientTransform="matrix(1 0 0 -1 0 56)">
			<stop  offset="0" style="stop-color:#414243"/>
			<stop  offset="1" style="stop-color:#3D3D3F"/>
		</linearGradient>
		<circle class="st16" cx="16.5" cy="22.7" r="1.6"/>
		
			<linearGradient id="SVGID_18_" gradientUnits="userSpaceOnUse" x1="22.1721" y1="33.2905" x2="25.3748" y2="33.2905" gradientTransform="matrix(1 0 0 -1 0 56)">
			<stop  offset="0" style="stop-color:#414243"/>
			<stop  offset="1" style="stop-color:#3D3D3F"/>
		</linearGradient>
		<circle class="st17" cx="23.8" cy="22.7" r="1.6"/>
		
			<linearGradient id="SVGID_19_" gradientUnits="userSpaceOnUse" x1="29.4468" y1="33.2905" x2="32.6495" y2="33.2905" gradientTransform="matrix(1 0 0 -1 0 56)">
			<stop  offset="0" style="stop-color:#414243"/>
			<stop  offset="1" style="stop-color:#3D3D3F"/>
		</linearGradient>
		<circle class="st18" cx="31" cy="22.7" r="1.6"/>
		
			<linearGradient id="SVGID_20_" gradientUnits="userSpaceOnUse" x1="36.7215" y1="33.2905" x2="39.9242" y2="33.2905" gradientTransform="matrix(1 0 0 -1 0 56)">
			<stop  offset="0" style="stop-color:#414243"/>
			<stop  offset="1" style="stop-color:#3D3D3F"/>
		</linearGradient>
		<circle class="st19" cx="38.3" cy="22.7" r="1.6"/>
		
			<linearGradient id="SVGID_21_" gradientUnits="userSpaceOnUse" x1="43.9962" y1="33.2905" x2="47.1989" y2="33.2905" gradientTransform="matrix(1 0 0 -1 0 56)">
			<stop  offset="0" style="stop-color:#414243"/>
			<stop  offset="1" style="stop-color:#3D3D3F"/>
		</linearGradient>
		<circle class="st20" cx="45.6" cy="22.7" r="1.6"/>
	</g>
	<g>
		
			<linearGradient id="SVGID_22_" gradientUnits="userSpaceOnUse" x1="0.348" y1="26.0493" x2="3.5507" y2="26.0493" gradientTransform="matrix(1 0 0 -1 0 56)">
			<stop  offset="0" style="stop-color:#414243"/>
			<stop  offset="1" style="stop-color:#3D3D3F"/>
		</linearGradient>
		<circle class="st21" cx="2" cy="30" r="1.6"/>
		
			<linearGradient id="SVGID_23_" gradientUnits="userSpaceOnUse" x1="7.6227" y1="26.0493" x2="10.8254" y2="26.0493" gradientTransform="matrix(1 0 0 -1 0 56)">
			<stop  offset="0" style="stop-color:#414243"/>
			<stop  offset="1" style="stop-color:#3D3D3F"/>
		</linearGradient>
		<circle class="st22" cx="9.2" cy="30" r="1.6"/>
		
			<linearGradient id="SVGID_24_" gradientUnits="userSpaceOnUse" x1="14.8974" y1="26.0493" x2="18.1001" y2="26.0493" gradientTransform="matrix(1 0 0 -1 0 56)">
			<stop  offset="0" style="stop-color:#414243"/>
			<stop  offset="1" style="stop-color:#3D3D3F"/>
		</linearGradient>
		<circle class="st23" cx="16.5" cy="30" r="1.6"/>
		
			<linearGradient id="SVGID_25_" gradientUnits="userSpaceOnUse" x1="22.1721" y1="26.0493" x2="25.3748" y2="26.0493" gradientTransform="matrix(1 0 0 -1 0 56)">
			<stop  offset="0" style="stop-color:#414243"/>
			<stop  offset="1" style="stop-color:#3D3D3F"/>
		</linearGradient>
		<circle class="st24" cx="23.8" cy="30" r="1.6"/>
		
			<linearGradient id="SVGID_26_" gradientUnits="userSpaceOnUse" x1="29.4468" y1="26.0493" x2="32.6495" y2="26.0493" gradientTransform="matrix(1 0 0 -1 0 56)">
			<stop  offset="0" style="stop-color:#414243"/>
			<stop  offset="1" style="stop-color:#3D3D3F"/>
		</linearGradient>
		<circle class="st25" cx="31" cy="30" r="1.6"/>
		
			<linearGradient id="SVGID_27_" gradientUnits="userSpaceOnUse" x1="36.7215" y1="26.0493" x2="39.9242" y2="26.0493" gradientTransform="matrix(1 0 0 -1 0 56)">
			<stop  offset="0" style="stop-color:#414243"/>
			<stop  offset="1" style="stop-color:#3D3D3F"/>
		</linearGradient>
		<circle class="st26" cx="38.3" cy="30" r="1.6"/>
		
			<linearGradient id="SVGID_28_" gradientUnits="userSpaceOnUse" x1="43.9962" y1="26.0493" x2="47.1989" y2="26.0493" gradientTransform="matrix(1 0 0 -1 0 56)">
			<stop  offset="0" style="stop-color:#414243"/>
			<stop  offset="1" style="stop-color:#3D3D3F"/>
		</linearGradient>
		<circle class="st27" cx="45.6" cy="30" r="1.6"/>
	</g>
	<g>
		
			<linearGradient id="SVGID_29_" gradientUnits="userSpaceOnUse" x1="0.348" y1="18.8082" x2="3.5507" y2="18.8082" gradientTransform="matrix(1 0 0 -1 0 56)">
			<stop  offset="0" style="stop-color:#414243"/>
			<stop  offset="1" style="stop-color:#3D3D3F"/>
		</linearGradient>
		<circle class="st28" cx="2" cy="37.2" r="1.6"/>
		
			<linearGradient id="SVGID_30_" gradientUnits="userSpaceOnUse" x1="7.6227" y1="18.8082" x2="10.8254" y2="18.8082" gradientTransform="matrix(1 0 0 -1 0 56)">
			<stop  offset="0" style="stop-color:#414243"/>
			<stop  offset="1" style="stop-color:#3D3D3F"/>
		</linearGradient>
		<circle class="st29" cx="9.2" cy="37.2" r="1.6"/>
		
			<linearGradient id="SVGID_31_" gradientUnits="userSpaceOnUse" x1="14.8974" y1="18.8082" x2="18.1001" y2="18.8082" gradientTransform="matrix(1 0 0 -1 0 56)">
			<stop  offset="0" style="stop-color:#414243"/>
			<stop  offset="1" style="stop-color:#3D3D3F"/>
		</linearGradient>
		<circle class="st30" cx="16.5" cy="37.2" r="1.6"/>
		
			<linearGradient id="SVGID_32_" gradientUnits="userSpaceOnUse" x1="22.1721" y1="18.8082" x2="25.3748" y2="18.8082" gradientTransform="matrix(1 0 0 -1 0 56)">
			<stop  offset="0" style="stop-color:#414243"/>
			<stop  offset="1" style="stop-color:#3D3D3F"/>
		</linearGradient>
		<circle class="st31" cx="23.8" cy="37.2" r="1.6"/>
		
			<linearGradient id="SVGID_33_" gradientUnits="userSpaceOnUse" x1="29.4468" y1="18.8082" x2="32.6495" y2="18.8082" gradientTransform="matrix(1 0 0 -1 0 56)">
			<stop  offset="0" style="stop-color:#414243"/>
			<stop  offset="1" style="stop-color:#3D3D3F"/>
		</linearGradient>
		<circle class="st32" cx="31" cy="37.2" r="1.6"/>
		
			<linearGradient id="SVGID_34_" gradientUnits="userSpaceOnUse" x1="36.7215" y1="18.8082" x2="39.9242" y2="18.8082" gradientTransform="matrix(1 0 0 -1 0 56)">
			<stop  offset="0" style="stop-color:#414243"/>
			<stop  offset="1" style="stop-color:#3D3D3F"/>
		</linearGradient>
		<circle class="st33" cx="38.3" cy="37.2" r="1.6"/>
		
			<linearGradient id="SVGID_35_" gradientUnits="userSpaceOnUse" x1="43.9962" y1="18.8082" x2="47.1989" y2="18.8082" gradientTransform="matrix(1 0 0 -1 0 56)">
			<stop  offset="0" style="stop-color:#414243"/>
			<stop  offset="1" style="stop-color:#3D3D3F"/>
		</linearGradient>
		<circle class="st34" cx="45.6" cy="37.2" r="1.6"/>
	</g>
	<g>
		
			<linearGradient id="SVGID_36_" gradientUnits="userSpaceOnUse" x1="0.348" y1="11.567" x2="3.5507" y2="11.567" gradientTransform="matrix(1 0 0 -1 0 56)">
			<stop  offset="0" style="stop-color:#414243"/>
			<stop  offset="1" style="stop-color:#3D3D3F"/>
		</linearGradient>
		<circle class="st35" cx="2" cy="44.4" r="1.6"/>
		
			<linearGradient id="SVGID_37_" gradientUnits="userSpaceOnUse" x1="7.6227" y1="11.567" x2="10.8254" y2="11.567" gradientTransform="matrix(1 0 0 -1 0 56)">
			<stop  offset="0" style="stop-color:#414243"/>
			<stop  offset="1" style="stop-color:#3D3D3F"/>
		</linearGradient>
		<circle class="st36" cx="9.2" cy="44.4" r="1.6"/>
		
			<linearGradient id="SVGID_38_" gradientUnits="userSpaceOnUse" x1="14.8974" y1="11.567" x2="18.1001" y2="11.567" gradientTransform="matrix(1 0 0 -1 0 56)">
			<stop  offset="0" style="stop-color:#414243"/>
			<stop  offset="1" style="stop-color:#3D3D3F"/>
		</linearGradient>
		<circle class="st37" cx="16.5" cy="44.4" r="1.6"/>
		
			<linearGradient id="SVGID_39_" gradientUnits="userSpaceOnUse" x1="22.1721" y1="11.567" x2="25.3748" y2="11.567" gradientTransform="matrix(1 0 0 -1 0 56)">
			<stop  offset="0" style="stop-color:#414243"/>
			<stop  offset="1" style="stop-color:#3D3D3F"/>
		</linearGradient>
		<circle class="st38" cx="23.8" cy="44.4" r="1.6"/>
		
			<linearGradient id="SVGID_40_" gradientUnits="userSpaceOnUse" x1="29.4468" y1="11.567" x2="32.6495" y2="11.567" gradientTransform="matrix(1 0 0 -1 0 56)">
			<stop  offset="0" style="stop-color:#414243"/>
			<stop  offset="1" style="stop-color:#3D3D3F"/>
		</linearGradient>
		<circle class="st39" cx="31" cy="44.4" r="1.6"/>
		
			<linearGradient id="SVGID_41_" gradientUnits="userSpaceOnUse" x1="36.7215" y1="11.567" x2="39.9242" y2="11.567" gradientTransform="matrix(1 0 0 -1 0 56)">
			<stop  offset="0" style="stop-color:#414243"/>
			<stop  offset="1" style="stop-color:#3D3D3F"/>
		</linearGradient>
		<circle class="st40" cx="38.3" cy="44.4" r="1.6"/>
		
			<linearGradient id="SVGID_42_" gradientUnits="userSpaceOnUse" x1="43.9962" y1="11.567" x2="47.1989" y2="11.567" gradientTransform="matrix(1 0 0 -1 0 56)">
			<stop  offset="0" style="stop-color:#414243"/>
			<stop  offset="1" style="stop-color:#3D3D3F"/>
		</linearGradient>
		<circle class="st41" cx="45.6" cy="44.4" r="1.6"/>
	</g>
	<g>
		
			<linearGradient id="SVGID_43_" gradientUnits="userSpaceOnUse" x1="0.348" y1="4.2937" x2="3.5507" y2="4.2937" gradientTransform="matrix(1 0 0 -1 0 56)">
			<stop  offset="0" style="stop-color:#414243"/>
			<stop  offset="1" style="stop-color:#3D3D3F"/>
		</linearGradient>
		<circle class="st42" cx="2" cy="51.7" r="1.6"/>
		
			<linearGradient id="SVGID_44_" gradientUnits="userSpaceOnUse" x1="7.6227" y1="4.2937" x2="10.8254" y2="4.2937" gradientTransform="matrix(1 0 0 -1 0 56)">
			<stop  offset="0" style="stop-color:#414243"/>
			<stop  offset="1" style="stop-color:#3D3D3F"/>
		</linearGradient>
		<circle class="st43" cx="9.2" cy="51.7" r="1.6"/>
		
			<linearGradient id="SVGID_45_" gradientUnits="userSpaceOnUse" x1="14.8974" y1="4.2937" x2="18.1001" y2="4.2937" gradientTransform="matrix(1 0 0 -1 0 56)">
			<stop  offset="0" style="stop-color:#414243"/>
			<stop  offset="1" style="stop-color:#3D3D3F"/>
		</linearGradient>
		<circle class="st44" cx="16.5" cy="51.7" r="1.6"/>
		
			<linearGradient id="SVGID_46_" gradientUnits="userSpaceOnUse" x1="22.1721" y1="4.2937" x2="25.3748" y2="4.2937" gradientTransform="matrix(1 0 0 -1 0 56)">
			<stop  offset="0" style="stop-color:#414243"/>
			<stop  offset="1" style="stop-color:#3D3D3F"/>
		</linearGradient>
		<circle class="st45" cx="23.8" cy="51.7" r="1.6"/>
		
			<linearGradient id="SVGID_47_" gradientUnits="userSpaceOnUse" x1="29.4468" y1="4.2937" x2="32.6495" y2="4.2937" gradientTransform="matrix(1 0 0 -1 0 56)">
			<stop  offset="0" style="stop-color:#414243"/>
			<stop  offset="1" style="stop-color:#3D3D3F"/>
		</linearGradient>
		<circle class="st46" cx="31" cy="51.7" r="1.6"/>
		
			<linearGradient id="SVGID_48_" gradientUnits="userSpaceOnUse" x1="36.7215" y1="4.2937" x2="39.9242" y2="4.2937" gradientTransform="matrix(1 0 0 -1 0 56)">
			<stop  offset="0" style="stop-color:#414243"/>
			<stop  offset="1" style="stop-color:#3D3D3F"/>
		</linearGradient>
		<circle class="st47" cx="38.3" cy="51.7" r="1.6"/>
		
			<linearGradient id="SVGID_49_" gradientUnits="userSpaceOnUse" x1="43.9962" y1="4.2937" x2="47.1989" y2="4.2937" gradientTransform="matrix(1 0 0 -1 0 56)">
			<stop  offset="0" style="stop-color:#414243"/>
			<stop  offset="1" style="stop-color:#3D3D3F"/>
		</linearGradient>
		<circle class="st48" cx="45.6" cy="51.7" r="1.6"/>
	</g>
</g>
<path class="st49" d="M56,1.2C55.9,1.1,55.8,1,55.7,1h-3.1c-0.1,0-0.2,0.1-0.3,0.2c-0.8,1.5-6.5,11.5-6.5,11.5
	c-0.6,1.1-1.8,1.7-3,1.7c-1.2,0-2.4-0.7-3-1.7c0,0-5.7-10.1-6.5-11.5C33.1,1.1,33,1,32.9,1h-7.1c-0.1,0-0.2,0.1-0.3,0.2
	c-0.1,0.1-0.1,0.2,0,0.3c0.2,0.4,0.6,1,0.9,1.6C26.7,3.6,26.9,4,27,4.2c0.1,0.1,0.2,0.2,0.3,0.2c0.8,0,3.3,0,3.7,0c0,0,0.1,0,0.1,0
	c0.4,0.7,5.6,9.9,5.6,9.9c0.9,1.7,2.5,2.8,4.4,3.3v20.8h3.4V17.6c1.8-0.5,3.3-1.6,4.2-3.3c0,0,5.9-10.4,7.2-12.8
	C56,1.4,56,1.3,56,1.2z"/>
<defs>
	<filter id="Adobe_OpacityMaskFilter" filterUnits="userSpaceOnUse" x="25" y="0.6" width="31.4" height="38.3">
		<feColorMatrix  type="matrix" values="1 0 0 0 0  0 1 0 0 0  0 0 1 0 0  0 0 0 1 0"/>
	</filter>
</defs>
<mask maskUnits="userSpaceOnUse" x="25" y="0.6" width="31.4" height="38.3" id="path-1-outside-1_1_">
	<rect x="24.5" class="st50" width="32" height="39"/>
	<path class="st51" d="M56,1.2C55.9,1.1,55.8,1,55.7,1h-3.1c-0.1,0-0.2,0.1-0.3,0.2c-0.8,1.5-6.5,11.5-6.5,11.5
		c-0.6,1.1-1.8,1.7-3,1.7c-1.2,0-2.4-0.7-3-1.7c0,0-5.7-10.1-6.5-11.5C33.1,1.1,33,1,32.9,1h-7.1c-0.1,0-0.2,0.1-0.3,0.2
		c-0.1,0.1-0.1,0.2,0,0.3c0.2,0.4,0.6,1,0.9,1.6C26.7,3.6,26.9,4,27,4.2c0.1,0.1,0.2,0.2,0.3,0.2c0.8,0,3.3,0,3.7,0c0,0,0.1,0,0.1,0
		c0.4,0.7,5.6,9.9,5.6,9.9c0.9,1.7,2.5,2.8,4.4,3.3v20.8h3.4V17.6c1.8-0.5,3.3-1.6,4.2-3.3c0,0,5.9-10.4,7.2-12.8
		C56,1.4,56,1.3,56,1.2z"/>
</mask>
<path class="st52" d="M52.2,1.2L51.9,1l0,0L52.2,1.2z M45.7,12.7l0.4,0.2l0,0L45.7,12.7z M39.7,12.7l-0.4,0.2l0,0L39.7,12.7z
	 M33.2,1.2l-0.4,0.2l0,0l0,0L33.2,1.2z M25.5,1.2L25.1,1l0,0L25.5,1.2z M25.5,1.5l0.4-0.2l0,0L25.5,1.5z M26.4,3.1l0.4-0.2L26.4,3.1
	z M27,4.2L27.4,4l0,0l0,0L27,4.2z M27.3,4.4l0-0.4h0V4.4z M31.1,4.4l-0.4,0.2l0,0l0,0L31.1,4.4z M36.7,14.3l0.4-0.2l0,0L36.7,14.3z
	 M41,17.6h0.4v-0.3l-0.3-0.1L41,17.6z M41,38.5h-0.4v0.4H41V38.5z M44.5,38.5v0.4h0.4v-0.4H44.5z M44.5,17.6l-0.1-0.4L44,17.3v0.3
	H44.5z M48.7,14.3l-0.4-0.2v0L48.7,14.3z M56,1.5l-0.4-0.2l0,0L56,1.5z M55.7,1.4C55.7,1.4,55.6,1.4,55.7,1.4
	C55.6,1.4,55.6,1.4,55.7,1.4L56.3,1c-0.1-0.2-0.4-0.4-0.7-0.4V1.4z M52.5,1.4h3.1V0.6h-3.1V1.4z M52.6,1.4
	C52.6,1.4,52.6,1.4,52.6,1.4C52.6,1.4,52.5,1.4,52.6,1.4l-0.1-0.8c-0.3,0-0.5,0.2-0.7,0.4L52.6,1.4z M45.7,12.7
	c0.4,0.2,0.4,0.2,0.4,0.2c0,0,0,0,0,0c0,0,0,0,0,0c0,0,0,0,0,0c0,0,0,0,0,0c0,0,0,0,0-0.1c0-0.1,0.1-0.2,0.2-0.3
	c0.2-0.3,0.4-0.7,0.7-1.2c0.5-1,1.3-2.3,2-3.6c1.5-2.7,3.2-5.6,3.6-6.3L51.9,1c-0.4,0.7-2,3.6-3.6,6.3c-0.8,1.4-1.5,2.7-2,3.6
	c-0.3,0.5-0.5,0.9-0.7,1.2c-0.1,0.1-0.1,0.2-0.2,0.3c0,0,0,0.1,0,0.1c0,0,0,0,0,0c0,0,0,0,0,0c0,0,0,0,0,0c0,0,0,0,0,0
	C45.3,12.5,45.3,12.5,45.7,12.7z M42.7,14.9c1.4,0,2.7-0.7,3.4-2l-0.7-0.4c-0.5,0.9-1.5,1.5-2.6,1.5V14.9z M39.3,12.9
	c0.7,1.2,2,2,3.4,2V14c-1.1,0-2.1-0.6-2.6-1.5L39.3,12.9z M32.8,1.4c0.4,0.7,2,3.6,3.6,6.3c0.8,1.4,1.5,2.7,2,3.6
	c0.3,0.5,0.5,0.9,0.7,1.2c0.1,0.1,0.1,0.2,0.2,0.3c0,0,0,0.1,0,0.1c0,0,0,0,0,0c0,0,0,0,0,0c0,0,0,0,0,0c0,0,0,0,0,0
	c0,0,0,0,0.4-0.2c0.4-0.2,0.4-0.2,0.4-0.2c0,0,0,0,0,0c0,0,0,0,0,0c0,0,0,0,0,0c0,0,0,0,0,0c0,0,0,0,0-0.1c0-0.1-0.1-0.2-0.2-0.3
	c-0.2-0.3-0.4-0.7-0.7-1.2c-0.5-1-1.3-2.3-2-3.6C35.6,4.6,34,1.7,33.6,1L32.8,1.4z M32.9,1.4C32.9,1.4,32.9,1.4,32.9,1.4
	C32.8,1.4,32.8,1.4,32.9,1.4L33.6,1c-0.1-0.3-0.4-0.4-0.7-0.4V1.4z M25.8,1.4h7.1V0.6h-7.1V1.4z M25.9,1.4
	C25.9,1.4,25.9,1.4,25.9,1.4C25.8,1.4,25.8,1.4,25.9,1.4l-0.1-0.8c-0.3,0-0.5,0.2-0.7,0.4L25.9,1.4z M25.9,1.3
	C25.9,1.3,25.9,1.3,25.9,1.3C25.9,1.4,25.9,1.4,25.9,1.3L25.1,1c-0.1,0.2-0.1,0.5,0,0.8L25.9,1.3z M26.8,2.9
	c-0.3-0.6-0.7-1.2-0.9-1.6l-0.7,0.4c0.2,0.4,0.6,1.1,0.9,1.6L26.8,2.9z M27.4,4c-0.1-0.2-0.3-0.6-0.6-1.1L26,3.3
	c0.3,0.5,0.5,0.9,0.6,1.1L27.4,4z M27.3,3.9C27.3,3.9,27.3,4,27.3,3.9C27.4,4,27.4,4,27.3,3.9l-0.7,0.4c0.1,0.3,0.4,0.4,0.7,0.4V3.9
	z M31,4c-0.4,0-2.9,0-3.7,0l0,0.8c0.8,0,3.3,0,3.7,0V4z M31.5,4.2C31.4,4,31.2,4,31,4v0.8c-0.1,0-0.2-0.1-0.3-0.2L31.5,4.2z
	 M36.7,14.3c0.4-0.2,0.4-0.2,0.4-0.2c0,0,0,0,0,0c0,0,0,0,0,0c0,0,0,0,0,0c0,0,0,0,0,0c0,0,0,0,0-0.1c0-0.1-0.1-0.2-0.2-0.3
	c-0.1-0.3-0.3-0.6-0.6-1.1c-0.5-0.9-1.2-2-1.8-3.2c-1.3-2.4-2.7-4.9-2.9-5.2l-0.7,0.4c0.2,0.4,1.6,2.8,2.9,5.2
	c0.7,1.2,1.3,2.4,1.8,3.2c0.2,0.4,0.5,0.8,0.6,1.1c0.1,0.1,0.1,0.2,0.2,0.3c0,0,0,0.1,0,0.1c0,0,0,0,0,0c0,0,0,0,0,0c0,0,0,0,0,0
	c0,0,0,0,0,0C36.3,14.6,36.3,14.6,36.7,14.3z M41.1,17.2c-1.7-0.4-3.2-1.5-4.1-3.1l-0.7,0.4c1,1.8,2.7,3,4.6,3.5L41.1,17.2z
	 M40.6,17.6v20.8h0.8V17.6H40.6z M41,38.9h3.4V38H41V38.9z M44.9,38.5V17.6H44v20.9H44.9z M48.3,14.1c-0.9,1.5-2.3,2.6-4,3.1
	l0.2,0.8c1.9-0.5,3.5-1.7,4.5-3.5L48.3,14.1z M55.6,1.3c-0.7,1.2-2.5,4.4-4.1,7.3c-0.8,1.5-1.6,2.8-2.2,3.8
	c-0.3,0.5-0.5,0.9-0.7,1.2c-0.1,0.1-0.1,0.3-0.2,0.3c0,0,0,0.1,0,0.1c0,0,0,0,0,0c0,0,0,0,0,0c0,0,0,0,0,0c0,0,0,0,0,0
	c0,0,0,0,0.4,0.2c0.4,0.2,0.4,0.2,0.4,0.2c0,0,0,0,0,0c0,0,0,0,0,0c0,0,0,0,0,0c0,0,0,0,0,0c0,0,0,0,0-0.1c0-0.1,0.1-0.2,0.2-0.3
	c0.2-0.3,0.4-0.7,0.7-1.2c0.6-1,1.4-2.4,2.2-3.8c1.6-2.9,3.5-6.1,4.1-7.3L55.6,1.3z M55.6,1.4C55.6,1.4,55.6,1.4,55.6,1.4
	C55.6,1.3,55.6,1.3,55.6,1.4l0.7,0.3c0.1-0.2,0.1-0.5,0-0.8L55.6,1.4z"/>
</svg>
