<?xml version="1.0" encoding="utf-8"?>
<!-- Generator: Adobe Illustrator 25.2.1, SVG Export Plug-In . SVG Version: 6.00 Build 0)  -->
<svg version="1.1" id="Warstwa_1" xmlns="http://www.w3.org/2000/svg" xmlns:xlink="http://www.w3.org/1999/xlink" x="0px" y="0px"
	 viewBox="0 0 65 59" style="enable-background:new 0 0 65 59;" xml:space="preserve">
<style type="text/css">
	.st0{fill:url(#SVGID_1_);}
	.st1{fill:url(#SVGID_2_);}
	.st2{fill:url(#SVGID_3_);}
	.st3{fill:url(#SVGID_4_);}
	.st4{fill:url(#SVGID_5_);}
	.st5{fill:url(#SVGID_6_);}
	.st6{fill:url(#SVGID_7_);}
	.st7{fill:url(#SVGID_8_);}
	.st8{fill:url(#SVGID_9_);}
	.st9{fill:url(#SVGID_10_);}
	.st10{fill:url(#SVGID_11_);}
	.st11{fill:url(#SVGID_12_);}
	.st12{fill:url(#SVGID_13_);}
	.st13{fill:url(#SVGID_14_);}
	.st14{fill:url(#SVGID_15_);}
	.st15{fill:url(#SVGID_16_);}
	.st16{fill:url(#SVGID_17_);}
	.st17{fill:url(#SVGID_18_);}
	.st18{fill:url(#SVGID_19_);}
	.st19{fill:url(#SVGID_20_);}
	.st20{fill:url(#SVGID_21_);}
	.st21{fill:url(#SVGID_22_);}
	.st22{fill:url(#SVGID_23_);}
	.st23{fill:url(#SVGID_24_);}
	.st24{fill:url(#SVGID_25_);}
	.st25{fill:url(#SVGID_26_);}
	.st26{fill:url(#SVGID_27_);}
	.st27{fill:url(#SVGID_28_);}
	.st28{fill:url(#SVGID_29_);}
	.st29{fill:url(#SVGID_30_);}
	.st30{fill:url(#SVGID_31_);}
	.st31{fill:url(#SVGID_32_);}
	.st32{fill:url(#SVGID_33_);}
	.st33{fill:url(#SVGID_34_);}
	.st34{fill:url(#SVGID_35_);}
	.st35{fill:url(#SVGID_36_);}
	.st36{fill:url(#SVGID_37_);}
	.st37{fill:url(#SVGID_38_);}
	.st38{fill:url(#SVGID_39_);}
	.st39{fill:url(#SVGID_40_);}
	.st40{fill:url(#SVGID_41_);}
	.st41{fill:url(#SVGID_42_);}
	.st42{fill:url(#SVGID_43_);}
	.st43{fill:url(#SVGID_44_);}
	.st44{fill:url(#SVGID_45_);}
	.st45{fill:url(#SVGID_46_);}
	.st46{fill:url(#SVGID_47_);}
	.st47{fill:url(#SVGID_48_);}
	.st48{fill:url(#SVGID_49_);}
	.st49{clip-path:url(#SVGID_51_);}
	.st50{fill-rule:evenodd;clip-rule:evenodd;fill:#FFFFFF;}
</style>
<g>
	<g>
		
			<linearGradient id="SVGID_1_" gradientUnits="userSpaceOnUse" x1="0.3918" y1="58.416" x2="3.4321" y2="58.416" gradientTransform="matrix(1 0 0 -1 0 60)">
			<stop  offset="0" style="stop-color:#414243"/>
			<stop  offset="1" style="stop-color:#3D3D3F"/>
		</linearGradient>
		<circle class="st0" cx="1.9" cy="1.6" r="1.5"/>
		
			<linearGradient id="SVGID_2_" gradientUnits="userSpaceOnUse" x1="7.2978" y1="58.416" x2="10.3382" y2="58.416" gradientTransform="matrix(1 0 0 -1 0 60)">
			<stop  offset="0" style="stop-color:#414243"/>
			<stop  offset="1" style="stop-color:#3D3D3F"/>
		</linearGradient>
		<circle class="st1" cx="8.8" cy="1.6" r="1.5"/>
		
			<linearGradient id="SVGID_3_" gradientUnits="userSpaceOnUse" x1="14.2038" y1="58.416" x2="17.2441" y2="58.416" gradientTransform="matrix(1 0 0 -1 0 60)">
			<stop  offset="0" style="stop-color:#414243"/>
			<stop  offset="1" style="stop-color:#3D3D3F"/>
		</linearGradient>
		<circle class="st2" cx="15.7" cy="1.6" r="1.5"/>
		
			<linearGradient id="SVGID_4_" gradientUnits="userSpaceOnUse" x1="21.1098" y1="58.416" x2="24.1501" y2="58.416" gradientTransform="matrix(1 0 0 -1 0 60)">
			<stop  offset="0" style="stop-color:#414243"/>
			<stop  offset="1" style="stop-color:#3D3D3F"/>
		</linearGradient>
		<circle class="st3" cx="22.6" cy="1.6" r="1.5"/>
		
			<linearGradient id="SVGID_5_" gradientUnits="userSpaceOnUse" x1="28.0158" y1="58.416" x2="31.0561" y2="58.416" gradientTransform="matrix(1 0 0 -1 0 60)">
			<stop  offset="0" style="stop-color:#414243"/>
			<stop  offset="1" style="stop-color:#3D3D3F"/>
		</linearGradient>
		<circle class="st4" cx="29.5" cy="1.6" r="1.5"/>
		
			<linearGradient id="SVGID_6_" gradientUnits="userSpaceOnUse" x1="34.9217" y1="58.416" x2="37.9621" y2="58.416" gradientTransform="matrix(1 0 0 -1 0 60)">
			<stop  offset="0" style="stop-color:#414243"/>
			<stop  offset="1" style="stop-color:#3D3D3F"/>
		</linearGradient>
		<circle class="st5" cx="36.4" cy="1.6" r="1.5"/>
		
			<linearGradient id="SVGID_7_" gradientUnits="userSpaceOnUse" x1="41.8278" y1="58.416" x2="44.8681" y2="58.416" gradientTransform="matrix(1 0 0 -1 0 60)">
			<stop  offset="0" style="stop-color:#414243"/>
			<stop  offset="1" style="stop-color:#3D3D3F"/>
		</linearGradient>
		<circle class="st6" cx="43.3" cy="1.6" r="1.5"/>
	</g>
	<g>
		
			<linearGradient id="SVGID_8_" gradientUnits="userSpaceOnUse" x1="0.3918" y1="51.5113" x2="3.4321" y2="51.5113" gradientTransform="matrix(1 0 0 -1 0 60)">
			<stop  offset="0" style="stop-color:#414243"/>
			<stop  offset="1" style="stop-color:#3D3D3F"/>
		</linearGradient>
		<circle class="st7" cx="1.9" cy="8.5" r="1.5"/>
		
			<linearGradient id="SVGID_9_" gradientUnits="userSpaceOnUse" x1="7.2978" y1="51.5113" x2="10.3382" y2="51.5113" gradientTransform="matrix(1 0 0 -1 0 60)">
			<stop  offset="0" style="stop-color:#414243"/>
			<stop  offset="1" style="stop-color:#3D3D3F"/>
		</linearGradient>
		<circle class="st8" cx="8.8" cy="8.5" r="1.5"/>
		
			<linearGradient id="SVGID_10_" gradientUnits="userSpaceOnUse" x1="14.2038" y1="51.5113" x2="17.2441" y2="51.5113" gradientTransform="matrix(1 0 0 -1 0 60)">
			<stop  offset="0" style="stop-color:#414243"/>
			<stop  offset="1" style="stop-color:#3D3D3F"/>
		</linearGradient>
		<circle class="st9" cx="15.7" cy="8.5" r="1.5"/>
		
			<linearGradient id="SVGID_11_" gradientUnits="userSpaceOnUse" x1="21.1098" y1="51.5113" x2="24.1501" y2="51.5113" gradientTransform="matrix(1 0 0 -1 0 60)">
			<stop  offset="0" style="stop-color:#414243"/>
			<stop  offset="1" style="stop-color:#3D3D3F"/>
		</linearGradient>
		<circle class="st10" cx="22.6" cy="8.5" r="1.5"/>
		
			<linearGradient id="SVGID_12_" gradientUnits="userSpaceOnUse" x1="28.0158" y1="51.5113" x2="31.0561" y2="51.5113" gradientTransform="matrix(1 0 0 -1 0 60)">
			<stop  offset="0" style="stop-color:#414243"/>
			<stop  offset="1" style="stop-color:#3D3D3F"/>
		</linearGradient>
		<circle class="st11" cx="29.5" cy="8.5" r="1.5"/>
		
			<linearGradient id="SVGID_13_" gradientUnits="userSpaceOnUse" x1="34.9217" y1="51.5113" x2="37.9621" y2="51.5113" gradientTransform="matrix(1 0 0 -1 0 60)">
			<stop  offset="0" style="stop-color:#414243"/>
			<stop  offset="1" style="stop-color:#3D3D3F"/>
		</linearGradient>
		<circle class="st12" cx="36.4" cy="8.5" r="1.5"/>
		
			<linearGradient id="SVGID_14_" gradientUnits="userSpaceOnUse" x1="41.8278" y1="51.5113" x2="44.8681" y2="51.5113" gradientTransform="matrix(1 0 0 -1 0 60)">
			<stop  offset="0" style="stop-color:#414243"/>
			<stop  offset="1" style="stop-color:#3D3D3F"/>
		</linearGradient>
		<circle class="st13" cx="43.3" cy="8.5" r="1.5"/>
	</g>
	<g>
		
			<linearGradient id="SVGID_15_" gradientUnits="userSpaceOnUse" x1="0.3918" y1="44.6371" x2="3.4321" y2="44.6371" gradientTransform="matrix(1 0 0 -1 0 60)">
			<stop  offset="0" style="stop-color:#414243"/>
			<stop  offset="1" style="stop-color:#3D3D3F"/>
		</linearGradient>
		<circle class="st14" cx="1.9" cy="15.4" r="1.5"/>
		
			<linearGradient id="SVGID_16_" gradientUnits="userSpaceOnUse" x1="7.2978" y1="44.6371" x2="10.3382" y2="44.6371" gradientTransform="matrix(1 0 0 -1 0 60)">
			<stop  offset="0" style="stop-color:#414243"/>
			<stop  offset="1" style="stop-color:#3D3D3F"/>
		</linearGradient>
		<circle class="st15" cx="8.8" cy="15.4" r="1.5"/>
		
			<linearGradient id="SVGID_17_" gradientUnits="userSpaceOnUse" x1="14.2038" y1="44.6371" x2="17.2441" y2="44.6371" gradientTransform="matrix(1 0 0 -1 0 60)">
			<stop  offset="0" style="stop-color:#414243"/>
			<stop  offset="1" style="stop-color:#3D3D3F"/>
		</linearGradient>
		<circle class="st16" cx="15.7" cy="15.4" r="1.5"/>
		
			<linearGradient id="SVGID_18_" gradientUnits="userSpaceOnUse" x1="21.1098" y1="44.6371" x2="24.1501" y2="44.6371" gradientTransform="matrix(1 0 0 -1 0 60)">
			<stop  offset="0" style="stop-color:#414243"/>
			<stop  offset="1" style="stop-color:#3D3D3F"/>
		</linearGradient>
		<circle class="st17" cx="22.6" cy="15.4" r="1.5"/>
		
			<linearGradient id="SVGID_19_" gradientUnits="userSpaceOnUse" x1="28.0158" y1="44.6371" x2="31.0561" y2="44.6371" gradientTransform="matrix(1 0 0 -1 0 60)">
			<stop  offset="0" style="stop-color:#414243"/>
			<stop  offset="1" style="stop-color:#3D3D3F"/>
		</linearGradient>
		<circle class="st18" cx="29.5" cy="15.4" r="1.5"/>
		
			<linearGradient id="SVGID_20_" gradientUnits="userSpaceOnUse" x1="34.9217" y1="44.6371" x2="37.9621" y2="44.6371" gradientTransform="matrix(1 0 0 -1 0 60)">
			<stop  offset="0" style="stop-color:#414243"/>
			<stop  offset="1" style="stop-color:#3D3D3F"/>
		</linearGradient>
		<circle class="st19" cx="36.4" cy="15.4" r="1.5"/>
		
			<linearGradient id="SVGID_21_" gradientUnits="userSpaceOnUse" x1="41.8278" y1="44.6371" x2="44.8681" y2="44.6371" gradientTransform="matrix(1 0 0 -1 0 60)">
			<stop  offset="0" style="stop-color:#414243"/>
			<stop  offset="1" style="stop-color:#3D3D3F"/>
		</linearGradient>
		<circle class="st20" cx="43.3" cy="15.4" r="1.5"/>
	</g>
	<g>
		
			<linearGradient id="SVGID_22_" gradientUnits="userSpaceOnUse" x1="0.3918" y1="37.763" x2="3.4321" y2="37.763" gradientTransform="matrix(1 0 0 -1 0 60)">
			<stop  offset="0" style="stop-color:#414243"/>
			<stop  offset="1" style="stop-color:#3D3D3F"/>
		</linearGradient>
		<circle class="st21" cx="1.9" cy="22.2" r="1.5"/>
		
			<linearGradient id="SVGID_23_" gradientUnits="userSpaceOnUse" x1="7.2978" y1="37.763" x2="10.3382" y2="37.763" gradientTransform="matrix(1 0 0 -1 0 60)">
			<stop  offset="0" style="stop-color:#414243"/>
			<stop  offset="1" style="stop-color:#3D3D3F"/>
		</linearGradient>
		<circle class="st22" cx="8.8" cy="22.2" r="1.5"/>
		
			<linearGradient id="SVGID_24_" gradientUnits="userSpaceOnUse" x1="14.2038" y1="37.763" x2="17.2441" y2="37.763" gradientTransform="matrix(1 0 0 -1 0 60)">
			<stop  offset="0" style="stop-color:#414243"/>
			<stop  offset="1" style="stop-color:#3D3D3F"/>
		</linearGradient>
		<circle class="st23" cx="15.7" cy="22.2" r="1.5"/>
		
			<linearGradient id="SVGID_25_" gradientUnits="userSpaceOnUse" x1="21.1098" y1="37.763" x2="24.1501" y2="37.763" gradientTransform="matrix(1 0 0 -1 0 60)">
			<stop  offset="0" style="stop-color:#414243"/>
			<stop  offset="1" style="stop-color:#3D3D3F"/>
		</linearGradient>
		<circle class="st24" cx="22.6" cy="22.2" r="1.5"/>
		
			<linearGradient id="SVGID_26_" gradientUnits="userSpaceOnUse" x1="28.0158" y1="37.763" x2="31.0561" y2="37.763" gradientTransform="matrix(1 0 0 -1 0 60)">
			<stop  offset="0" style="stop-color:#414243"/>
			<stop  offset="1" style="stop-color:#3D3D3F"/>
		</linearGradient>
		<circle class="st25" cx="29.5" cy="22.2" r="1.5"/>
		
			<linearGradient id="SVGID_27_" gradientUnits="userSpaceOnUse" x1="34.9217" y1="37.763" x2="37.9621" y2="37.763" gradientTransform="matrix(1 0 0 -1 0 60)">
			<stop  offset="0" style="stop-color:#414243"/>
			<stop  offset="1" style="stop-color:#3D3D3F"/>
		</linearGradient>
		<circle class="st26" cx="36.4" cy="22.2" r="1.5"/>
		
			<linearGradient id="SVGID_28_" gradientUnits="userSpaceOnUse" x1="41.8278" y1="37.763" x2="44.8681" y2="37.763" gradientTransform="matrix(1 0 0 -1 0 60)">
			<stop  offset="0" style="stop-color:#414243"/>
			<stop  offset="1" style="stop-color:#3D3D3F"/>
		</linearGradient>
		<circle class="st27" cx="43.3" cy="22.2" r="1.5"/>
	</g>
	<g>
		
			<linearGradient id="SVGID_29_" gradientUnits="userSpaceOnUse" x1="0.3918" y1="30.8888" x2="3.4321" y2="30.8888" gradientTransform="matrix(1 0 0 -1 0 60)">
			<stop  offset="0" style="stop-color:#414243"/>
			<stop  offset="1" style="stop-color:#3D3D3F"/>
		</linearGradient>
		<circle class="st28" cx="1.9" cy="29.1" r="1.5"/>
		
			<linearGradient id="SVGID_30_" gradientUnits="userSpaceOnUse" x1="7.2978" y1="30.8888" x2="10.3382" y2="30.8888" gradientTransform="matrix(1 0 0 -1 0 60)">
			<stop  offset="0" style="stop-color:#414243"/>
			<stop  offset="1" style="stop-color:#3D3D3F"/>
		</linearGradient>
		<circle class="st29" cx="8.8" cy="29.1" r="1.5"/>
		
			<linearGradient id="SVGID_31_" gradientUnits="userSpaceOnUse" x1="14.2038" y1="30.8888" x2="17.2441" y2="30.8888" gradientTransform="matrix(1 0 0 -1 0 60)">
			<stop  offset="0" style="stop-color:#414243"/>
			<stop  offset="1" style="stop-color:#3D3D3F"/>
		</linearGradient>
		<circle class="st30" cx="15.7" cy="29.1" r="1.5"/>
		
			<linearGradient id="SVGID_32_" gradientUnits="userSpaceOnUse" x1="21.1098" y1="30.8888" x2="24.1501" y2="30.8888" gradientTransform="matrix(1 0 0 -1 0 60)">
			<stop  offset="0" style="stop-color:#414243"/>
			<stop  offset="1" style="stop-color:#3D3D3F"/>
		</linearGradient>
		<circle class="st31" cx="22.6" cy="29.1" r="1.5"/>
		
			<linearGradient id="SVGID_33_" gradientUnits="userSpaceOnUse" x1="28.0158" y1="30.8888" x2="31.0561" y2="30.8888" gradientTransform="matrix(1 0 0 -1 0 60)">
			<stop  offset="0" style="stop-color:#414243"/>
			<stop  offset="1" style="stop-color:#3D3D3F"/>
		</linearGradient>
		<circle class="st32" cx="29.5" cy="29.1" r="1.5"/>
		
			<linearGradient id="SVGID_34_" gradientUnits="userSpaceOnUse" x1="34.9217" y1="30.8888" x2="37.9621" y2="30.8888" gradientTransform="matrix(1 0 0 -1 0 60)">
			<stop  offset="0" style="stop-color:#414243"/>
			<stop  offset="1" style="stop-color:#3D3D3F"/>
		</linearGradient>
		<circle class="st33" cx="36.4" cy="29.1" r="1.5"/>
		
			<linearGradient id="SVGID_35_" gradientUnits="userSpaceOnUse" x1="41.8278" y1="30.8888" x2="44.8681" y2="30.8888" gradientTransform="matrix(1 0 0 -1 0 60)">
			<stop  offset="0" style="stop-color:#414243"/>
			<stop  offset="1" style="stop-color:#3D3D3F"/>
		</linearGradient>
		<circle class="st34" cx="43.3" cy="29.1" r="1.5"/>
	</g>
	<g>
		
			<linearGradient id="SVGID_36_" gradientUnits="userSpaceOnUse" x1="0.3918" y1="24.0147" x2="3.4321" y2="24.0147" gradientTransform="matrix(1 0 0 -1 0 60)">
			<stop  offset="0" style="stop-color:#414243"/>
			<stop  offset="1" style="stop-color:#3D3D3F"/>
		</linearGradient>
		<circle class="st35" cx="1.9" cy="36" r="1.5"/>
		
			<linearGradient id="SVGID_37_" gradientUnits="userSpaceOnUse" x1="7.2978" y1="24.0147" x2="10.3382" y2="24.0147" gradientTransform="matrix(1 0 0 -1 0 60)">
			<stop  offset="0" style="stop-color:#414243"/>
			<stop  offset="1" style="stop-color:#3D3D3F"/>
		</linearGradient>
		<circle class="st36" cx="8.8" cy="36" r="1.5"/>
		
			<linearGradient id="SVGID_38_" gradientUnits="userSpaceOnUse" x1="14.2038" y1="24.0147" x2="17.2441" y2="24.0147" gradientTransform="matrix(1 0 0 -1 0 60)">
			<stop  offset="0" style="stop-color:#414243"/>
			<stop  offset="1" style="stop-color:#3D3D3F"/>
		</linearGradient>
		<circle class="st37" cx="15.7" cy="36" r="1.5"/>
		
			<linearGradient id="SVGID_39_" gradientUnits="userSpaceOnUse" x1="21.1098" y1="24.0147" x2="24.1501" y2="24.0147" gradientTransform="matrix(1 0 0 -1 0 60)">
			<stop  offset="0" style="stop-color:#414243"/>
			<stop  offset="1" style="stop-color:#3D3D3F"/>
		</linearGradient>
		<circle class="st38" cx="22.6" cy="36" r="1.5"/>
		
			<linearGradient id="SVGID_40_" gradientUnits="userSpaceOnUse" x1="28.0158" y1="24.0147" x2="31.0561" y2="24.0147" gradientTransform="matrix(1 0 0 -1 0 60)">
			<stop  offset="0" style="stop-color:#414243"/>
			<stop  offset="1" style="stop-color:#3D3D3F"/>
		</linearGradient>
		<circle class="st39" cx="29.5" cy="36" r="1.5"/>
		
			<linearGradient id="SVGID_41_" gradientUnits="userSpaceOnUse" x1="34.9217" y1="24.0147" x2="37.9621" y2="24.0147" gradientTransform="matrix(1 0 0 -1 0 60)">
			<stop  offset="0" style="stop-color:#414243"/>
			<stop  offset="1" style="stop-color:#3D3D3F"/>
		</linearGradient>
		<circle class="st40" cx="36.4" cy="36" r="1.5"/>
		
			<linearGradient id="SVGID_42_" gradientUnits="userSpaceOnUse" x1="41.8278" y1="24.0147" x2="44.8681" y2="24.0147" gradientTransform="matrix(1 0 0 -1 0 60)">
			<stop  offset="0" style="stop-color:#414243"/>
			<stop  offset="1" style="stop-color:#3D3D3F"/>
		</linearGradient>
		<circle class="st41" cx="43.3" cy="36" r="1.5"/>
	</g>
	<g>
		
			<linearGradient id="SVGID_43_" gradientUnits="userSpaceOnUse" x1="0.3918" y1="17.11" x2="3.4321" y2="17.11" gradientTransform="matrix(1 0 0 -1 0 60)">
			<stop  offset="0" style="stop-color:#414243"/>
			<stop  offset="1" style="stop-color:#3D3D3F"/>
		</linearGradient>
		<circle class="st42" cx="1.9" cy="42.9" r="1.5"/>
		
			<linearGradient id="SVGID_44_" gradientUnits="userSpaceOnUse" x1="7.2978" y1="17.11" x2="10.3382" y2="17.11" gradientTransform="matrix(1 0 0 -1 0 60)">
			<stop  offset="0" style="stop-color:#414243"/>
			<stop  offset="1" style="stop-color:#3D3D3F"/>
		</linearGradient>
		<circle class="st43" cx="8.8" cy="42.9" r="1.5"/>
		
			<linearGradient id="SVGID_45_" gradientUnits="userSpaceOnUse" x1="14.2038" y1="17.11" x2="17.2441" y2="17.11" gradientTransform="matrix(1 0 0 -1 0 60)">
			<stop  offset="0" style="stop-color:#414243"/>
			<stop  offset="1" style="stop-color:#3D3D3F"/>
		</linearGradient>
		<circle class="st44" cx="15.7" cy="42.9" r="1.5"/>
		
			<linearGradient id="SVGID_46_" gradientUnits="userSpaceOnUse" x1="21.1098" y1="17.11" x2="24.1501" y2="17.11" gradientTransform="matrix(1 0 0 -1 0 60)">
			<stop  offset="0" style="stop-color:#414243"/>
			<stop  offset="1" style="stop-color:#3D3D3F"/>
		</linearGradient>
		<circle class="st45" cx="22.6" cy="42.9" r="1.5"/>
		
			<linearGradient id="SVGID_47_" gradientUnits="userSpaceOnUse" x1="28.0158" y1="17.11" x2="31.0561" y2="17.11" gradientTransform="matrix(1 0 0 -1 0 60)">
			<stop  offset="0" style="stop-color:#414243"/>
			<stop  offset="1" style="stop-color:#3D3D3F"/>
		</linearGradient>
		<circle class="st46" cx="29.5" cy="42.9" r="1.5"/>
		
			<linearGradient id="SVGID_48_" gradientUnits="userSpaceOnUse" x1="34.9217" y1="17.11" x2="37.9621" y2="17.11" gradientTransform="matrix(1 0 0 -1 0 60)">
			<stop  offset="0" style="stop-color:#414243"/>
			<stop  offset="1" style="stop-color:#3D3D3F"/>
		</linearGradient>
		<circle class="st47" cx="36.4" cy="42.9" r="1.5"/>
		
			<linearGradient id="SVGID_49_" gradientUnits="userSpaceOnUse" x1="41.8278" y1="17.11" x2="44.8681" y2="17.11" gradientTransform="matrix(1 0 0 -1 0 60)">
			<stop  offset="0" style="stop-color:#414243"/>
			<stop  offset="1" style="stop-color:#3D3D3F"/>
		</linearGradient>
		<circle class="st48" cx="43.3" cy="42.9" r="1.5"/>
	</g>
</g>
<g>
	<defs>
		<rect id="SVGID_50_" x="23.1" y="22" width="41.9" height="37"/>
	</defs>
	<clipPath id="SVGID_51_">
		<use xlink:href="#SVGID_50_"  style="overflow:visible;"/>
	</clipPath>
	<g class="st49">
		<path class="st50" d="M43.2,57.6c0,0.1-0.1,0.3-0.2,0.3c-0.1,0.1-0.3,0.1-0.4,0c-2.9-1.6-15.3-8.5-15.3-8.5
			c-2.6-1.4-4.2-4.1-4.2-7.1c0-2.9,1.6-5.6,4.2-7.1c0,0,11-6.1,11.8-6.6c0,0,0.1-0.1,0.1-0.1c0-0.5,0-3.5,0-4.4
			c0-0.1,0.1-0.3,0.2-0.3c0.6-0.3,2.3-1.3,3.2-1.8c0.1-0.1,0.3-0.1,0.4,0c0.1,0.1,0.2,0.2,0.2,0.3c0,1.3,0,7.4,0,8.3
			c0,0.1-0.1,0.3-0.2,0.4c-1.7,1-13.8,7.6-13.8,7.6c-1.3,0.7-2.1,2.1-2.1,3.5c0,1.5,0.8,2.8,2.1,3.5c0,0,12,6.7,13.8,7.6
			c0.1,0.1,0.2,0.2,0.2,0.4C43.2,54.6,43.2,56.6,43.2,57.6z"/>
		<path class="st50" d="M51.8,35.7c-0.2,0.1-0.4,0-0.5-0.1c-0.4-0.7-1.4-2.5-1.9-3.2c-0.1-0.2,0-0.4,0.1-0.5c1.7-1,8.9-5.1,10.6-6.1
			c0.2-0.1,0.4,0,0.5,0.1c0.4,0.7,1.4,2.5,1.9,3.2c0.1,0.2,0,0.4-0.1,0.5C60.6,30.6,53.4,34.7,51.8,35.7z"/>
		<path class="st50" d="M49.5,52.8c-0.2-0.1-0.3-0.4-0.1-0.5c0.4-0.7,1.4-2.5,1.9-3.2c0.1-0.2,0.4-0.3,0.5-0.1
			c1.7,1,8.9,5.1,10.6,6.1c0.2,0.1,0.3,0.4,0.1,0.5C62,56.3,61,58,60.6,58.8c-0.1,0.2-0.4,0.3-0.5,0.1C58.4,58,51.2,53.8,49.5,52.8z
			"/>
		<path class="st50" d="M52.4,44.6c-0.2,0-0.4-0.2-0.4-0.4c0-0.9,0-2.9,0-3.7c0-0.2,0.2-0.4,0.4-0.4c1.9,0,10.3,0,12.2,0
			c0.2,0,0.4,0.2,0.4,0.4c0,0.9,0,2.9,0,3.7c0,0.2-0.2,0.4-0.4,0.4C62.7,44.6,54.3,44.6,52.4,44.6z"/>
	</g>
</g>
</svg>
