<svg xmlns="http://www.w3.org/2000/svg" xmlns:xlink="http://www.w3.org/1999/xlink" width="729.643" height="643.636" viewBox="0 0 729.643 643.636">
  <defs>
    <clipPath id="clip-path">
      <rect id="Rectangle_80" data-name="Rectangle 80" width="729.642" height="643.636" transform="translate(0.11 0.047)" fill="#fbfbfb"/>
    </clipPath>
  </defs>
  <g id="Group_54" data-name="Group 54" transform="translate(-0.109 -0.048)" clip-path="url(#clip-path)">
    <path id="Path_409" data-name="Path 409" d="M350.479,619.114a6.824,6.824,0,0,1-3.525,5.992,6.405,6.405,0,0,1-7.049,0c-50.758-28.2-267.183-148.4-267.183-148.4a141.11,141.11,0,0,1,0-246.739s191.4-106.45,206.2-114.557a1.887,1.887,0,0,0,1.057-1.41V38.22a6.824,6.824,0,0,1,3.525-5.992C293.73,26.587,323.69,10.021,339.9.856a8.228,8.228,0,0,1,7.049,0,7.271,7.271,0,0,1,3.525,5.992V152.072a7.877,7.877,0,0,1-3.525,6.345c-30.312,16.92-239.689,133.238-239.689,133.238a70.39,70.39,0,0,0-.353,123.369S316.641,531.345,346.6,548.264a7.4,7.4,0,0,1,3.525,6.344C350.479,566.24,350.479,600.785,350.479,619.114Z" transform="translate(0 0.256)" fill="#fbfbfb" fill-rule="evenodd"/>
    <path id="Path_410" data-name="Path 410" d="M69.249,179.117a6.833,6.833,0,0,1-9.515-2.466c-7.4-13.043-25.028-43.357-32.429-56.4a6.834,6.834,0,0,1,2.466-9.518c29.257-16.919,154.741-89.178,184-106.1a6.832,6.832,0,0,1,9.515,2.467c7.4,13.042,25.028,43.355,32.429,56.4a6.833,6.833,0,0,1-2.466,9.517C223.99,89.939,98.506,162.2,69.249,179.117Z" transform="translate(429.969 58.858)" fill="#fbfbfb" fill-rule="evenodd"/>
    <path id="Path_411" data-name="Path 411" d="M29.847,96.327a6.7,6.7,0,0,1-2.468-9.517c7.4-13.043,25.026-43.355,32.429-56.4a6.7,6.7,0,0,1,9.517-2.468c29.257,16.92,154.741,89.18,184,106.1a6.7,6.7,0,0,1,2.466,9.517c-7.4,13.043-25.026,43.357-32.429,56.4a6.7,6.7,0,0,1-9.517,2.468C184.588,185.859,59.1,113.247,29.847,96.327Z" transform="translate(429.896 440.201)" fill="#fbfbfb" fill-rule="evenodd"/>
    <path id="Path_412" data-name="Path 412" d="M36.036,96.994a7.069,7.069,0,0,1-7.049-7.049V25.087a7.069,7.069,0,0,1,7.049-7.049h212.2a7.071,7.071,0,0,1,7.051,7.049V89.945a7.071,7.071,0,0,1-7.051,7.049Z" transform="translate(474.108 295.369)" fill="#fbfbfb" fill-rule="evenodd"/>
  </g>
</svg>
