<svg xmlns="http://www.w3.org/2000/svg" xmlns:xlink="http://www.w3.org/1999/xlink" width="78.723" height="73.238" viewBox="0 0 78.723 73.238">
  <defs>
    <radialGradient id="radial-gradient" cx="0.394" cy="0" r="2.133" gradientTransform="translate(0 -0.048) scale(1 0.565)" gradientUnits="objectBoundingBox">
      <stop offset="0" stop-color="#45a3ff"/>
      <stop offset="1" stop-color="#3782cc"/>
    </radialGradient>
  </defs>
  <g id="Group_60" data-name="Group 60" transform="translate(-976.123 -4327.332)">
    <g id="Group_56" data-name="Group 56" transform="matrix(0.921, -0.391, 0.391, 0.921, 976.123, 4338.268)">
      <path id="Subtraction_2" data-name="Subtraction 2" d="M13.982,37.03a6.3,6.3,0,0,1-6.295-6.295V30.7a6.219,6.219,0,0,1,.621-2.732H5.237v-.022H0V.7A.7.7,0,0,1,.7,0H27.988V1.392h-.02v8.2c0,.023,0,.048,0,.079a.7.7,0,0,1-1.136.515,4.764,4.764,0,0,0-4.953-.709,4.948,4.948,0,0,0-2.588,2.61,4.852,4.852,0,0,0-.383,1.9,4.918,4.918,0,0,0,4.851,4.9,4.832,4.832,0,0,0,3.074-1.106.7.7,0,0,1,.441-.157.7.7,0,0,1,.7.674.729.729,0,0,1,0,.078v8.085h.02v1.484H25.2v.022H19.656a6.218,6.218,0,0,1,.621,2.732v.039A6.3,6.3,0,0,1,13.982,37.03ZM9.646,26.459a.7.7,0,0,1,.6,1.057.723.723,0,0,1-.1.184,4.844,4.844,0,0,0-1.058,3.017,4.9,4.9,0,0,0,9.805,0A4.839,4.839,0,0,0,17.827,27.7a.721.721,0,0,1-.1-.184.7.7,0,0,1,.6-1.057h8.254V19.637a6.194,6.194,0,0,1-2.767.641h-.066a6.295,6.295,0,1,1-.012-12.59H23.8a6.189,6.189,0,0,1,2.767.641V1.392H1.392V26.459Z" transform="translate(0)"/>
      <path id="Subtraction_3" data-name="Subtraction 3" d="M12.589,34.207a4.909,4.909,0,0,1-4.9-4.882,4.848,4.848,0,0,1,1.058-3.018.686.686,0,0,0,.1-.184.7.7,0,0,0-.6-1.056H0V0H25.18V6.936A6.188,6.188,0,0,0,22.413,6.3h-.078a6.295,6.295,0,1,0,.012,12.59h.066a6.193,6.193,0,0,0,2.767-.641v6.822H16.926a.7.7,0,0,0-.6,1.056.686.686,0,0,0,.1.184,4.842,4.842,0,0,1,1.058,3.013A4.912,4.912,0,0,1,12.589,34.207Z" transform="translate(1.393 1.411)" fill="url(#radial-gradient)"/>
    </g>
    <path id="Subtraction_1" data-name="Subtraction 1" d="M54.6,54.423H.7a.7.7,0,0,1-.7-.7V26.513H9.916a.816.816,0,0,1,.22,1.186,4.848,4.848,0,0,0-1.058,3.018,4.9,4.9,0,0,0,9.806,0A4.848,4.848,0,0,0,17.827,27.7a.95.95,0,0,1-.139-.843.7.7,0,0,1,.629-.4h8.254V19.637a6.2,6.2,0,0,1-2.767.641h-.066a6.295,6.295,0,1,1-.012-12.59H23.8a6.191,6.191,0,0,1,2.767.641V1.392h-.029V0h27.3a.7.7,0,0,1,.7.7L54.6,54.423ZM27.968,46.095v6.936h25.18V27.964H44.893a.779.779,0,0,1-.491-1.241,4.845,4.845,0,0,0,1.058-3.017,4.9,4.9,0,1,0-8.748,3.017.7.7,0,0,1,.1.183.7.7,0,0,1-.595,1.058H27.968v6.822a6.193,6.193,0,0,1,2.766-.641h.078a6.295,6.295,0,1,1,0,12.59h-.078a6.2,6.2,0,0,1-2.766-.641ZM1.392,27.964V53.031H26.571v-8.2a.637.637,0,0,1,.005-.079.7.7,0,0,1,1.136-.515,4.764,4.764,0,0,0,4.954.709,4.947,4.947,0,0,0,2.588-2.61,4.849,4.849,0,0,0,.383-1.9,4.916,4.916,0,0,0-4.869-4.9,4.833,4.833,0,0,0-3.056,1.106.7.7,0,0,1-.44.157.7.7,0,0,1-.7-.673.681.681,0,0,1,0-.078V27.964H19.656a6.218,6.218,0,0,1,.621,2.732v.039a6.295,6.295,0,1,1-12.589,0V30.7a6.223,6.223,0,0,1,.621-2.732ZM40.558,17.393a6.3,6.3,0,0,1,6.295,6.295v.039a6.214,6.214,0,0,1-.621,2.732h6.916V1.392H27.968v8.2a.709.709,0,0,1,0,.079.7.7,0,0,1-1.136.515,4.762,4.762,0,0,0-4.954-.71,4.949,4.949,0,0,0-2.588,2.61,4.85,4.85,0,0,0-.383,1.9,4.919,4.919,0,0,0,4.851,4.9,4.832,4.832,0,0,0,3.074-1.106.7.7,0,0,1,.441-.157.76.76,0,0,1,.7.751v8.085h6.916a6.212,6.212,0,0,1-.621-2.71v-.061A6.3,6.3,0,0,1,40.558,17.393Z" transform="translate(1000.246 4346.147)"/>
  </g>
</svg>
