<svg xmlns="http://www.w3.org/2000/svg" width="450.822" height="377.619" viewBox="0 0 450.822 377.619">
  <g id="Group_266" data-name="Group 266" transform="translate(-330.678 -6835.94)">
    <g id="Group_265" data-name="Group 265">
      <g id="Group_262" data-name="Group 262">
        <path id="Path_876" data-name="Path 876" d="M2237.206,6809.158l49.212,148.212-49.212,93,377.152,99.993-242.438,28.5-208.385-99.738,82.59-121.751-33.167-148.212Z" transform="translate(-1832.858 34.699)" fill="#f8f8f8" opacity="0.548"/>
      </g>
    </g>
    <path id="Union_9" data-name="Union 9" d="M99.345,261.546s-46-70.516-49.5-75.972a.823.823,0,0,0-.608-.389H16.488a3.064,3.064,0,0,1-2.59-1.3c-2.437-3.767-9.6-14.8-13.556-20.779a2.633,2.633,0,0,1,0-2.6,3.275,3.275,0,0,1,2.59-1.3H33.542V0H67.659V159.813a3.183,3.183,0,0,1,.766.7C75.737,171.68,126,248.819,126,248.819c5.177,8.309,15.383,13.5,26.5,13.5s21.324-5.065,26.654-13.376c0,0,49.6-76.243,57.422-88.077V0h34.269V160.9l-.072,0a3.379,3.379,0,0,1-.688,2.2c-12.186,18.7-64.123,98.438-64.123,98.438-10.815,16.492-31.224,26.751-53.309,26.751S110.158,278.038,99.345,261.546Z" transform="translate(458.414 6836.44)" fill="#f8f8f8" stroke="rgba(0,0,0,0)" stroke-miterlimit="10" stroke-width="1"/>
  </g>
</svg>
