<svg xmlns="http://www.w3.org/2000/svg" width="484.127" height="445.653" viewBox="0 0 484.127 445.653">
  <g id="Group_258" data-name="Group 258" transform="translate(-417.492 -5413)">
    <path id="Path_866" data-name="Path 866" d="M-1488.254,9257.916-1787.512,9614.9l236.645,23.471,124.486-380.453Z" transform="translate(2328 -3779.716)" fill="#f8f8f8" opacity="0.548"/>
    <g id="Group_246" data-name="Group 246" transform="translate(0 -496)">
      <g id="g12" transform="translate(417.492 5909)">
        <path id="path14" d="M1103.087-1887.483c-21.844,21.844-46.738,39.91-72.16,52.382l-70.817-70.82c12.471-25.418,30.535-50.317,52.379-72.159,24.973-24.973,53.169-44.321,81.161-56.584l66.024,66.021C1147.411-1940.652,1128.058-1912.456,1103.087-1887.483Zm-89.824,100.727c.811-.869,1.64-1.75,2.476-2.586a65.059,65.059,0,0,0,18.633-38.756,272.426,272.426,0,0,0,52.85-34.435A90.613,90.613,0,0,1,1013.263-1786.756Zm-80.026-9.831h-11.4v-10.9a56.9,56.9,0,0,1,31.888-51.12l30.466,30.467A56.961,56.961,0,0,1,933.236-1796.587Zm67.213-26.341-52.515-52.513a203.473,203.473,0,0,1,8.656-22.956l66.815,66.813A203.787,203.787,0,0,1,1000.45-1822.928ZM913.5-1891.581c-.4.4-.787.807-1.174,1.213a90.61,90.61,0,0,1,75.057-71.658,272.829,272.829,0,0,0-33.792,51.678A65.042,65.042,0,0,0,913.5-1891.581Zm260.209-157.124c3.1,21.938-.869,46.882-10.8,72.258l-61.457-61.455C1126.83-2047.836,1151.773-2051.8,1173.711-2048.705Zm-5.5,79.88c12.586-30.112,17-59.145,12.768-83.95a3.9,3.9,0,0,0-3.192-3.193c-24.81-4.234-53.839.182-83.955,12.766-.227.1-.455.2-.683.291-.058.022-.114.047-.172.073-30.337,12.826-60.059,33.293-86.006,59.239q-6.3,6.294-12.171,12.907a98.578,98.578,0,0,0-63.5,29.042,98.6,98.6,0,0,0-28.506,65.039v.017c0,.094,0,.191,0,.285,0,.037,0,.072,0,.112,0,.068.015.136.022.205a3.849,3.849,0,0,0,.347,1.229c0,.007.006.017.01.023.03.062.066.124.1.183s.054.1.084.156c.011.015.024.036.036.051a3.933,3.933,0,0,0,.809.918c.058.048.114.1.175.142.027.02.057.037.084.055.08.056.162.111.247.163a.02.02,0,0,1,.013.007l.075.039c.084.046.168.091.255.133.046.019.093.04.139.058.07.029.14.059.213.084s.131.04.2.059.109.033.165.046a2.5,2.5,0,0,0,.257.053c.039.006.077.015.116.023.1.013.209.022.314.028a.366.366,0,0,1,.062.008h.1a.742.742,0,0,0,.08,0,.942.942,0,0,0,.1-.006c.073,0,.148,0,.221-.01s.123-.012.183-.02.12-.016.18-.025.139-.03.207-.045l.152-.037c.071-.023.141-.043.211-.069.048-.017.1-.032.145-.052.066-.023.129-.052.193-.082s.1-.045.154-.071a1.652,1.652,0,0,0,.164-.088c.057-.033.113-.062.169-.1l.132-.086c.06-.044.119-.085.178-.131.037-.026.073-.06.109-.088.059-.049.118-.1.175-.153.035-.032.07-.072.1-.108.051-.047.1-.1.151-.155s.089-.111.133-.166c.033-.039.067-.081.1-.123a3.485,3.485,0,0,0,.216-.333,57.274,57.274,0,0,1,8.951-11.58,57.261,57.261,0,0,1,30.608-15.9,210.05,210.05,0,0,0-9.843,26.5,3.742,3.742,0,0,0-.1.4c-.011.059-.018.118-.026.176s-.02.13-.026.2c-.008.082-.01.162-.011.243,0,.043-.005.088-.005.13,0,.085.006.169.013.25,0,.043,0,.089.008.131.007.075.02.15.033.227.009.05.015.1.025.15.013.065.031.127.046.192s.03.121.049.182.035.1.053.149c.025.072.049.144.077.212.018.042.039.082.057.123.034.072.068.146.107.218.022.039.048.078.071.121.04.068.079.136.123.2s.078.107.118.16.068.1.105.139a3.568,3.568,0,0,0,.275.3l7.153,7.152a64.7,64.7,0,0,0-33.9,56.916v14.8a3.9,3.9,0,0,0,3.9,3.9h15.3a64.775,64.775,0,0,0,56.741-33.58l6.57,6.571.019.02.013.013c.008.009.017.013.024.022a2.7,2.7,0,0,0,.236.212l.095.078.185.136c.04.025.079.052.119.078.061.04.124.078.189.113l.131.072c.091.049.185.091.281.13.045.019.089.035.135.052.066.022.131.049.2.068l.131.038c.074.019.149.039.224.055.037.006.073.016.11.023.093.016.187.029.281.039a.456.456,0,0,0,.062.006,3.176,3.176,0,0,0,.358.021c.115,0,.23-.007.346-.017l.077-.01c.087-.01.174-.023.262-.039a.81.81,0,0,0,.1-.017c.1-.023.209-.046.314-.078a.1.1,0,0,0,.03-.006,209.608,209.608,0,0,0,25.4-9.354,57.271,57.271,0,0,1-15.646,29.269c-1.044,1.043-2.033,2.1-2.99,3.129-2.494,2.674-4.849,5.2-7.616,6.815l-.012.011c-.085.049-.167.1-.248.158l-.083.059a2.093,2.093,0,0,0-.175.14,3.858,3.858,0,0,0-.81.917c-.012.02-.025.036-.036.055-.03.049-.056.1-.084.153s-.069.121-.1.182a.192.192,0,0,1-.009.024,3.858,3.858,0,0,0-.347,1.229c-.008.069-.018.138-.022.208,0,.036,0,.073,0,.108,0,.1-.005.191,0,.289a.137.137,0,0,1,0,.016c0,.03.006.062.009.095.007.088.013.179.026.269.007.049.017.095.025.144.014.074.026.149.045.224s.037.133.056.2.03.108.049.163c.033.095.071.188.112.279.009.024.017.046.028.072a4.015,4.015,0,0,0,.445.739c.027.035.055.068.083.1.076.09.156.182.24.266.027.026.052.054.079.08a3.681,3.681,0,0,0,.328.281c.039.032.08.058.12.088.089.062.179.121.273.176l.114.068a4.033,4.033,0,0,0,.842.338c.034.01.069.016.1.026a3.137,3.137,0,0,0,.355.068,1.109,1.109,0,0,0,.115.017,3.29,3.29,0,0,0,.439.029h.039c.051,0,.1,0,.154,0a98.586,98.586,0,0,0,65.037-28.506,98.57,98.57,0,0,0,29.061-63.78q6.519-5.805,12.752-12.03c25.958-25.961,46.432-55.7,59.258-86.059.013-.033.03-.065.043-.094.1-.238.2-.472.3-.709" transform="translate(-841.511 2059.52)" fill="#f8f8f8"/>
        <path id="path14_-_Outline" data-name="path14 - Outline" d="M1003.095-1774.166h-.039a5.261,5.261,0,0,1-.659-.041c-.085-.009-.155-.019-.208-.029-.178-.026-.355-.061-.525-.1l-.04-.012c-.046-.011-.087-.021-.126-.032a5.97,5.97,0,0,1-1.242-.5l-.047-.026-.151-.091c-.132-.078-.262-.163-.387-.251l-.031-.021c-.064-.045-.122-.088-.178-.132a5.316,5.316,0,0,1-.491-.425c-.026-.025-.053-.054-.081-.082-.125-.127-.238-.25-.366-.4l-.051-.063c-.042-.052-.074-.093-.1-.134a5.9,5.9,0,0,1-.658-1.1l-.032-.075c-.009-.021-.017-.042-.025-.062-.059-.136-.109-.264-.153-.389-.028-.082-.05-.155-.071-.23l-.018-.06c-.026-.086-.051-.173-.072-.262s-.043-.2-.061-.3l-.015-.08c-.009-.052-.018-.1-.026-.154l0-.02c-.017-.121-.028-.244-.037-.362v-.01c0-.019,0-.038-.006-.057l-.007-.092c0-.018,0-.037,0-.054v-.048c0-.136,0-.258,0-.361,0-.072,0-.136.006-.2s.014-.169.025-.257l.005-.04a5.852,5.852,0,0,1,.465-1.725l.011-.036.072-.147c.035-.072.074-.142.113-.213l.038-.068c.036-.068.073-.135.112-.2.023-.038.046-.075.071-.111a5.836,5.836,0,0,1,1.2-1.355,3.677,3.677,0,0,1,.324-.255l.029-.02-.006,0,.074-.053.123-.082.029-.029.226-.132c2.519-1.472,4.776-3.893,7.165-6.454l.113-.121c.933-1,1.9-2.031,2.926-3.058a55.012,55.012,0,0,0,14.211-24.47,209.616,209.616,0,0,1-22,7.872l-.107.028c-.134.037-.257.065-.365.089-.074.016-.149.03-.225.041-.109.019-.218.034-.327.048l-.152.018a5.285,5.285,0,0,1-1.031,0c-.056,0-.107-.01-.15-.016-.121-.013-.242-.031-.362-.05l-.031-.006c-.036-.007-.073-.014-.109-.023l-.066-.014c-.1-.022-.2-.048-.3-.074l-.19-.055c-.071-.021-.158-.051-.244-.081l-.075-.027c-.074-.027-.146-.055-.22-.086-.159-.065-.305-.134-.447-.209l-.105-.057-.028-.016c-.116-.063-.219-.124-.328-.2l-.087-.057-.122-.082-.205-.151-.16-.129a4.522,4.522,0,0,1-.352-.313c-.023-.021-.047-.043-.069-.066l-.052-.053-4.709-4.71a66.712,66.712,0,0,1-57.171,32.326h-15.3a5.9,5.9,0,0,1-5.893-5.893V-1806a66.633,66.633,0,0,1,32.634-57.357l-5.3-5.3a5.356,5.356,0,0,1-.4-.443c-.079-.093-.136-.174-.172-.225l-.011-.013c-.058-.076-.115-.152-.168-.232s-.115-.18-.171-.277l-.039-.069c-.026-.042-.044-.074-.062-.106l-.02-.038c-.045-.084-.087-.17-.127-.255l-.045-.1c-.023-.048-.049-.1-.072-.157-.041-.1-.079-.2-.115-.309v0c-.029-.077-.057-.155-.082-.238s-.038-.135-.055-.2l-.037-.145c-.018-.073-.036-.146-.052-.22-.01-.049-.022-.117-.032-.186l-.014-.089c-.016-.1-.031-.2-.041-.3,0-.046-.009-.112-.012-.177-.009-.112-.017-.244-.017-.4,0-.064,0-.131.006-.2,0-.1.006-.227.02-.364.006-.071.017-.152.029-.233l.012-.085c.01-.08.022-.16.037-.239a5.67,5.67,0,0,1,.147-.6,209.669,209.669,0,0,1,8.378-23.183,54.881,54.881,0,0,0-25.831,14.566,55.238,55.238,0,0,0-8.635,11.168,5.568,5.568,0,0,1-.327.5c-.058.078-.111.145-.162.206l-.007.01c-.061.079-.122.156-.187.229s-.15.162-.231.241c-.057.061-.111.115-.164.163-.08.074-.163.148-.246.218l-.046.037c-.049.041-.094.076-.138.11s-.108.081-.162.12l-.27.183c-.069.045-.143.088-.219.13l-.02.012c-.1.058-.2.112-.3.16-.071.036-.142.068-.214.1s-.178.08-.3.126c-.06.023-.12.044-.18.064h0c-.071.026-.143.049-.216.071l-.173.052c-.069.017-.139.034-.21.049l-.024.005c-.086.02-.171.038-.259.054l-.032.006-.139.02-.172.023c-.074.009-.15.018-.225.023s-.177.012-.26.013-.139.008-.208.008c-.03,0-.08,0-.143,0h-.2l-.1-.017c-.115-.007-.231-.019-.353-.034l-.218-.037c-.14-.022-.271-.049-.4-.083-.079-.019-.159-.041-.245-.067l-.009,0c-.1-.027-.2-.057-.3-.092s-.185-.069-.283-.11l-.015-.007-.121-.05-.088-.037h-.085l-.408-.253-.2-.1-.069-.069c-.037-.024-.073-.049-.109-.073s-.084-.054-.124-.082l-.059-.043c-.078-.06-.154-.122-.228-.185l-.025-.021a5.885,5.885,0,0,1-1.177-1.325l-.014-.02-.093-.145c-.034-.059-.065-.117-.1-.175l-.01-.02c-.026-.045-.052-.091-.077-.138l-.072-.109-.056-.152a5.851,5.851,0,0,1-.488-1.776l-.005-.041c-.011-.088-.02-.175-.026-.263,0-.068-.005-.13-.005-.192,0-.134-.005-.252,0-.365l0-.071a100.591,100.591,0,0,1,29.081-66.35,100.673,100.673,0,0,1,63.964-29.569c3.794-4.243,7.731-8.408,11.712-12.388,26.109-26.108,56.069-46.739,86.638-59.663.061-.027.125-.055.191-.08l.655-.28c23.013-9.616,45.1-14.488,65.673-14.488a115.8,115.8,0,0,1,19.4,1.59,5.9,5.9,0,0,1,4.818,4.817c4.3,25.184-.162,54.595-12.893,85.054-.046.112-.1.236-.152.361s-.095.222-.14.333l-.054.121c-12.926,30.59-33.563,60.566-59.682,86.687-3.921,3.922-8.033,7.81-12.23,11.568a100.637,100.637,0,0,1-29.59,64.249,100.576,100.576,0,0,1-66.339,29.079C1003.263-1774.167,1003.179-1774.166,1003.095-1774.166Zm-.265-4,.052.007a1.356,1.356,0,0,0,.174.012h.091a96.609,96.609,0,0,0,63.74-27.932,96.665,96.665,0,0,0,28.476-62.5l.053-.815.61-.543c4.35-3.874,8.612-7.9,12.669-11.951,25.757-25.76,46.1-55.3,58.827-85.415.018-.044.038-.088.057-.131.048-.116.1-.231.146-.346s.091-.211.134-.319c12.445-29.775,16.817-58.424,12.648-82.862a1.913,1.913,0,0,0-1.562-1.564,111.652,111.652,0,0,0-18.734-1.535c-20.041,0-41.614,4.77-64.122,14.175l-.733.312c-.03.012-.059.025-.089.038l-.025.009c-30.1,12.727-59.623,33.063-85.374,58.813-4.115,4.114-8.183,8.428-12.091,12.823l-.541.608-.812.055a96.691,96.691,0,0,0-62.218,28.457,96.611,96.611,0,0,0-27.931,63.693v.045c0,.04,0,.082,0,.122v.029c0,.019,0,.038,0,.057l.011.09a1.9,1.9,0,0,0,.141.541l.056.113.006.01.079.139a1.875,1.875,0,0,0,.288.351h.168l.422.39.028.012c.023.01.046.02.07.028l.235.065.025,0,.052.008.084.016c.063.006.128.009.187.014l.159,0c.021,0,.042,0,.062,0l.064-.007.113-.015.009,0,.057-.013.079-.018.015,0,.408-.166.186-.115.065-.048.032-.026.043-.035.061-.053.261-.3a1.526,1.526,0,0,0,.085-.131l.014-.024a59.2,59.2,0,0,1,9.262-11.983,58.874,58.874,0,0,1,31.672-16.45l3.688-.643-1.53,3.417a208.237,208.237,0,0,0-9.75,26.243l-.009.031c-.008.024-.023.078-.04.166l-.029.207c0,.022,0,.053,0,.084l0,.108c0,.027,0,.055.006.082l.006.1c0,.02.006.038.009.055l.006.037c0,.027.009.054.013.081l.089.3.016.047.03.065.015.03c.01.022.02.044.031.065s.039.064.058.1l0,0c.012.021.024.042.037.063l.127.169a1.44,1.44,0,0,0,.117.129l9.054,9.054-2.347,1.27A62.662,62.662,0,0,0,917.512-1806v14.8a1.916,1.916,0,0,0,1.914,1.914h15.3a62.735,62.735,0,0,0,55-32.547l1.276-2.325,8.4,8.4.09.072.062.074.011.01.018.015.073.06.08.059.035.023.041.027.055.035.1.055a1.129,1.129,0,0,0,.107.05l.251.086.091.023.079.016.077.011h.009l.113.014a1.273,1.273,0,0,0,.266,0l.059-.007.142-.021.054-.01c.039-.009.1-.021.121-.028l.308-.088a208.143,208.143,0,0,0,24.9-9.191l3.5-1.545-.748,3.754a59,59,0,0,1-16.19,30.287c-.981.98-1.922,1.987-2.832,2.96l-.111.12c-2.547,2.731-4.956,5.315-7.905,7.08l-.039.034-.151.081c-.029.017-.056.035-.083.054s-.038.028-.058.041l-.086.071a1.851,1.851,0,0,0-.388.436c-.009.013-.017.027-.026.04l-.036.068-.05.09-.008.016a1.861,1.861,0,0,0-.167.6l-.011.093c0,.018,0,.037,0,.055s0,.046,0,.066l.005.032,0,.086c0,.005,0,.01,0,.015l0,.022c0,.034,0,.068.008.1l.021.113c0,.025.009.049.014.073l.057.2c.013.035.028.069.043.1l.041.1a2.055,2.055,0,0,0,.208.33l.034.042c.043.052.079.091.107.119l.068.071c.036.035.1.088.15.125l.043.031c.044.031.089.06.136.088l.045.027.03.018a2.058,2.058,0,0,0,.392.155l.08.02c.041.01.083.017.13.024Zm6.41-4.113,4.058-4.347c.759-.814,1.643-1.755,2.523-2.635a63.2,63.2,0,0,0,18.062-37.569l.12-1.086.98-.481a269.432,269.432,0,0,0,52.461-34.184l4.01-3.308-.777,5.14a92.607,92.607,0,0,1-75.582,77.44Zm28.469-43.025a67.222,67.222,0,0,1-17.054,36.746,88.616,88.616,0,0,0,65.142-67.567A271.514,271.514,0,0,1,1037.708-1825.3Zm-102.983,32.194H921.34V-1806a58.846,58.846,0,0,1,8.95-31.222,58.858,58.858,0,0,1,24.052-21.685l1.277-.625,32.483,32.485-.638,1.282a58.892,58.892,0,0,1-21.687,23.8A58.848,58.848,0,0,1,934.726-1793.107Zm-9.407-3.98h9.407a54.871,54.871,0,0,0,28.954-8.257,54.916,54.916,0,0,0,19.571-20.925l-28.422-28.423a54.882,54.882,0,0,0-21.164,19.582A54.865,54.865,0,0,0,925.319-1806Zm76.06-22.1-.847-.847-53.362-53.359.352-1.145a205.853,205.853,0,0,1,8.741-23.18l1.178-2.643,70.908,70.9-2.643,1.178a205.8,205.8,0,0,1-23.181,8.741Zm-49.7-55.323L1002.5-1823.7a200.962,200.962,0,0,0,18.932-7.053l-62.693-62.691A200.854,200.854,0,0,0,951.681-1874.508Zm80.335,43.31-72.829-72.832.627-1.277c12.561-25.6,30.8-50.737,52.758-72.69,24.655-24.655,52.93-44.364,81.77-57l1.245-.545.96.961,66.985,66.981-.545,1.245c-12.632,28.833-32.343,57.108-57,81.769-21.959,21.96-47.1,40.2-72.69,52.762Zm-68-73.63,68.8,68.8c24.767-12.345,49.066-30.084,70.355-51.373,23.958-23.959,43.169-51.357,55.623-79.311l-64.1-64.094c-27.96,12.458-55.358,31.667-79.311,55.621C994.1-1953.9,976.363-1929.6,964.015-1904.828ZM910.5-1882.512l1.365-6.76a92.223,92.223,0,0,1,26.746-48.6A92.248,92.248,0,0,1,988.57-1962.5l5.156-.8-3.317,4.027a269.915,269.915,0,0,0-33.545,51.3l-.495,1-1.109.1a63.054,63.054,0,0,0-38.863,18.19c-.373.375-.737.756-1.139,1.179Zm73.441-75.092a88.2,88.2,0,0,0-42.578,22.6,88.187,88.187,0,0,0-24.038,40.035,67.057,67.057,0,0,1,36.466-15.764A271.963,271.963,0,0,1,983.944-1957.6Zm181.2-13.8-65.759-65.757,2.833-1.109c20.291-7.944,39.763-11.971,57.874-11.971a110.319,110.319,0,0,1,15.386,1.051l1.483.21.209,1.482c3.081,21.806-.694,47.139-10.917,73.261Zm-58.626-64.251,57.12,57.118c8.926-23.874,12.3-46.913,9.791-66.911a107.318,107.318,0,0,0-13.337-.813C1143.325-2046.257,1125.315-2042.69,1106.518-2035.65Z" transform="translate(-843 2058.03)" fill="#f8f8f8"/>
        <path id="path16" d="M1327.576-1369.476l-1.318,1.319a3.9,3.9,0,0,0,0,5.52,3.9,3.9,0,0,0,2.761,1.142,3.892,3.892,0,0,0,2.759-1.142l1.317-1.318a3.9,3.9,0,0,0,0-5.521,3.9,3.9,0,0,0-5.519,0" transform="translate(-1160.799 1540.195)" fill="#f8f8f8"/>
        <path id="path16_-_Outline" data-name="path16 - Outline" d="M1330.507-1358.016a5.86,5.86,0,0,1-4.167-1.723,5.9,5.9,0,0,1,0-8.334l1.318-1.319a5.854,5.854,0,0,1,4.168-1.728,5.849,5.849,0,0,1,4.167,1.728,5.9,5.9,0,0,1,0,8.332l-1.316,1.319A5.857,5.857,0,0,1,1330.507-1358.016Zm1.317-9.124a1.9,1.9,0,0,0-1.353.562l-1.317,1.318a1.918,1.918,0,0,0,0,2.708,1.9,1.9,0,0,0,1.353.559,1.9,1.9,0,0,0,1.352-.559l1.316-1.318a1.915,1.915,0,0,0,0-2.706A1.9,1.9,0,0,0,1331.823-1367.141Z" transform="translate(-1162.286 1538.706)" fill="#f8f8f8"/>
        <path id="path18" d="M1375.6-1427.21l-4.447,4.447a3.907,3.907,0,0,0,0,5.525,3.891,3.891,0,0,0,2.759,1.141,3.875,3.875,0,0,0,2.762-1.145l4.447-4.447a3.9,3.9,0,0,0,0-5.521,3.9,3.9,0,0,0-5.52,0" transform="translate(-1194.743 1583.844)" fill="#f8f8f8"/>
        <path id="path18_-_Outline" data-name="path18 - Outline" d="M1375.4-1412.617a5.854,5.854,0,0,1-4.165-1.723,5.905,5.905,0,0,1,0-8.338l4.448-4.447a5.854,5.854,0,0,1,4.168-1.727h0a5.849,5.849,0,0,1,4.167,1.728,5.854,5.854,0,0,1,1.726,4.171,5.846,5.846,0,0,1-1.729,4.163l-4.445,4.444A5.836,5.836,0,0,1,1375.4-1412.617Zm4.45-12.256a1.9,1.9,0,0,0-1.355.562l-4.447,4.447a1.92,1.92,0,0,0,0,2.711,1.9,1.9,0,0,0,1.352.558,1.891,1.891,0,0,0,1.35-.558l4.451-4.451a1.9,1.9,0,0,0,.562-1.35,1.9,1.9,0,0,0-.562-1.356A1.9,1.9,0,0,0,1379.852-1424.874Z" transform="translate(-1196.229 1582.354)" fill="#f8f8f8"/>
        <path id="path20" d="M1441.478-1509.915l-9.886,9.883a3.906,3.906,0,0,0,0,5.52,3.9,3.9,0,0,0,2.761,1.146,3.885,3.885,0,0,0,2.758-1.146L1447-1504.4a3.908,3.908,0,0,0,0-5.52,3.9,3.9,0,0,0-5.52,0" transform="translate(-1240.436 1646.371)" fill="#f8f8f8"/>
        <path id="path20_-_Outline" data-name="path20 - Outline" d="M1435.839-1489.888a5.872,5.872,0,0,1-4.166-1.725,5.91,5.91,0,0,1,0-8.335l9.888-9.884a5.847,5.847,0,0,1,4.165-1.726,5.857,5.857,0,0,1,4.168,1.726,5.9,5.9,0,0,1,0,8.333l-9.887,9.884A5.85,5.85,0,0,1,1435.839-1489.888Zm9.883-17.692a1.9,1.9,0,0,0-1.35.56l-9.888,9.884a1.92,1.92,0,0,0,0,2.708,1.909,1.909,0,0,0,1.353.562,1.9,1.9,0,0,0,1.352-.562l9.886-9.883a1.919,1.919,0,0,0,0-2.707A1.906,1.906,0,0,0,1445.722-1507.58Z" transform="translate(-1241.922 1644.881)" fill="#f8f8f8"/>
        <path id="path22" d="M1564.591-1729.359a22.682,22.682,0,0,1-32.037,0,22.682,22.682,0,0,1,0-32.038,22.59,22.59,0,0,1,16.02-6.623,22.582,22.582,0,0,1,16.017,6.623,22.511,22.511,0,0,1,6.636,16.021A22.507,22.507,0,0,1,1564.591-1729.359Zm5.521-37.559a30.5,30.5,0,0,0-43.078,0,30.5,30.5,0,0,0,0,43.079,30.363,30.363,0,0,0,21.54,8.906,30.355,30.355,0,0,0,21.538-8.906,30.5,30.5,0,0,0,0-43.079" transform="translate(-1306.72 1846.543)" fill="#f8f8f8"/>
        <path id="path22_-_Outline" data-name="path22 - Outline" d="M1550.064-1711.453a32.227,32.227,0,0,1-22.947-9.489,32.226,32.226,0,0,1-9.491-22.946,32.228,32.228,0,0,1,9.491-22.947,32.227,32.227,0,0,1,22.945-9.489,32.232,32.232,0,0,1,22.947,9.49,32.228,32.228,0,0,1,9.49,22.946,32.23,32.23,0,0,1-9.49,22.946A32.218,32.218,0,0,1,1550.064-1711.453Zm0-60.892a28.277,28.277,0,0,0-20.132,8.324,28.278,28.278,0,0,0-8.325,20.132,28.278,28.278,0,0,0,8.325,20.133,28.278,28.278,0,0,0,20.134,8.323,28.264,28.264,0,0,0,20.131-8.323,28.278,28.278,0,0,0,8.325-20.133,28.278,28.278,0,0,0-8.325-20.132A28.276,28.276,0,0,0,1550.062-1772.346Zm0,53.09a24.484,24.484,0,0,1-17.427-7.207,24.673,24.673,0,0,1,0-34.853,24.49,24.49,0,0,1,17.428-7.205,24.473,24.473,0,0,1,17.424,7.205,24.5,24.5,0,0,1,7.218,17.428,24.48,24.48,0,0,1-7.218,17.424A24.475,24.475,0,0,1,1550.063-1719.255Zm0-45.285a20.535,20.535,0,0,0-14.615,6.04,20.69,20.69,0,0,0,0,29.225,20.534,20.534,0,0,0,14.614,6.041,20.523,20.523,0,0,0,14.611-6.041,20.528,20.528,0,0,0,6.052-14.61,20.543,20.543,0,0,0-6.054-14.615A20.518,20.518,0,0,0,1550.064-1764.541Z" transform="translate(-1308.21 1845.052)" fill="#f8f8f8"/>
        <path id="path24" d="M756.049-1250.857a3.9,3.9,0,0,0,2.76-1.144l22.888-22.888a3.9,3.9,0,0,0,0-5.52,3.9,3.9,0,0,0-5.521,0l-22.888,22.888a3.9,3.9,0,0,0,0,5.52,3.9,3.9,0,0,0,2.761,1.144" transform="translate(-727.617 1472.858)" fill="#f8f8f8"/>
        <path id="path24_-_Outline" data-name="path24 - Outline" d="M757.535-1247.377a5.862,5.862,0,0,1-4.166-1.726,5.9,5.9,0,0,1,0-8.335l22.888-22.889a5.856,5.856,0,0,1,4.168-1.726,5.853,5.853,0,0,1,4.167,1.727,5.9,5.9,0,0,1,0,8.333L761.7-1249.1A5.863,5.863,0,0,1,757.535-1247.377Zm22.888-30.7a1.9,1.9,0,0,0-1.354.56l-22.888,22.888a1.92,1.92,0,0,0,0,2.708,1.907,1.907,0,0,0,1.353.56,1.905,1.905,0,0,0,1.354-.563l22.887-22.886a1.917,1.917,0,0,0,0-2.707A1.9,1.9,0,0,0,780.423-1278.073Z" transform="translate(-729.103 1471.368)" fill="#f8f8f8"/>
        <path id="path26" d="M716.57-1128.076a3.9,3.9,0,0,0,0-5.521,3.9,3.9,0,0,0-5.52,0l-50.144,50.144a3.9,3.9,0,0,0,0,5.52,3.892,3.892,0,0,0,2.76,1.142,3.893,3.893,0,0,0,2.76-1.142l50.144-50.144" transform="translate(-657.772 1361.863)" fill="#f8f8f8"/>
        <path id="path26_-_Outline" data-name="path26 - Outline" d="M665.155-1073.311a5.857,5.857,0,0,1-4.167-1.724,5.856,5.856,0,0,1-1.727-4.168,5.851,5.851,0,0,1,1.727-4.168l50.143-50.142a5.855,5.855,0,0,1,4.167-1.727,5.854,5.854,0,0,1,4.167,1.728,5.848,5.848,0,0,1,1.726,4.165,5.859,5.859,0,0,1-1.726,4.168l-50.144,50.144A5.859,5.859,0,0,1,665.155-1073.311Zm50.144-57.95a1.9,1.9,0,0,0-1.353.561L663.8-1080.555a1.9,1.9,0,0,0-.561,1.352,1.9,1.9,0,0,0,.561,1.354,1.9,1.9,0,0,0,1.353.559,1.905,1.905,0,0,0,1.354-.56l50.143-50.144a1.9,1.9,0,0,0,.561-1.354,1.9,1.9,0,0,0-.56-1.351A1.9,1.9,0,0,0,715.3-1131.261Z" transform="translate(-659.262 1360.373)" fill="#f8f8f8"/>
        <path id="path28" d="M942.924-892.97,893.654-843.7a3.9,3.9,0,0,0,0,5.52,3.884,3.884,0,0,0,2.76,1.145,3.884,3.884,0,0,0,2.76-1.145l49.271-49.269a3.9,3.9,0,0,0,0-5.52,3.9,3.9,0,0,0-5.521,0" transform="translate(-833.737 1179.943)" fill="#f8f8f8"/>
        <path id="path28_-_Outline" data-name="path28 - Outline" d="M897.9-833.556a5.848,5.848,0,0,1-4.169-1.73,5.848,5.848,0,0,1-1.724-4.164,5.857,5.857,0,0,1,1.725-4.167l49.271-49.27a5.856,5.856,0,0,1,4.168-1.727,5.851,5.851,0,0,1,4.168,1.727,5.847,5.847,0,0,1,1.726,4.165,5.858,5.858,0,0,1-1.726,4.168L902.07-835.284A5.848,5.848,0,0,1,897.9-833.556Zm49.271-57.079a1.9,1.9,0,0,0-1.353.561L896.55-840.8a1.9,1.9,0,0,0-.561,1.354,1.9,1.9,0,0,0,.559,1.351,1.9,1.9,0,0,0,1.354.563,1.894,1.894,0,0,0,1.351-.561l49.272-49.27a1.9,1.9,0,0,0,.561-1.354,1.894,1.894,0,0,0-.56-1.351A1.9,1.9,0,0,0,947.174-890.635Z" transform="translate(-835.226 1178.453)" fill="#f8f8f8"/>
        <path id="path30" d="M1175.507-873.637l-19.744,19.742a3.9,3.9,0,0,0,0,5.52,3.9,3.9,0,0,0,2.761,1.145,3.892,3.892,0,0,0,2.76-1.145l19.743-19.742a3.9,3.9,0,0,0,0-5.52,3.9,3.9,0,0,0-5.519,0" transform="translate(-1031.9 1165.326)" fill="#f8f8f8"/>
        <path id="path30_-_Outline" data-name="path30 - Outline" d="M1160.013-843.75a5.854,5.854,0,0,1-4.166-1.728,5.845,5.845,0,0,1-1.727-4.166,5.86,5.86,0,0,1,1.725-4.168l19.745-19.743a5.851,5.851,0,0,1,4.166-1.727,5.851,5.851,0,0,1,4.168,1.728,5.848,5.848,0,0,1,1.726,4.165,5.857,5.857,0,0,1-1.726,4.168l-19.744,19.742A5.854,5.854,0,0,1,1160.013-843.75Zm19.743-27.552a1.9,1.9,0,0,0-1.352.561L1158.66-851a1.905,1.905,0,0,0-.56,1.355,1.9,1.9,0,0,0,.559,1.351,1.905,1.905,0,0,0,1.355.563,1.9,1.9,0,0,0,1.353-.563l19.744-19.742a1.905,1.905,0,0,0,.56-1.354,1.9,1.9,0,0,0-.56-1.351A1.9,1.9,0,0,0,1179.756-871.3Z" transform="translate(-1033.39 1163.837)" fill="#f8f8f8"/>
        <path id="path32" d="M743.108-933.316a3.9,3.9,0,0,0-5.521,0l-50.9,50.9a3.9,3.9,0,0,0,0,5.52,3.9,3.9,0,0,0,2.76,1.142,3.893,3.893,0,0,0,2.76-1.142l50.9-50.9a3.9,3.9,0,0,0,0-5.519" transform="translate(-677.263 1210.446)" fill="#f8f8f8"/>
        <path id="path32_-_Outline" data-name="path32 - Outline" d="M690.933-872.273A5.86,5.86,0,0,1,686.767-874a5.9,5.9,0,0,1,0-8.336l50.9-50.9a5.852,5.852,0,0,1,4.167-1.727h0A5.85,5.85,0,0,1,746-933.233a5.849,5.849,0,0,1,1.725,4.165A5.856,5.856,0,0,1,746-924.9L695.1-874A5.859,5.859,0,0,1,690.933-872.273Zm50.9-58.708a1.9,1.9,0,0,0-1.353.561l-50.9,50.9a1.916,1.916,0,0,0,0,2.707,1.9,1.9,0,0,0,1.353.559,1.905,1.905,0,0,0,1.355-.56l50.9-50.9a1.9,1.9,0,0,0,.56-1.354,1.9,1.9,0,0,0-.56-1.351A1.9,1.9,0,0,0,741.835-930.981Z" transform="translate(-678.751 1208.956)" fill="#f8f8f8"/>
      </g>
    </g>
  </g>
</svg>
