<svg xmlns="http://www.w3.org/2000/svg" xmlns:xlink="http://www.w3.org/1999/xlink" width="140" height="164.316" viewBox="0 0 140 164.316">
  <defs>
    <radialGradient id="radial-gradient" cx="0.5" cy="0.5" r="0.478" gradientTransform="translate(0 -0.081) scale(1 1.161)" gradientUnits="objectBoundingBox">
      <stop offset="0" stop-color="#bfc1c6"/>
      <stop offset="1" stop-color="#e7ebf5"/>
    </radialGradient>
    <radialGradient id="radial-gradient-2" cx="0.085" cy="0.287" r="0.797" gradientTransform="translate(0 -0.027) scale(1 1.161)" gradientUnits="objectBoundingBox">
      <stop offset="0" stop-color="#ecedf1"/>
      <stop offset="1" stop-color="#d0d3db"/>
    </radialGradient>
    <radialGradient id="radial-gradient-51" cx="-0.087" cy="-0.204" r="1.398" gradientTransform="matrix(0.923, 0.385, -0.339, 0.81, -0.076, -0.005)" gradientUnits="objectBoundingBox">
      <stop offset="0" stop-color="#ff4141"/>
      <stop offset="1" stop-color="#b50f0f"/>
    </radialGradient>
  </defs>
  <g id="Group_257" data-name="Group 257" transform="translate(-863 -5212.684)">
    <g id="Group_236" data-name="Group 236" transform="translate(744 590.684)">
      <g id="Group_234" data-name="Group 234" transform="translate(-60 -835)">
        <g id="Group_226" data-name="Group 226" transform="translate(-123 191)">
          <ellipse id="Ellipse_309" data-name="Ellipse 309" cx="55.5" cy="7" rx="55.5" ry="7" transform="translate(331 5416.316)" opacity="0.14" fill="url(#radial-gradient)"/>
          <g id="Group_224" data-name="Group 224" transform="translate(67 -18)">
            <g id="Group_219" data-name="Group 219" transform="translate(56.433 5104.561)" opacity="0.259">
              <g id="Group_3" data-name="Group 3" transform="translate(178.669 179.875)">
                <circle id="Ellipse_1" data-name="Ellipse 1" cx="4" cy="4" r="4" transform="translate(-0.102 102.564)" fill="url(#radial-gradient-2)"/>
                <circle id="Ellipse_14" data-name="Ellipse 14" cx="4" cy="4" r="4" transform="translate(-0.102 85.564)" fill="url(#radial-gradient-2)"/>
                <ellipse id="Ellipse_21" data-name="Ellipse 21" cx="4" cy="4.5" rx="4" ry="4.5" transform="translate(-0.102 68.564)" fill="url(#radial-gradient-2)"/>
                <ellipse id="Ellipse_28" data-name="Ellipse 28" cx="4" cy="3.5" rx="4" ry="3.5" transform="translate(-0.102 51.564)" fill="url(#radial-gradient-2)"/>
                <circle id="Ellipse_35" data-name="Ellipse 35" cx="4" cy="4" r="4" transform="translate(-0.102 33.564)" fill="url(#radial-gradient-2)"/>
                <circle id="Ellipse_42" data-name="Ellipse 42" cx="4" cy="4" r="4" transform="translate(-0.102 16.564)" fill="url(#radial-gradient-2)"/>
                <circle id="Ellipse_49" data-name="Ellipse 49" cx="4" cy="4" r="4" transform="translate(-0.102 -0.436)" fill="url(#radial-gradient-2)"/>
                <circle id="Ellipse_2" data-name="Ellipse 2" cx="4" cy="4" r="4" transform="translate(16.898 102.564)" fill="url(#radial-gradient-2)"/>
                <circle id="Ellipse_13" data-name="Ellipse 13" cx="4" cy="4" r="4" transform="translate(16.898 85.564)" fill="url(#radial-gradient-2)"/>
                <ellipse id="Ellipse_20" data-name="Ellipse 20" cx="4" cy="4.5" rx="4" ry="4.5" transform="translate(16.898 68.564)" fill="url(#radial-gradient-2)"/>
                <ellipse id="Ellipse_27" data-name="Ellipse 27" cx="4" cy="3.5" rx="4" ry="3.5" transform="translate(16.898 51.564)" fill="url(#radial-gradient-2)"/>
                <circle id="Ellipse_34" data-name="Ellipse 34" cx="4" cy="4" r="4" transform="translate(16.898 33.564)" fill="url(#radial-gradient-2)"/>
                <circle id="Ellipse_41" data-name="Ellipse 41" cx="4" cy="4" r="4" transform="translate(16.898 16.564)" fill="url(#radial-gradient-2)"/>
                <circle id="Ellipse_48" data-name="Ellipse 48" cx="4" cy="4" r="4" transform="translate(16.898 -0.436)" fill="url(#radial-gradient-2)"/>
                <circle id="Ellipse_7" data-name="Ellipse 7" cx="4" cy="4" r="4" transform="translate(68.898 102.564)" fill="url(#radial-gradient-2)"/>
                <circle id="Ellipse_10" data-name="Ellipse 10" cx="4" cy="4" r="4" transform="translate(68.898 85.564)" fill="url(#radial-gradient-2)"/>
                <ellipse id="Ellipse_17" data-name="Ellipse 17" cx="4" cy="4.5" rx="4" ry="4.5" transform="translate(68.898 68.564)" fill="url(#radial-gradient-2)"/>
                <ellipse id="Ellipse_24" data-name="Ellipse 24" cx="4" cy="3.5" rx="4" ry="3.5" transform="translate(68.898 51.564)" fill="url(#radial-gradient-2)"/>
                <circle id="Ellipse_31" data-name="Ellipse 31" cx="4" cy="4" r="4" transform="translate(68.898 33.564)" fill="url(#radial-gradient-2)"/>
                <circle id="Ellipse_38" data-name="Ellipse 38" cx="4" cy="4" r="4" transform="translate(68.898 16.564)" fill="url(#radial-gradient-2)"/>
                <circle id="Ellipse_45" data-name="Ellipse 45" cx="4" cy="4" r="4" transform="translate(68.898 -0.436)" fill="url(#radial-gradient-2)"/>
                <circle id="Ellipse_3" data-name="Ellipse 3" cx="4" cy="4" r="4" transform="translate(33.898 102.564)" fill="url(#radial-gradient-2)"/>
                <circle id="Ellipse_12" data-name="Ellipse 12" cx="4" cy="4" r="4" transform="translate(33.898 85.564)" fill="url(#radial-gradient-2)"/>
                <ellipse id="Ellipse_19" data-name="Ellipse 19" cx="4" cy="4.5" rx="4" ry="4.5" transform="translate(33.898 68.564)" fill="url(#radial-gradient-2)"/>
                <ellipse id="Ellipse_26" data-name="Ellipse 26" cx="4" cy="3.5" rx="4" ry="3.5" transform="translate(33.898 51.564)" fill="url(#radial-gradient-2)"/>
                <circle id="Ellipse_33" data-name="Ellipse 33" cx="4" cy="4" r="4" transform="translate(33.898 33.564)" fill="url(#radial-gradient-2)"/>
                <circle id="Ellipse_40" data-name="Ellipse 40" cx="4" cy="4" r="4" transform="translate(33.898 16.564)" fill="url(#radial-gradient-2)"/>
                <circle id="Ellipse_47" data-name="Ellipse 47" cx="4" cy="4" r="4" transform="translate(33.898 -0.436)" fill="url(#radial-gradient-2)"/>
                <circle id="Ellipse_6" data-name="Ellipse 6" cx="4" cy="4" r="4" transform="translate(84.898 102.564)" fill="url(#radial-gradient-2)"/>
                <circle id="Ellipse_9" data-name="Ellipse 9" cx="4" cy="4" r="4" transform="translate(84.898 85.564)" fill="url(#radial-gradient-2)"/>
                <ellipse id="Ellipse_16" data-name="Ellipse 16" cx="4" cy="4.5" rx="4" ry="4.5" transform="translate(84.898 68.564)" fill="url(#radial-gradient-2)"/>
                <ellipse id="Ellipse_23" data-name="Ellipse 23" cx="4" cy="3.5" rx="4" ry="3.5" transform="translate(84.898 51.564)" fill="url(#radial-gradient-2)"/>
                <circle id="Ellipse_30" data-name="Ellipse 30" cx="4" cy="4" r="4" transform="translate(84.898 33.564)" fill="url(#radial-gradient-2)"/>
                <circle id="Ellipse_37" data-name="Ellipse 37" cx="4" cy="4" r="4" transform="translate(84.898 16.564)" fill="url(#radial-gradient-2)"/>
                <circle id="Ellipse_44" data-name="Ellipse 44" cx="4" cy="4" r="4" transform="translate(84.898 -0.436)" fill="url(#radial-gradient-2)"/>
                <circle id="Ellipse_4" data-name="Ellipse 4" cx="4" cy="4" r="4" transform="translate(50.898 102.564)" fill="url(#radial-gradient-2)"/>
                <circle id="Ellipse_11" data-name="Ellipse 11" cx="4" cy="4" r="4" transform="translate(50.898 85.564)" fill="url(#radial-gradient-2)"/>
                <ellipse id="Ellipse_18" data-name="Ellipse 18" cx="4" cy="4.5" rx="4" ry="4.5" transform="translate(50.898 68.564)" fill="url(#radial-gradient-2)"/>
                <ellipse id="Ellipse_25" data-name="Ellipse 25" cx="4" cy="3.5" rx="4" ry="3.5" transform="translate(50.898 51.564)" fill="url(#radial-gradient-2)"/>
                <circle id="Ellipse_32" data-name="Ellipse 32" cx="4" cy="4" r="4" transform="translate(50.898 33.564)" fill="url(#radial-gradient-2)"/>
                <circle id="Ellipse_39" data-name="Ellipse 39" cx="4" cy="4" r="4" transform="translate(50.898 16.564)" fill="url(#radial-gradient-2)"/>
                <circle id="Ellipse_46" data-name="Ellipse 46" cx="4" cy="4" r="4" transform="translate(50.898 -0.436)" fill="url(#radial-gradient-2)"/>
                <circle id="Ellipse_5" data-name="Ellipse 5" cx="4" cy="4" r="4" transform="translate(101.898 102.564)" fill="url(#radial-gradient-2)"/>
                <circle id="Ellipse_8" data-name="Ellipse 8" cx="4" cy="4" r="4" transform="translate(101.898 85.564)" fill="url(#radial-gradient-2)"/>
                <ellipse id="Ellipse_15" data-name="Ellipse 15" cx="4" cy="4.5" rx="4" ry="4.5" transform="translate(101.898 68.564)" fill="url(#radial-gradient-2)"/>
                <ellipse id="Ellipse_22" data-name="Ellipse 22" cx="4" cy="3.5" rx="4" ry="3.5" transform="translate(101.898 51.564)" fill="url(#radial-gradient-2)"/>
                <circle id="Ellipse_29" data-name="Ellipse 29" cx="4" cy="4" r="4" transform="translate(101.898 33.564)" fill="url(#radial-gradient-2)"/>
                <circle id="Ellipse_36" data-name="Ellipse 36" cx="4" cy="4" r="4" transform="translate(101.898 16.564)" fill="url(#radial-gradient-2)"/>
                <circle id="Ellipse_43" data-name="Ellipse 43" cx="4" cy="4" r="4" transform="translate(101.898 -0.436)" fill="url(#radial-gradient-2)"/>
              </g>
            </g>
          </g>
        </g>
      </g>
      <g id="g10" transform="translate(-496.743 6744.656)">
        <g id="g12" transform="translate(659.262 -2058.031)">
          <path id="path14" d="M946.565-2020.369a60.171,60.171,0,0,1-15.77,11.448L915.319-2024.4a60.17,60.17,0,0,1,11.447-15.77,59.106,59.106,0,0,1,17.737-12.366l14.429,14.428A59.106,59.106,0,0,1,946.565-2020.369Zm-19.63,22.013c.177-.19.358-.383.541-.565a14.217,14.217,0,0,0,4.072-8.47,59.534,59.534,0,0,0,11.55-7.526A19.8,19.8,0,0,1,926.935-1998.356Zm-17.489-2.148h-2.491v-2.382a12.435,12.435,0,0,1,6.969-11.172l6.658,6.658A12.448,12.448,0,0,1,909.446-2000.5Zm14.689-5.757-11.477-11.476a44.465,44.465,0,0,1,1.892-5.017l14.6,14.6A44.511,44.511,0,0,1,924.134-2006.261Zm-19-15c-.087.087-.172.176-.256.265a19.8,19.8,0,0,1,16.4-15.66,59.624,59.624,0,0,0-7.385,11.294A14.215,14.215,0,0,0,905.133-2021.264ZM962-2055.6a31.825,31.825,0,0,1-2.36,15.791l-13.431-13.43A31.82,31.82,0,0,1,962-2055.6Zm-1.2,17.457c2.751-6.581,3.715-12.926,2.79-18.347a.853.853,0,0,0-.7-.7c-5.422-.925-11.766.04-18.348,2.79l-.149.064-.038.016a60.259,60.259,0,0,0-18.8,12.946q-1.376,1.375-2.66,2.821a21.542,21.542,0,0,0-13.877,6.347,21.548,21.548,0,0,0-6.23,14.214v0c0,.021,0,.042,0,.062s0,.016,0,.024,0,.03,0,.045a.841.841,0,0,0,.076.269l0,0c.007.014.014.027.022.04l.018.034.008.011a.858.858,0,0,0,.177.2l.038.031.018.012.054.036h0l.016.009.056.029.03.013.047.018.043.013.036.01a.509.509,0,0,0,.056.011l.025.005.069.006.013,0h.061l.048,0,.04,0,.039-.006.045-.01.033-.008.046-.015.032-.011c.014-.005.028-.011.042-.018l.034-.016.036-.019.037-.021.029-.019.039-.029.024-.019.038-.033.023-.024c.011-.01.022-.022.033-.034s.019-.024.029-.036l.022-.027a.768.768,0,0,0,.047-.073,12.513,12.513,0,0,1,1.956-2.531,12.514,12.514,0,0,1,6.689-3.474,45.917,45.917,0,0,0-2.151,5.79.827.827,0,0,0-.021.087c0,.013,0,.026-.006.038s0,.028-.006.043,0,.035,0,.053,0,.019,0,.028,0,.037,0,.055,0,.02,0,.029,0,.033.007.05,0,.022.005.033.007.028.01.042.007.026.011.04.008.022.012.033.011.031.017.046l.013.027c.008.016.015.032.023.048l.015.026c.009.015.017.03.027.044s.017.023.026.035.015.021.023.031a.775.775,0,0,0,.06.066l1.563,1.563a14.14,14.14,0,0,0-7.408,12.438v3.235a.853.853,0,0,0,.853.853h3.344a14.156,14.156,0,0,0,12.4-7.339l1.436,1.436,0,0,0,0,.005,0a.591.591,0,0,0,.052.046l.021.017.041.03.026.017.041.025.029.016a.672.672,0,0,0,.061.028l.029.011.044.015.029.008.049.012.024.005.061.009h.013a.7.7,0,0,0,.078,0c.025,0,.05,0,.076,0l.017,0,.057-.009.021,0c.023,0,.046-.01.069-.017h.007a45.826,45.826,0,0,0,5.551-2.044,12.517,12.517,0,0,1-3.419,6.4c-.228.228-.444.46-.653.684a7.872,7.872,0,0,1-1.664,1.489l0,0c-.019.011-.036.023-.054.035l-.018.013a.46.46,0,0,0-.038.031.844.844,0,0,0-.177.2l-.008.012c-.007.011-.012.022-.018.033s-.015.026-.022.04l0,.005a.843.843,0,0,0-.076.269c0,.015,0,.03,0,.045s0,.016,0,.024,0,.042,0,.063a.031.031,0,0,1,0,0c0,.007,0,.014,0,.021s0,.039.006.059,0,.021.005.031.006.033.01.049.008.029.012.043.006.024.011.036.016.041.024.061l.006.016a.874.874,0,0,0,.1.161l.018.023c.017.02.034.04.052.058l.017.018a.81.81,0,0,0,.072.061l.026.019c.019.014.039.026.06.038l.025.015a.875.875,0,0,0,.184.074l.022.006a.717.717,0,0,0,.078.015l.025,0a.714.714,0,0,0,.1.006h.042a21.545,21.545,0,0,0,14.213-6.23,21.542,21.542,0,0,0,6.351-13.939q1.425-1.269,2.787-2.629a60.26,60.26,0,0,0,12.95-18.807l.009-.021c.021-.052.044-.1.065-.155" transform="translate(-889.4 2057.966)" fill="url(#radial-gradient-51)"/>
          <path id="path14_-_Outline" data-name="path14 - Outline" d="M924.322-1995.995h-.009a1.153,1.153,0,0,1-.144-.009l-.045-.006c-.039-.006-.078-.013-.115-.022l-.009,0-.028-.007a1.312,1.312,0,0,1-.271-.109l-.01-.006-.033-.02c-.029-.017-.057-.036-.085-.055l-.007,0-.039-.029a1.18,1.18,0,0,1-.107-.093l-.018-.018c-.027-.028-.052-.055-.08-.088l-.011-.014-.023-.029a1.294,1.294,0,0,1-.144-.24l-.007-.016-.005-.014c-.013-.03-.024-.058-.033-.085s-.011-.034-.015-.05l0-.013c-.006-.019-.011-.038-.016-.057s-.009-.043-.013-.065l0-.018-.006-.034v0c0-.026-.006-.053-.008-.079v-.015l0-.02v-.022c0-.03,0-.056,0-.079s0-.03,0-.044,0-.037.006-.056v-.009a1.28,1.28,0,0,1,.1-.377l0-.008.016-.032c.008-.016.016-.031.025-.047l.008-.015c.008-.015.016-.03.025-.044l.016-.024a1.275,1.275,0,0,1,.261-.3.839.839,0,0,1,.071-.056l.006,0h0l.016-.012.027-.018.006-.006.049-.029a7.575,7.575,0,0,0,1.566-1.411l.025-.026c.2-.218.415-.444.639-.668a12.022,12.022,0,0,0,3.106-5.348,45.764,45.764,0,0,1-4.807,1.72l-.023.006c-.029.008-.056.014-.08.019l-.049.009-.071.01-.033,0a1.151,1.151,0,0,1-.225,0l-.033,0-.079-.011h-.007l-.024,0-.015,0-.066-.016-.042-.012-.053-.018-.016-.006-.048-.019c-.035-.014-.067-.029-.1-.046l-.023-.013-.006,0c-.025-.014-.048-.027-.072-.043l-.019-.012-.027-.018-.045-.033-.035-.028a1.028,1.028,0,0,1-.077-.068l-.015-.014-.011-.012-1.029-1.029a14.579,14.579,0,0,1-12.494,7.064h-3.344a1.289,1.289,0,0,1-1.288-1.288v-3.235a14.562,14.562,0,0,1,7.132-12.535l-1.157-1.157a1.173,1.173,0,0,1-.088-.1c-.017-.02-.03-.038-.038-.049l0,0c-.013-.017-.025-.033-.037-.051s-.025-.039-.037-.061l-.009-.015-.014-.023,0-.008c-.01-.018-.019-.037-.028-.056l-.01-.021c-.005-.01-.011-.022-.016-.034s-.017-.044-.025-.067h0c-.006-.017-.012-.034-.018-.052s-.008-.029-.012-.043l-.008-.032c0-.016-.008-.032-.011-.048s0-.026-.007-.041l0-.019c0-.022-.007-.044-.009-.066s0-.025,0-.039,0-.053,0-.087c0-.014,0-.029,0-.043s0-.05,0-.08,0-.033.006-.051l0-.019c0-.017,0-.035.008-.052a1.255,1.255,0,0,1,.032-.131,45.824,45.824,0,0,1,1.831-5.066,11.992,11.992,0,0,0-5.645,3.183,12.072,12.072,0,0,0-1.887,2.441,1.217,1.217,0,0,1-.071.11l-.035.045,0,0c-.013.017-.027.034-.041.05s-.033.036-.051.053l-.036.036-.054.047-.01.008-.03.024-.036.026-.059.04-.048.028,0,0c-.021.013-.043.025-.065.035l-.047.022c-.016.007-.039.018-.066.028l-.039.014h0l-.047.016-.038.011-.046.011h-.005l-.056.012H903.8l-.03,0-.038.005-.049.005-.057,0-.045,0h-.075l-.022,0-.077-.007-.048-.008c-.031,0-.059-.011-.087-.018l-.054-.015h0c-.022-.006-.043-.012-.065-.02l-.062-.024h0l-.026-.011-.019-.008h-.018l-.089-.055-.043-.022-.015-.015-.024-.016-.027-.018-.013-.009-.05-.041-.005,0a1.285,1.285,0,0,1-.257-.29l0,0-.02-.032-.021-.038,0,0-.017-.03-.016-.024-.012-.033a1.277,1.277,0,0,1-.107-.388v-.009c0-.019,0-.038-.006-.057s0-.028,0-.042c0-.029,0-.055,0-.08v-.016a21.983,21.983,0,0,1,6.355-14.5,22,22,0,0,1,13.979-6.462c.829-.927,1.69-1.838,2.56-2.707a60.718,60.718,0,0,1,18.934-13.039l.042-.018.143-.061a37.446,37.446,0,0,1,14.352-3.166,25.3,25.3,0,0,1,4.24.348,1.289,1.289,0,0,1,1.053,1.053c.939,5.5-.035,11.931-2.818,18.588l-.033.079-.031.073-.012.026a60.719,60.719,0,0,1-13.043,18.945c-.857.857-1.755,1.707-2.673,2.528a21.993,21.993,0,0,1-6.467,14.041,21.98,21.98,0,0,1-14.5,6.355Zm-.058-.874.011,0,.038,0h.02a21.113,21.113,0,0,0,13.93-6.1,21.125,21.125,0,0,0,6.223-13.658l.012-.178.133-.119c.951-.847,1.882-1.725,2.769-2.612a59.845,59.845,0,0,0,12.856-18.667l.013-.029.032-.076.029-.07c2.72-6.507,3.675-12.768,2.764-18.109a.418.418,0,0,0-.341-.342,24.4,24.4,0,0,0-4.094-.335,36.582,36.582,0,0,0-14.013,3.1l-.16.068-.02.008-.005,0a59.849,59.849,0,0,0-18.658,12.853c-.9.9-1.788,1.842-2.642,2.8l-.118.133-.177.012a21.131,21.131,0,0,0-13.6,6.219,21.113,21.113,0,0,0-6.1,13.919v.01c0,.009,0,.018,0,.027v.006s0,.008,0,.012l0,.02a.413.413,0,0,0,.031.118l.012.025v0l.017.03a.412.412,0,0,0,.063.077h.037l.092.085.006,0,.015.006.051.014h.005l.011,0,.018,0,.041,0h.062l.025,0h0l.013,0,.017,0h0l.089-.036.041-.025.014-.01.007-.005.009-.008.013-.012.057-.065.019-.029,0-.005a12.943,12.943,0,0,1,2.024-2.619,12.867,12.867,0,0,1,6.922-3.595l.806-.141-.334.747a45.522,45.522,0,0,0-2.131,5.735l0,.007c0,.005,0,.017-.009.036l-.006.045s0,.012,0,.018v.024c0,.006,0,.012,0,.018v.021l0,.012v.008l0,.018.019.066,0,.01.007.014,0,.007.007.014.013.022h0l.008.014.028.037a.31.31,0,0,0,.026.028l1.979,1.979-.513.277a13.694,13.694,0,0,0-7.181,12.056v3.235a.419.419,0,0,0,.418.418h3.344a13.71,13.71,0,0,0,12.019-7.113l.279-.508,1.837,1.837.02.016.013.016,0,0,0,0,.016.013.018.013.008.005.009.006.012.008.022.012.023.011.055.019.02.005.017,0,.017,0h0l.025,0a.271.271,0,0,0,.058,0l.013,0,.031,0,.012,0,.027-.006.067-.019a45.5,45.5,0,0,0,5.442-2.009l.765-.338-.163.82a12.9,12.9,0,0,1-3.538,6.619c-.214.214-.42.434-.619.647l-.024.026a8.338,8.338,0,0,1-1.728,1.547l-.009.007-.033.018-.018.012-.013.009-.019.016a.406.406,0,0,0-.085.1l-.006.009-.008.015-.011.02,0,0a.406.406,0,0,0-.036.13l0,.02s0,.008,0,.012,0,.01,0,.014v.034c0,.007,0,.015,0,.023l0,.025,0,.016.012.043.009.022.009.021a.448.448,0,0,0,.045.072l.007.009.023.026.015.015c.008.008.022.019.033.027l.009.007.03.019.01.006.006,0a.457.457,0,0,0,.086.034l.017,0,.028.005Zm1.4-.9.887-.95c.166-.178.359-.384.551-.576a13.81,13.81,0,0,0,3.947-8.21l.026-.237.214-.105a58.878,58.878,0,0,0,11.465-7.471l.876-.723-.17,1.123a20.238,20.238,0,0,1-16.518,16.924Zm6.222-9.4a14.69,14.69,0,0,1-3.727,8.03,19.366,19.366,0,0,0,14.236-14.766A59.333,59.333,0,0,1,931.886-2007.17Zm-22.506,7.036h-2.925v-2.817a12.86,12.86,0,0,1,1.956-6.823,12.863,12.863,0,0,1,5.256-4.739l.279-.137,7.1,7.1-.139.28a12.87,12.87,0,0,1-4.739,5.2A12.861,12.861,0,0,1,909.38-2000.134Zm-2.056-.87h2.056a11.992,11.992,0,0,0,6.328-1.8,12,12,0,0,0,4.277-4.573l-6.211-6.211a11.994,11.994,0,0,0-4.625,4.279,11.99,11.99,0,0,0-1.824,6.362Zm16.622-4.829-.185-.185L912.1-2017.68l.077-.25a44.972,44.972,0,0,1,1.91-5.066l.257-.578,15.5,15.5-.578.257a45.006,45.006,0,0,1-5.066,1.91Zm-10.861-12.09,11.105,11.1a43.93,43.93,0,0,0,4.137-1.542l-13.7-13.7A43.889,43.889,0,0,0,913.086-2017.924Zm17.556,9.465-15.916-15.917.137-.279a60.679,60.679,0,0,1,11.53-15.886A59.531,59.531,0,0,1,944.263-2053l.272-.119.21.21,14.639,14.638-.119.272a59.532,59.532,0,0,1-12.457,17.87,60.682,60.682,0,0,1-15.886,11.531Zm-14.861-16.091,15.035,15.036a59.959,59.959,0,0,0,15.375-11.227,58.8,58.8,0,0,0,12.156-17.333l-14.008-14.007a58.809,58.809,0,0,0-17.333,12.155A59.957,59.957,0,0,0,915.781-2024.55Zm-11.695,4.877.3-1.477a20.155,20.155,0,0,1,5.845-10.622,20.16,20.16,0,0,1,10.918-5.382l1.127-.174-.725.88a58.988,58.988,0,0,0-7.331,11.211l-.108.218-.242.022a13.78,13.78,0,0,0-8.493,3.975c-.081.082-.161.165-.249.258Zm16.05-16.411a19.274,19.274,0,0,0-9.305,4.94,19.272,19.272,0,0,0-5.253,8.749,14.654,14.654,0,0,1,7.969-3.445A59.435,59.435,0,0,1,920.137-2036.083Zm39.6-3.015-14.371-14.371.619-.242a34.9,34.9,0,0,1,12.648-2.616,24.1,24.1,0,0,1,3.363.23l.324.046.046.324a32.3,32.3,0,0,1-2.386,16.01Zm-12.812-14.042,12.483,12.483a31.3,31.3,0,0,0,2.14-14.623,23.436,23.436,0,0,0-2.915-.178A33.569,33.569,0,0,0,946.924-2053.14Z" transform="translate(-889.335 2058.031)" fill="url(#radial-gradient-51)"/>
          <path id="path16" d="M1325.654-1370.37l-.288.288a.853.853,0,0,0,0,1.206.852.852,0,0,0,.6.25.85.85,0,0,0,.6-.25l.288-.288a.853.853,0,0,0,0-1.206.852.852,0,0,0-1.206,0" transform="translate(-1289.206 1407.679)" fill="url(#radial-gradient-51)"/>
          <path id="path16_-_Outline" data-name="path16 - Outline" d="M1325.9-1368.256a1.281,1.281,0,0,1-.911-.377,1.29,1.29,0,0,1,0-1.821l.288-.288a1.28,1.28,0,0,1,.911-.377,1.278,1.278,0,0,1,.911.378,1.289,1.289,0,0,1,0,1.821l-.288.288A1.279,1.279,0,0,1,1325.9-1368.256Zm.288-1.994a.415.415,0,0,0-.3.123l-.288.288a.419.419,0,0,0,0,.592.416.416,0,0,0,.3.122.415.415,0,0,0,.3-.122l.288-.288a.419.419,0,0,0,0-.592A.415.415,0,0,0,1326.192-1370.25Z" transform="translate(-1289.141 1407.744)" fill="url(#radial-gradient-51)"/>
          <path id="path18" d="M1371.235-1428.1l-.972.972a.854.854,0,0,0,0,1.207.85.85,0,0,0,.6.249.847.847,0,0,0,.6-.25l.972-.972a.852.852,0,0,0,0-1.206.853.853,0,0,0-1.206,0" transform="translate(-1331.71 1462.334)" fill="url(#radial-gradient-51)"/>
          <path id="path18_-_Outline" data-name="path18 - Outline" d="M1370.8-1425.305a1.279,1.279,0,0,1-.91-.377,1.29,1.29,0,0,1,0-1.822l.972-.972a1.28,1.28,0,0,1,.911-.377h0a1.278,1.278,0,0,1,.911.378,1.279,1.279,0,0,1,.377.911,1.278,1.278,0,0,1-.378.91l-.972.971A1.276,1.276,0,0,1,1370.8-1425.305Zm.972-2.678a.416.416,0,0,0-.3.123l-.972.972a.42.42,0,0,0,0,.592.415.415,0,0,0,.3.122.413.413,0,0,0,.3-.122l.973-.973a.414.414,0,0,0,.123-.3.416.416,0,0,0-.123-.3A.415.415,0,0,0,1371.774-1427.984Z" transform="translate(-1331.645 1462.4)" fill="url(#radial-gradient-51)"/>
          <path id="path20" d="M1432.86-1510.809l-2.161,2.16a.854.854,0,0,0,0,1.206.853.853,0,0,0,.6.25.849.849,0,0,0,.6-.25l2.161-2.16a.854.854,0,0,0,0-1.206.853.853,0,0,0-1.206,0" transform="translate(-1388.924 1540.63)" fill="url(#radial-gradient-51)"/>
          <path id="path20_-_Outline" data-name="path20 - Outline" d="M1431.238-1506.823a1.283,1.283,0,0,1-.91-.377,1.291,1.291,0,0,1,0-1.822l2.161-2.16a1.278,1.278,0,0,1,.91-.377,1.28,1.28,0,0,1,.911.377,1.29,1.29,0,0,1,0,1.821l-2.161,2.16A1.279,1.279,0,0,1,1431.238-1506.823Zm2.16-3.866a.414.414,0,0,0-.295.122l-2.161,2.16a.42.42,0,0,0,0,.592.416.416,0,0,0,.3.123.416.416,0,0,0,.3-.123l2.161-2.16a.419.419,0,0,0,0-.592A.416.416,0,0,0,1433.4-1510.69Z" transform="translate(-1388.859 1540.696)" fill="url(#radial-gradient-51)"/>
          <path id="path22" d="M1528.281-1765.671a4.957,4.957,0,0,1-7,0,4.957,4.957,0,0,1,0-7,4.937,4.937,0,0,1,3.5-1.447,4.935,4.935,0,0,1,3.5,1.447,4.92,4.92,0,0,1,1.45,3.5A4.919,4.919,0,0,1,1528.281-1765.671Zm1.207-8.208a6.664,6.664,0,0,0-9.414,0,6.664,6.664,0,0,0,0,9.415,6.635,6.635,0,0,0,4.707,1.946,6.634,6.634,0,0,0,4.707-1.946,6.665,6.665,0,0,0,0-9.415" transform="translate(-1471.926 1791.28)" fill="url(#radial-gradient-51)"/>
          <path id="path22_-_Outline" data-name="path22 - Outline" d="M1524.715-1762.148a7.044,7.044,0,0,1-5.015-2.074,7.043,7.043,0,0,1-2.074-5.015,7.043,7.043,0,0,1,2.074-5.015,7.043,7.043,0,0,1,5.014-2.074,7.044,7.044,0,0,1,5.015,2.074,7.044,7.044,0,0,1,2.074,5.015,7.044,7.044,0,0,1-2.074,5.015A7.041,7.041,0,0,1,1524.715-1762.148Zm0-13.307a6.18,6.18,0,0,0-4.4,1.819,6.18,6.18,0,0,0-1.819,4.4,6.181,6.181,0,0,0,1.819,4.4,6.18,6.18,0,0,0,4.4,1.819,6.177,6.177,0,0,0,4.4-1.819,6.181,6.181,0,0,0,1.819-4.4,6.18,6.18,0,0,0-1.819-4.4A6.18,6.18,0,0,0,1524.715-1775.456Zm0,11.6a5.351,5.351,0,0,1-3.808-1.575,5.392,5.392,0,0,1,0-7.617,5.351,5.351,0,0,1,3.809-1.575,5.349,5.349,0,0,1,3.808,1.575,5.354,5.354,0,0,1,1.577,3.809,5.35,5.35,0,0,1-1.577,3.808A5.349,5.349,0,0,1,1524.715-1763.854Zm0-9.9a4.487,4.487,0,0,0-3.194,1.32,4.522,4.522,0,0,0,0,6.387,4.488,4.488,0,0,0,3.194,1.32,4.485,4.485,0,0,0,3.193-1.32,4.487,4.487,0,0,0,1.323-3.193,4.489,4.489,0,0,0-1.323-3.194A4.484,4.484,0,0,0,1524.715-1773.75Z" transform="translate(-1471.86 1791.345)" fill="url(#radial-gradient-51)"/>
          <path id="path24" d="M753-1274.845a.852.852,0,0,0,.6-.25l5-5a.853.853,0,0,0,0-1.206.853.853,0,0,0-1.206,0l-5,5a.853.853,0,0,0,0,1.206.853.853,0,0,0,.6.25" transform="translate(-746.785 1323.361)" fill="url(#radial-gradient-51)"/>
          <path id="path24_-_Outline" data-name="path24 - Outline" d="M752.933-1274.475a1.281,1.281,0,0,1-.91-.377,1.29,1.29,0,0,1,0-1.822l5-5a1.279,1.279,0,0,1,.911-.377,1.279,1.279,0,0,1,.911.377,1.29,1.29,0,0,1,0,1.821l-5,5A1.281,1.281,0,0,1,752.933-1274.475Zm5-6.708a.416.416,0,0,0-.3.123l-5,5a.419.419,0,0,0,0,.592.417.417,0,0,0,.3.122.416.416,0,0,0,.3-.123l5-5a.419.419,0,0,0,0-.592A.415.415,0,0,0,757.935-1281.184Z" transform="translate(-746.72 1323.426)" fill="url(#radial-gradient-51)"/>
          <path id="path26" d="M672.177-1133.284a.853.853,0,0,0,0-1.206.853.853,0,0,0-1.206,0l-10.958,10.958a.853.853,0,0,0,0,1.206.851.851,0,0,0,.6.25.851.851,0,0,0,.6-.25l10.958-10.958" transform="translate(-659.327 1184.376)" fill="url(#radial-gradient-51)"/>
          <path id="path26_-_Outline" data-name="path26 - Outline" d="M660.55-1121.706a1.28,1.28,0,0,1-.911-.377,1.28,1.28,0,0,1-.377-.911,1.279,1.279,0,0,1,.378-.911l10.958-10.958a1.279,1.279,0,0,1,.911-.377,1.279,1.279,0,0,1,.911.378,1.278,1.278,0,0,1,.377.91,1.28,1.28,0,0,1-.377.911l-10.959,10.959A1.28,1.28,0,0,1,660.55-1121.706Zm10.958-12.664a.415.415,0,0,0-.3.123l-10.959,10.958a.415.415,0,0,0-.123.3.415.415,0,0,0,.123.3.416.416,0,0,0,.3.122.416.416,0,0,0,.3-.122l10.958-10.958a.416.416,0,0,0,.123-.3.414.414,0,0,0-.122-.3A.415.415,0,0,0,671.508-1134.371Z" transform="translate(-659.262 1184.441)" fill="url(#radial-gradient-51)"/>
          <path id="path28" d="M903.528-893.864,892.76-883.1a.853.853,0,0,0,0,1.206.848.848,0,0,0,.6.25.849.849,0,0,0,.6-.25l10.768-10.767a.853.853,0,0,0,0-1.206.853.853,0,0,0-1.206,0" transform="translate(-879.666 956.58)" fill="url(#radial-gradient-51)"/>
          <path id="path28_-_Outline" data-name="path28 - Outline" d="M893.3-881.271a1.278,1.278,0,0,1-.911-.378,1.278,1.278,0,0,1-.377-.91,1.28,1.28,0,0,1,.377-.911l10.768-10.767a1.28,1.28,0,0,1,.911-.377,1.279,1.279,0,0,1,.911.378,1.278,1.278,0,0,1,.377.91,1.28,1.28,0,0,1-.377.911l-10.768,10.767A1.278,1.278,0,0,1,893.3-881.271Zm10.768-12.474a.415.415,0,0,0-.3.123L893-882.855a.416.416,0,0,0-.122.3.415.415,0,0,0,.122.3.415.415,0,0,0,.3.123.414.414,0,0,0,.3-.123l10.768-10.768a.416.416,0,0,0,.123-.3.414.414,0,0,0-.122-.3A.415.415,0,0,0,904.066-893.745Z" transform="translate(-879.601 956.645)" fill="url(#radial-gradient-51)"/>
          <path id="path30" d="M1159.185-874.531l-4.315,4.314a.853.853,0,0,0,0,1.206.852.852,0,0,0,.6.25.851.851,0,0,0,.6-.25l4.315-4.314a.853.853,0,0,0,0-1.206.852.852,0,0,0-1.206,0" transform="translate(-1127.801 938.277)" fill="url(#radial-gradient-51)"/>
          <path id="path30_-_Outline" data-name="path30 - Outline" d="M1155.408-868.39a1.28,1.28,0,0,1-.91-.378,1.278,1.278,0,0,1-.377-.91,1.281,1.281,0,0,1,.377-.911l4.315-4.315a1.279,1.279,0,0,1,.911-.377,1.279,1.279,0,0,1,.911.378,1.278,1.278,0,0,1,.377.91,1.28,1.28,0,0,1-.377.911l-4.315,4.314A1.28,1.28,0,0,1,1155.408-868.39Zm4.315-6.021a.415.415,0,0,0-.3.123l-4.315,4.314a.417.417,0,0,0-.122.3.415.415,0,0,0,.122.3.417.417,0,0,0,.3.123.416.416,0,0,0,.3-.123l4.315-4.314a.416.416,0,0,0,.123-.3.414.414,0,0,0-.122-.3A.415.415,0,0,0,1159.723-874.411Z" transform="translate(-1127.736 938.342)" fill="url(#radial-gradient-51)"/>
          <path id="path32" d="M698.123-934.211a.853.853,0,0,0-1.206,0l-11.124,11.124a.853.853,0,0,0,0,1.206.851.851,0,0,0,.6.25.851.851,0,0,0,.6-.25L698.123-933a.853.853,0,0,0,0-1.206" transform="translate(-683.734 994.775)" fill="url(#radial-gradient-51)"/>
          <path id="path32_-_Outline" data-name="path32 - Outline" d="M686.331-921.261a1.281,1.281,0,0,1-.91-.377,1.29,1.29,0,0,1,0-1.822l11.124-11.124a1.279,1.279,0,0,1,.911-.377h0a1.279,1.279,0,0,1,.911.378,1.278,1.278,0,0,1,.377.91,1.28,1.28,0,0,1-.377.911l-11.124,11.124A1.281,1.281,0,0,1,686.331-921.261Zm11.124-12.83a.415.415,0,0,0-.3.123l-11.124,11.124a.419.419,0,0,0,0,.592.416.416,0,0,0,.3.122.416.416,0,0,0,.3-.122l11.124-11.124a.416.416,0,0,0,.122-.3.414.414,0,0,0-.122-.3A.415.415,0,0,0,697.455-934.091Z" transform="translate(-683.668 994.84)" fill="url(#radial-gradient-51)"/>
        </g>
      </g>
    </g>
  </g>
</svg>
