<svg xmlns="http://www.w3.org/2000/svg" width="414.488" height="444.514" viewBox="0 0 414.488 444.514">
  <g id="Group_260" data-name="Group 260" transform="translate(-1129.285 -6069.402)">
    <path id="Path_865" data-name="Path 865" d="M-1738.56,9495.312l72.108,50.351,81.392-7.146,229.833,61.159-188.452,46.241-88.37-69.344-52.166-5.864-85.5-75.4Z" transform="translate(2899 -3132)" fill="#f8f8f8" opacity="0.548"/>
    <g id="Group_233" data-name="Group 233" transform="translate(713.463 664.01)">
      <g id="Group_224" data-name="Group 224" transform="translate(427.249 5405.393)">
        <g id="Group_222" data-name="Group 222" transform="translate(139.699 0)">
          <g id="Group_220" data-name="Group 220" transform="translate(0 70.668)">
            <path id="Path_469" data-name="Path 469" d="M74.665,20.945v7.286h-7.1V81.586a.668.668,0,0,1-.182.546h0v.182a3.334,3.334,0,0,1-2.369,2.733,83.494,83.494,0,0,0-57.73,79.219,82.121,82.121,0,0,0,24.4,58.638,82.877,82.877,0,0,0,117.461,0A83.091,83.091,0,0,0,157.7,115.278,83.292,83.292,0,0,0,116,85.047a3.287,3.287,0,0,1-2.55-2.733v-.182h0v-53.9H74.665V20.945h40.971a7.447,7.447,0,0,0,4.733-2h0a6.723,6.723,0,0,0,2-4.919,6.6,6.6,0,0,0-2-4.733h0a6.612,6.612,0,0,0-4.733-2.005H65.374A6.728,6.728,0,0,0,60.458,9.29a7.447,7.447,0,0,0-2,4.733,6.614,6.614,0,0,0,2,4.737v.182a7.463,7.463,0,0,0,4.735,2h9.473ZM24.949,142.776a3.629,3.629,0,1,1-6.921-2.186,77.463,77.463,0,0,1,12.384-23.308A79.21,79.21,0,0,1,50.082,99.613,3.46,3.46,0,0,1,55,100.889a3.556,3.556,0,0,1-1.092,4.916A67.253,67.253,0,0,0,36.24,121.833a68.484,68.484,0,0,0-11.291,20.942ZM60.28,79.036v-51.9a14,14,0,0,1-4.919-3.1l-.182-.182a14.556,14.556,0,0,1-4.005-9.836A14.3,14.3,0,0,1,65.377,0h50.262a13.932,13.932,0,0,1,9.834,4.187h0a13.856,13.856,0,0,1,0,19.851h0a10.233,10.233,0,0,1-4.737,3.1v51.9a90.681,90.681,0,0,1,42.8,32.053,89.716,89.716,0,0,1,17.3,53.177A90.419,90.419,0,1,1,60.28,79.036Z" transform="translate(61.591 0) rotate(14)" fill="#f8f8f8"/>
            <path id="Path_470" data-name="Path 470" d="M155.882,0H0A77.874,77.874,0,0,0,77.943,74.664,77.868,77.868,0,0,0,120.3,62.137,77.959,77.959,0,0,0,155.882,0Z" transform="translate(31.844 183.005)" fill="#f8f8f8"/>
          </g>
          <path id="Ellipse_303_-_Outline" data-name="Ellipse 303 - Outline" d="M16.368,6.547a9.821,9.821,0,1,0,9.821,9.821,9.832,9.832,0,0,0-9.821-9.821m0-6.547A16.368,16.368,0,1,1,0,16.368,16.368,16.368,0,0,1,16.368,0Z" transform="translate(164.356 45.83)" fill="#f8f8f8"/>
          <path id="Ellipse_305_-_Outline" data-name="Ellipse 305 - Outline" d="M9.821,6.547a3.274,3.274,0,1,0,3.274,3.274A3.277,3.277,0,0,0,9.821,6.547M9.821,0A9.821,9.821,0,1,1,0,9.821,9.821,9.821,0,0,1,9.821,0Z" transform="translate(131.62 52.377)" fill="#f8f8f8"/>
          <path id="Ellipse_304_-_Outline" data-name="Ellipse 304 - Outline" d="M13.094,6.547a6.547,6.547,0,1,0,6.547,6.547,6.555,6.555,0,0,0-6.547-6.547m0-6.547A13.094,13.094,0,1,1,0,13.094,13.094,13.094,0,0,1,13.094,0Z" transform="translate(151.261)" fill="#f8f8f8"/>
        </g>
        <g id="Group_223" data-name="Group 223" transform="translate(0 30.539)">
          <g id="Group_221" data-name="Group 221" transform="translate(0 81.297)">
            <path id="Path_469-2" data-name="Path 469" d="M53.093,167.628c0-2.81.005-3.532.008-5.227l-5.066.008.059-38.275a.48.48,0,0,0-.129-.391h0v-.131a2.378,2.378,0,0,0-1.687-1.958A59.645,59.645,0,0,1,22.662,22.8a59.117,59.117,0,0,1,41.98-17.57,58.219,58.219,0,0,1,41.794,17.44A58.9,58.9,0,0,1,123.775,64.7,59.753,59.753,0,0,1,82.644,121.6a2.362,2.362,0,0,0-1.822,1.964v.131h0q0,.2,0,.392l-.059,38.275L53.1,162.4c0,2.115-.005,3.31-.008,5.227l29.221-.045h0a5.279,5.279,0,0,1,3.374,1.431h0a4.823,4.823,0,0,1,1.424,3.527,4.765,4.765,0,0,1-1.435,3.4h0a4.717,4.717,0,0,1-3.378,1.444l-35.847.056a4.77,4.77,0,0,1-3.5-1.433,5.341,5.341,0,0,1-1.424-3.393,4.773,4.773,0,0,1,1.435-3.4v-.131a5.324,5.324,0,0,1,3.379-1.442h.13ZM17.77,80.286a2.566,2.566,0,0,0-3.243-1.694,2.6,2.6,0,0,0-1.695,3.27,55.466,55.466,0,0,0,8.807,16.706,56.348,56.348,0,0,0,14.008,12.653,2.465,2.465,0,0,0,3.507-.921,2.556,2.556,0,0,0-.773-3.526A47.846,47.846,0,0,1,25.8,95.3a49.031,49.031,0,0,1-8.03-15.011ZM42.9,125.971,42.84,163.2a10.022,10.022,0,0,0-3.512,2.226l-.13.131a10.506,10.506,0,0,0-2.868,7.06,10.191,10.191,0,0,0,10.115,10.043l35.847-.056a9.94,9.94,0,0,0,7.019-3.015h0a9.981,9.981,0,0,0,.022-14.24h0a7.264,7.264,0,0,0-3.375-2.216l.057-37.232A65.179,65.179,0,0,0,110.209,18.874a64.321,64.321,0,0,0-91.174.141A64.789,64.789,0,0,0,42.9,125.971Z" transform="translate(169.33 177.238) rotate(166)" fill="#f8f8f8"/>
            <path id="Path_470-2" data-name="Path 470" d="M111.133,53.582H0a55.606,55.606,0,0,1,111.133,0Z" transform="translate(146.507 184.801) rotate(180)" fill="#f8f8f8"/>
          </g>
          <path id="Ellipse_306_-_Outline" data-name="Ellipse 306 - Outline" d="M16.368,6.547a9.821,9.821,0,1,0,9.821,9.821,9.832,9.832,0,0,0-9.821-9.821m0-6.547A16.368,16.368,0,1,1,0,16.368,16.368,16.368,0,0,1,16.368,0Z" transform="translate(9.989 58.742) rotate(-20)" fill="#f8f8f8"/>
          <path id="Ellipse_307_-_Outline" data-name="Ellipse 307 - Outline" d="M9.821,6.547a3.274,3.274,0,1,0,3.274,3.274A3.277,3.277,0,0,0,9.821,6.547M9.821,0A9.821,9.821,0,1,1,0,9.821,9.821,9.821,0,0,1,9.821,0Z" transform="translate(59.491 51.175) rotate(-20)" fill="#f8f8f8"/>
          <path id="Ellipse_308_-_Outline" data-name="Ellipse 308 - Outline" d="M13.094,6.547a6.547,6.547,0,1,0,6.547,6.547,6.555,6.555,0,0,0-6.547-6.547m0-6.547A13.094,13.094,0,1,1,0,13.094,13.094,13.094,0,0,1,13.094,0Z" transform="translate(12.771 8.957) rotate(-20)" fill="#f8f8f8"/>
        </g>
      </g>
    </g>
    <path id="Path_875" data-name="Path 875" d="M-1738.56,9495.312l72.108,50.351,81.392-7.146,229.833,61.159-188.452,46.241-88.37-69.344-52.166-5.864-85.5-75.4Z" transform="translate(2899 -3132)" fill="#f8f8f8" opacity="0.548"/>
  </g>
</svg>
