<svg xmlns="http://www.w3.org/2000/svg" width="361.394" height="462.819" viewBox="0 0 361.394 462.819">
  <g id="Group_256" data-name="Group 256" transform="translate(-434.303 -3275.842)">
    <g id="Icon_feather-settings" data-name="Icon feather-settings" transform="translate(434.303 3439.458)">
      <path id="Path_864" data-name="Path 864" d="M59.676,107.853a48.177,48.177,0,1,1,48.176-48.177A48.231,48.231,0,0,1,59.676,107.853Zm0-76.068A27.892,27.892,0,1,0,87.568,59.677,27.923,27.923,0,0,0,59.676,31.785Z" transform="translate(89.924 89.925)" fill="#f8f8f8"/>
      <path id="Path_865" data-name="Path 865" d="M150.115,298.7a35.539,35.539,0,0,1-35.5-35.5v-1a10.716,10.716,0,0,0-7.051-9.762q-.3-.111-.594-.24a10.774,10.774,0,0,0-11.854,2.123l-.714.714a35.513,35.513,0,1,1-50.218-50.226l.71-.71a10.725,10.725,0,0,0,2.123-11.853l-.043-.1a10.771,10.771,0,0,0-9.842-6.531H35a35.5,35.5,0,0,1,0-71h1a10.717,10.717,0,0,0,9.762-7.051q.111-.3.24-.594a10.725,10.725,0,0,0-2.123-11.854l-.714-.714A35.513,35.513,0,1,1,93.394,44.186l.712.712a10.774,10.774,0,0,0,11.852,2.121,10.141,10.141,0,0,1,2.45-.729,10.771,10.771,0,0,0,5.2-9.156V35a35.5,35.5,0,1,1,71,0v1.121a10.771,10.771,0,0,0,6.531,9.842l.1.043a10.774,10.774,0,0,0,11.853-2.123l.714-.714a35.513,35.513,0,1,1,50.219,50.226l-.71.71a10.725,10.725,0,0,0-2.123,11.854,10.143,10.143,0,0,1,.729,2.45,10.771,10.771,0,0,0,9.156,5.2H263.2a35.5,35.5,0,1,1,0,71h-1.121a10.771,10.771,0,0,0-9.842,6.531l-.043.1a10.725,10.725,0,0,0,2.121,11.852l.716.716a35.513,35.513,0,1,1-50.226,50.219l-.709-.709a10.773,10.773,0,0,0-11.855-2.125l-.1.043a10.771,10.771,0,0,0-6.531,9.842V263.2A35.539,35.539,0,0,1,150.115,298.7Zm-35.246-65.19a31.061,31.061,0,0,1,20.03,28.313q0,.119,0,.237V263.2a15.214,15.214,0,1,0,30.428,0v-2.155c0-.014,0-.027,0-.04a31.207,31.207,0,0,1,52.987-22.17l.079.079.761.761A15.228,15.228,0,1,0,240.7,218.146l-.764-.764-.079-.08a31.231,31.231,0,0,1,22.17-52.987H263.2a15.214,15.214,0,1,0,0-30.427h-2.2a31.045,31.045,0,0,1-28.426-18.825,10.144,10.144,0,0,1-.764-2.929,31.064,31.064,0,0,1,7.02-32.247l.078-.079.761-.761a15.228,15.228,0,1,0-21.531-21.54l-.764.764-.08.079a31.231,31.231,0,0,1-52.987-22.17q0-.02,0-.04V35a15.214,15.214,0,1,0-30.427,0v2.155q0,.02,0,.04A31.045,31.045,0,0,1,115.062,65.62a10.143,10.143,0,0,1-2.927.764,31.064,31.064,0,0,1-32.249-7.019l-.079-.078-.761-.761a15.228,15.228,0,1,0-21.54,21.531l.765.765.079.08a31.061,31.061,0,0,1,6.34,33.968A31.061,31.061,0,0,1,36.377,134.9l-.237,0H35a15.214,15.214,0,1,0,0,30.428h2.2a31.2,31.2,0,0,1,22.17,52.987l-.079.08-.761.761A15.228,15.228,0,1,0,80.056,240.7l.765-.765.08-.079a31.058,31.058,0,0,1,33.968-6.34Z" transform="translate(0.499 0.5)" fill="#f8f8f8"/>
    </g>
    <g id="Icon_feather-settings-2" data-name="Icon feather-settings" transform="translate(585.1 3304.636) rotate(-9)">
      <path id="Path_864-2" data-name="Path 864" d="M30.632,61.265A30.633,30.633,0,1,1,61.265,30.633,30.667,30.667,0,0,1,30.632,61.265Zm0-46.052A15.419,15.419,0,1,0,46.051,30.633,15.436,15.436,0,0,0,30.632,15.214Z" transform="translate(61.402 61.402)" fill="#f8f8f8"/>
      <path id="Path_865-2" data-name="Path 865" d="M92.648,184.069a22.983,22.983,0,0,1-22.957-22.957v-.582a5.029,5.029,0,0,0-3.308-4.559q-.226-.083-.446-.18a5.056,5.056,0,0,0-5.555.989l-.424.424a22.966,22.966,0,1,1-32.476-32.481l.421-.421a5.033,5.033,0,0,0,.989-5.555l-.033-.075a5.055,5.055,0,0,0-4.618-3.065H22.957a22.957,22.957,0,0,1,0-45.915h.582A5.029,5.029,0,0,0,28.1,66.383q.083-.226.18-.446a5.033,5.033,0,0,0-.989-5.555l-.425-.425A22.966,22.966,0,1,1,59.347,27.483l.421.421a5.056,5.056,0,0,0,5.555.989A7.606,7.606,0,0,1,66.85,28.4a5.055,5.055,0,0,0,2.227-4.162V22.957a22.957,22.957,0,1,1,45.914,0v.67a5.055,5.055,0,0,0,3.065,4.618l.075.033a5.056,5.056,0,0,0,5.555-.989l.424-.424a22.966,22.966,0,1,1,32.476,32.482l-.421.421a5.033,5.033,0,0,0-.989,5.555,7.6,7.6,0,0,1,.489,1.527,5.055,5.055,0,0,0,4.162,2.227h1.284a22.957,22.957,0,0,1,0,45.915h-.67a5.055,5.055,0,0,0-4.618,3.065l-.033.075a5.033,5.033,0,0,0,.989,5.555l.424.424a22.966,22.966,0,1,1-32.481,32.476l-.421-.421a5.056,5.056,0,0,0-5.555-.989l-.075.033a5.055,5.055,0,0,0-3.065,4.618v1.284A22.983,22.983,0,0,1,92.648,184.069Zm-20.79-42.293A20.157,20.157,0,0,1,84.9,160.243q0,.089,0,.178v.691a7.744,7.744,0,1,0,15.487,0v-1.3c0-.01,0-.02,0-.03a20.359,20.359,0,0,1,34.57-14.464l.06.059.461.461a7.752,7.752,0,1,0,10.966-10.96l-.464-.464-.059-.06a20.374,20.374,0,0,1,14.464-34.57h.721a7.744,7.744,0,0,0,0-15.487h-1.335a20.26,20.26,0,0,1-18.551-12.285,7.606,7.606,0,0,1-.551-2.011,20.164,20.164,0,0,1,4.638-20.888l.059-.059.461-.461a7.752,7.752,0,1,0-10.96-10.967l-.464.464-.06.059a20.374,20.374,0,0,1-34.57-14.464q0-.015,0-.03v-.691a7.744,7.744,0,1,0-15.487,0v1.3c0,.01,0,.02,0,.03A20.26,20.26,0,0,1,72.005,42.843a7.607,7.607,0,0,1-2.013.551,20.275,20.275,0,0,1-20.886-4.638l-.06-.059-.461-.461A7.752,7.752,0,1,0,37.62,49.2l.464.464.059.059a20.172,20.172,0,0,1,4.15,22.14A20.157,20.157,0,0,1,23.826,84.9l-.178,0h-.691a7.744,7.744,0,1,0,0,15.487h1.335a20.374,20.374,0,0,1,14.464,34.57l-.059.06-.461.461A7.752,7.752,0,1,0,49.2,146.449l.464-.464.06-.059a20.269,20.269,0,0,1,22.138-4.15Z" transform="translate(0 0)" fill="#f8f8f8"/>
    </g>
  </g>
</svg>
