<svg xmlns="http://www.w3.org/2000/svg" width="59.352" height="59.091" viewBox="0 0 59.352 59.091">
  <g id="Warstwa_x0020_1" transform="translate(0 0)">
    <g id="_2189313911552" transform="translate(0 0)">
      <path id="Path_492" data-name="Path 492" d="M37.485,9.17a25.024,25.024,0,0,1,6.456,6.039c-5.675.573-9.345,3.775-11.974,8.9-.911,1.848-1.848,3.722-2.759,5.571H0A24.335,24.335,0,0,1,11.22,9.17a17.31,17.31,0,0,0,13.146,6.065A17.223,17.223,0,0,0,37.511,9.17Z" transform="translate(0 14.701)" fill="#707070" fill-rule="evenodd"/>
      <circle id="Ellipse_13" data-name="Ellipse 13" cx="12.677" cy="12.677" r="12.677" transform="translate(11.688)" fill="#707070"/>
      <path id="XMLID_2_" d="M27.275,12.45a13.288,13.288,0,0,0-9.527,4.035,1.022,1.022,0,0,0-.156,1.223l1.3,2.369a.969.969,0,0,0,.807.521,1.03,1.03,0,0,0,.885-.364,8.741,8.741,0,1,1-1.64,7.992c-.443-1.536.651-.26,1.614.39a.29.29,0,0,0,.417-.364C17.93,22.108,21,28.3,16.55,19.3a.25.25,0,0,0-.234-.156.228.228,0,0,0-.234.156c-.208.417-3.514,7.107-4.425,8.955a.291.291,0,0,0,.078.338.32.32,0,0,0,.338.026c1.822-1.223,1.874-1.952,2.239-.182A13.329,13.329,0,1,0,27.379,12.476Z" transform="translate(18.645 19.959)" fill="#707070"/>
    </g>
  </g>
</svg>
