<svg xmlns="http://www.w3.org/2000/svg" width="45.637" height="45.361" viewBox="0 0 45.637 45.361">
  <path id="Path_497" data-name="Path 497" d="M41.648,42.594c1.648,1.038,4.288.384,4.288-1.851V2.87c0-2.144-2.483-3.182-4.221-2.189A117.28,117.28,0,0,1,23.8,9.393a30.428,30.428,0,0,1-7.313,1.941c-.948.068-1.918.023-2.866.023H10.637a10.348,10.348,0,0,0,0,20.7h2.776V43.09a2.574,2.574,0,0,0,5.146.113V32.392l.813.2a47.435,47.435,0,0,1,6.342,2.1,122.913,122.913,0,0,1,15.912,7.922l.023.023ZM13.323,27H10.637a5.3,5.3,0,0,1,0-10.608h2.686Zm26.294,8.735a104.193,104.193,0,0,0-13.474-6.274A44.129,44.129,0,0,0,19.169,27.4l-.542-.113V16.074l.542-.113a47.555,47.555,0,0,0,7.087-2.144A107.383,107.383,0,0,0,39.617,7.565l.971-.519V36.274Z" transform="translate(-0.3 -0.302)" fill="#707070" fill-rule="evenodd"/>
</svg>
