<svg xmlns="http://www.w3.org/2000/svg" width="62" height="46.673" viewBox="0 0 62 46.673">
  <g id="Group_155" data-name="Group 155" transform="translate(-241 -504)">
    <g id="_2189315035600" transform="translate(241 504)">
      <path id="Path_496" data-name="Path 496" d="M41.664,43.524a121.522,121.522,0,0,0-15.822-7.877,47.2,47.2,0,0,0-6.252-2.076v9.976a3.228,3.228,0,0,1-6.455-.09V33.1H11.014a11.014,11.014,0,0,1,0-22.028h2.979c.9,0,1.941.045,2.821-.023a31.094,31.094,0,0,0,7.132-1.9A117.97,117.97,0,0,0,41.755.483C43.9-.759,46.968.55,46.968,3.236V41.109c0,2.8-3.228,3.724-5.3,2.415ZM13.023,26.709V17.433H10.992a4.649,4.649,0,1,0,0,9.3h2.031Zm27.287,8.8V8.518a111.714,111.714,0,0,1-13.429,6.3A48.294,48.294,0,0,1,19.681,17V27.138a47.056,47.056,0,0,1,7.064,2.076,105.611,105.611,0,0,1,13.565,6.32Z" transform="translate(0 -0.011)" fill="#707070" fill-rule="evenodd"/>
      <path id="Path_497" data-name="Path 497" d="M41.648,42.594c1.648,1.038,4.288.384,4.288-1.851V2.87c0-2.144-2.483-3.182-4.221-2.189A117.28,117.28,0,0,1,23.8,9.393a30.428,30.428,0,0,1-7.313,1.941c-.948.068-1.918.023-2.866.023H10.637a10.348,10.348,0,0,0,0,20.7h2.776V43.09a2.574,2.574,0,0,0,5.146.113V32.392l.813.2a47.435,47.435,0,0,1,6.342,2.1,122.913,122.913,0,0,1,15.912,7.922l.023.023ZM13.323,27H10.637a5.3,5.3,0,0,1,0-10.608h2.686Zm26.294,8.735a104.193,104.193,0,0,0-13.474-6.274A44.129,44.129,0,0,0,19.169,27.4l-.542-.113V16.074l.542-.113a47.555,47.555,0,0,0,7.087-2.144A107.383,107.383,0,0,0,39.617,7.565l.971-.519V36.274Z" transform="translate(0.377 0.355)" fill="#707070" fill-rule="evenodd"/>
      <path id="Path_498" data-name="Path 498" d="M24.586,9.03H31.4a1.156,1.156,0,0,1,1.2,1.083V11.4a1.156,1.156,0,0,1-1.2,1.083H24.586a1.156,1.156,0,0,1-1.2-1.083V10.113A1.156,1.156,0,0,1,24.586,9.03Z" transform="translate(29.401 11.326)" fill="#707070" fill-rule="evenodd"/>
      <path id="Path_499" data-name="Path 499" d="M23.088,8.1,29,4.69a1.139,1.139,0,0,1,1.58.339l.655,1.129a1.157,1.157,0,0,1-.5,1.535L24.826,11.1a1.139,1.139,0,0,1-1.58-.339l-.655-1.129A1.157,1.157,0,0,1,23.088,8.1Z" transform="translate(28.236 5.645)" fill="#707070" fill-rule="evenodd"/>
      <path id="Path_500" data-name="Path 500" d="M24.786,12.26,30.7,15.668a1.157,1.157,0,0,1,.5,1.535l-.655,1.129a1.139,1.139,0,0,1-1.58.339l-5.913-3.408a1.157,1.157,0,0,1-.5-1.535l.655-1.129A1.139,1.139,0,0,1,24.786,12.26Z" transform="translate(28.186 15.161)" fill="#707070" fill-rule="evenodd"/>
    </g>
  </g>
</svg>
