<svg xmlns="http://www.w3.org/2000/svg" width="78.937" height="63.159" viewBox="0 0 78.937 63.159">
  <path id="Icon_awesome-chart-line" data-name="Icon awesome-chart-line" d="M76.47,57.132H9.867v-50A2.552,2.552,0,0,0,7.4,4.5H2.467A2.552,2.552,0,0,0,0,7.132V62.4a5.107,5.107,0,0,0,4.934,5.263H76.47a2.552,2.552,0,0,0,2.467-2.632V59.764A2.552,2.552,0,0,0,76.47,57.132ZM71.537,9.763h-18.2c-3.3,0-4.947,4.252-2.616,6.739l5,5.329L44.4,33.9,33.09,21.832a4.716,4.716,0,0,0-6.976,0l-10.59,11.3a2.758,2.758,0,0,0,0,3.722l3.487,3.72a2.359,2.359,0,0,0,3.489,0L29.6,33,40.913,45.063a4.716,4.716,0,0,0,6.976,0l14.8-15.79,5,5.329A3.676,3.676,0,0,0,74,31.811V12.395A2.55,2.55,0,0,0,71.537,9.763Z" transform="translate(0 -4.5)" fill="#e8e8e8"/>
</svg>
