<svg xmlns="http://www.w3.org/2000/svg" xmlns:xlink="http://www.w3.org/1999/xlink" width="260.8" height="76" viewBox="0 0 260.8 76">
  <defs>
    <clipPath id="clip-path">
      <rect id="Rectangle_84" data-name="Rectangle 84" width="260.8" height="76" transform="translate(536.611 168)" fill="#fff"/>
    </clipPath>
  </defs>
  <g id="Group_118" data-name="Group 118" transform="translate(-536.611 -168)" clip-path="url(#clip-path)">
    <path id="Path_486" data-name="Path 486" d="M783.819,199.407a17.648,17.648,0,0,1,4,.479,22.961,22.961,0,0,1,3.757,1.279,12.977,12.977,0,0,1,2.8,1.758,2.727,2.727,0,0,1,1.119,1.918,2.129,2.129,0,0,1-.4,1.039,3.925,3.925,0,0,1-.959,1.039,7.247,7.247,0,0,1-1.28.879,2.681,2.681,0,0,1-1.2.32,2.555,2.555,0,0,1-1.519-.56c-.56-.4-1.2-.8-1.919-1.278A20.152,20.152,0,0,0,785.978,205a5.792,5.792,0,0,0-2.639-.559,2.305,2.305,0,0,0-1.519.479,1.489,1.489,0,0,0-.559,1.279,2.069,2.069,0,0,0,.719,1.438,13.321,13.321,0,0,0,1.839,1.519c.8.559,1.6,1.038,2.638,1.678.96.559,1.919,1.2,2.959,1.838a25.336,25.336,0,0,1,2.958,2.158,15.469,15.469,0,0,1,2.558,2.557,11.412,11.412,0,0,1,1.839,2.957,8.373,8.373,0,0,1,.72,3.516,7.218,7.218,0,0,1-.56,2.957,6.913,6.913,0,0,1-1.679,2.318,9.063,9.063,0,0,1-2.558,1.518,10.463,10.463,0,0,1-3.278.479,11.793,11.793,0,0,1-7.356-2.557A9.727,9.727,0,0,1,779.9,225.7a9.1,9.1,0,0,1-.8-3.6,6.2,6.2,0,0,1,.879-3.676,4.191,4.191,0,0,1,4.8-.64,1.392,1.392,0,0,1,.72,1.119,2.216,2.216,0,0,1-.08.72l-.24.719c-.08.24-.16.559-.24.8a3.274,3.274,0,0,0-.08.879,3.13,3.13,0,0,0,.32,1.438,3.529,3.529,0,0,0,.96,1.2,4.907,4.907,0,0,0,1.359.879,3.7,3.7,0,0,0,1.679.32c1.519,0,2.318-.639,2.318-1.918a4.342,4.342,0,0,0-1.2-2.877,19.652,19.652,0,0,0-2.958-2.637q-1.8-1.318-3.838-2.637a46.981,46.981,0,0,1-3.837-2.718,15.135,15.135,0,0,1-2.959-3.036,5.676,5.676,0,0,1-1.2-3.517,6.888,6.888,0,0,1,.64-2.877A6.813,6.813,0,0,1,777.9,201.4a7.676,7.676,0,0,1,2.638-1.439A10.437,10.437,0,0,1,783.819,199.407ZM754,212.034c0,1.278.08,2.477.16,3.756.08,1.2.24,2.557.48,4a1.434,1.434,0,0,0,1.439,1.439c.48.08,1.039.24,1.679.32a13.64,13.64,0,0,0,1.6.159,8.97,8.97,0,0,0,3.358-.559,6.969,6.969,0,0,0,2.558-1.6,7.545,7.545,0,0,0,1.679-2.478,8,8,0,0,0,.56-3.117,12.192,12.192,0,0,0-.56-3.915,9.971,9.971,0,0,0-1.6-3.2,8.494,8.494,0,0,0-2.318-2.158,5.994,5.994,0,0,0-2.878-.8,5.139,5.139,0,0,0-2.479.56,6.3,6.3,0,0,0-1.919,1.678,6.875,6.875,0,0,0-1.2,2.557A9.248,9.248,0,0,0,754,212.034Zm-9.434-7.672A1.924,1.924,0,0,1,745.6,202.6a5.764,5.764,0,0,1,2.879-.559,2.464,2.464,0,0,1,.8.08,1.684,1.684,0,0,1,.64.479,8.726,8.726,0,0,1,.48.88,11.732,11.732,0,0,1,.479,1.518c.16.639.32,1.039.48,1.039s.32-.24.48-.879a9.913,9.913,0,0,1,3.278-4.955,7.149,7.149,0,0,1,2.318-1.2,10.049,10.049,0,0,1,2.639-.4,12.945,12.945,0,0,1,5.276,1.039,11.97,11.97,0,0,1,4.158,2.956,14.734,14.734,0,0,1,2.8,4.4,15.369,15.369,0,0,1,1.039,5.514,13.686,13.686,0,0,1-1.119,5.754,15.017,15.017,0,0,1-3.038,4.635,13.349,13.349,0,0,1-4.637,3.037,15.5,15.5,0,0,1-5.837,1.119l-1.519-.08c-.879,0-1.279.479-1.279,1.518l1.519,13.266a1.671,1.671,0,0,1-.32.879,2.342,2.342,0,0,1-.8.72,2.721,2.721,0,0,1-1.2.479,8.815,8.815,0,0,1-1.439.16c-1.36,0-2.159-.48-2.239-1.359-.4-3.516-.88-6.872-1.359-9.989-.48-3.2-.96-6.154-1.519-8.871-.48-2.717-1.04-5.194-1.519-7.432s-.88-4.156-1.28-5.834-.719-3.037-.879-4.076A11.661,11.661,0,0,1,744.563,204.362Zm-9.674-.48a2.2,2.2,0,0,1,.879-1.678,3.987,3.987,0,0,1,2.319-.639c1.759,0,2.638.559,2.8,1.838.08.8.16,1.758.24,2.8s.16,2.157.24,3.276l.24,3.6c.08,1.279.16,2.478.16,3.677.08,1.2.08,2.4.16,3.516,0,1.119.08,2.158.08,3.037a2.388,2.388,0,0,1-1.04,2.157,5.216,5.216,0,0,1-2.958.72,2.557,2.557,0,0,1-1.439-.4,1.626,1.626,0,0,1-.48-1.2c0-2.637-.08-5.194-.16-7.512s-.239-4.395-.4-6.233-.24-3.357-.4-4.555A20.969,20.969,0,0,1,734.889,203.882Zm4-8.871a5.147,5.147,0,0,1-1.6-.239,3.337,3.337,0,0,1-1.28-.72,5.529,5.529,0,0,1-.879-1.038,2.628,2.628,0,0,1-.32-1.359,2.535,2.535,0,0,1,.959-2,4.249,4.249,0,0,1,2.559-.8,4.524,4.524,0,0,1,1.439.24,2.989,2.989,0,0,1,1.2.719,4.2,4.2,0,0,1,.88,1.119,2.526,2.526,0,0,1,.32,1.278,2.318,2.318,0,0,1-.88,1.918A2.971,2.971,0,0,1,738.887,195.011Zm-37.1,1.679q0-3.117,4.078-3.117a1.962,1.962,0,0,1,1.2.4,1.774,1.774,0,0,1,.64,1.038c.16,1.2.32,2.318.479,3.517s.24,2.477.4,3.916.24,3.116.4,4.954c.16,1.918.24,4.156.4,6.713,0,.24,0,.48.16.56a.414.414,0,0,0,.319.16c.16,0,.32-.16.56-.56a26.125,26.125,0,0,1,2.159-3.916,15.831,15.831,0,0,1,2.638-2.957,10.684,10.684,0,0,1,2.958-1.838,8.792,8.792,0,0,1,3.2-.639,6.864,6.864,0,0,1,3.918,1.2,10.494,10.494,0,0,1,2.958,3.436,21.537,21.537,0,0,1,1.919,5.434,32.2,32.2,0,0,1,.64,7.113,10.159,10.159,0,0,1-.16,1.758,2.467,2.467,0,0,1-.56,1.119,2.183,2.183,0,0,1-1.039.559,8.484,8.484,0,0,1-1.679.16,2.63,2.63,0,0,1-1.919-.559,1.953,1.953,0,0,1-.56-1.6,34.012,34.012,0,0,0-.4-5.114,25.584,25.584,0,0,0-.959-4.236,9.683,9.683,0,0,0-1.519-2.877,2.34,2.34,0,0,0-1.839-1.039c-1.519,0-2.958,1.2-4.477,3.6a56.431,56.431,0,0,0-4.637,10.948,3.659,3.659,0,0,1-.56,1.119,1.568,1.568,0,0,1-.72.719,2.657,2.657,0,0,1-.959.4,6.456,6.456,0,0,1-1.279.08,2.321,2.321,0,0,1-2.878-2.478c-.08-3.356-.32-6.553-.64-9.59s-.64-5.834-.959-8.311-.64-4.555-.88-6.313A37.572,37.572,0,0,1,701.789,196.69Zm-9.114,3.995a11.993,11.993,0,0,1,2.958.4,10.2,10.2,0,0,1,2.479,1.2,7.067,7.067,0,0,1,1.759,1.678,3.074,3.074,0,0,1,.639,1.918,2.918,2.918,0,0,1-.24,1.2,3.048,3.048,0,0,1-.719,1.039,3.779,3.779,0,0,1-.96.719,2.815,2.815,0,0,1-1.119.24,1.626,1.626,0,0,1-1.2-.48,15.339,15.339,0,0,1-1.2-1.119,9.206,9.206,0,0,0-1.359-1.119,3.316,3.316,0,0,0-1.839-.479,4.023,4.023,0,0,0-1.918.479,4.659,4.659,0,0,0-1.44,1.359,7.1,7.1,0,0,0-.879,2.078,13.221,13.221,0,0,0-.32,2.637c0,2.717.48,4.795,1.519,6.154a5.079,5.079,0,0,0,4.4,2.157,6.678,6.678,0,0,0,2.318-.4,15.845,15.845,0,0,0,1.679-.959c.48-.32.96-.64,1.359-.959a1.882,1.882,0,0,1,1.28-.4,1.29,1.29,0,0,1,.719.24,2.167,2.167,0,0,1,.64.559l.479.72a1.437,1.437,0,0,1,.16.8,3.088,3.088,0,0,1-.959,2,11.847,11.847,0,0,1-2.4,1.838,17.505,17.505,0,0,1-3.278,1.358,13.979,13.979,0,0,1-3.517.56,10.579,10.579,0,0,1-4.238-.879,9.155,9.155,0,0,1-3.278-2.478,10.291,10.291,0,0,1-2.159-3.756,15.589,15.589,0,0,1-.8-4.875,16.723,16.723,0,0,1,.879-5.354,12.99,12.99,0,0,1,2.4-4.236,12.172,12.172,0,0,1,3.6-2.8A10.024,10.024,0,0,1,692.675,200.685Z"/>
    <path id="Path_487" data-name="Path 487" d="M614.163,195.491a2.6,2.6,0,0,1,.879-2.158,5.1,5.1,0,0,1,2.879-.639,4.84,4.84,0,0,1,1.2.16,1.9,1.9,0,0,1,.879.479,3.315,3.315,0,0,1,.56.879c.16.4.24.879.4,1.439.24,1.678.48,3.516.8,5.434.24,1.918.48,3.756.72,5.594s.48,3.676.719,5.434.4,3.437.56,4.955.32,2.877.4,4c.08,1.2.16,2.078.16,2.8a10.159,10.159,0,0,1-.16,1.758,2.184,2.184,0,0,1-.64,1.119,3.118,3.118,0,0,1-1.119.639,5.725,5.725,0,0,1-1.759.16,2.063,2.063,0,0,1-1.6-.559,1.953,1.953,0,0,1-.56-1.6c0-.719-.08-1.678-.16-2.956q-.118-1.8-.479-4.076c-.16-1.519-.4-3.117-.64-4.795s-.48-3.357-.719-5.035-.48-3.276-.8-4.795c-.24-1.518-.48-2.877-.64-4.075s-.319-2.158-.479-2.957A3.163,3.163,0,0,1,614.163,195.491Zm-13.032,0a2.6,2.6,0,0,1,.879-2.158,5.1,5.1,0,0,1,2.879-.639,4.84,4.84,0,0,1,1.2.16,1.9,1.9,0,0,1,.879.479,3.313,3.313,0,0,1,.56.879c.16.4.24.879.4,1.439.24,1.678.48,3.516.8,5.434.24,1.918.48,3.756.72,5.594s.48,3.676.719,5.434.4,3.437.56,4.955.32,2.877.4,4c.08,1.2.16,2.078.16,2.8a10.16,10.16,0,0,1-.16,1.758,2.183,2.183,0,0,1-.64,1.119,3.118,3.118,0,0,1-1.119.639,5.725,5.725,0,0,1-1.759.16,2.063,2.063,0,0,1-1.6-.559,1.953,1.953,0,0,1-.56-1.6c0-.719-.08-1.678-.16-2.956q-.119-1.8-.479-4.076c-.16-1.519-.4-3.117-.64-4.795s-.48-3.357-.719-5.035-.48-3.276-.8-4.795c-.24-1.518-.48-2.877-.64-4.075s-.319-2.158-.479-2.957A3.164,3.164,0,0,1,601.131,195.491ZM590.178,207.8a2.2,2.2,0,0,1,.879-1.678,3.985,3.985,0,0,1,2.319-.64c1.759,0,2.638.56,2.8,1.838.08.8.16,1.759.24,2.8s.16,2.157.24,3.276l.24,3.6c.08,1.279.16,2.478.16,3.676.079,1.2.079,2.4.159,3.517,0,1.119.08,2.157.08,3.037a2.389,2.389,0,0,1-1.039,2.157,5.218,5.218,0,0,1-2.958.719,2.552,2.552,0,0,1-1.439-.4,1.626,1.626,0,0,1-.48-1.2c0-2.637-.08-5.194-.16-7.512s-.24-4.395-.4-6.233-.24-3.357-.4-4.556A19.429,19.429,0,0,1,590.178,207.8Zm4-8.791a5.157,5.157,0,0,1-1.6-.24,3.326,3.326,0,0,1-1.279-.719,5.428,5.428,0,0,1-.879-1.039,2.622,2.622,0,0,1-.32-1.358,2.535,2.535,0,0,1,.959-2,4.24,4.24,0,0,1,2.559-.8,4.555,4.555,0,0,1,1.439.239,3.016,3.016,0,0,1,1.2.72,4.172,4.172,0,0,1,.879,1.118,2.532,2.532,0,0,1,.32,1.279,2.321,2.321,0,0,1-.879,1.918A2.975,2.975,0,0,1,594.175,199.007Zm-37.017,1.6q0-3.117,4.077-3.117a1.971,1.971,0,0,1,1.2.4,1.777,1.777,0,0,1,.639,1.039c.16,1.2.32,2.318.48,3.517s.24,2.477.4,3.915.24,3.117.4,4.955c.159,1.918.239,4.156.4,6.713,0,.24,0,.48.16.56a.415.415,0,0,0,.32.159c.16,0,.32-.159.56-.559a26.116,26.116,0,0,1,2.158-3.916,15.8,15.8,0,0,1,2.639-2.957,10.669,10.669,0,0,1,2.958-1.838,8.788,8.788,0,0,1,3.2-.639,6.859,6.859,0,0,1,3.918,1.2,10.5,10.5,0,0,1,2.958,3.436,21.564,21.564,0,0,1,1.919,5.434,32.259,32.259,0,0,1,.639,7.113,10.176,10.176,0,0,1-.16,1.758,2.481,2.481,0,0,1-.559,1.119,2.19,2.19,0,0,1-1.04.559,8.469,8.469,0,0,1-1.679.16,2.632,2.632,0,0,1-1.919-.559,1.956,1.956,0,0,1-.559-1.6,34.013,34.013,0,0,0-.4-5.114,25.783,25.783,0,0,0-.959-4.236,9.68,9.68,0,0,0-1.519-2.877,2.341,2.341,0,0,0-1.839-1.039c-1.519,0-2.958,1.2-4.478,3.6a45.052,45.052,0,0,0-4.877,10.949,3.647,3.647,0,0,1-.559,1.119,1.572,1.572,0,0,1-.72.719,2.665,2.665,0,0,1-.959.4,6.542,6.542,0,0,1-1.279.079,2.321,2.321,0,0,1-2.879-2.477c-.08-3.356-.319-6.553-.639-9.59s-.64-5.834-.96-8.311-.639-4.555-.879-6.313C557.238,202.524,557.158,201.325,557.158,200.606Zm-9.194,3.995a12,12,0,0,1,2.958.4,10.194,10.194,0,0,1,2.478,1.2,7.033,7.033,0,0,1,1.759,1.678,3.07,3.07,0,0,1,.64,1.918,2.921,2.921,0,0,1-.24,1.2,3.037,3.037,0,0,1-.72,1.038,3.74,3.74,0,0,1-.959.72,2.821,2.821,0,0,1-1.119.239,1.627,1.627,0,0,1-1.2-.479,15.518,15.518,0,0,1-1.2-1.119A9.26,9.26,0,0,0,549,210.275a3.319,3.319,0,0,0-1.839-.479,4.03,4.03,0,0,0-1.919.479,4.666,4.666,0,0,0-1.439,1.359,7.07,7.07,0,0,0-.879,2.078,13.221,13.221,0,0,0-.32,2.637c0,2.717.48,4.795,1.519,6.153a5.074,5.074,0,0,0,4.4,2.158,6.707,6.707,0,0,0,2.319-.4,15.944,15.944,0,0,0,1.679-.959c.48-.32.959-.64,1.359-.959a1.881,1.881,0,0,1,1.279-.4,1.291,1.291,0,0,1,.72.24,2.15,2.15,0,0,1,.639.559l.48.719a1.442,1.442,0,0,1,.16.8,3.088,3.088,0,0,1-.959,2,11.876,11.876,0,0,1-2.4,1.838,17.533,17.533,0,0,1-3.278,1.358,13.979,13.979,0,0,1-3.518.56,10.561,10.561,0,0,1-4.237-.88,9.132,9.132,0,0,1-3.278-2.477,12.679,12.679,0,0,1-2.079-3.836,15.561,15.561,0,0,1-.8-4.875,16.694,16.694,0,0,1,.879-5.354,12.972,12.972,0,0,1,2.4-4.236,12.169,12.169,0,0,1,3.6-2.8A10.482,10.482,0,0,1,547.964,204.6Z"/>
    <path id="Path_488" data-name="Path 488" d="M657.736,195.091a2.263,2.263,0,0,1,1.439-1.118c.4-.08.64.239.8.479-.32.24-.8.32-1.039.639a1.831,1.831,0,0,0-.64,1.359,1.876,1.876,0,0,0,1.039,1.518,5.146,5.146,0,0,0,2.239.56,2.5,2.5,0,0,0,1.519-.32,3.206,3.206,0,0,1-2.239,1.519,4.084,4.084,0,0,1-3.038-1.439,5.128,5.128,0,0,1-3.677,1.359,6.141,6.141,0,0,1-4-1.6,3.649,3.649,0,0,1-1.2-2.4,2.975,2.975,0,0,1,.559-1.6c.24.079.4.159.64.239a1.137,1.137,0,0,1,.16.48,1.715,1.715,0,0,0-.16,1.838,4.134,4.134,0,0,0,2,1.678,4.647,4.647,0,0,0,5.117-.8A3.642,3.642,0,0,1,657.736,195.091Zm5.037-3.356a1.252,1.252,0,0,1,1.6.959,1.151,1.151,0,0,1-1.519,1.119,1.119,1.119,0,0,1-.879-1.2A1.257,1.257,0,0,1,662.773,191.735Zm-17.909-.479a1.356,1.356,0,0,1,1.759,1.2,1,1,0,0,1-1.279.879,1.355,1.355,0,0,1-1.119-1.2A.962.962,0,0,1,644.864,191.256Zm35.259-14.785a2.054,2.054,0,0,1,1.2-.08.965.965,0,0,1,.559,1.039,1.024,1.024,0,0,1-.8.8,2.99,2.99,0,0,0-1.039.959,22.25,22.25,0,0,0-.8,2.078c-.4.719-.48,1.518-.959,2.238a2.774,2.774,0,0,1-.72.639c-.16.08-.24.08-.4.16h-.4a.279.279,0,0,0,.08-.16,2.381,2.381,0,0,0,1.119-1.359,5.637,5.637,0,0,0-.16-2A4.245,4.245,0,0,1,680.123,176.471Zm-9.754,41.237a13.746,13.746,0,0,0,.8,3.6,6.4,6.4,0,0,0,1.359,2.637c.24.24.48.639.96.639a1.521,1.521,0,0,0,1.359-.559c.32-.479.879-.8,1.119-1.359.24-.479.56-.8.8-1.278.239-.32.08-.8,0-1.119-.64-.32-1.28-.719-1.919-1.039a12.855,12.855,0,0,0-2.4-1.039A4.671,4.671,0,0,1,670.369,217.708Zm-24.146-4.076v7.112a3.757,3.757,0,0,1-1.439,3.117,2.724,2.724,0,0,1-1.919.4,3.37,3.37,0,0,1-2.238-3.117c-.08-1.279,0-2.637-.08-3.916a9.77,9.77,0,0,1-2.639-.16,18.878,18.878,0,0,1-3.677-.879c0,.16.08.4.08.56a11.442,11.442,0,0,0,.319,1.6c.08.4.24.8.32,1.2a15.025,15.025,0,0,0,1.439,4c.16.159.48.319.4.639.24.32.4.639.64.959a12.438,12.438,0,0,0,1.279,1.6,7.952,7.952,0,0,0,1.2,1.119,7.667,7.667,0,0,0,1.279.959l2.159.959c.4.16,1.359.479,1.6.559a21.116,21.116,0,0,0,2.319.16c.639.08,1.279-.08,1.919,0a10.544,10.544,0,0,1,2.238.16c.56.16,1.119.32,1.6.48a12.031,12.031,0,0,1,1.359.4,1.5,1.5,0,0,0,.88.4c.48,0,.959.16,1.439.16,1.2,0,2.319.239,3.518.159a18.644,18.644,0,0,0,4.237-.239,14.525,14.525,0,0,0,3.6-1.6,16.67,16.67,0,0,0,3.118-2.157,13.112,13.112,0,0,0,2.239-2.478,5.236,5.236,0,0,1-1.04-.319c-.4-.16-.559-.48-.879-.8a5.115,5.115,0,0,1-1.04-1.518,13.854,13.854,0,0,1-.879-2.557c-.08-.32-.08-.56-.16-.879-.16-.88-.24-1.679-.4-2.558-1.439.4-2.878.8-4.4,1.119-.8.16-1.6.32-2.4.4a19.676,19.676,0,0,0,.079,2.157,4.59,4.59,0,0,1-.4,2.078,2.724,2.724,0,0,1-2.559,1.519,2.793,2.793,0,0,1-1.919-.8C653.739,220.185,649.981,216.909,646.223,213.632Zm24.225-1.119a3.311,3.311,0,0,1-.079.879c-.08.719-.08,1.519-.16,2.238a6.77,6.77,0,0,0,1.119-.48,3.957,3.957,0,0,0,1.519-1.039c.16-.239,0-.479-.24-.639A7.449,7.449,0,0,0,670.448,212.513Zm-39.1-.32c-.239.4,0,.8.24,1.119a3.6,3.6,0,0,0,1.519,1.119c-.08-1.119,0-2.238-.08-3.436A3.79,3.79,0,0,0,631.352,212.193Zm47.571-19.1a12.2,12.2,0,0,0-2.4,2.157,35.93,35.93,0,0,0-2.958,4.715,3.063,3.063,0,0,1,1.519.4,18.405,18.405,0,0,0,2,.559,7.634,7.634,0,0,0,2.319.24c.24-.08.32-.32.48-.479a8.161,8.161,0,0,0,1.439-4.236,6.811,6.811,0,0,0-.24-3.117c-.16-.4-.24-.959-.72-.959C679.723,192.294,679.323,192.854,678.923,193.094Zm-25.984-18.061a14.151,14.151,0,0,0-2.478,1.2,18.461,18.461,0,0,0-2.719,2.238,33.772,33.772,0,0,0-2.958,2.877c-.8,1.039-1.519,2.158-2.238,3.277-1.12,1.758-2,3.6-2.959,5.434-.719,1.358-1.519,2.717-2.238,4.075a40.281,40.281,0,0,0-2.479,7.992,34.573,34.573,0,0,0-.639,4,56.865,56.865,0,0,0-.16,6.393,12.092,12.092,0,0,0,.16,2.4,2.884,2.884,0,0,0,.879.319,19.023,19.023,0,0,0,5.6.879v-8.551a2.858,2.858,0,0,1,3.837-2.717,6.917,6.917,0,0,1,1.839,1.279c3.518,3.037,6.956,6.073,10.474,9.11-.08-1.918-.08-3.916-.08-5.913a20.9,20.9,0,0,1,0-2.238,3.059,3.059,0,0,1,1.039-2,2.768,2.768,0,0,1,3.2-.16,2.845,2.845,0,0,1,1.359,2.478c.08,3.436.16,6.872.16,10.309.8-.08,1.6-.24,2.4-.32a38.145,38.145,0,0,0,4.317-1.2c0-1.278.16-2.477.24-3.756a39.3,39.3,0,0,1,.88-6.153,30.783,30.783,0,0,1,1.2-4.476,10.072,10.072,0,0,1,1.279-2.637c.72-1.119,1.279-2.237,2.079-3.276a15,15,0,0,1,3.518-3.6,6.53,6.53,0,0,1,1.359-.879,2.676,2.676,0,0,1,.8,0c-.4-.4-.879-.639-1.359-1.039a14.732,14.732,0,0,0-3.2-1.518,3.036,3.036,0,0,0-1.679.16,26.891,26.891,0,0,0-3.438,1.6,2.823,2.823,0,0,1-.639.4.532.532,0,0,1-.56-.719c.32-.959.64-2,.959-3.037a17.289,17.289,0,0,1,.56-1.918,56.016,56.016,0,0,0-7.276-.719q-2.637,0-5.276.239c-.4,0-.88-.08-.88-.559,0-.4.48-.48.64-.719,1.359-1.519,2.718-3.037,4.157-4.476a19.038,19.038,0,0,0-3.677.32c-.8.08-1.6.24-2.4.32a.513.513,0,0,1-.64-.48c-.08-1.758.72-3.356.96-5.114A12.189,12.189,0,0,0,652.939,175.033Zm0-1.119a10.746,10.746,0,0,1,3.2-.56,2.987,2.987,0,0,1,1.439.4c.4.32.24.8.24,1.279a7.462,7.462,0,0,1-.32,1.278,10.96,10.96,0,0,1-.479,1.519c-.08.4-.24.719-.32,1.118.48-.079.959-.079,1.439-.159,1.039-.08,2.159,0,3.2-.08a4.66,4.66,0,0,1,1.839.16c0,.079.08.159.16.239v.16a3.017,3.017,0,0,1-.8.959c-1.2,1.359-2.478,2.637-3.6,4a36.1,36.1,0,0,1,7.2-.24c.24,0,.48.08.72.08a5.267,5.267,0,0,0,1.119.08,21.552,21.552,0,0,0,2.239.32,10.934,10.934,0,0,1,1.519.16c.24.159.559.4.479.719-.239,1.039-.719,2-.959,3.037-.16.4-.24.8-.4,1.2.72-.4,1.439-.8,2.159-1.119.16-.079.24-.079.4-.159.319-.08.639-.24.959-.32a3.548,3.548,0,0,1,1.6-.08,18.206,18.206,0,0,1,1.919.639,7.307,7.307,0,0,1,1.359.72,13.225,13.225,0,0,1,2.4,1.758l.719.959a7.84,7.84,0,0,1,.4,1.278v3.2a11.442,11.442,0,0,1-.959,3.6,7.308,7.308,0,0,1-.72,1.359,2.8,2.8,0,0,1-.879,1.039,4.018,4.018,0,0,1-1.04.4,1.552,1.552,0,0,1-.639-.08l-.08.08a15.235,15.235,0,0,1-3.278-.879,4.888,4.888,0,0,0-.96-.4,6.831,6.831,0,0,1-1.279,0,11.637,11.637,0,0,0-.56,1.518,15.769,15.769,0,0,0-.639,2.078,46.8,46.8,0,0,0-1.04,5.834c0,.319-.08.639-.08.879.32,0,.72.08,1.04.08.08,0,.24.08.32.08a3.657,3.657,0,0,1,2.078,1.518,1.359,1.359,0,0,1-.16,1.119,3.837,3.837,0,0,1-1.918,1.438c-.16.08-.4.16-.56.24a5.051,5.051,0,0,0,1.119.639,9.621,9.621,0,0,0,1.839.88,5.6,5.6,0,0,1,2.239.958,3.271,3.271,0,0,1,1.439,1.839,3.726,3.726,0,0,1-.88,2.717c-.4.479-.879.879-1.2,1.358a23.779,23.779,0,0,1-1.839,2.158,19.515,19.515,0,0,1-2.078,2.318,14.606,14.606,0,0,1-3.358,2.477c-.08.08-.16.08-.24.16-.24.08-.4.24-.64.319a9.523,9.523,0,0,1-1.6.64,3.927,3.927,0,0,1-1.039.319h-.08a4.015,4.015,0,0,1-.96.16,2.212,2.212,0,0,0-.719.08h-1.6c0,1.359,0,2.8.08,4.156.08.08.24.16.32.24.4-.08.719-.08,1.119-.16a9.875,9.875,0,0,1,3.758.239c.4.08.559.48.639.8v.319a1.4,1.4,0,0,1-.719.8c-.32.16-.64,0-.96-.079-1.6-.4-3.278.159-4.957.079-.4,0-.719-.4-.879-.8v-.4a1.654,1.654,0,0,1,.8-1.119v-4.076a12.954,12.954,0,0,1-1.759-.08,10.193,10.193,0,0,1-1.6-.08,8.72,8.72,0,0,1-2-.319,1.968,1.968,0,0,0-.88-.32,2.637,2.637,0,0,1-1.519-.479,6.656,6.656,0,0,1-1.2-.32c-.48-.16-.88-.24-1.359-.4h-.72a11.68,11.68,0,0,0,.4,1.6,2.323,2.323,0,0,1,.16.719c.16.479.32,1.039.479,1.518,0,.08.08.16.08.24l.48,1.438c.16.48.24.959.4,1.439s.24.959.4,1.438c.159.32.239.72.4.959a1.3,1.3,0,0,1,.08.959,1.337,1.337,0,0,1-.879.72c-.96,0-1.919,0-2.878.08a5.382,5.382,0,0,1-1.6,0c-.24-.08-.48,0-.72-.08s-.4-.32-.64-.56c0-.319-.08-.639.16-.879a1.164,1.164,0,0,1,.72-.479c1.039,0,2.079,0,3.118-.08h1.2c0-.16.08-.32.08-.48a5.977,5.977,0,0,1-.32-1.278c-.239-.8-.4-1.6-.639-2.318-.24-.8-.48-1.678-.72-2.477a18.431,18.431,0,0,1-.48-2.238h-1.039a9.67,9.67,0,0,0-1.519.08c-.64-.08-1.279,0-1.919-.08a13.782,13.782,0,0,1-1.919-.719,6.034,6.034,0,0,0-1.279-.48,7.523,7.523,0,0,1-2.318-1.6,10.467,10.467,0,0,1-1.759-2c-.64-.959-1.359-1.838-1.919-2.877a27.022,27.022,0,0,1-1.679-4.875,24.788,24.788,0,0,1-.64-3.356,6.1,6.1,0,0,1-2.638-2.478,3.485,3.485,0,0,0-.08-.4v-.32a3.394,3.394,0,0,1,.08-.4,4.067,4.067,0,0,1,2.558-1.838,8.344,8.344,0,0,1,0-2,30.516,30.516,0,0,1,.24-4.715l.08-.08a2.214,2.214,0,0,1,.08-.72c.08-.159.08-.4.16-.559a14.866,14.866,0,0,1,.879-4.156,28.536,28.536,0,0,1,2.959-7.032c.559-1.039,1.2-2.078,1.759-3.117a36.314,36.314,0,0,1,3.2-5.354,23.932,23.932,0,0,1,2.638-3.037c1.279-1.119,2.558-2.318,3.918-3.436A9.569,9.569,0,0,1,652.939,173.914Zm21.587-4.715a4.738,4.738,0,0,1,1.119-.48,1.352,1.352,0,0,1,.8.56v.559c-.16.4-.56.48-.88.8a3.647,3.647,0,0,0-1.439,3.117,9.365,9.365,0,0,0,.72,1.918c.16.24.08.559.16.8a23.97,23.97,0,0,1,0,2.4,2.115,2.115,0,0,1-1.12,1.358l-.719.24h-.56c.48-.48,1.2-.8,1.439-1.439.16-.479-.16-.879-.4-1.278s-.72-.72-.88-1.119a9.263,9.263,0,0,1-.8-2.078c-.08-.24-.08-.559-.16-.8a1.753,1.753,0,0,1,.08-.639,4.938,4.938,0,0,1,2.638-3.916Zm-9.034-.24a3,3,0,0,1,1.679-.959.892.892,0,0,1,.8,1.2,1.263,1.263,0,0,1-.56.559,2.885,2.885,0,0,0-1.6,2,4.337,4.337,0,0,0,.72,2.158,8.144,8.144,0,0,1,.879,2.317,7.124,7.124,0,0,1,.24,2.238,1.561,1.561,0,0,1-.959,1.039h-.48c-.08,0-.16-.08-.24-.08a.606.606,0,0,1-.32-.16l.72-.719a1.019,1.019,0,0,0,.16-.959c-.16-.879-.88-1.518-1.279-2.318a14.242,14.242,0,0,1-.96-1.918c0-.08-.08-.159-.08-.239-.08-.16-.08-.24-.16-.4a4.822,4.822,0,0,1,0-1.518A6.693,6.693,0,0,1,665.492,168.959Z"/>
  </g>
</svg>
