<svg xmlns="http://www.w3.org/2000/svg" width="77.654" height="20.709" viewBox="0 0 77.654 20.709">
  <g id="Warstwa_x0020_1" transform="translate(0 -9.234)">
    <g id="_2189236140624" transform="translate(0)">
      <path id="Path_493" data-name="Path 493" d="M2.122,3.83H21.288a2.125,2.125,0,0,1,2.122,2.122V22.418a2.125,2.125,0,0,1-2.122,2.122H2.122A2.125,2.125,0,0,1,0,22.418V5.952A2.125,2.125,0,0,1,2.122,3.83Z" transform="translate(0 5.404)" fill="#707070" fill-rule="evenodd"/>
      <path id="Path_494" data-name="Path 494" d="M13.372,0H32.538c1.181,0,2.122.667,2.122,1.467V19.242c0,.817-.964,1.467-2.122,1.467H13.372c-1.181,0-2.122-.667-2.122-1.467V1.467C11.25.65,12.214,0,13.372,0Zm7.353,16.357h5.569V4.252H18.169V7.687H20.7v8.654Z" transform="translate(15.872 9.234)" fill="#707070" fill-rule="evenodd"/>
      <path id="Path_495" data-name="Path 495" d="M24.622,6.54H43.788c1.181,0,2.122,1.409,2.122,3.1V24.15c0,1.726-.964,3.1-2.122,3.1H24.622c-1.181,0-2.122-1.409-2.122-3.1V9.639c0-1.726.964-3.1,2.122-3.1Z" transform="translate(31.744 2.694)" fill="#707070" fill-rule="evenodd"/>
      <path id="Path_509" data-name="Path 509" d="M24.622,6.54H43.788c1.181,0,2.122,1.409,2.122,3.1V24.15c0,1.726-.964,3.1-2.122,3.1H24.622c-1.181,0-2.122-1.409-2.122-3.1V9.639c0-1.726.964-3.1,2.122-3.1Z" transform="translate(4.622 2.694)" fill="#707070" fill-rule="evenodd"/>
    </g>
  </g>
</svg>
