<svg xmlns="http://www.w3.org/2000/svg" width="77.654" height="27.571" viewBox="0 0 77.654 27.571">
  <g id="Warstwa_x0020_1" transform="translate(0 -2.372)">
    <g id="_2189236140624" transform="translate(0)">
      <path id="Path_493" data-name="Path 493" d="M2.122,3.83H21.288a2.216,2.216,0,0,1,2.122,2.293v17.8a2.215,2.215,0,0,1-2.122,2.293H2.122A2.216,2.216,0,0,1,0,23.921V6.123A2.215,2.215,0,0,1,2.122,3.83Z" transform="translate(0 3.728)" fill="#707070" fill-rule="evenodd"/>
      <path id="Path_494" data-name="Path 494" d="M13.372,0H32.538a2.045,2.045,0,0,1,2.122,1.953V25.617a2.046,2.046,0,0,1-2.122,1.953H13.372a2.045,2.045,0,0,1-2.122-1.953V1.953A2.046,2.046,0,0,1,13.372,0Zm7.353,21.777h5.569V5.661H18.169v4.573H20.7V21.755Z" transform="translate(15.872 2.372)" fill="#707070" fill-rule="evenodd"/>
      <path id="Path_495" data-name="Path 495" d="M24.622,6.54H43.788a2.421,2.421,0,0,1,2.122,2.629v12.31a2.419,2.419,0,0,1-2.122,2.629H24.622A2.421,2.421,0,0,1,22.5,21.479V9.169A2.419,2.419,0,0,1,24.622,6.54Z" transform="translate(31.744 5.834)" fill="#707070" fill-rule="evenodd"/>
      <path id="Path_509" data-name="Path 509" d="M24.622,6.54H43.788c1.181,0,2.122,1.409,2.122,3.1V24.15c0,1.726-.964,3.1-2.122,3.1H24.622c-1.181,0-2.122-1.409-2.122-3.1V9.639c0-1.726.964-3.1,2.122-3.1Z" transform="translate(4.622 2.694)" fill="#707070" fill-rule="evenodd" opacity="0"/>
    </g>
  </g>
</svg>