<svg xmlns="http://www.w3.org/2000/svg" width="96.084" height="96.114" viewBox="0 0 96.084 96.114">
  <g id="Icon_ionic-ios-quote" data-name="Icon ionic-ios-quote" transform="translate(-6.75 -6.75)" opacity="0.19">
    <path id="Path_510" data-name="Path 510" d="M40.68,6.75H21.163A14.455,14.455,0,0,0,6.75,21.163V59.6A14.455,14.455,0,0,0,21.163,74.009h11.62a2.416,2.416,0,0,1,2.4,2.582,36.624,36.624,0,0,1-9.4,22.249,2.4,2.4,0,0,0,1.772,4.023h11.98a2.333,2.333,0,0,0,1.892-.931c2.222-2.883,8.557-12.491,8.557-28.195V16.088A9.1,9.1,0,0,0,40.68,6.75Z" transform="translate(0 0)" fill="#dcdcdc"/>
    <path id="Path_511" data-name="Path 511" d="M53.055,6.75H33.538A14.455,14.455,0,0,0,19.125,21.163V59.6A14.455,14.455,0,0,0,33.538,74.009h11.62a2.416,2.416,0,0,1,2.4,2.582,36.624,36.624,0,0,1-9.4,22.249,2.4,2.4,0,0,0,1.772,4.023h11.98a2.333,2.333,0,0,0,1.892-.931c2.222-2.883,8.557-12.491,8.557-28.195V16.088A9.1,9.1,0,0,0,53.055,6.75Z" transform="translate(40.471 0)" fill="#dcdcdc"/>
  </g>
</svg>
