<svg xmlns="http://www.w3.org/2000/svg" xmlns:xlink="http://www.w3.org/1999/xlink" width="87" height="87" viewBox="0 0 87 87">
  <defs>
    <radialGradient id="radial-gradient" cx="0.363" cy="-0.184" r="1.307" gradientTransform="scale(1 3)" gradientUnits="objectBoundingBox">
      <stop offset="0" stop-color="#4c65ff"/>
      <stop offset="1" stop-color="#263380"/>
    </radialGradient>
  </defs>
  <g id="Group_161" data-name="Group 161" transform="translate(-855.754 -6040)">
    <g id="Group_160" data-name="Group 160">
      <g id="Group_150" data-name="Group 150" transform="translate(602.754 2572)">
        <g id="Group_156" data-name="Group 156">
          <g id="Group_158" data-name="Group 158">
            <path id="Path_514" data-name="Path 514" d="M43.5,0A43.5,43.5,0,1,1,0,43.5,43.5,43.5,0,0,1,43.5,0Z" transform="translate(253 3468)" fill="url(#radial-gradient)"/>
          </g>
        </g>
        <g id="Group_157" data-name="Group 157">
          <g id="Group_155" data-name="Group 155">
            <path id="Icon_open-lightbulb" data-name="Icon open-lightbulb" d="M21.25.013a3.1,3.1,0,0,0-.8.372L1.869,9.672a3.1,3.1,0,1,0,2.724,5.449L23.169,5.834A3.1,3.1,0,0,0,21.25.013ZM27.442,9.3a3.1,3.1,0,0,0-.8.372L1.869,22.056a3.1,3.1,0,1,0,2.724,5.449L29.361,15.121A3.1,3.1,0,0,0,27.442,9.3Zm0,12.384a3.1,3.1,0,0,0-.8.372L8.061,31.344a3.1,3.1,0,0,0,1.362,5.82H21.807a3.135,3.135,0,1,0,.991-6.192l6.563-3.467a3.1,3.1,0,0,0-1.919-5.82ZM11.59,43.357a3.135,3.135,0,0,0,.991,6.192h6.192a3.1,3.1,0,0,0,0-6.192H12.581a3.1,3.1,0,0,0-.557,0,3.1,3.1,0,0,0-.372,0Z" transform="translate(281.141 3486.724)" fill="#fff"/>
          </g>
        </g>
      </g>
    </g>
  </g>
</svg>
