<svg xmlns="http://www.w3.org/2000/svg" width="155.055" height="155.052" viewBox="0 0 155.055 155.052">
  <path id="Icon_awesome-linkedin-in" data-name="Icon awesome-linkedin-in" d="M34.707,155.052H2.561V51.532H34.707ZM18.617,37.411A18.705,18.705,0,1,1,37.234,18.618,18.774,18.774,0,0,1,18.617,37.411Zm136.4,117.641H122.943V104.659c0-12.01-.242-27.412-16.713-27.412-16.713,0-19.275,13.048-19.275,26.546v51.258H54.844V51.532H85.675V65.653h.45c4.292-8.133,14.775-16.717,30.416-16.717,32.534,0,38.515,21.424,38.515,49.251v56.865Z" transform="translate(0 -0.001)" fill="#4d4d4d"/>
</svg>
