<svg xmlns="http://www.w3.org/2000/svg" xmlns:xlink="http://www.w3.org/1999/xlink" width="87" height="87" viewBox="0 0 87 87">
  <defs>
    <radialGradient id="radial-gradient" cx="0.363" cy="-0.184" r="1.307" gradientTransform="scale(1 3)" gradientUnits="objectBoundingBox">
      <stop offset="0" stop-color="#4c65ff"/>
      <stop offset="1" stop-color="#263380"/>
    </radialGradient>
  </defs>
  <g id="Group_183" data-name="Group 183" transform="translate(-371.287)">
    <path id="Path_168" data-name="Path 168" d="M43.5,0A43.5,43.5,0,1,1,0,43.5,43.5,43.5,0,0,1,43.5,0Z" transform="translate(371.287)" fill="url(#radial-gradient)"/>
    <path id="Icon_awesome-ruler-combined" data-name="Icon awesome-ruler-combined" d="M11.83,21.295H7.69A.591.591,0,0,1,7.1,20.7V19.52a.591.591,0,0,1,.592-.592H11.83V14.2H7.69a.591.591,0,0,1-.592-.592V12.422a.591.591,0,0,1,.592-.592H11.83V7.1H7.69A.591.591,0,0,1,7.1,6.507V5.324a.591.591,0,0,1,.592-.592H11.83V2.366A2.366,2.366,0,0,0,9.464,0h-7.1A2.366,2.366,0,0,0,0,2.366V35.491a2.276,2.276,0,0,0,.116.577L11.83,24.354Zm23.661,4.732H33.125v4.141a.591.591,0,0,1-.592.592H31.351a.591.591,0,0,1-.592-.592V26.027H26.027v4.141a.591.591,0,0,1-.592.592H24.252a.591.591,0,0,1-.592-.592V26.027H18.929v4.141a.591.591,0,0,1-.592.592H17.154a.591.591,0,0,1-.592-.592V26.027H13.5L1.789,37.741a2.282,2.282,0,0,0,.577.116H35.491a2.366,2.366,0,0,0,2.366-2.366v-7.1A2.366,2.366,0,0,0,35.491,26.027Z" transform="translate(395.858 24.571)" fill="#fff"/>
  </g>
</svg>
