<svg xmlns="http://www.w3.org/2000/svg" width="56.708" height="42.531" viewBox="0 0 56.708 42.531">
  <path id="Icon_awesome-chart-line" data-name="Icon awesome-chart-line" d="M54.936,39.942H7.088V6.272A1.772,1.772,0,0,0,5.316,4.5H1.772A1.772,1.772,0,0,0,0,6.272V43.487a3.545,3.545,0,0,0,3.544,3.544H54.936a1.772,1.772,0,0,0,1.772-1.772V41.714A1.772,1.772,0,0,0,54.936,39.942Zm-3.544-31.9H38.315a2.658,2.658,0,0,0-1.88,4.538l3.589,3.589L31.9,24.3l-8.126-8.126a3.543,3.543,0,0,0-5.012,0L11.152,23.78a1.772,1.772,0,0,0,0,2.506l2.505,2.505a1.772,1.772,0,0,0,2.506,0l5.1-5.1,8.126,8.126a3.543,3.543,0,0,0,5.012,0L45.036,21.182l3.589,3.589a2.658,2.658,0,0,0,4.538-1.88V9.816A1.77,1.77,0,0,0,51.391,8.044Z" transform="translate(0 -4.5)" fill="#707070"/>
</svg>
