<svg xmlns="http://www.w3.org/2000/svg" width="135.117" height="155.526" viewBox="0 0 135.117 155.526">
  <path id="Icon_simple-tiktok" data-name="Icon simple-tiktok" d="M73.332.13C81.821,0,90.245.065,98.67,0c.518,9.915,4.083,20.024,11.34,27.022,7.258,7.193,17.5,10.5,27.476,11.6V64.737a69.361,69.361,0,0,1-27.217-6.286,80.064,80.064,0,0,1-10.5-6.027c-.065,18.922.065,37.844-.13,56.7a49.5,49.5,0,0,1-8.748,25.532,48.279,48.279,0,0,1-38.3,20.8,47.251,47.251,0,0,1-26.439-6.675,48.867,48.867,0,0,1-23.653-37c-.13-3.24-.194-6.48-.065-9.655A48.634,48.634,0,0,1,19.158,69.986c10.757-9.331,25.791-13.8,39.853-11.146.13,9.591-.259,19.181-.259,28.772-6.415-2.074-13.932-1.49-19.57,2.4a22.5,22.5,0,0,0-8.813,11.34c-1.361,3.3-.972,6.934-.907,10.433,1.555,10.627,11.794,19.57,22.681,18.6a21.771,21.771,0,0,0,17.95-10.433c1.231-2.138,2.592-4.342,2.657-6.869.648-11.6.389-23.134.454-34.734.065-26.115-.065-52.165.13-78.216Z" transform="translate(-2.369)" fill="#4d4d4d"/>
</svg>
