<svg xmlns="http://www.w3.org/2000/svg" xmlns:xlink="http://www.w3.org/1999/xlink" width="532.714" height="560" viewBox="0 0 532.714 560">
  <defs>
    <radialGradient id="radial-gradient" cx="0.25" cy="0.146" r="1.166" gradientTransform="matrix(-0.13, -0.992, 1.065, -0.139, 0.127, 0.415)" gradientUnits="objectBoundingBox">
      <stop offset="0" stop-color="#fff"/>
      <stop offset="1" stop-color="#f2f2f2"/>
    </radialGradient>
    <filter id="Subtraction_4" x="12" y="12" width="520.714" height="548" filterUnits="userSpaceOnUse">
      <feOffset dx="6" dy="6" input="SourceAlpha"/>
      <feGaussianBlur stdDeviation="8" result="blur"/>
      <feFlood flood-opacity="0.059"/>
      <feComposite operator="in" in2="blur"/>
      <feComposite in="SourceGraphic"/>
    </filter>
    <radialGradient id="radial-gradient-2" cx="0.167" cy="-0.262" r="1.636" gradientTransform="matrix(0.979, 0.203, -0.193, 0.931, -0.047, -0.052)" xlink:href="#radial-gradient"/>
    <filter id="Subtraction_5" x="0" y="0" width="520.714" height="548" filterUnits="userSpaceOnUse">
      <feOffset dx="-6" dy="-6" input="SourceAlpha"/>
      <feGaussianBlur stdDeviation="8" result="blur-2"/>
      <feFlood flood-color="#fff"/>
      <feComposite operator="in" in2="blur-2"/>
      <feComposite in="SourceGraphic"/>
    </filter>
  </defs>
  <g id="Group_206" data-name="Group 206" transform="translate(-144.949 -214.764)">
    <g transform="matrix(1, 0, 0, 1, 144.95, 214.76)" filter="url(#Subtraction_4)">
      <path id="Subtraction_4-2" data-name="Subtraction 4" d="M122.691,500h-.009a121.186,121.186,0,0,1-24.435-2.5,123.47,123.47,0,0,1-23.173-7.23,124.714,124.714,0,0,1-39.858-26.981,122.658,122.658,0,0,1-14.709-17.954A120.683,120.683,0,0,1,9.349,424.581,122.381,122.381,0,0,1,0,376.122L2.226,121.766A122.457,122.457,0,0,1,12.76,72.615,120.258,120.258,0,0,1,24.639,51.858,122.45,122.45,0,0,1,40.092,34.105,124.833,124.833,0,0,1,101.644,2.3a121.72,121.72,0,0,1,23.5-2.3,119.807,119.807,0,0,1,32.685,4.544,124.672,124.672,0,0,1,31.932,14.219l225.2,140.419a124.777,124.777,0,0,1,26.422,21.975,119.832,119.832,0,0,1,18.357,26.767,124.155,124.155,0,0,1-5.619,120.612,119.828,119.828,0,0,1-20.766,24.945A124.774,124.774,0,0,1,405,372.9L177.581,486.845a125.155,125.155,0,0,1-27.367,9.957A120.511,120.511,0,0,1,122.691,500ZM123.88,43.585a77.327,77.327,0,0,0-14.925,1.464,78.925,78.925,0,0,0-14.243,4.244A79.413,79.413,0,0,0,69.861,65.248a77.769,77.769,0,0,0-9.814,11.275A76.375,76.375,0,0,0,52.5,89.707a77.778,77.778,0,0,0-6.69,31.219L43.588,376.857a77.731,77.731,0,0,0,5.936,30.778,76.65,76.65,0,0,0,7.087,13.181,77.913,77.913,0,0,0,9.343,11.4,78.956,78.956,0,0,0,40.033,21.728,76.433,76.433,0,0,0,33.006-.442,79.464,79.464,0,0,0,17.38-6.323L385.2,332.546a79.244,79.244,0,0,0,18.008-12.336,76.108,76.108,0,0,0,13.19-15.843,78.858,78.858,0,0,0,3.57-76.608,76.11,76.11,0,0,0-11.66-17A79.247,79.247,0,0,0,391.53,196.8L164.923,55.5a79.195,79.195,0,0,0-20.279-9.031,76.062,76.062,0,0,0-20.757-2.887Z" transform="translate(30 30)" fill="url(#radial-gradient)"/>
    </g>
    <g transform="matrix(1, 0, 0, 1, 144.95, 214.76)" filter="url(#Subtraction_5)">
      <path id="Subtraction_5-2" data-name="Subtraction 5" d="M122.691,500h-.009a121.186,121.186,0,0,1-24.435-2.5,123.47,123.47,0,0,1-23.173-7.23,124.714,124.714,0,0,1-39.858-26.981,122.658,122.658,0,0,1-14.709-17.954A120.683,120.683,0,0,1,9.349,424.581,122.381,122.381,0,0,1,0,376.122L2.226,121.766A122.457,122.457,0,0,1,12.76,72.615,120.258,120.258,0,0,1,24.639,51.858,122.45,122.45,0,0,1,40.092,34.105,124.833,124.833,0,0,1,101.644,2.3a121.72,121.72,0,0,1,23.5-2.3,119.807,119.807,0,0,1,32.685,4.544,124.672,124.672,0,0,1,31.932,14.219l225.2,140.419a124.777,124.777,0,0,1,26.422,21.975,119.832,119.832,0,0,1,18.357,26.767,124.155,124.155,0,0,1-5.619,120.612,119.828,119.828,0,0,1-20.766,24.945A124.774,124.774,0,0,1,405,372.9L177.581,486.845a125.155,125.155,0,0,1-27.367,9.957A120.511,120.511,0,0,1,122.691,500ZM123.88,43.585a77.327,77.327,0,0,0-14.925,1.464,78.925,78.925,0,0,0-14.243,4.244A79.413,79.413,0,0,0,69.861,65.248a77.769,77.769,0,0,0-9.814,11.275A76.375,76.375,0,0,0,52.5,89.707a77.778,77.778,0,0,0-6.69,31.219L43.588,376.857a77.731,77.731,0,0,0,5.936,30.778,76.65,76.65,0,0,0,7.087,13.181,77.913,77.913,0,0,0,9.343,11.4,78.956,78.956,0,0,0,40.033,21.728,76.433,76.433,0,0,0,33.006-.442,79.464,79.464,0,0,0,17.38-6.323L385.2,332.546a79.244,79.244,0,0,0,18.008-12.336,76.108,76.108,0,0,0,13.19-15.843,78.858,78.858,0,0,0,3.57-76.608,76.11,76.11,0,0,0-11.66-17A79.247,79.247,0,0,0,391.53,196.8L164.923,55.5a79.195,79.195,0,0,0-20.279-9.031,76.062,76.062,0,0,0-20.757-2.887Z" transform="translate(30 30)" fill="url(#radial-gradient-2)"/>
    </g>
  </g>
</svg>