<svg id="Group_34" data-name="Group 34" xmlns="http://www.w3.org/2000/svg" width="52" height="52" viewBox="0 0 52 52">
  <g id="Rectangle_26" data-name="Rectangle 26" fill="#fff" stroke="#501eaf" stroke-width="4">
    <rect width="52" height="52" rx="4" stroke="none"/>
    <rect x="2" y="2" width="48" height="48" rx="2" fill="none"/>
  </g>
  <g id="Rectangle_27" data-name="Rectangle 27" transform="translate(0 33)" fill="#fff" stroke="#501eaf" stroke-width="4">
    <rect width="18" height="19" rx="4" stroke="none"/>
    <rect x="2" y="2" width="14" height="15" rx="2" fill="none"/>
  </g>
  <path id="Icon_awesome-arrow-left" data-name="Icon awesome-arrow-left" d="M12.148,19.218,11.1,20.265a1.127,1.127,0,0,1-1.6,0L.333,11.1a1.127,1.127,0,0,1,0-1.6L9.5.333a1.127,1.127,0,0,1,1.6,0L12.148,1.38A1.133,1.133,0,0,1,12.129,3L6.445,8.412H20a1.129,1.129,0,0,1,1.132,1.132v1.509A1.129,1.129,0,0,1,20,12.186H6.445L12.129,17.6A1.125,1.125,0,0,1,12.148,19.218Z" transform="translate(46.281 18.995) rotate(135)" fill="#571ab6"/>
</svg>
