<svg id="Icon_feather-settings" data-name="Icon feather-settings" xmlns="http://www.w3.org/2000/svg" width="53" height="53" viewBox="0 0 53 53">
  <path id="Path_161" data-name="Path 161" d="M27.136,20.318A6.818,6.818,0,1,1,20.318,13.5,6.818,6.818,0,0,1,27.136,20.318Z" transform="translate(6.182 6.182)" fill="none" stroke="#501eb0" stroke-linecap="round" stroke-linejoin="round" stroke-width="3"/>
  <path id="Path_162" data-name="Path 162" d="M43.318,33.318a3.75,3.75,0,0,0,.75,4.136l.136.136a4.548,4.548,0,1,1-6.432,6.432l-.136-.136a3.78,3.78,0,0,0-6.409,2.682v.386a4.545,4.545,0,0,1-9.091,0v-.2a3.75,3.75,0,0,0-2.455-3.432,3.75,3.75,0,0,0-4.136.75l-.136.136a4.548,4.548,0,1,1-6.432-6.432l.136-.136a3.78,3.78,0,0,0-2.682-6.409H6.045a4.545,4.545,0,0,1,0-9.091h.2a3.75,3.75,0,0,0,3.432-2.455,3.75,3.75,0,0,0-.75-4.136L8.8,15.409a4.548,4.548,0,1,1,6.432-6.432l.136.136a3.75,3.75,0,0,0,4.136.75h.182a3.75,3.75,0,0,0,2.273-3.432V6.045a4.545,4.545,0,1,1,9.091,0v.2a3.78,3.78,0,0,0,6.409,2.682l.136-.136a4.548,4.548,0,1,1,6.432,6.432l-.136.136a3.75,3.75,0,0,0-.75,4.136v.182a3.75,3.75,0,0,0,3.432,2.273h.386a4.545,4.545,0,0,1,0,9.091h-.2a3.75,3.75,0,0,0-3.432,2.273Z" transform="translate(0 0)" fill="none" stroke="#501eb0" stroke-linecap="round" stroke-linejoin="round" stroke-width="3"/>
</svg>
