<svg xmlns="http://www.w3.org/2000/svg" viewBox="0 0 32 32"><defs><style>.cls-1{fill-rule:evenodd;}</style></defs><title>play_32x32</title><g id="Layer_1" data-name="Layer 1"><path class="cls-1" d="M13.28,29.33a.3.3,0,0,1-.15.26l-2.87,1.6a6,6,0,0,1-8.94-5.26V6.07A6,6,0,0,1,10.26.81L13.13,2.4a.33.33,0,0,1,.15.27V5.42a.29.29,0,0,1-.14.26.29.29,0,0,1-.3,0l-4-2.24A3,3,0,0,0,4.33,6.07v8.35a.08.08,0,0,0,.07.08H10a.29.29,0,0,1,.3.3v2.4a.29.29,0,0,1-.3.3H4.4a.08.08,0,0,0-.07.08v8.35A3,3,0,0,0,8.8,28.56l4-2.24a.27.27,0,0,1,.3,0,.29.29,0,0,1,.14.26Z"/></g><g id="Layer_9" data-name="Layer 9"><path class="cls-1" d="M16.29,4.67a.32.32,0,0,1,.15-.26.32.32,0,0,1,.3,0l11.39,6.33a6,6,0,0,1,0,10.52l-8.79,4.88a.1.1,0,0,0,0,.07v3.23a.29.29,0,0,1-.16.26L16.74,31a.3.3,0,0,1-.44-.26c0-1,0-5.49,0-6.2a.29.29,0,0,1,.16-.26l10.22-5.68a3,3,0,0,0,0-5.26L16.45,7.69a.29.29,0,0,1-.16-.26Z"/></g></svg>