<svg width="87" height="87" viewBox="0 0 87 87" fill="none" xmlns="http://www.w3.org/2000/svg">
<path d="M87 43.5C87 67.5244 67.5244 87 43.5 87C19.4756 87 0 67.5244 0 43.5C0 19.4756 19.4756 0 43.5 0C67.5244 0 87 19.4756 87 43.5Z" fill="#282828"/>
<path fill-rule="evenodd" clip-rule="evenodd" d="M39.481 33.0302C39.8387 32.8388 40.2727 32.8597 40.6102 33.0848L51.8602 40.5848C52.1662 40.7888 52.35 41.1322 52.35 41.5C52.35 41.8678 52.1662 42.2113 51.8602 42.4153L40.6102 49.9153C40.2727 50.1403 39.8387 50.1613 39.481 49.9699C39.1233 49.7784 38.9 49.4057 38.9 49V34C38.9 33.5944 39.1233 33.2216 39.481 33.0302ZM41.1 36.0554V46.9447L49.267 41.5L41.1 36.0554Z" fill="white"/>
</svg>
