<?xml version="1.0" encoding="utf-8"?>
<!-- Generator: Adobe Illustrator 25.2.0, SVG Export Plug-In . SVG Version: 6.00 Build 0)  -->
<svg version="1.1" id="Warstwa_1" xmlns="http://www.w3.org/2000/svg" xmlns:xlink="http://www.w3.org/1999/xlink" x="0px" y="0px"
	 viewBox="0 0 160 160" style="enable-background:new 0 0 160 160;" xml:space="preserve">
<style type="text/css">
	.st0{fill:none;stroke:#E9EAF1;stroke-width:1.2;}
	.st1{fill:none;stroke:#000000;stroke-width:2;stroke-linecap:round;stroke-linejoin:round;stroke-miterlimit:10;}
</style>
<circle class="st0" cx="80" cy="80" r="79.4"/>
<circle cx="24.2" cy="75.3" r="1.9"/>
<circle cx="134" cy="76.3" r="1.9"/>
<path class="st1" d="M79.1,63.6v30.9"/>
<path class="st1" d="M89,84.6l-9.9,9.9l-9.9-9.9"/>
<g>
	<path d="M33.7,54.8c-0.4,0.3-0.9,0.5-1.4,0.6c-0.5,0.1-1,0-1.5-0.3l1.1-1.9c0.3,0.1,0.5,0.2,0.8,0.1c0.2-0.1,0.4-0.2,0.6-0.5
		c0.2-0.3,0.2-0.5,0.2-0.7c0-0.2-0.2-0.4-0.4-0.5c-0.2-0.1-0.4-0.1-0.6-0.1c-0.2,0.1-0.4,0.1-0.6,0.3s-0.4,0.3-0.7,0.6
		c-0.4,0.4-0.8,0.7-1.1,0.9c-0.3,0.2-0.7,0.3-1.1,0.4c-0.4,0-0.8-0.1-1.3-0.3c-0.7-0.4-1.1-1-1.2-1.7c-0.1-0.7,0.1-1.5,0.5-2.3
		c0.5-0.8,1-1.3,1.7-1.6c0.7-0.3,1.4-0.2,2.1,0.1l-1.1,1.9c-0.2-0.1-0.5-0.1-0.7-0.1c-0.2,0.1-0.4,0.2-0.6,0.5
		c-0.1,0.2-0.2,0.4-0.1,0.6c0,0.2,0.2,0.4,0.4,0.5c0.2,0.1,0.5,0.1,0.7,0c0.3-0.1,0.6-0.4,1-0.8c0.4-0.4,0.8-0.7,1.1-0.9
		c0.3-0.2,0.7-0.3,1.1-0.4c0.4-0.1,0.8,0,1.3,0.3c0.4,0.2,0.7,0.6,0.9,1c0.2,0.4,0.3,0.9,0.3,1.4c0,0.5-0.2,1-0.5,1.6
		C34.5,54,34.1,54.5,33.7,54.8z"/>
	<path d="M33.8,43.2c-0.2-0.7-0.3-1.4-0.1-2.1c0.2-0.7,0.5-1.4,1.1-2c0.7-0.7,1.4-1.2,2.3-1.4c0.9-0.2,1.7,0,2.6,0.4l-1.5,1.7
		c-0.4-0.1-0.7-0.1-1.1,0c-0.3,0.1-0.6,0.3-0.9,0.6c-0.4,0.5-0.6,1-0.5,1.6c0.1,0.6,0.4,1.1,0.9,1.6c0.5,0.5,1.1,0.7,1.7,0.7
		c0.6,0,1.1-0.2,1.5-0.7c0.3-0.3,0.4-0.6,0.5-1c0.1-0.4,0-0.7-0.1-1.1l1.5-1.7c0.5,0.8,0.7,1.6,0.6,2.5c-0.1,0.9-0.5,1.7-1.1,2.4
		c-0.5,0.6-1.2,1-1.9,1.3c-0.7,0.2-1.4,0.3-2.1,0.1c-0.7-0.2-1.4-0.5-2-1.1C34.5,44.5,34.1,43.9,33.8,43.2z"/>
	<path d="M50.2,36.8l-3.3-1.6l-0.4,0.3l1.9,2.6l-1.7,1.2l-4.9-6.8l2.8-2c0.5-0.4,1.1-0.6,1.6-0.7c0.5-0.1,1,0,1.4,0.2
		c0.4,0.2,0.8,0.5,1.1,0.9c0.3,0.5,0.5,1,0.5,1.5c0,0.5-0.2,1.1-0.6,1.6l3.5,1.6L50.2,36.8z M45.7,34.4l1-0.7
		c0.3-0.2,0.5-0.5,0.5-0.7c0-0.3,0-0.5-0.2-0.8c-0.2-0.3-0.4-0.4-0.7-0.4c-0.3,0-0.5,0.1-0.8,0.3l-1,0.7L45.7,34.4z"/>
	<path d="M56.8,32.3c-0.8-0.1-1.4-0.3-2.1-0.8c-0.6-0.4-1.1-1.1-1.4-1.8s-0.5-1.5-0.4-2.3c0.1-0.8,0.4-1.4,0.8-2
		c0.5-0.6,1-1.1,1.8-1.4c0.7-0.3,1.5-0.4,2.2-0.4c0.8,0.1,1.4,0.3,2,0.8c0.6,0.4,1.1,1.1,1.4,1.8c0.3,0.8,0.5,1.5,0.4,2.3
		c-0.1,0.8-0.4,1.4-0.8,2c-0.5,0.6-1,1.1-1.8,1.4C58.3,32.3,57.6,32.4,56.8,32.3z M59.5,29c0.2-0.6,0.1-1.2-0.2-1.9
		c-0.3-0.7-0.7-1.1-1.3-1.4c-0.5-0.2-1.1-0.2-1.7,0c-0.6,0.3-1,0.7-1.2,1.3c-0.2,0.6-0.1,1.2,0.2,1.9c0.3,0.7,0.7,1.1,1.3,1.4
		c0.5,0.2,1.1,0.2,1.8,0C58.9,30,59.3,29.6,59.5,29z"/>
	<path d="M68.2,27.2l2.6-0.6l0.3,1.5l-4.6,1L64.8,21l2-0.4L68.2,27.2z"/>
	<path d="M76.8,26l2.7-0.2l0.1,1.6l-4.7,0.3l-0.5-8.4l2-0.1L76.8,26z"/>
	<path d="M95.7,21.6c0.6,0.5,1,1.1,1.2,1.8c0.2,0.7,0.2,1.5,0,2.3c-0.2,0.8-0.5,1.5-1,2c-0.5,0.5-1.1,0.9-1.8,1.1
		c-0.7,0.2-1.5,0.2-2.4,0l-3.1-0.7l1.9-8.2l3.1,0.7C94.4,20.8,95.1,21.2,95.7,21.6z M93.8,26.8c0.5-0.3,0.9-0.8,1-1.6
		c0.2-0.8,0.1-1.4-0.2-1.9c-0.3-0.5-0.9-0.9-1.6-1L92,22.1l-1.1,4.8l0.9,0.2C92.6,27.2,93.3,27.2,93.8,26.8z"/>
	<path d="M101.2,31.4c-0.4-0.6-0.7-1.3-0.7-2.1c-0.1-0.8,0.1-1.5,0.5-2.3c0.4-0.7,0.9-1.3,1.5-1.7c0.6-0.4,1.3-0.7,2.1-0.7
		c0.8,0,1.5,0.1,2.2,0.5c0.7,0.3,1.3,0.8,1.7,1.5c0.4,0.6,0.7,1.3,0.7,2.1c0.1,0.8-0.1,1.5-0.5,2.2c-0.4,0.7-0.9,1.3-1.5,1.7
		s-1.3,0.7-2.1,0.7c-0.8,0-1.5-0.1-2.2-0.5C102.3,32.5,101.7,32.1,101.2,31.4z M105.5,31.3c0.6-0.2,1-0.7,1.3-1.3
		c0.3-0.7,0.4-1.3,0.2-1.9c-0.2-0.6-0.6-1-1.2-1.3c-0.6-0.3-1.2-0.3-1.8-0.1c-0.6,0.2-1,0.7-1.3,1.3c-0.3,0.7-0.4,1.3-0.2,1.9
		c0.2,0.6,0.6,1,1.2,1.3C104.4,31.5,105,31.5,105.5,31.3z"/>
	<path d="M124.3,37.8l-7.2,5l-1.9-1.6l2.6-5.1l-4.7,3.3l-1.9-1.6l3.9-7.8l1.7,1.4l-3.1,5.4l5.1-3.7l1.7,1.5l-2.9,5.6l4.9-3.8
		L124.3,37.8z"/>
	<path d="M125.3,53.2l-1.2-1.7l2.3-5.8l-4.3,3L121,47l6.9-4.8l1.2,1.7l-2.3,5.8l4.3-3l1.2,1.7L125.3,53.2z"/>
</g>
<g>
	<path d="M22.7,101.9l2.5-3.8l-3.4,1.2l-0.7-1.9l7.8-2.8l0.7,1.9l-3.4,1.2l4.3,1.4l0.8,2.2l-4.9-1.7l-2.8,4.5L22.7,101.9z"/>
	<path d="M29.7,115.2l-1.1-1.7l2.6-5.5l-4.3,2.7l-1.1-1.7l7-4.3l1.1,1.7l-2.6,5.5l4.3-2.7l1.1,1.7L29.7,115.2z"/>
	<path d="M34.8,120.8c-0.2-0.7-0.2-1.4,0-2.2c0.2-0.7,0.6-1.4,1.2-1.9c0.6-0.6,1.2-0.9,2-1.1c0.7-0.2,1.4-0.2,2.1,0.1
		c0.7,0.2,1.3,0.6,1.9,1.2c0.5,0.6,0.9,1.2,1.1,1.9c0.2,0.7,0.2,1.4,0,2.1c-0.2,0.7-0.6,1.3-1.2,1.9c-0.6,0.6-1.2,0.9-2,1.1
		c-0.7,0.2-1.4,0.2-2.1-0.1s-1.3-0.6-1.9-1.2C35.3,122.1,35,121.5,34.8,120.8z M38.7,122.1c0.6,0,1.1-0.3,1.7-0.8
		c0.5-0.5,0.8-1.1,0.8-1.6c0-0.6-0.2-1.1-0.6-1.6c-0.5-0.5-1-0.7-1.6-0.7c-0.6,0-1.1,0.3-1.7,0.8c-0.5,0.5-0.8,1.1-0.8,1.6
		c0,0.6,0.2,1.1,0.6,1.6C37.6,121.9,38.2,122.1,38.7,122.1z"/>
	<path d="M57.2,128.3l-6.1,5.9l-2.1-1.3l1.7-5.3l-4,3.9l-2.1-1.3l2.5-8.1l1.8,1.1l-2.1,5.7l4.4-4.3l1.9,1.2l-1.9,5.8l4.2-4.5
		L57.2,128.3z"/>
	<path d="M67.5,131.6l-1,4.8c-0.1,0.5-0.1,0.9,0.1,1.2c0.2,0.3,0.5,0.5,1,0.6c0.5,0.1,0.8,0,1.1-0.2c0.3-0.2,0.5-0.6,0.6-1l1-4.8
		l2,0.4l-1,4.8c-0.2,0.7-0.4,1.3-0.8,1.7c-0.4,0.4-0.9,0.7-1.5,0.9c-0.6,0.1-1.2,0.1-1.8,0c-0.6-0.1-1.2-0.4-1.6-0.7
		c-0.4-0.4-0.8-0.8-0.9-1.4c-0.2-0.6-0.2-1.2,0-1.9l1-4.8L67.5,131.6z"/>
	<path d="M77.5,141.1c-0.5-0.2-0.9-0.5-1.1-0.9c-0.3-0.4-0.4-0.9-0.4-1.4l2.1,0c0,0.3,0.1,0.5,0.3,0.7c0.2,0.2,0.4,0.2,0.7,0.3
		c0.3,0,0.5-0.1,0.7-0.2c0.2-0.1,0.3-0.3,0.3-0.6c0-0.2-0.1-0.4-0.2-0.5c-0.1-0.1-0.3-0.2-0.5-0.3c-0.2-0.1-0.5-0.2-0.8-0.3
		c-0.5-0.2-1-0.3-1.3-0.5c-0.3-0.2-0.6-0.4-0.9-0.7s-0.4-0.7-0.3-1.3c0-0.8,0.3-1.4,0.9-1.8c0.6-0.4,1.3-0.6,2.2-0.6
		c0.9,0,1.6,0.2,2.2,0.7c0.5,0.4,0.8,1.1,0.9,1.8l-2.2,0c0-0.3-0.1-0.5-0.3-0.6c-0.2-0.2-0.4-0.2-0.7-0.2c-0.2,0-0.4,0.1-0.6,0.2
		c-0.2,0.1-0.2,0.3-0.2,0.6c0,0.3,0.1,0.5,0.4,0.6c0.2,0.2,0.6,0.3,1.2,0.5c0.5,0.2,1,0.4,1.3,0.5c0.3,0.2,0.6,0.4,0.9,0.7
		c0.2,0.3,0.4,0.7,0.3,1.2c0,0.5-0.1,0.9-0.4,1.3c-0.2,0.4-0.6,0.7-1.1,0.9c-0.5,0.2-1,0.3-1.6,0.3C78.5,141.4,78,141.3,77.5,141.1z
		"/>
	<path d="M98.5,134.9c0.4,0.3,0.6,0.7,0.8,1.1c0.2,0.7,0.1,1.3-0.3,1.8c-0.4,0.5-0.9,0.9-1.8,1.1l-3.7,1l-2.2-7.9l3.6-1
		c0.8-0.2,1.5-0.2,2,0c0.6,0.2,0.9,0.7,1.1,1.3c0.1,0.5,0.1,0.9,0,1.3c-0.2,0.4-0.4,0.7-0.8,0.9C97.7,134.5,98.1,134.6,98.5,134.9z
		 M94.2,134.6l1.3-0.4c0.3-0.1,0.5-0.2,0.7-0.4c0.1-0.2,0.2-0.4,0.1-0.7c-0.1-0.3-0.2-0.5-0.4-0.5c-0.2-0.1-0.5-0.1-0.8,0l-1.3,0.4
		L94.2,134.6z M97.2,137c0.1-0.2,0.2-0.4,0.1-0.7c-0.1-0.3-0.2-0.5-0.5-0.6c-0.2-0.1-0.5-0.1-0.8,0l-1.4,0.4l0.5,1.8l1.4-0.4
		C96.8,137.3,97,137.2,97.2,137z"/>
	<path d="M103.7,129.3l0.7,1.5l2.4-1.2l0.7,1.4l-2.4,1.2l0.8,1.6l2.7-1.3l0.7,1.4l-4.5,2.2l-3.6-7.4l4.5-2.2l0.7,1.4L103.7,129.3z"
		/>
	<path d="M113.9,121l0.9,1.3l-1.8,1.3l3.9,5.4l-1.6,1.2l-3.9-5.4l-1.8,1.3l-0.9-1.3L113.9,121z"/>
	<path d="M120.7,114.2l1.2,1.1l-1.5,1.6l4.8,4.6l-1.4,1.5l-4.8-4.6l-1.5,1.6l-1.2-1.1L120.7,114.2z"/>
	<path d="M125.4,110.6l1.4,0.9l1.5-2.2l1.3,0.9l-1.5,2.2l1.5,1l1.7-2.5l1.3,0.9l-2.8,4.2l-6.9-4.5l2.8-4.2l1.3,0.9L125.4,110.6z"/>
	<path d="M136.9,103l-3.5,0.4l-0.2,0.4l2.9,1.2l-0.8,1.8l-7.6-3.2l1.3-3.1c0.3-0.6,0.6-1.1,1-1.4c0.4-0.3,0.8-0.5,1.3-0.6
		c0.5-0.1,0.9,0,1.3,0.2c0.5,0.2,0.9,0.5,1.2,1c0.3,0.5,0.4,1,0.3,1.6l3.7-0.5L136.9,103z M131.8,103.3l0.5-1.1
		c0.1-0.3,0.2-0.6,0.1-0.9c-0.1-0.2-0.3-0.4-0.6-0.6c-0.3-0.1-0.6-0.1-0.8,0c-0.2,0.1-0.4,0.3-0.6,0.7l-0.5,1.1L131.8,103.3z"/>
</g>
</svg>
