<?xml version="1.0" encoding="UTF-8"?>
<!DOCTYPE svg PUBLIC "-//W3C//DTD SVG 1.1//EN" "http://www.w3.org/Graphics/SVG/1.1/DTD/svg11.dtd">
<!-- Creator: CorelDRAW 2019 (64-Bit) -->
<svg xmlns="http://www.w3.org/2000/svg" xml:space="preserve" width="125.897mm" height="90.1729mm" version="1.1" style="shape-rendering:geometricPrecision; text-rendering:geometricPrecision; image-rendering:optimizeQuality; fill-rule:evenodd; clip-rule:evenodd"
viewBox="0 0 12575.46 9007.09"
 xmlns:xlink="http://www.w3.org/1999/xlink"
 xmlns:xodm="http://www.corel.com/coreldraw/odm/2003">
 <defs>
  <style type="text/css">
   <![CDATA[
    .fil1 {fill:black}
    .fil0 {fill:black;fill-rule:nonzero}
   ]]>
  </style>
 </defs>
 <g id="Layer_x0020_1">
  <metadata id="CorelCorpID_0Corel-Layer"/>
  <g id="_2095417292048">
   <path class="fil0" d="M9397.74 7137.53c150.25,0 293.67,20.96 423.2,72.76 129.94,42.64 251.21,106.53 359.96,193.48 114.85,85.93 194.02,187.8 251.15,301.58 57.6,108.27 86.29,230.07 86.29,359.96 0,128.92 -28.69,243.9 -71.68,352.17 -50.42,107.97 -122.1,200.91 -215.35,286.85 -114.31,100.48 -245.28,180.01 -389.06,229.71 -136,50.42 -286.19,73.06 -444.52,73.06l-8.5 0c-164.38,0 -315.22,-22.63 -459.37,-80.19 -136.66,-50.35 -258.46,-122.1 -373.31,-228.99 -94.2,-79.52 -166.12,-180.31 -208.69,-288.21 -43,-107.98 -65.7,-223.31 -65.7,-344.39 0,-129.89 30.19,-244.21 80.6,-359.96 56.78,-113.78 143.79,-215.65 258.64,-301.58 100.13,-86.95 222.59,-150.84 351.76,-193.48 129.88,-51.8 273.01,-72.76 416.07,-72.76l8.5 0zm0 1610.15c221.93,0 409.37,-64.98 560.58,-194.56 158.69,-128.57 229.71,-294.69 229.71,-495.6 0,-79.16 -15.09,-158.33 -50.78,-236.42 -43.29,-72.1 -93.65,-144.5 -164.02,-208.93 -79.52,-72.4 -173.23,-122.46 -266.96,-157.97 -93.35,-37.07 -194.2,-50.42 -308.52,-50.42l-8.5 0c-99.71,0 -199.83,13.35 -294.27,42.64 -92.7,35.81 -179.3,78.98 -250.98,145.16 -72.1,64.26 -128.74,135.82 -172.58,214.27 -44.01,86.59 -64.43,172.52 -64.43,259.48 0,93.05 20.42,186.05 57.9,264.86 35.33,87.31 92.81,158.69 163.78,215.52 72.82,65.64 159.47,115.34 260.25,152.23 100.49,35.15 200.61,49.76 300.32,49.76l8.5 0z"/>
   <polygon class="fil0" points="11110.9,8970.56 10778.95,8970.56 10778.95,7174.05 11119.18,7174.05 12264.23,8538.92 12242.11,7174.05 12575.46,7174.05 12575.46,8970.56 12258.48,8970.56 11089.54,7575.75 "/>
   <polygon class="fil0" points="6759.87,8970.56 5718.09,8970.56 5718.09,7174.05 6041.22,7174.05 6041.22,8726.36 6759.87,8726.36 "/>
   <polygon class="fil0" points="8172.28,8970.56 7139.11,8970.56 7139.11,7174.05 7454.04,7174.05 7454.04,8726.36 8172.28,8726.36 "/>
   <path class="fil0" d="M4561.56 7174.05l862.44 1796.51 -351.82 0 -237.79 -517.21 -861.72 0 -237.8 517.21 -351.81 0 862.43 -1796.51 316.07 0zm158.27 1020.17l-316.3 -690.64 -316.37 690.64 632.67 0z"/>
   <path class="fil0" d="M1178.51 7174.05l862.44 1796.51 -351.82 0 -237.79 -517.21 -861.72 0 -237.8 517.21 -351.81 0 862.5 -1796.51 316 0zm158.33 1020.17l-316.36 -690.64 -316.3 690.64 632.66 0z"/>
   <polygon class="fil0" points="1810.94,7174.05 2658.71,8970.56 2846.44,8970.56 3686.6,7174.05 3357.13,7174.05 2753.14,8517.6 2148.56,7174.05 "/>
   <path class="fil1" d="M6287.69 6275.88l-3593.04 0 0 -449.11 2094.46 0c455.91,0 1018.9,-153.28 1049.55,-744.86 -2143.07,0 -3139.49,-926.85 -3139.49,-2399.15 0.04,-2170.65 1791.94,-2682.76 3588.53,-2682.76 1796.58,0 3588.48,512.11 3588.52,2682.76 0,1472.3 -996.42,2399.15 -3139.49,2399.15 30.66,591.58 593.64,744.86 1049.55,744.86l2094.46 0 0 449.11 -3593.03 0zm0 -5934.49c-1796.59,0 -2507.06,984.97 -2483.66,2341.37 26.29,1522.81 760.31,1941.81 2034.63,1923.61l0 -1923.59 449.03 0 449.02 0 0 1923.59c1274.32,18.2 2008.34,-400.81 2034.63,-1923.61 23.4,-1356.39 -687.07,-2341.37 -2483.65,-2341.37z"/>
  </g>
 </g>
</svg>
