<?xml version="1.0" encoding="UTF-8"?>
<!DOCTYPE svg PUBLIC "-//W3C//DTD SVG 1.1//EN" "http://www.w3.org/Graphics/SVG/1.1/DTD/svg11.dtd">
<!-- Creator: CorelDRAW 2019 (64-Bit) -->
<svg xmlns="http://www.w3.org/2000/svg" xml:space="preserve" width="117.338mm" height="50.9312mm" version="1.1" style="shape-rendering:geometricPrecision; text-rendering:geometricPrecision; image-rendering:optimizeQuality; fill-rule:evenodd; clip-rule:evenodd"
viewBox="0 0 12640.47 5486.66"
 xmlns:xlink="http://www.w3.org/1999/xlink"
 xmlns:xodm="http://www.corel.com/coreldraw/odm/2003">
 <defs>
  <style type="text/css">
   <![CDATA[
    .fil0 {fill:black}
   ]]>
  </style>
 </defs>
 <g id="Layer_x0020_1">
  <metadata id="CorelCorpID_0Corel-Layer"/>
  <g id="_2096430748416">
   <path class="fil0" d="M5344.42 1947.32c600.36,-1482.5 -522.97,-1884.36 -1255.98,-1883.85l-2424.49 0c202.24,139.03 168.87,322.32 129.42,435.51l-1412.54 4514.84c-56.61,178.88 -267.42,366.3 -380.85,396.17l1962.89 -0.66c-107.74,-19.72 -262.59,-172.76 -206.91,-382.9l513 -1632.82c0,0 2360.89,318.55 3075.45,-1446.29zm-1907.34 -1470.43c255.98,0 967.68,34.16 508.96,1379.96 -481.43,1412.79 -1547.54,1122.03 -1547.54,1122.03l785.59 -2501.99c0,0 243.78,0 253,0z"/>
   <path class="fil0" d="M6913.51 5409.99l1319.48 -0.66c-422.41,-135.51 -1047.28,-534.66 -1295.47,-819.18 201.07,-220.02 449.77,-495.6 495.07,-1057.13l-684.98 0c0,0 131.89,75.41 131.89,235.87 0,149 -59.2,353.45 -174.98,498.95 -200.27,-297.24 -414.85,-636.56 -489.76,-1133.82 267.94,-134.12 645.92,-278.31 946.29,-541.04 284.14,-249.62 350.06,-484.43 354.6,-637.85 0,-6.77 0,-12.72 0,-19.49 0,-159.92 -62.82,-310.88 -178.22,-425.74 -198.19,-196.55 -511.81,-276.88 -839.18,-215.49 -264.15,49.69 -489.1,190.03 -601.51,294.91 -399.4,372.65 -450.82,989.49 -450.82,1267.8 0.02,67.88 2.99,119.42 5.73,149.42 -22.72,9.06 -63.73,24.66 -63.73,24.66 -290.77,106.94 -1068.43,315.28 -1346.99,954.31 -35.55,80.47 -85.79,255.58 -85.79,460.03 0,175.36 36.98,371.24 150.7,549.99 196.02,306.06 529.47,500 1061.16,490.79 579.31,-9.63 1148.74,-405.13 1251.04,-477.18 100.86,92.96 359.82,336.46 495.47,400.84zm-0.27 -3570.14c-68.64,430.54 -625.27,864.24 -761.54,923.43 -24.14,-241.98 -13.65,-623.33 189.63,-935.38 134.23,-206.38 310.88,-297.51 454.56,-247.52 114.26,38.92 128.12,145.78 117.35,259.47zm-775.19 2875.55c-77.88,48.67 -383.69,203.8 -672.13,231.19 -265.83,24.66 -708.47,-78.39 -707.56,-611.9 0.53,-455.62 496.24,-788.69 763.77,-904.47 111.38,441.71 355.15,939.65 615.92,1285.18z"/>
   <path class="fil0" d="M10926.16 482.49c784.26,-187.84 1431.59,425.64 1489.88,467.81l224.43 -712.77c-310.62,-93.04 -2561.82,-855.51 -4152.04,961.73 -977.67,1117.62 -1217.83,3406.98 22.83,4020.83 1329.08,656.81 2795.09,-101.1 2902.83,-153.68l607.35 -1931.23c65.16,-233.28 213.65,-385.65 475.47,-482.75l-2108.92 0c307.9,128.37 285.42,360.34 260.36,455.09l-605.52 1931.23c-80.87,16.21 -1775.47,438.87 -826.86,-2527.03 204.7,-636.55 776.48,-1804.55 1710.18,-2029.23z"/>
  </g>
 </g>
</svg>
