<?xml version="1.0" encoding="UTF-8"?>
<!DOCTYPE svg PUBLIC "-//W3C//DTD SVG 1.1//EN" "http://www.w3.org/Graphics/SVG/1.1/DTD/svg11.dtd">
<!-- Creator: CorelDRAW 2019 (64-Bit) -->
<svg xmlns="http://www.w3.org/2000/svg" xml:space="preserve" width="227.685mm" height="138.342mm" version="1.1" style="shape-rendering:geometricPrecision; text-rendering:geometricPrecision; image-rendering:optimizeQuality; fill-rule:evenodd; clip-rule:evenodd"
viewBox="0 0 22760.28 13829.2"
 xmlns:xlink="http://www.w3.org/1999/xlink"
 xmlns:xodm="http://www.corel.com/coreldraw/odm/2003">
 <defs>
  <style type="text/css">
   <![CDATA[
    .fil0 {fill:#2B2A29}
   ]]>
  </style>
 </defs>
 <g id="Layer_x0020_1">
  <metadata id="CorelCorpID_0Corel-Layer"/>
  <g id="_2501036386656">
   <path class="fil0" d="M17365.82 12408.02l6.35 -1811.91 -1004.95 0 1.03 2004.78c0,678.49 702.48,1228.31 1568.61,1228.31 865.98,0 1567.88,-549.82 1567.88,-1228.31l-0.52 -1996.39 -986.71 -0.35 -3.19 1803.87c0,301.59 -257.11,546.68 -574.49,546.68 -317,0 -574.01,-245.09 -574.01,-546.68zm3695.78 1272.23l-1004.57 0 0 -5292.19 1004.57 0 0 5292.19zm1698.68 0l-1004.61 0 0 -5292.19 1004.61 0 0 5292.19zm-7540.3 -4628.22c230.32,246.96 361.82,561.36 361.82,903.21 0,377.93 -167.9,721.56 -442.89,978.01 677.44,314.39 879.26,723.11 879.26,1296.02 0.01,787.53 -684.6,1427.17 -1534.8,1441.53l-2218.2 5.26 0 -5005.09 1717.4 8.19c573.1,0 997.58,109.07 1237.41,372.88zm-8328.74 3264.98c7.37,-68.45 10.16,-139.01 9.63,-210.77 15.23,-1087.76 -704.38,-1684.29 -1621.62,-1684.29 -916.72,0 -1660.67,752.52 -1660.67,1680.79 0,928.42 744.09,1682.22 1660.67,1682.22 700.72,0 1246.51,-316.87 1527.96,-812.94l-815.71 -376.7c-103.78,225.1 -346.58,381.96 -629.45,381.96 -377.75,0 -683.92,-280.25 -683.92,-625.99 0,-22.53 -9.1,-13.12 -6.28,-35.37l2219.4 1.09zm-5184.01 -2812.49l-638.05 5.26 0 4162.26 -1069.18 0 0 -5029.96 1761.66 0c25.04,-1.27 141.98,-1.76 167.36,-1.76 836.55,0 1514.67,665.52 1514.67,1485.92 0,698.85 -491.71,1285.05 -1153.72,1443.83l1476.68 2101.97 -1259.97 0 -1067.97 -1647.54 0 -1197.86 247.87 -5.43c394.9,0 714.88,-294.78 714.88,-658.18 0,-363.91 -299.68,-658.5 -694.23,-658.51zm8185.69 3767.18c-267.44,269.39 -622.28,435.66 -1014.22,435.66 -829.89,0 -1502.26,-735.87 -1502.26,-1643.48 0.01,-907.79 672.37,-1643.52 1502.26,-1643.52 387.74,0 743.28,159.47 1009.85,423.82l-4.2 -2495.32 1005.3 0 1.59 5327.91 -998.32 0 0 -405.05zm-5218.66 -1532.54c0,-339.21 274.82,-613.89 613.9,-613.89 339.25,0 613.9,274.68 613.9,613.89l-1227.79 0zm9623.22 1059.4l-960.82 0 0 -3263.04 670.57 0c293.89,0 532.67,238.39 532.67,532.65 0,294.78 -238.78,533.35 -532.68,533.35l-349.54 0 0 904.83 639.81 0c356.92,0 626.45,287.62 626.45,644.86 -12.39,368.66 -238.36,622.81 -626.45,647.36zm-5871.27 -704.41c0,-445.82 330.15,-807.12 737.32,-807.12 407.49,0 737.63,361.3 737.63,807.12 0.01,446.07 -330.14,806.97 -737.63,806.97 -407.16,0 -737.32,-360.9 -737.32,-806.97z"/>
   <path class="fil0" d="M14667.53 5454.29c-629.66,1099.95 -1807.02,1783.18 -3072.44,1783.18 -1236,0 -2399.36,-659.21 -3035.29,-1720.69l-140.08 83.82c665.21,1109.97 1882.31,1800 3175.37,1800 1324.06,0 2555.51,-714.5 3213.69,-1865.27l-141.26 -81.04z"/>
   <path class="fil0" d="M8601.98 1815.04c652.89,-1034.51 1772,-1651.9 2993.11,-1651.9 1245.99,0 2413.7,667.45 3048.05,1741.9l140.43 -83.33c-663.09,-1123.45 -1885.27,-1821.71 -3188.48,-1821.71 -1277.48,0 -2447.85,646.11 -3131.07,1727.71l137.96 87.33z"/>
   <path class="fil0" d="M2368.02 5796.86c-51.27,26.24 -106.24,74.2 -118.85,131.97 -16.09,102.93 6.3,199.03 -74.04,272.87 -3.15,19.29 -22.4,41.68 -3.15,60.94 70.89,22.75 138.29,51.28 224.94,61.26 38.68,-125.65 67.03,-263.25 112.2,-372.46l0 -32.24c-38.7,-48.13 -76.85,-109.39 -141.1,-122.34z"/>
   <path class="fil0" d="M10315.15 4409.78c-16.28,32.2 -12.95,80.34 -54.98,89.79 -18.89,6.28 -34.98,-6.28 -34.98,-25.57 -6.84,-86.47 -6.85,-176.78 -57.94,-247.17 -57.94,-60.73 -118.71,-167.15 -211.63,-167.15 -64.78,19.42 -112.56,93.31 -151.25,144.41 -3.53,6.49 -12.81,6.49 -19.25,3.67 -35.37,-90.14 35.37,-167.16 64.22,-244.17 54.62,-54.6 41.5,-215.3 163.84,-163.85 83.51,44.96 99.44,134.96 160.52,195.72 105.94,119.03 176.65,250.64 141.45,414.33zm-388.93 867c-60.94,19.24 -128.51,25.74 -195.73,22.57 -16.11,-6.11 -38.51,-16.26 -32.02,-35.17 28.88,-86.65 112.39,-173.5 205.49,-192.72 25.39,0 61.12,-3.35 67.58,31.85 5.96,61.25 5.96,134.78 -45.31,173.47zm-1236.04 -2112.81c-6.28,6.31 -16.26,9.46 -25.89,3.16 -25.56,-131.64 -54.45,-266.43 -106.07,-391.93 -29.06,-73.53 -125.15,-134.45 -80.37,-221.61 19.96,-19.08 54.8,-22.59 80.37,-12.61 51.63,35.37 83.86,89.97 112.71,141.09 60.94,141.44 60.94,330.66 19.25,481.9zm2540.14 2267.2c-192.37,-112.56 -269.57,-324.32 -388.45,-491.34 -41.64,-61.08 -115.53,-99.58 -154.03,-160.52 -137.92,-376 -256.8,-751.47 -292.17,-1181.56 -28.7,-106.09 -51.27,-215.3 -108.86,-315.1 -173.65,-282.52 -398.25,-539.3 -616.86,-799.42 -19.07,-18.9 -51.13,-35.19 -60.77,-61.09l-761.25 -632.3c-93.14,-71.04 -199.4,-116.03 -305.12,-164.18 -160.52,-60.74 -378.81,-47.95 -536.35,19.61 -163.66,86.65 -311.25,211.8 -484.85,269.74 -250.35,112.56 -532.86,134.79 -748.01,327.53 -125.33,108.85 -231.24,279.36 -417.47,250.3 -208.65,-9.62 -394.9,67.39 -552.64,195.88 -141.09,128.48 -276.05,279.54 -458.79,314.57 -160.7,67.39 -356.57,35.71 -520.23,96.63 -260.11,64.05 -465.46,269.73 -687.42,427.12 -221.42,128.47 -433.58,266.21 -709.44,259.94 -179.77,-12.8 -353.08,-138.31 -411.2,-311.59 -54.43,-198.88 6.31,-404.7 163.85,-539.49 163.68,-195.72 423.63,-311.42 552.27,-536.35 67.22,-118.52 57.59,-311.41 -32.02,-423.61 -170.51,-176.98 -414.34,-183.26 -635.96,-237.72 -141.43,-38.51 -250.49,-147.56 -375.65,-215.13 -47.95,73.69 -64.06,153.87 -57.58,244.21 25.55,202.34 179.59,385.26 372.31,455.63 112.56,48.29 240.86,12.95 356.58,39.04 32.02,12.43 64.07,44.62 67.4,80 -6.66,32.19 -9.81,64.23 -38.7,86.99 -179.76,150.53 -369.36,294.95 -520.23,481.38 -160.51,173.47 -179.78,478.41 -95.93,696.87 92.59,250.13 353.23,414.15 603.38,446.35 182.92,28.56 347.11,-19.25 513.39,-54.41 23.13,-0.01 32.59,22.21 42.03,35.16 16.46,147.76 -6.49,279.19 26.1,414.01 28.52,125.68 70.69,212.15 115.17,334.35 6.64,41.64 0,86.43 -28.92,118.49 -93.1,70.7 -189.19,118.71 -292.31,163.84l-250.13 15.93 -48.14 22.75c-93.12,108.9 -96.45,221.43 -154.21,343.45 -77.19,128.64 -218.29,189.58 -337.14,263.46 -38.86,60.9 -80.52,125.29 -134.96,173.29 -41.48,38.48 -93.13,48.1 -147.75,54.42 -86.82,99.79 -105.9,237.54 -128.29,372.85 141.25,12.77 288.99,89.65 427.27,12.77 118.7,-54.94 144.25,-199.18 234.22,-285.83 70.54,-77.23 176.45,-19.07 259.94,-3.52 125.16,6.31 215.12,-83.12 321.41,-124.98 73.49,-48.49 134.43,-131.43 211.77,-179.6 147.41,-71.05 353.42,-32.55 507.32,-3.67 122.17,32.38 250.67,13.13 356.39,-35.19 99.76,-60.73 192.72,-137.93 305.26,-163.67 99.44,-51.45 147.76,-163.66 189.23,-256.94 32.05,-86.51 115.53,-154.07 109.24,-253.49 -25.56,-22.74 -54.62,-70.88 -93.13,-67.57 -47.96,67.57 -83.34,137.96 -137.78,202.35 -232.44,316.51 -415.04,346.58 -886.6,346.58 -349.93,-12.59 -664.46,92.97 -905.52,366.02 -16.09,9.45 -38.69,3.18 -51.29,-9.63 -9.8,-38.48 22.24,-101.84 38.53,-131.08 215.14,-305.11 548.95,-375.85 902.16,-382.3 192.77,-12.63 375.82,-44.82 539.35,-128.33 183.27,-93.1 308.6,-238.03 385.62,-417.82 41.82,-202.36 57.94,-420.47 109.21,-613.19 6.32,-19.43 54.45,-33.79 70.39,-27.33 19.07,3.17 57.76,20.66 57.76,43.26 -35.55,199.04 -99.44,433.59 -22.42,626.31 154.38,202.35 440.06,93.1 649.08,83.15 217.94,-18.72 393.49,-2.11 602.14,10.87 103.12,-3.18 178.73,21.68 258.92,-42.39 22.58,-35.16 32.03,-83.15 25.36,-121.8 -6.81,-57.59 -54.77,-92.61 0,-140.78 15.94,-12.95 63.73,-4.2 76.49,11.92 28.71,80.19 41.85,166.84 93.13,237.54 102.94,131.47 253.84,234.54 394.91,308.43 135.13,92.96 247.7,224.61 257.15,388.23 0,83.69 -77.37,141.28 -141.27,179.96 -109.39,54.44 -228.24,99.62 -356.74,86.5 -169.98,-83.15 -214.94,-262.75 -327.5,-394.75 -57.42,-64.76 -144.24,-77.38 -230.89,-71.06 -93.14,9.98 -186.41,13.12 -269.74,42.03 -22.74,19.21 -29.24,48.1 -25.74,76.98 57.77,105.9 121.84,208.84 185.91,314.75 74.2,45.16 176.62,-25.75 240.86,54.62 54.95,83.47 89.96,183.27 173.47,247.17 80.51,70.88 202.53,102.59 308.43,58.12 237.37,-74.05 475.41,-151.26 696.87,-269.92l73.85 0c89.82,-10.02 189.4,-3.35 253.84,-70.73 70.52,-102.55 128.29,-198.86 182.73,-308.08 54.81,-73.88 28.89,-186.44 6.5,-266.6 -109.07,-134.78 -169.98,-285.86 -227.92,-440.07 -54.63,-15.73 -102.76,-48.13 -163.85,-44.61 -29.05,12.6 -70.69,6.28 -86.64,38.34l253.63 501.15c16.11,38.16 35.55,92.93 25.39,144.24 -34.85,106.07 -89.79,208.62 -176.12,285.86 -16.25,9.45 -35.34,19.43 -48.49,-3.35 29.1,-109.22 80.37,-227.92 74.05,-353.56l-247.34 -446.04c-28.85,-61.08 -80.33,-115.53 -77.02,-186.06 0,-32.05 28.71,-55.15 54.8,-67.6 108.87,-35.17 240.86,-28.85 324.02,-115.5 109.21,-170.19 131.81,-337.17 161.01,-539.34 6.67,-12.77 32.24,-37.8 51.31,-37.8 19.43,-6.32 41.65,21.54 51.1,31.14 32.06,221.6 -12.77,446.56 -141.45,620.03 -6.28,22.57 -15.72,51.1 9.84,67.22 122.17,38.69 250.14,0 353.22,-54.59 131.64,3.14 253.3,-28.74 372.5,-48.17 12.8,6.49 25.56,19.43 25.56,32.06 -80.33,89.96 -125.33,189.41 -147.59,305.11 -96.41,99.76 -234.72,186.23 -244.17,330.65 16.11,71.08 77.02,3.53 119.06,9.8 18.9,3.18 31.84,19.25 31.84,38.69l-96.27 141.1c-51.63,83.33 9.45,179.92 9.45,260.29 22.75,64.08 99.58,96.11 167.15,96.11 144.42,-6.64 272.92,-60.73 401.39,-106.08 141.27,-60.73 318.05,-57.94 472.09,-31.85 150.73,-9.8 263.46,-109.21 375.5,-208.48 61.26,0 115.67,41.3 157.53,86.48 173.64,186.4 398.07,266.24 651.87,259.94l22.43 -12.78c15.89,-16.11 9.62,-45.16 -9.85,-57.94l-150.69 -77.01c-106.07,-67.58 -237.72,-157.39 -272.92,-276.23 -32.19,-105.9 -89.96,-221.29 -154.03,-324.02 -22.91,-51.62 -74.23,-93.13 -96.45,-144.58 6.48,-6.67 12.77,-15.94 22.21,-12.77 167.19,57.76 266.6,221.78 343.8,369.15 122.03,170.16 298.84,314.57 529.86,276.24l19.47 -16.12c9.63,-12.77 6.27,-29.06 0,-38.65l-116.06 -57.63z"/>
   <path class="fil0" d="M7239.23 5457.08c64.08,70.35 60.72,179.6 134.78,234.03 96.46,16.28 183.09,-22.4 256.62,-80.34 42,-35.02 -19.07,-80.33 -25.39,-121.98 -41.63,-61.12 -13.12,-182.78 -115.7,-186.27 -102.58,16.08 -205.32,19.25 -308.26,19.25l-28.7 19.43c-19.43,60.94 70.7,60.94 86.65,115.88z"/>
   <path class="fil0" d="M2705.35 5787.55c99.25,-57.59 163.32,-166.8 214.6,-260.12 -9.29,-35.37 -44.97,-61.26 -73.52,-86.65 -19.42,-16.29 -48.13,-3.31 -70.89,3 -70.18,61.26 -144.23,109.39 -221.42,157.53 -32.05,22.21 -19.27,70.7 -25.38,106.07 0,32.03 38.16,54.45 57.75,73.53 35.2,15.93 80.18,19.57 118.87,6.63z"/>
   <path class="fil0" d="M20866.96 6127.86c-15.56,-73.88 3.32,-176.43 -44.64,-244 -41.68,-31.88 -80.51,-80.36 -135.14,-67.57 -44.95,38.48 -112.21,83.47 -102.72,151.05 38.52,115.7 64.22,199.21 86.82,318.05 12.78,22.25 0,67.43 35.17,67.43l205.72 -67.43c34.97,-58.12 -32.25,-102.76 -45.19,-157.53z"/>
   <path class="fil0" d="M20346.91 5460.04c-64.39,-54.8 -131.82,25.75 -163.49,73.71 22.22,77.01 86.26,141.27 134.57,211.8 25.75,38.86 67.58,64.25 112.6,67.57 44.79,0 80.34,-22.39 112.01,-48.14 22.57,-28.7 48.13,-64.25 38.69,-106.07 -61.25,-83.16 -157.57,-134.78 -234.37,-198.87z"/>
   <path class="fil0" d="M14932.89 2454.5c-131.47,124.97 -292.35,253.47 -388.42,404.53 -35.37,48.14 -61.11,102.57 -86.82,157.37 -3.52,6.29 -12.63,9.45 -22.6,6.3 -25.56,-77.2 6.49,-157.36 25.57,-231.24 67.57,-179.77 218.6,-346.95 372.81,-462.65 35.2,-22.23 102.59,-28.53 122.02,19.44 25.72,41.65 -3.31,73.87 -22.56,106.24zm-1290.98 1807.69c-12.63,15.94 -31.85,38.7 -54.63,22.43 -64.22,-22.43 -54.24,-122.02 -134.74,-115.7 -60.77,-2.83 -96.32,48.31 -144.45,74.01 -83.47,73.88 -195.69,150.91 -214.76,263.29 -16.46,41.64 -9.81,99.41 -45.35,121.81 -22.6,6.31 -47.78,-12.6 -47.78,-31.85 -13.3,-147.9 34.84,-289 144.23,-388.44 105.59,-86.97 179.78,-205.5 266.6,-305.08 48.14,-9.49 83.3,25.71 102.58,60.91 57.6,73.87 99.59,154.03 134.75,240.67 6.49,19.47 0,38.69 -6.45,57.94zm-63.9 1079.01c-38.48,28.88 -106.05,12.59 -154.22,6.31 -57.9,-32.05 -70.7,-99.44 -76.98,-163.52 0.01,-16.25 3.14,-32.2 19.08,-45.31 67.74,0 134.92,16.46 179.91,70.7 19.08,41.82 54.8,86.83 32.21,131.82zm6511.92 349.89c-80.36,-92.92 -237.54,-147.54 -234.4,-285.86 -28.84,-54.59 -35.16,-141.06 -60.73,-212.11 -22.91,-57.63 -45.17,-141.1 -122.16,-153.89 -138.31,-22.22 -305.33,16.28 -391.97,-112.36 -89.78,-96.31 9.66,-208.66 25.91,-301.62 38.52,-119.02 41.34,-276.41 22.57,-398.43 -3.49,-70.52 -51.62,-128.11 -38.83,-199 32.21,-60.77 109.57,-15.94 157.67,-9.63 179.61,51.27 391.62,25.53 555.43,-44.82 224.64,-109.22 404.55,-337.31 394.76,-597.44 -32.02,-336.95 -272.88,-613.18 -532.86,-831.45 -48.14,-42.01 -109.22,-87.01 -125.47,-148.28 -6.14,-131.47 141.45,-67.4 215.26,-99.07 89.82,-22.75 179.8,-45.16 253.69,-96.45 196.01,-131.82 237.69,-363.05 199.18,-587.82 -6.63,-18.9 -6.63,-47.95 -35.37,-47.95 -35.16,29.05 -70.53,70.7 -115.71,96.28 -124.79,73.86 -292.13,61.07 -423.96,125.16 -163.65,70.69 -366.19,170.3 -436.22,356.38 -19.57,93.13 3.17,189.57 44.46,266.61 199.21,314.54 620.04,520.22 687.42,899.2 25.4,154.04 -51.49,266.6 -170.33,353.25 -179.77,109.22 -449.53,70.35 -629.13,-25.74 -347.07,-173.47 -648.87,-462.65 -1021.38,-581.17 -234.01,-106.08 -523.54,-80.16 -732.2,-244.17 -157.38,-102.76 -301.8,-237.55 -478.44,-282.53 -121.98,-41.84 -259.94,-35.37 -372.29,-96.47 -115.74,-102.92 -237.72,-198.68 -372.5,-266.58 -186.26,-93.13 -391.76,-141.45 -597.24,-186.25 -122.02,-28.9 -167.19,-163.67 -266.6,-230.89 -170.15,-135.14 -359.74,-231.24 -590.8,-212.16 -96.28,6.3 -170.34,70.72 -244.04,134.79 -491.47,430.44 -1053.05,725.57 -1502.56,1217.27 -302.15,311.25 -382.48,706.68 -494.84,1088.65 -160.73,577.99 -227.74,1213.75 -809.12,1569.78 -9.59,16.82 -9.6,45 9.67,58.12 154.21,38.69 305.11,-22.57 407.48,-128.47 99.94,-157.38 205.67,-308.25 340.8,-452.49l32.1 -16.46c15.72,3.14 35.16,12.81 28.84,35.55 -38.68,128.64 -154.38,221.6 -192.89,350.07 -51.28,153.68 -198.69,272.91 -324.02,381.96l-3.13 19.24c0,15.94 15.93,32.06 31.84,35.56 282.55,12.76 485.07,-189.94 674.27,-379.17 19.64,-19.08 45.03,-15.76 70.74,-9.46 83.47,64.26 160.7,160.53 269.56,182.75 115.71,-15.91 237.72,-32.2 360.09,-22.22 169.77,51.09 333.47,122.02 503.98,179.6 86.65,-2.79 151.04,-86.47 195.51,-157.38 35.69,-83.48 -15.59,-166.46 -9.46,-247.14 42.03,-25.75 90.14,6.66 134.96,-6.32 19.26,-12.77 35.34,-35.19 35.34,-57.76 -32.19,-147.77 -163.98,-256.81 -205.32,-394.94 -64.39,-176.96 -273.05,-283.04 -311.57,-471.88 9.6,-13.16 25.39,-32.59 41.82,-19.46 137.96,99.44 259.94,231.23 429.91,256.62 128.65,12.95 260.3,25.92 388.77,16.47 19.25,-6.67 35.05,-29.24 28.91,-51.31 -54.44,-116.03 -106.11,-231.41 -138.31,-356.7 -44.81,-157.57 -76.84,-375.68 -25.56,-549.15 9.84,-12.95 51.48,-37.46 70.56,-31 25.57,6.31 57.59,37.49 60.72,60.06 19.26,272.7 -9.09,523.22 154.39,738.51 70.56,112.22 192.9,134.79 279.41,221.61 32.03,44.64 38.65,118.53 16.25,169.98l-196.07 289.17c-44.96,64.44 -89.79,134.79 -105.73,205.54 -16.25,80.15 -6.49,157.34 0,234.54 -13.12,6.31 -19.6,-13.3 -32.37,-19.61 -51.1,-105.72 -109.25,-240.68 -54.63,-365.84l247.57 -382.13 9.42 -28.88c-54.45,-29.06 -115.54,-58.12 -173.3,-70.91 -29.06,12.8 -48.49,41.85 -67.58,67.57l-240.85 436.75c-15.93,51.28 -31.67,90 -19.08,144.24 12.46,64.43 28.71,128.5 57.77,183.27 19.08,89.82 35.02,150.73 77.02,231.09 60.9,67.57 144.23,6.28 221.63,26.06 76.99,19.08 105.73,112.22 183.06,134.78 173.3,57.59 359.57,89.83 532.86,157.39 89.97,28.7 218.64,64.04 298.62,-10.02 112.4,-60.73 141.45,-179.56 160.53,-291.95 35.73,-48.32 106.07,-29.06 157.52,-45.32 96.28,-64.08 128.47,-179.77 199.04,-266.42l12.95 -44.64c-9.8,-28.71 -35.38,-45 -61.09,-54.62l-327.49 -0.01c-150.91,19.08 -163.88,185.92 -228.28,288.83 -35.2,64.43 -105.55,89.82 -179.6,83.51 -154.2,-41.65 -343.27,-64.08 -414.33,-231.24 -9.63,-41.82 -9.63,-93.14 22.57,-122.02 80.34,-92.93 176.82,-199.04 276.23,-276.2 141.45,-29.06 279.37,-134.81 353.07,-259.94 38.7,-54.8 32.02,-134.81 96.45,-176.82 19.26,-2.97 62.32,-4.73 75.11,14.7 28.86,93.45 -23.27,159.99 -52.5,240.15 350.25,35.55 621.22,-65.81 962.03,-52.86 144.77,0 273.97,16.64 415.56,6.84 141.1,-6.31 295.13,-63.9 340.13,-211.8 64.23,-189.4 -25.21,-404.38 -57.59,-584.48l39.19 -30.65c22.43,-12.63 60.23,4.73 76.31,17.85 61.29,170.15 102.58,375.32 128.33,562.09 25.88,163.66 96.27,270.09 186.23,408.19 164.06,243.68 452.87,339.78 738.86,279.41 346.45,-26.1 645.08,156.82 857.05,426.39l0.01 16.28c-6.32,12.77 -19.08,28.71 -35.2,25.36 -182.88,-141.1 -365.85,-291.6 -600.56,-321.01 -236.84,-42.88 -449.53,80.51 -696.88,-19.08 -297.91,-98.21 -422.9,-281.63 -549.11,-574.85l-25.56 0c-19.26,3.14 -32.03,22.57 -35.73,41.47l32.56 199.03c38.54,160.88 89.81,350.11 263.27,424.14 134.96,80.19 266.6,196.04 433.41,151.08 292.35,-64.44 587.83,19.08 812.75,182.74 73.71,42.17 131.61,118.88 211.63,147.94 86.65,35.34 192.72,15.9 263.45,-41.85 163.64,-54.77 202.36,151.08 314.57,224.6 99.59,96.62 272.88,57.91 404.88,57.91l22.21 -15.73c-16.07,-131.96 -51.27,-234.54 -102.55,-350.28 -163.87,9.84 -244.03,-166.98 -340.66,-269.75z"/>
   <path class="fil0" d="M15783.58 5360.11c-86.46,16.29 -185.88,-2.79 -272.53,9.98 -38.51,57.59 -74.05,128.29 -64.57,205.67 9.6,80.02 99.59,86.33 157.67,108.9 54.81,6.45 134.99,25.92 163.7,-32.23 32.19,-82.95 61.08,-173.3 74.05,-263.08 -6.66,-25.56 -32.37,-35.55 -58.33,-29.23z"/>
  </g>
 </g>
</svg>
