<svg xmlns="http://www.w3.org/2000/svg" width="162.485" height="49.824" viewBox="0 0 162.485 49.824"><g id="Group_578" data-name="Group 578" transform="translate(-255.225 -84.768)" fill="#000"><path id="Path_671" data-name="Path 671" d="M390.028 239.592h40.622a3.133 3.133 0 003.133-3.133.262.262 0 00-.262-.262h-46.364a.262.262 0 00-.262.262 3.133 3.133 0 003.133 3.133" transform="translate(-127 -105)"/><path id="Path_672" data-name="Path 672" d="M384.378 221.887a3.553 3.553 0 013.714-2.243c2.746.28 8.154 1.514 16.3 4.454.163.059 1.2.429 2.76.961-6.7 2.064-11.711 3.187-14.265 3.187-5.228 0-8.74-2.039-8.74-5.074a3.693 3.693 0 01.227-1.285m7.611-4.192c8.881 1.325 24.64 6.739 24.821 6.8 1.036.357 6.436 2.194 11.976 3.647a.169.169 0 01-.066.33c-8.868-1.308-24.7-6.748-24.884-6.81-1.032-.357-6.4-2.186-11.912-3.638a.169.169 0 01.065-.33m35.8.4c5.228 0 8.74 2.039 8.74 5.073a3.666 3.666 0 01-.229 1.289 3.551 3.551 0 01-3.725 2.234c-2.765-.289-8.169-1.526-16.291-4.449a170.19 170.19 0 00-2.76-.961c6.7-2.063 11.71-3.186 14.265-3.186m-42.629 10.177a13.984 13.984 0 007.732 1.934c3.78 0 11.073-2.061 16.85-3.907a1.948 1.948 0 011.187 0c5.48 1.752 13 3.906 16.86 3.906a13.986 13.986 0 007.732-1.934 5.906 5.906 0 000-10.208 13.984 13.984 0 00-7.732-1.934c-3.78 0-11.074 2.061-16.85 3.907a1.94 1.94 0 01-1.187 0c-5.48-1.752-13-3.906-16.86-3.906a13.984 13.984 0 00-7.732 1.934 5.906 5.906 0 000 10.208" transform="translate(-127 -105)"/><path id="Path_673" data-name="Path 673" d="M404.694 197.378a.223.223 0 01-.046.029c-.241.11-.479.223-.716.34a27.6 27.6 0 00-4.785 3.01c-1.361 1.066-2.6 2.277-3.883 3.426a.046.046 0 01-.048 0 .055.055 0 01-.031-.073c.16-.339.34-.667.531-.989l.03-.051a12.318 12.318 0 016.139-5.115 14.99 14.99 0 012.716-.67c.045-.008.107 0 .115.04a.058.058 0 01-.022.051m29.071 12.173a24.714 24.714 0 00-21.726-16.667.461.461 0 01-.433-.459v-2.447a.21.21 0 00-.21-.21h-2.089a.21.21 0 00-.21.21v2.447a.461.461 0 01-.433.459 24.712 24.712 0 00-21.726 16.667.581.581 0 00.552.768h45.722a.582.582 0 00.553-.768" transform="translate(-127 -105)"/><path id="Path_674" data-name="Path 674" d="M451.076 216.588h.549l3.343-5.747h3.693v15.072l-2.168 1.385v.523h8.8v-.521l-2.168-1.385v-15.074h3.667l3.369 5.747h.523v-6.269h-19.608z" transform="translate(-127 -105)"/><path id="Path_675" data-name="Path 675" d="M479.734 222.048l3.082-7.053H483l3.579 7.053zm7.367 5.773h8.019v-.521l-1.515-1.54-8.124-15.439h-1.2l-6.9 15.647-1.881 1.332v.523h4.624v-.523l-2.116-1.332 1.489-3.4h7.366l1.646 3.239-1.409 1.493z" transform="translate(-127 -105)"/><path id="Path_676" data-name="Path 676" d="M536.534 227.3v.523h8.176v-.523l-1.855-1.385V212.2l1.855-1.359v-.522h-5.538l-4.859 9.064-5.328-9.064h-6.14v.522l1.855 1.542v13.53l-1.855 1.385v.523h4.285v-.521l-1.855-1.385v-12.72l6.348 11h.757l6.009-11.05v12.773z" transform="translate(-127 -105)"/><path id="Path_677" data-name="Path 677" d="M515.463 210.319h-8.672v.522l2.3 1.359v12.2c0 1.934-1.123 3-3.239 3.057l-4.657-4.518h-.462v4.048c3.134.861 4.309 1.2 6.66 1.2 4.284 0 6.166-2.167 6.166-6.53V212.2l1.906-1.359z" transform="translate(-127 -105)"/></g></svg>