<?xml version="1.0" encoding="utf-8"?>
<!-- Generator: Adobe Illustrator 25.2.1, SVG Export Plug-In . SVG Version: 6.00 Build 0)  -->
<svg version="1.1" id="Warstwa_1" xmlns="http://www.w3.org/2000/svg" xmlns:xlink="http://www.w3.org/1999/xlink" x="0px" y="0px"
	 viewBox="0 0 66 65" style="enable-background:new 0 0 66 65;" xml:space="preserve">
<style type="text/css">
	.st0{fill:url(#SVGID_1_);}
	.st1{fill:url(#SVGID_2_);}
	.st2{fill:url(#SVGID_3_);}
	.st3{fill:url(#SVGID_4_);}
	.st4{fill:url(#SVGID_5_);}
	.st5{fill:url(#SVGID_6_);}
	.st6{fill:url(#SVGID_7_);}
	.st7{fill:url(#SVGID_8_);}
	.st8{fill:url(#SVGID_9_);}
	.st9{fill:url(#SVGID_10_);}
	.st10{fill:url(#SVGID_11_);}
	.st11{fill:url(#SVGID_12_);}
	.st12{fill:url(#SVGID_13_);}
	.st13{fill:url(#SVGID_14_);}
	.st14{fill:url(#SVGID_15_);}
	.st15{fill:url(#SVGID_16_);}
	.st16{fill:url(#SVGID_17_);}
	.st17{fill:url(#SVGID_18_);}
	.st18{fill:url(#SVGID_19_);}
	.st19{fill:url(#SVGID_20_);}
	.st20{fill:url(#SVGID_21_);}
	.st21{fill:url(#SVGID_22_);}
	.st22{fill:url(#SVGID_23_);}
	.st23{fill:url(#SVGID_24_);}
	.st24{fill:url(#SVGID_25_);}
	.st25{fill:url(#SVGID_26_);}
	.st26{fill:url(#SVGID_27_);}
	.st27{fill:url(#SVGID_28_);}
	.st28{fill:url(#SVGID_29_);}
	.st29{fill:url(#SVGID_30_);}
	.st30{fill:url(#SVGID_31_);}
	.st31{fill:url(#SVGID_32_);}
	.st32{fill:url(#SVGID_33_);}
	.st33{fill:url(#SVGID_34_);}
	.st34{fill:url(#SVGID_35_);}
	.st35{fill:url(#SVGID_36_);}
	.st36{fill:url(#SVGID_37_);}
	.st37{fill:url(#SVGID_38_);}
	.st38{fill:url(#SVGID_39_);}
	.st39{fill:url(#SVGID_40_);}
	.st40{fill:url(#SVGID_41_);}
	.st41{fill:url(#SVGID_42_);}
	.st42{fill:url(#SVGID_43_);}
	.st43{fill:url(#SVGID_44_);}
	.st44{fill:url(#SVGID_45_);}
	.st45{fill:url(#SVGID_46_);}
	.st46{fill:url(#SVGID_47_);}
	.st47{fill:url(#SVGID_48_);}
	.st48{fill:url(#SVGID_49_);}
	.st49{clip-path:url(#SVGID_51_);}
	.st50{fill-rule:evenodd;clip-rule:evenodd;fill:#FFFFFF;}
</style>
<g>
	<g>
		
			<linearGradient id="SVGID_1_" gradientUnits="userSpaceOnUse" x1="17.9702" y1="47.5578" x2="21.1729" y2="47.5578" gradientTransform="matrix(1 0 0 -1 0 66)">
			<stop  offset="0" style="stop-color:#414243"/>
			<stop  offset="1" style="stop-color:#3D3D3F"/>
		</linearGradient>
		<circle class="st0" cx="19.6" cy="18.4" r="1.6"/>
		
			<linearGradient id="SVGID_2_" gradientUnits="userSpaceOnUse" x1="25.2449" y1="47.5578" x2="28.4476" y2="47.5578" gradientTransform="matrix(1 0 0 -1 0 66)">
			<stop  offset="0" style="stop-color:#414243"/>
			<stop  offset="1" style="stop-color:#3D3D3F"/>
		</linearGradient>
		<circle class="st1" cx="26.8" cy="18.4" r="1.6"/>
		
			<linearGradient id="SVGID_3_" gradientUnits="userSpaceOnUse" x1="32.5196" y1="47.5578" x2="35.7222" y2="47.5578" gradientTransform="matrix(1 0 0 -1 0 66)">
			<stop  offset="0" style="stop-color:#414243"/>
			<stop  offset="1" style="stop-color:#3D3D3F"/>
		</linearGradient>
		<circle class="st2" cx="34.1" cy="18.4" r="1.6"/>
		
			<linearGradient id="SVGID_4_" gradientUnits="userSpaceOnUse" x1="39.7943" y1="47.5578" x2="42.997" y2="47.5578" gradientTransform="matrix(1 0 0 -1 0 66)">
			<stop  offset="0" style="stop-color:#414243"/>
			<stop  offset="1" style="stop-color:#3D3D3F"/>
		</linearGradient>
		<circle class="st3" cx="41.4" cy="18.4" r="1.6"/>
		
			<linearGradient id="SVGID_5_" gradientUnits="userSpaceOnUse" x1="47.069" y1="47.5578" x2="50.2716" y2="47.5578" gradientTransform="matrix(1 0 0 -1 0 66)">
			<stop  offset="0" style="stop-color:#414243"/>
			<stop  offset="1" style="stop-color:#3D3D3F"/>
		</linearGradient>
		<circle class="st4" cx="48.7" cy="18.4" r="1.6"/>
		
			<linearGradient id="SVGID_6_" gradientUnits="userSpaceOnUse" x1="54.3436" y1="47.5578" x2="57.5463" y2="47.5578" gradientTransform="matrix(1 0 0 -1 0 66)">
			<stop  offset="0" style="stop-color:#414243"/>
			<stop  offset="1" style="stop-color:#3D3D3F"/>
		</linearGradient>
		<circle class="st5" cx="55.9" cy="18.4" r="1.6"/>
		
			<linearGradient id="SVGID_7_" gradientUnits="userSpaceOnUse" x1="61.6183" y1="47.5578" x2="64.8211" y2="47.5578" gradientTransform="matrix(1 0 0 -1 0 66)">
			<stop  offset="0" style="stop-color:#414243"/>
			<stop  offset="1" style="stop-color:#3D3D3F"/>
		</linearGradient>
		<circle class="st6" cx="63.2" cy="18.4" r="1.6"/>
	</g>
	<g>
		
			<linearGradient id="SVGID_8_" gradientUnits="userSpaceOnUse" x1="17.9702" y1="40.2845" x2="21.1729" y2="40.2845" gradientTransform="matrix(1 0 0 -1 0 66)">
			<stop  offset="0" style="stop-color:#414243"/>
			<stop  offset="1" style="stop-color:#3D3D3F"/>
		</linearGradient>
		<circle class="st7" cx="19.6" cy="25.7" r="1.6"/>
		
			<linearGradient id="SVGID_9_" gradientUnits="userSpaceOnUse" x1="25.2449" y1="40.2845" x2="28.4476" y2="40.2845" gradientTransform="matrix(1 0 0 -1 0 66)">
			<stop  offset="0" style="stop-color:#414243"/>
			<stop  offset="1" style="stop-color:#3D3D3F"/>
		</linearGradient>
		<circle class="st8" cx="26.8" cy="25.7" r="1.6"/>
		
			<linearGradient id="SVGID_10_" gradientUnits="userSpaceOnUse" x1="32.5196" y1="40.2845" x2="35.7222" y2="40.2845" gradientTransform="matrix(1 0 0 -1 0 66)">
			<stop  offset="0" style="stop-color:#414243"/>
			<stop  offset="1" style="stop-color:#3D3D3F"/>
		</linearGradient>
		<circle class="st9" cx="34.1" cy="25.7" r="1.6"/>
		
			<linearGradient id="SVGID_11_" gradientUnits="userSpaceOnUse" x1="39.7943" y1="40.2845" x2="42.997" y2="40.2845" gradientTransform="matrix(1 0 0 -1 0 66)">
			<stop  offset="0" style="stop-color:#414243"/>
			<stop  offset="1" style="stop-color:#3D3D3F"/>
		</linearGradient>
		<circle class="st10" cx="41.4" cy="25.7" r="1.6"/>
		
			<linearGradient id="SVGID_12_" gradientUnits="userSpaceOnUse" x1="47.069" y1="40.2845" x2="50.2716" y2="40.2845" gradientTransform="matrix(1 0 0 -1 0 66)">
			<stop  offset="0" style="stop-color:#414243"/>
			<stop  offset="1" style="stop-color:#3D3D3F"/>
		</linearGradient>
		<circle class="st11" cx="48.7" cy="25.7" r="1.6"/>
		
			<linearGradient id="SVGID_13_" gradientUnits="userSpaceOnUse" x1="54.3436" y1="40.2845" x2="57.5463" y2="40.2845" gradientTransform="matrix(1 0 0 -1 0 66)">
			<stop  offset="0" style="stop-color:#414243"/>
			<stop  offset="1" style="stop-color:#3D3D3F"/>
		</linearGradient>
		<circle class="st12" cx="55.9" cy="25.7" r="1.6"/>
		
			<linearGradient id="SVGID_14_" gradientUnits="userSpaceOnUse" x1="61.6183" y1="40.2845" x2="64.8211" y2="40.2845" gradientTransform="matrix(1 0 0 -1 0 66)">
			<stop  offset="0" style="stop-color:#414243"/>
			<stop  offset="1" style="stop-color:#3D3D3F"/>
		</linearGradient>
		<circle class="st13" cx="63.2" cy="25.7" r="1.6"/>
	</g>
	<g>
		
			<linearGradient id="SVGID_15_" gradientUnits="userSpaceOnUse" x1="17.9702" y1="33.0433" x2="21.1729" y2="33.0433" gradientTransform="matrix(1 0 0 -1 0 66)">
			<stop  offset="0" style="stop-color:#414243"/>
			<stop  offset="1" style="stop-color:#3D3D3F"/>
		</linearGradient>
		<circle class="st14" cx="19.6" cy="33" r="1.6"/>
		
			<linearGradient id="SVGID_16_" gradientUnits="userSpaceOnUse" x1="25.2449" y1="33.0433" x2="28.4476" y2="33.0433" gradientTransform="matrix(1 0 0 -1 0 66)">
			<stop  offset="0" style="stop-color:#414243"/>
			<stop  offset="1" style="stop-color:#3D3D3F"/>
		</linearGradient>
		<circle class="st15" cx="26.8" cy="33" r="1.6"/>
		
			<linearGradient id="SVGID_17_" gradientUnits="userSpaceOnUse" x1="32.5196" y1="33.0433" x2="35.7222" y2="33.0433" gradientTransform="matrix(1 0 0 -1 0 66)">
			<stop  offset="0" style="stop-color:#414243"/>
			<stop  offset="1" style="stop-color:#3D3D3F"/>
		</linearGradient>
		<circle class="st16" cx="34.1" cy="33" r="1.6"/>
		
			<linearGradient id="SVGID_18_" gradientUnits="userSpaceOnUse" x1="39.7943" y1="33.0433" x2="42.997" y2="33.0433" gradientTransform="matrix(1 0 0 -1 0 66)">
			<stop  offset="0" style="stop-color:#414243"/>
			<stop  offset="1" style="stop-color:#3D3D3F"/>
		</linearGradient>
		<circle class="st17" cx="41.4" cy="33" r="1.6"/>
		
			<linearGradient id="SVGID_19_" gradientUnits="userSpaceOnUse" x1="47.069" y1="33.0433" x2="50.2716" y2="33.0433" gradientTransform="matrix(1 0 0 -1 0 66)">
			<stop  offset="0" style="stop-color:#414243"/>
			<stop  offset="1" style="stop-color:#3D3D3F"/>
		</linearGradient>
		<circle class="st18" cx="48.7" cy="33" r="1.6"/>
		
			<linearGradient id="SVGID_20_" gradientUnits="userSpaceOnUse" x1="54.3436" y1="33.0433" x2="57.5463" y2="33.0433" gradientTransform="matrix(1 0 0 -1 0 66)">
			<stop  offset="0" style="stop-color:#414243"/>
			<stop  offset="1" style="stop-color:#3D3D3F"/>
		</linearGradient>
		<circle class="st19" cx="55.9" cy="33" r="1.6"/>
		
			<linearGradient id="SVGID_21_" gradientUnits="userSpaceOnUse" x1="61.6183" y1="33.0433" x2="64.8211" y2="33.0433" gradientTransform="matrix(1 0 0 -1 0 66)">
			<stop  offset="0" style="stop-color:#414243"/>
			<stop  offset="1" style="stop-color:#3D3D3F"/>
		</linearGradient>
		<circle class="st20" cx="63.2" cy="33" r="1.6"/>
	</g>
	<g>
		
			<linearGradient id="SVGID_22_" gradientUnits="userSpaceOnUse" x1="17.9702" y1="25.8022" x2="21.1729" y2="25.8022" gradientTransform="matrix(1 0 0 -1 0 66)">
			<stop  offset="0" style="stop-color:#414243"/>
			<stop  offset="1" style="stop-color:#3D3D3F"/>
		</linearGradient>
		<circle class="st21" cx="19.6" cy="40.2" r="1.6"/>
		
			<linearGradient id="SVGID_23_" gradientUnits="userSpaceOnUse" x1="25.2449" y1="25.8022" x2="28.4476" y2="25.8022" gradientTransform="matrix(1 0 0 -1 0 66)">
			<stop  offset="0" style="stop-color:#414243"/>
			<stop  offset="1" style="stop-color:#3D3D3F"/>
		</linearGradient>
		<circle class="st22" cx="26.8" cy="40.2" r="1.6"/>
		
			<linearGradient id="SVGID_24_" gradientUnits="userSpaceOnUse" x1="32.5196" y1="25.8022" x2="35.7222" y2="25.8022" gradientTransform="matrix(1 0 0 -1 0 66)">
			<stop  offset="0" style="stop-color:#414243"/>
			<stop  offset="1" style="stop-color:#3D3D3F"/>
		</linearGradient>
		<circle class="st23" cx="34.1" cy="40.2" r="1.6"/>
		
			<linearGradient id="SVGID_25_" gradientUnits="userSpaceOnUse" x1="39.7943" y1="25.8022" x2="42.997" y2="25.8022" gradientTransform="matrix(1 0 0 -1 0 66)">
			<stop  offset="0" style="stop-color:#414243"/>
			<stop  offset="1" style="stop-color:#3D3D3F"/>
		</linearGradient>
		<circle class="st24" cx="41.4" cy="40.2" r="1.6"/>
		
			<linearGradient id="SVGID_26_" gradientUnits="userSpaceOnUse" x1="47.069" y1="25.8022" x2="50.2716" y2="25.8022" gradientTransform="matrix(1 0 0 -1 0 66)">
			<stop  offset="0" style="stop-color:#414243"/>
			<stop  offset="1" style="stop-color:#3D3D3F"/>
		</linearGradient>
		<circle class="st25" cx="48.7" cy="40.2" r="1.6"/>
		
			<linearGradient id="SVGID_27_" gradientUnits="userSpaceOnUse" x1="54.3436" y1="25.8022" x2="57.5463" y2="25.8022" gradientTransform="matrix(1 0 0 -1 0 66)">
			<stop  offset="0" style="stop-color:#414243"/>
			<stop  offset="1" style="stop-color:#3D3D3F"/>
		</linearGradient>
		<circle class="st26" cx="55.9" cy="40.2" r="1.6"/>
		
			<linearGradient id="SVGID_28_" gradientUnits="userSpaceOnUse" x1="61.6183" y1="25.8022" x2="64.8211" y2="25.8022" gradientTransform="matrix(1 0 0 -1 0 66)">
			<stop  offset="0" style="stop-color:#414243"/>
			<stop  offset="1" style="stop-color:#3D3D3F"/>
		</linearGradient>
		<circle class="st27" cx="63.2" cy="40.2" r="1.6"/>
	</g>
	<g>
		
			<linearGradient id="SVGID_29_" gradientUnits="userSpaceOnUse" x1="17.9702" y1="18.5611" x2="21.1729" y2="18.5611" gradientTransform="matrix(1 0 0 -1 0 66)">
			<stop  offset="0" style="stop-color:#414243"/>
			<stop  offset="1" style="stop-color:#3D3D3F"/>
		</linearGradient>
		<circle class="st28" cx="19.6" cy="47.4" r="1.6"/>
		
			<linearGradient id="SVGID_30_" gradientUnits="userSpaceOnUse" x1="25.2449" y1="18.5611" x2="28.4476" y2="18.5611" gradientTransform="matrix(1 0 0 -1 0 66)">
			<stop  offset="0" style="stop-color:#414243"/>
			<stop  offset="1" style="stop-color:#3D3D3F"/>
		</linearGradient>
		<circle class="st29" cx="26.8" cy="47.4" r="1.6"/>
		
			<linearGradient id="SVGID_31_" gradientUnits="userSpaceOnUse" x1="32.5196" y1="18.5611" x2="35.7222" y2="18.5611" gradientTransform="matrix(1 0 0 -1 0 66)">
			<stop  offset="0" style="stop-color:#414243"/>
			<stop  offset="1" style="stop-color:#3D3D3F"/>
		</linearGradient>
		<circle class="st30" cx="34.1" cy="47.4" r="1.6"/>
		
			<linearGradient id="SVGID_32_" gradientUnits="userSpaceOnUse" x1="39.7943" y1="18.5611" x2="42.997" y2="18.5611" gradientTransform="matrix(1 0 0 -1 0 66)">
			<stop  offset="0" style="stop-color:#414243"/>
			<stop  offset="1" style="stop-color:#3D3D3F"/>
		</linearGradient>
		<circle class="st31" cx="41.4" cy="47.4" r="1.6"/>
		
			<linearGradient id="SVGID_33_" gradientUnits="userSpaceOnUse" x1="47.069" y1="18.5611" x2="50.2716" y2="18.5611" gradientTransform="matrix(1 0 0 -1 0 66)">
			<stop  offset="0" style="stop-color:#414243"/>
			<stop  offset="1" style="stop-color:#3D3D3F"/>
		</linearGradient>
		<circle class="st32" cx="48.7" cy="47.4" r="1.6"/>
		
			<linearGradient id="SVGID_34_" gradientUnits="userSpaceOnUse" x1="54.3436" y1="18.5611" x2="57.5463" y2="18.5611" gradientTransform="matrix(1 0 0 -1 0 66)">
			<stop  offset="0" style="stop-color:#414243"/>
			<stop  offset="1" style="stop-color:#3D3D3F"/>
		</linearGradient>
		<circle class="st33" cx="55.9" cy="47.4" r="1.6"/>
		
			<linearGradient id="SVGID_35_" gradientUnits="userSpaceOnUse" x1="61.6183" y1="18.5611" x2="64.8211" y2="18.5611" gradientTransform="matrix(1 0 0 -1 0 66)">
			<stop  offset="0" style="stop-color:#414243"/>
			<stop  offset="1" style="stop-color:#3D3D3F"/>
		</linearGradient>
		<circle class="st34" cx="63.2" cy="47.4" r="1.6"/>
	</g>
	<g>
		
			<linearGradient id="SVGID_36_" gradientUnits="userSpaceOnUse" x1="17.9702" y1="11.3199" x2="21.1729" y2="11.3199" gradientTransform="matrix(1 0 0 -1 0 66)">
			<stop  offset="0" style="stop-color:#414243"/>
			<stop  offset="1" style="stop-color:#3D3D3F"/>
		</linearGradient>
		<circle class="st35" cx="19.6" cy="54.7" r="1.6"/>
		
			<linearGradient id="SVGID_37_" gradientUnits="userSpaceOnUse" x1="25.2449" y1="11.3199" x2="28.4476" y2="11.3199" gradientTransform="matrix(1 0 0 -1 0 66)">
			<stop  offset="0" style="stop-color:#414243"/>
			<stop  offset="1" style="stop-color:#3D3D3F"/>
		</linearGradient>
		<circle class="st36" cx="26.8" cy="54.7" r="1.6"/>
		
			<linearGradient id="SVGID_38_" gradientUnits="userSpaceOnUse" x1="32.5196" y1="11.3199" x2="35.7222" y2="11.3199" gradientTransform="matrix(1 0 0 -1 0 66)">
			<stop  offset="0" style="stop-color:#414243"/>
			<stop  offset="1" style="stop-color:#3D3D3F"/>
		</linearGradient>
		<circle class="st37" cx="34.1" cy="54.7" r="1.6"/>
		
			<linearGradient id="SVGID_39_" gradientUnits="userSpaceOnUse" x1="39.7943" y1="11.3199" x2="42.997" y2="11.3199" gradientTransform="matrix(1 0 0 -1 0 66)">
			<stop  offset="0" style="stop-color:#414243"/>
			<stop  offset="1" style="stop-color:#3D3D3F"/>
		</linearGradient>
		<circle class="st38" cx="41.4" cy="54.7" r="1.6"/>
		
			<linearGradient id="SVGID_40_" gradientUnits="userSpaceOnUse" x1="47.069" y1="11.3199" x2="50.2716" y2="11.3199" gradientTransform="matrix(1 0 0 -1 0 66)">
			<stop  offset="0" style="stop-color:#414243"/>
			<stop  offset="1" style="stop-color:#3D3D3F"/>
		</linearGradient>
		<circle class="st39" cx="48.7" cy="54.7" r="1.6"/>
		
			<linearGradient id="SVGID_41_" gradientUnits="userSpaceOnUse" x1="54.3436" y1="11.3199" x2="57.5463" y2="11.3199" gradientTransform="matrix(1 0 0 -1 0 66)">
			<stop  offset="0" style="stop-color:#414243"/>
			<stop  offset="1" style="stop-color:#3D3D3F"/>
		</linearGradient>
		<circle class="st40" cx="55.9" cy="54.7" r="1.6"/>
		
			<linearGradient id="SVGID_42_" gradientUnits="userSpaceOnUse" x1="61.6183" y1="11.3199" x2="64.8211" y2="11.3199" gradientTransform="matrix(1 0 0 -1 0 66)">
			<stop  offset="0" style="stop-color:#414243"/>
			<stop  offset="1" style="stop-color:#3D3D3F"/>
		</linearGradient>
		<circle class="st41" cx="63.2" cy="54.7" r="1.6"/>
	</g>
	<g>
		
			<linearGradient id="SVGID_43_" gradientUnits="userSpaceOnUse" x1="17.9702" y1="4.0466" x2="21.1729" y2="4.0466" gradientTransform="matrix(1 0 0 -1 0 66)">
			<stop  offset="0" style="stop-color:#414243"/>
			<stop  offset="1" style="stop-color:#3D3D3F"/>
		</linearGradient>
		<circle class="st42" cx="19.6" cy="62" r="1.6"/>
		
			<linearGradient id="SVGID_44_" gradientUnits="userSpaceOnUse" x1="25.2449" y1="4.0466" x2="28.4476" y2="4.0466" gradientTransform="matrix(1 0 0 -1 0 66)">
			<stop  offset="0" style="stop-color:#414243"/>
			<stop  offset="1" style="stop-color:#3D3D3F"/>
		</linearGradient>
		<circle class="st43" cx="26.8" cy="62" r="1.6"/>
		
			<linearGradient id="SVGID_45_" gradientUnits="userSpaceOnUse" x1="32.5196" y1="4.0466" x2="35.7222" y2="4.0466" gradientTransform="matrix(1 0 0 -1 0 66)">
			<stop  offset="0" style="stop-color:#414243"/>
			<stop  offset="1" style="stop-color:#3D3D3F"/>
		</linearGradient>
		<circle class="st44" cx="34.1" cy="62" r="1.6"/>
		
			<linearGradient id="SVGID_46_" gradientUnits="userSpaceOnUse" x1="39.7943" y1="4.0466" x2="42.997" y2="4.0466" gradientTransform="matrix(1 0 0 -1 0 66)">
			<stop  offset="0" style="stop-color:#414243"/>
			<stop  offset="1" style="stop-color:#3D3D3F"/>
		</linearGradient>
		<circle class="st45" cx="41.4" cy="62" r="1.6"/>
		
			<linearGradient id="SVGID_47_" gradientUnits="userSpaceOnUse" x1="47.069" y1="4.0466" x2="50.2716" y2="4.0466" gradientTransform="matrix(1 0 0 -1 0 66)">
			<stop  offset="0" style="stop-color:#414243"/>
			<stop  offset="1" style="stop-color:#3D3D3F"/>
		</linearGradient>
		<circle class="st46" cx="48.7" cy="62" r="1.6"/>
		
			<linearGradient id="SVGID_48_" gradientUnits="userSpaceOnUse" x1="54.3436" y1="4.0466" x2="57.5463" y2="4.0466" gradientTransform="matrix(1 0 0 -1 0 66)">
			<stop  offset="0" style="stop-color:#414243"/>
			<stop  offset="1" style="stop-color:#3D3D3F"/>
		</linearGradient>
		<circle class="st47" cx="55.9" cy="62" r="1.6"/>
		
			<linearGradient id="SVGID_49_" gradientUnits="userSpaceOnUse" x1="61.6183" y1="4.0466" x2="64.8211" y2="4.0466" gradientTransform="matrix(1 0 0 -1 0 66)">
			<stop  offset="0" style="stop-color:#414243"/>
			<stop  offset="1" style="stop-color:#3D3D3F"/>
		</linearGradient>
		<circle class="st48" cx="63.2" cy="62" r="1.6"/>
	</g>
</g>
<g>
	<defs>
		<rect id="SVGID_50_" y="3.2" width="39.6" height="42.2"/>
	</defs>
	<clipPath id="SVGID_51_">
		<use xlink:href="#SVGID_50_"  style="overflow:visible;"/>
	</clipPath>
	<g class="st49">
		<path class="st50" d="M31.2,3.2h2.3l-1.9,3.9h-2.3L31.2,3.2z M27,7.1h-2.4l1.9-4h2.4L27,7.1z M19.8,7.1l1.9-4h2.4l-1.9,4H20H19.8z
			 M17.5,7.1h-2.4l1.9-4h2.4L17.5,7.1z M10.3,7.1l1.9-4h2.4l-1.9,4h-0.8H10.3z M9.9,3.2L8,7.1h0c-0.7,0-1.4,0.2-2,0.5
			c-1.2,0.7-2,2-2,3.4v26.3c0,1.4,0.8,2.7,2,3.4c1.2,0.7,2.7,0.7,4,0.1l23.7-13.2c1.3-0.7,2-2,2-3.5c0-1.4-0.8-2.8-2-3.5l-1.2-0.7
			l1.9-3.5l1.2,0.7c2.5,1.4,4.1,4.1,4.1,7c0,2.9-1.6,5.6-4.1,7L11.8,44.4c-2.5,1.4-5.5,1.3-7.9-0.1c-2.4-1.4-3.9-4-3.9-6.9
			c0-7.3,0-19,0-26.3c0-2.8,1.5-5.4,3.9-6.9c1.2-0.7,2.6-1.1,3.9-1.1H9.9z"/>
	</g>
</g>
</svg>
