<svg xmlns="http://www.w3.org/2000/svg" xmlns:xlink="http://www.w3.org/1999/xlink" width="140" height="163.404" viewBox="0 0 140 163.404">
  <defs>
    <radialGradient id="radial-gradient" cx="0.5" cy="0.5" r="0.478" gradientTransform="translate(0 -0.081) scale(1 1.161)" gradientUnits="objectBoundingBox">
      <stop offset="0" stop-color="#bfc1c6"/>
      <stop offset="1" stop-color="#e7ebf5"/>
    </radialGradient>
    <radialGradient id="radial-gradient-2" cx="0.085" cy="0.287" r="0.797" gradientTransform="translate(0 -0.027) scale(1 1.161)" gradientUnits="objectBoundingBox">
      <stop offset="0" stop-color="#ecedf1"/>
      <stop offset="1" stop-color="#d0d3db"/>
    </radialGradient>
    <radialGradient id="radial-gradient-51" cx="0.211" cy="0.077" r="0.82" gradientTransform="translate(0 0) scale(1 1.22)" gradientUnits="objectBoundingBox">
      <stop offset="0" stop-color="#864bf6"/>
      <stop offset="1" stop-color="#501eaf"/>
    </radialGradient>
  </defs>
  <g id="Group_230" data-name="Group 230" transform="translate(-139 -5828)">
    <ellipse id="Ellipse_309" data-name="Ellipse 309" cx="55.5" cy="7" rx="55.5" ry="7" transform="translate(168 5977.404)" opacity="0.14" fill="url(#radial-gradient)"/>
    <g id="Group_224" data-name="Group 224" transform="translate(-96 544)">
      <g id="Group_219" data-name="Group 219" transform="translate(56.433 5104.561)" opacity="0.259">
        <g id="Group_3" data-name="Group 3" transform="translate(178.669 179.875)">
          <circle id="Ellipse_1" data-name="Ellipse 1" cx="4" cy="4" r="4" transform="translate(-0.102 102.564)" fill="url(#radial-gradient-2)"/>
          <circle id="Ellipse_14" data-name="Ellipse 14" cx="4" cy="4" r="4" transform="translate(-0.102 85.564)" fill="url(#radial-gradient-2)"/>
          <ellipse id="Ellipse_21" data-name="Ellipse 21" cx="4" cy="4.5" rx="4" ry="4.5" transform="translate(-0.102 68.564)" fill="url(#radial-gradient-2)"/>
          <ellipse id="Ellipse_28" data-name="Ellipse 28" cx="4" cy="3.5" rx="4" ry="3.5" transform="translate(-0.102 51.564)" fill="url(#radial-gradient-2)"/>
          <circle id="Ellipse_35" data-name="Ellipse 35" cx="4" cy="4" r="4" transform="translate(-0.102 33.564)" fill="url(#radial-gradient-2)"/>
          <circle id="Ellipse_42" data-name="Ellipse 42" cx="4" cy="4" r="4" transform="translate(-0.102 16.564)" fill="url(#radial-gradient-2)"/>
          <circle id="Ellipse_49" data-name="Ellipse 49" cx="4" cy="4" r="4" transform="translate(-0.102 -0.436)" fill="url(#radial-gradient-2)"/>
          <circle id="Ellipse_2" data-name="Ellipse 2" cx="4" cy="4" r="4" transform="translate(16.898 102.564)" fill="url(#radial-gradient-2)"/>
          <circle id="Ellipse_13" data-name="Ellipse 13" cx="4" cy="4" r="4" transform="translate(16.898 85.564)" fill="url(#radial-gradient-2)"/>
          <ellipse id="Ellipse_20" data-name="Ellipse 20" cx="4" cy="4.5" rx="4" ry="4.5" transform="translate(16.898 68.564)" fill="url(#radial-gradient-2)"/>
          <ellipse id="Ellipse_27" data-name="Ellipse 27" cx="4" cy="3.5" rx="4" ry="3.5" transform="translate(16.898 51.564)" fill="url(#radial-gradient-2)"/>
          <circle id="Ellipse_34" data-name="Ellipse 34" cx="4" cy="4" r="4" transform="translate(16.898 33.564)" fill="url(#radial-gradient-2)"/>
          <circle id="Ellipse_41" data-name="Ellipse 41" cx="4" cy="4" r="4" transform="translate(16.898 16.564)" fill="url(#radial-gradient-2)"/>
          <circle id="Ellipse_48" data-name="Ellipse 48" cx="4" cy="4" r="4" transform="translate(16.898 -0.436)" fill="url(#radial-gradient-2)"/>
          <circle id="Ellipse_7" data-name="Ellipse 7" cx="4" cy="4" r="4" transform="translate(68.898 102.564)" fill="url(#radial-gradient-2)"/>
          <circle id="Ellipse_10" data-name="Ellipse 10" cx="4" cy="4" r="4" transform="translate(68.898 85.564)" fill="url(#radial-gradient-2)"/>
          <ellipse id="Ellipse_17" data-name="Ellipse 17" cx="4" cy="4.5" rx="4" ry="4.5" transform="translate(68.898 68.564)" fill="url(#radial-gradient-2)"/>
          <ellipse id="Ellipse_24" data-name="Ellipse 24" cx="4" cy="3.5" rx="4" ry="3.5" transform="translate(68.898 51.564)" fill="url(#radial-gradient-2)"/>
          <circle id="Ellipse_31" data-name="Ellipse 31" cx="4" cy="4" r="4" transform="translate(68.898 33.564)" fill="url(#radial-gradient-2)"/>
          <circle id="Ellipse_38" data-name="Ellipse 38" cx="4" cy="4" r="4" transform="translate(68.898 16.564)" fill="url(#radial-gradient-2)"/>
          <circle id="Ellipse_45" data-name="Ellipse 45" cx="4" cy="4" r="4" transform="translate(68.898 -0.436)" fill="url(#radial-gradient-2)"/>
          <circle id="Ellipse_3" data-name="Ellipse 3" cx="4" cy="4" r="4" transform="translate(33.898 102.564)" fill="url(#radial-gradient-2)"/>
          <circle id="Ellipse_12" data-name="Ellipse 12" cx="4" cy="4" r="4" transform="translate(33.898 85.564)" fill="url(#radial-gradient-2)"/>
          <ellipse id="Ellipse_19" data-name="Ellipse 19" cx="4" cy="4.5" rx="4" ry="4.5" transform="translate(33.898 68.564)" fill="url(#radial-gradient-2)"/>
          <ellipse id="Ellipse_26" data-name="Ellipse 26" cx="4" cy="3.5" rx="4" ry="3.5" transform="translate(33.898 51.564)" fill="url(#radial-gradient-2)"/>
          <circle id="Ellipse_33" data-name="Ellipse 33" cx="4" cy="4" r="4" transform="translate(33.898 33.564)" fill="url(#radial-gradient-2)"/>
          <circle id="Ellipse_40" data-name="Ellipse 40" cx="4" cy="4" r="4" transform="translate(33.898 16.564)" fill="url(#radial-gradient-2)"/>
          <circle id="Ellipse_47" data-name="Ellipse 47" cx="4" cy="4" r="4" transform="translate(33.898 -0.436)" fill="url(#radial-gradient-2)"/>
          <circle id="Ellipse_6" data-name="Ellipse 6" cx="4" cy="4" r="4" transform="translate(84.898 102.564)" fill="url(#radial-gradient-2)"/>
          <circle id="Ellipse_9" data-name="Ellipse 9" cx="4" cy="4" r="4" transform="translate(84.898 85.564)" fill="url(#radial-gradient-2)"/>
          <ellipse id="Ellipse_16" data-name="Ellipse 16" cx="4" cy="4.5" rx="4" ry="4.5" transform="translate(84.898 68.564)" fill="url(#radial-gradient-2)"/>
          <ellipse id="Ellipse_23" data-name="Ellipse 23" cx="4" cy="3.5" rx="4" ry="3.5" transform="translate(84.898 51.564)" fill="url(#radial-gradient-2)"/>
          <circle id="Ellipse_30" data-name="Ellipse 30" cx="4" cy="4" r="4" transform="translate(84.898 33.564)" fill="url(#radial-gradient-2)"/>
          <circle id="Ellipse_37" data-name="Ellipse 37" cx="4" cy="4" r="4" transform="translate(84.898 16.564)" fill="url(#radial-gradient-2)"/>
          <circle id="Ellipse_44" data-name="Ellipse 44" cx="4" cy="4" r="4" transform="translate(84.898 -0.436)" fill="url(#radial-gradient-2)"/>
          <circle id="Ellipse_4" data-name="Ellipse 4" cx="4" cy="4" r="4" transform="translate(50.898 102.564)" fill="url(#radial-gradient-2)"/>
          <circle id="Ellipse_11" data-name="Ellipse 11" cx="4" cy="4" r="4" transform="translate(50.898 85.564)" fill="url(#radial-gradient-2)"/>
          <ellipse id="Ellipse_18" data-name="Ellipse 18" cx="4" cy="4.5" rx="4" ry="4.5" transform="translate(50.898 68.564)" fill="url(#radial-gradient-2)"/>
          <ellipse id="Ellipse_25" data-name="Ellipse 25" cx="4" cy="3.5" rx="4" ry="3.5" transform="translate(50.898 51.564)" fill="url(#radial-gradient-2)"/>
          <circle id="Ellipse_32" data-name="Ellipse 32" cx="4" cy="4" r="4" transform="translate(50.898 33.564)" fill="url(#radial-gradient-2)"/>
          <circle id="Ellipse_39" data-name="Ellipse 39" cx="4" cy="4" r="4" transform="translate(50.898 16.564)" fill="url(#radial-gradient-2)"/>
          <circle id="Ellipse_46" data-name="Ellipse 46" cx="4" cy="4" r="4" transform="translate(50.898 -0.436)" fill="url(#radial-gradient-2)"/>
          <circle id="Ellipse_5" data-name="Ellipse 5" cx="4" cy="4" r="4" transform="translate(101.898 102.564)" fill="url(#radial-gradient-2)"/>
          <circle id="Ellipse_8" data-name="Ellipse 8" cx="4" cy="4" r="4" transform="translate(101.898 85.564)" fill="url(#radial-gradient-2)"/>
          <ellipse id="Ellipse_15" data-name="Ellipse 15" cx="4" cy="4.5" rx="4" ry="4.5" transform="translate(101.898 68.564)" fill="url(#radial-gradient-2)"/>
          <ellipse id="Ellipse_22" data-name="Ellipse 22" cx="4" cy="3.5" rx="4" ry="3.5" transform="translate(101.898 51.564)" fill="url(#radial-gradient-2)"/>
          <circle id="Ellipse_29" data-name="Ellipse 29" cx="4" cy="4" r="4" transform="translate(101.898 33.564)" fill="url(#radial-gradient-2)"/>
          <circle id="Ellipse_36" data-name="Ellipse 36" cx="4" cy="4" r="4" transform="translate(101.898 16.564)" fill="url(#radial-gradient-2)"/>
          <circle id="Ellipse_43" data-name="Ellipse 43" cx="4" cy="4" r="4" transform="translate(101.898 -0.436)" fill="url(#radial-gradient-2)"/>
        </g>
      </g>
    </g>
    <g id="Group_229" data-name="Group 229" transform="translate(180 5877.5)">
      <g id="Group_25" data-name="Group 25" transform="translate(0)">
        <path id="Path_153" data-name="Path 153" d="M39.3,69.826a.77.77,0,0,1-.4.676.715.715,0,0,1-.791,0L8.145,53.768a15.953,15.953,0,0,1,0-27.823s21.469-12,23.13-12.918a.213.213,0,0,0,.119-.159V4.324a.77.77,0,0,1,.4-.676c1.147-.636,4.507-2.5,6.326-3.537a.919.919,0,0,1,.791,0,.82.82,0,0,1,.4.676V17.162a.889.889,0,0,1-.4.715C35.5,19.785,12.02,32.9,12.02,32.9a7.957,7.957,0,0,0-.04,13.911S35.5,59.929,38.866,61.837a.835.835,0,0,1,.4.715C39.3,63.864,39.3,67.759,39.3,69.826Z" transform="translate(0 -0.021)" fill-rule="evenodd" fill="url(#radial-gradient-51)"/>
        <path id="Path_154" data-name="Path 154" d="M31.3,6.657a.77.77,0,0,1,.4-.676.715.715,0,0,1,.791,0l29.97,16.733a15.952,15.952,0,0,1,0,27.822s-21.469,12-23.13,12.918a.213.213,0,0,0-.119.159V72.16a.77.77,0,0,1-.4.676c-1.147.636-4.507,2.5-6.326,3.537a.918.918,0,0,1-.791,0,.821.821,0,0,1-.4-.676V59.321a.889.889,0,0,1,.4-.715c3.4-1.908,26.886-15.024,26.886-15.024a7.976,7.976,0,0,0,0-13.911S35.052,16.554,31.691,14.646a.836.836,0,0,1-.4-.715Z" transform="translate(15.597 2.89)" fill-rule="evenodd" fill="url(#radial-gradient-51)"/>
      </g>
    </g>
  </g>
</svg>
