<svg xmlns="http://www.w3.org/2000/svg" xmlns:xlink="http://www.w3.org/1999/xlink" width="148" height="164.316" viewBox="0 0 148 164.316">
  <defs>
    <radialGradient id="radial-gradient" cx="0.5" cy="0.5" r="0.478" gradientTransform="translate(0 -0.081) scale(1 1.161)" gradientUnits="objectBoundingBox">
      <stop offset="0" stop-color="#bfc1c6"/>
      <stop offset="1" stop-color="#e7ebf5"/>
    </radialGradient>
    <radialGradient id="radial-gradient-2" cx="0.085" cy="0.287" r="0.797" gradientTransform="translate(0 -0.027) scale(1 1.161)" gradientUnits="objectBoundingBox">
      <stop offset="0" stop-color="#ecedf1"/>
      <stop offset="1" stop-color="#d0d3db"/>
    </radialGradient>
    <radialGradient id="radial-gradient-51" cx="-0.945" cy="-1.409" r="8.473" gradientTransform="matrix(0.065, 0.998, 0.998, -0.065, 0.096, -0.102)" gradientUnits="objectBoundingBox">
      <stop offset="0" stop-color="#4c65ff"/>
      <stop offset="1" stop-color="#263380"/>
    </radialGradient>
  </defs>
  <g id="Group_264" data-name="Group 264" transform="translate(-863 -3216.842)">
    <g id="Group_255" data-name="Group 255">
      <g id="Group_243" data-name="Group 243" transform="translate(684 -2240.158)">
        <g id="Group_226" data-name="Group 226" transform="translate(-123 191)">
          <ellipse id="Ellipse_309" data-name="Ellipse 309" cx="55.5" cy="7" rx="55.5" ry="7" transform="translate(339 5416.316)" opacity="0.14" fill="url(#radial-gradient)"/>
          <g id="Group_224" data-name="Group 224" transform="translate(67 -18)">
            <g id="Group_219" data-name="Group 219" transform="translate(56.433 5104.561)" opacity="0.259">
              <g id="Group_3" data-name="Group 3" transform="translate(178.669 179.875)">
                <circle id="Ellipse_1" data-name="Ellipse 1" cx="4" cy="4" r="4" transform="translate(-0.102 102.564)" fill="url(#radial-gradient-2)"/>
                <circle id="Ellipse_14" data-name="Ellipse 14" cx="4" cy="4" r="4" transform="translate(-0.102 85.564)" fill="url(#radial-gradient-2)"/>
                <ellipse id="Ellipse_21" data-name="Ellipse 21" cx="4" cy="4.5" rx="4" ry="4.5" transform="translate(-0.102 68.564)" fill="url(#radial-gradient-2)"/>
                <ellipse id="Ellipse_28" data-name="Ellipse 28" cx="4" cy="3.5" rx="4" ry="3.5" transform="translate(-0.102 51.564)" fill="url(#radial-gradient-2)"/>
                <circle id="Ellipse_35" data-name="Ellipse 35" cx="4" cy="4" r="4" transform="translate(-0.102 33.564)" fill="url(#radial-gradient-2)"/>
                <circle id="Ellipse_42" data-name="Ellipse 42" cx="4" cy="4" r="4" transform="translate(-0.102 16.564)" fill="url(#radial-gradient-2)"/>
                <circle id="Ellipse_49" data-name="Ellipse 49" cx="4" cy="4" r="4" transform="translate(-0.102 -0.436)" fill="url(#radial-gradient-2)"/>
                <circle id="Ellipse_2" data-name="Ellipse 2" cx="4" cy="4" r="4" transform="translate(16.898 102.564)" fill="url(#radial-gradient-2)"/>
                <circle id="Ellipse_13" data-name="Ellipse 13" cx="4" cy="4" r="4" transform="translate(16.898 85.564)" fill="url(#radial-gradient-2)"/>
                <ellipse id="Ellipse_20" data-name="Ellipse 20" cx="4" cy="4.5" rx="4" ry="4.5" transform="translate(16.898 68.564)" fill="url(#radial-gradient-2)"/>
                <ellipse id="Ellipse_27" data-name="Ellipse 27" cx="4" cy="3.5" rx="4" ry="3.5" transform="translate(16.898 51.564)" fill="url(#radial-gradient-2)"/>
                <circle id="Ellipse_34" data-name="Ellipse 34" cx="4" cy="4" r="4" transform="translate(16.898 33.564)" fill="url(#radial-gradient-2)"/>
                <circle id="Ellipse_41" data-name="Ellipse 41" cx="4" cy="4" r="4" transform="translate(16.898 16.564)" fill="url(#radial-gradient-2)"/>
                <circle id="Ellipse_48" data-name="Ellipse 48" cx="4" cy="4" r="4" transform="translate(16.898 -0.436)" fill="url(#radial-gradient-2)"/>
                <circle id="Ellipse_7" data-name="Ellipse 7" cx="4" cy="4" r="4" transform="translate(68.898 102.564)" fill="url(#radial-gradient-2)"/>
                <circle id="Ellipse_10" data-name="Ellipse 10" cx="4" cy="4" r="4" transform="translate(68.898 85.564)" fill="url(#radial-gradient-2)"/>
                <ellipse id="Ellipse_17" data-name="Ellipse 17" cx="4" cy="4.5" rx="4" ry="4.5" transform="translate(68.898 68.564)" fill="url(#radial-gradient-2)"/>
                <ellipse id="Ellipse_24" data-name="Ellipse 24" cx="4" cy="3.5" rx="4" ry="3.5" transform="translate(68.898 51.564)" fill="url(#radial-gradient-2)"/>
                <circle id="Ellipse_31" data-name="Ellipse 31" cx="4" cy="4" r="4" transform="translate(68.898 33.564)" fill="url(#radial-gradient-2)"/>
                <circle id="Ellipse_38" data-name="Ellipse 38" cx="4" cy="4" r="4" transform="translate(68.898 16.564)" fill="url(#radial-gradient-2)"/>
                <circle id="Ellipse_45" data-name="Ellipse 45" cx="4" cy="4" r="4" transform="translate(68.898 -0.436)" fill="url(#radial-gradient-2)"/>
                <circle id="Ellipse_3" data-name="Ellipse 3" cx="4" cy="4" r="4" transform="translate(33.898 102.564)" fill="url(#radial-gradient-2)"/>
                <circle id="Ellipse_12" data-name="Ellipse 12" cx="4" cy="4" r="4" transform="translate(33.898 85.564)" fill="url(#radial-gradient-2)"/>
                <ellipse id="Ellipse_19" data-name="Ellipse 19" cx="4" cy="4.5" rx="4" ry="4.5" transform="translate(33.898 68.564)" fill="url(#radial-gradient-2)"/>
                <ellipse id="Ellipse_26" data-name="Ellipse 26" cx="4" cy="3.5" rx="4" ry="3.5" transform="translate(33.898 51.564)" fill="url(#radial-gradient-2)"/>
                <circle id="Ellipse_33" data-name="Ellipse 33" cx="4" cy="4" r="4" transform="translate(33.898 33.564)" fill="url(#radial-gradient-2)"/>
                <circle id="Ellipse_40" data-name="Ellipse 40" cx="4" cy="4" r="4" transform="translate(33.898 16.564)" fill="url(#radial-gradient-2)"/>
                <circle id="Ellipse_47" data-name="Ellipse 47" cx="4" cy="4" r="4" transform="translate(33.898 -0.436)" fill="url(#radial-gradient-2)"/>
                <circle id="Ellipse_6" data-name="Ellipse 6" cx="4" cy="4" r="4" transform="translate(84.898 102.564)" fill="url(#radial-gradient-2)"/>
                <circle id="Ellipse_9" data-name="Ellipse 9" cx="4" cy="4" r="4" transform="translate(84.898 85.564)" fill="url(#radial-gradient-2)"/>
                <ellipse id="Ellipse_16" data-name="Ellipse 16" cx="4" cy="4.5" rx="4" ry="4.5" transform="translate(84.898 68.564)" fill="url(#radial-gradient-2)"/>
                <ellipse id="Ellipse_23" data-name="Ellipse 23" cx="4" cy="3.5" rx="4" ry="3.5" transform="translate(84.898 51.564)" fill="url(#radial-gradient-2)"/>
                <circle id="Ellipse_30" data-name="Ellipse 30" cx="4" cy="4" r="4" transform="translate(84.898 33.564)" fill="url(#radial-gradient-2)"/>
                <circle id="Ellipse_37" data-name="Ellipse 37" cx="4" cy="4" r="4" transform="translate(84.898 16.564)" fill="url(#radial-gradient-2)"/>
                <circle id="Ellipse_44" data-name="Ellipse 44" cx="4" cy="4" r="4" transform="translate(84.898 -0.436)" fill="url(#radial-gradient-2)"/>
                <circle id="Ellipse_4" data-name="Ellipse 4" cx="4" cy="4" r="4" transform="translate(50.898 102.564)" fill="url(#radial-gradient-2)"/>
                <circle id="Ellipse_11" data-name="Ellipse 11" cx="4" cy="4" r="4" transform="translate(50.898 85.564)" fill="url(#radial-gradient-2)"/>
                <ellipse id="Ellipse_18" data-name="Ellipse 18" cx="4" cy="4.5" rx="4" ry="4.5" transform="translate(50.898 68.564)" fill="url(#radial-gradient-2)"/>
                <ellipse id="Ellipse_25" data-name="Ellipse 25" cx="4" cy="3.5" rx="4" ry="3.5" transform="translate(50.898 51.564)" fill="url(#radial-gradient-2)"/>
                <circle id="Ellipse_32" data-name="Ellipse 32" cx="4" cy="4" r="4" transform="translate(50.898 33.564)" fill="url(#radial-gradient-2)"/>
                <circle id="Ellipse_39" data-name="Ellipse 39" cx="4" cy="4" r="4" transform="translate(50.898 16.564)" fill="url(#radial-gradient-2)"/>
                <circle id="Ellipse_46" data-name="Ellipse 46" cx="4" cy="4" r="4" transform="translate(50.898 -0.436)" fill="url(#radial-gradient-2)"/>
                <circle id="Ellipse_5" data-name="Ellipse 5" cx="4" cy="4" r="4" transform="translate(101.898 102.564)" fill="url(#radial-gradient-2)"/>
                <circle id="Ellipse_8" data-name="Ellipse 8" cx="4" cy="4" r="4" transform="translate(101.898 85.564)" fill="url(#radial-gradient-2)"/>
                <ellipse id="Ellipse_15" data-name="Ellipse 15" cx="4" cy="4.5" rx="4" ry="4.5" transform="translate(101.898 68.564)" fill="url(#radial-gradient-2)"/>
                <ellipse id="Ellipse_22" data-name="Ellipse 22" cx="4" cy="3.5" rx="4" ry="3.5" transform="translate(101.898 51.564)" fill="url(#radial-gradient-2)"/>
                <circle id="Ellipse_29" data-name="Ellipse 29" cx="4" cy="4" r="4" transform="translate(101.898 33.564)" fill="url(#radial-gradient-2)"/>
                <circle id="Ellipse_36" data-name="Ellipse 36" cx="4" cy="4" r="4" transform="translate(101.898 16.564)" fill="url(#radial-gradient-2)"/>
                <circle id="Ellipse_43" data-name="Ellipse 43" cx="4" cy="4" r="4" transform="translate(101.898 -0.436)" fill="url(#radial-gradient-2)"/>
              </g>
            </g>
          </g>
        </g>
      </g>
    </g>
    <g id="Group_244" data-name="Group 244" transform="translate(683 55)">
      <g id="Icon_feather-settings" data-name="Icon feather-settings" transform="translate(249.564 3230.842)">
        <path id="Path_864" data-name="Path 864" d="M21,30.5A9.5,9.5,0,1,1,30.5,21,9.511,9.511,0,0,1,21,30.5Zm0-15A5.5,5.5,0,1,0,26.5,21,5.506,5.506,0,0,0,21,15.5Z" transform="translate(8 8)" fill="url(#radial-gradient-51)"/>
        <path id="Path_865" data-name="Path 865" d="M29.2,58.5a7.008,7.008,0,0,1-7-7v-.2a2.113,2.113,0,0,0-1.39-1.925q-.059-.022-.117-.047a2.124,2.124,0,0,0-2.337.419l-.141.141a7,7,0,1,1-9.9-9.9l.14-.14a2.115,2.115,0,0,0,.419-2.337l-.009-.02A2.124,2.124,0,0,0,6.921,36.2H6.5a7,7,0,1,1,0-14h.2a2.113,2.113,0,0,0,1.925-1.39q.022-.059.047-.117a2.115,2.115,0,0,0-.419-2.337l-.141-.141a7,7,0,1,1,9.9-9.9l.14.14a2.124,2.124,0,0,0,2.337.418,2,2,0,0,1,.483-.144A2.124,2.124,0,0,0,22,6.921V6.5a7,7,0,1,1,14,0v.221a2.124,2.124,0,0,0,1.288,1.941l.02.009a2.124,2.124,0,0,0,2.337-.419l.141-.141a7,7,0,1,1,9.9,9.9l-.14.14a2.115,2.115,0,0,0-.419,2.337,2,2,0,0,1,.144.483A2.124,2.124,0,0,0,51.079,22H51.5a7,7,0,1,1,0,14h-.221a2.124,2.124,0,0,0-1.941,1.288l-.009.02a2.115,2.115,0,0,0,.418,2.337l.141.141a7,7,0,1,1-9.9,9.9l-.14-.14a2.124,2.124,0,0,0-2.338-.419l-.02.009A2.124,2.124,0,0,0,36.2,51.079V51.5A7.008,7.008,0,0,1,29.2,58.5ZM22.25,45.646a6.125,6.125,0,0,1,3.95,5.583q0,.023,0,.047V51.5a3,3,0,1,0,6,0v-.425s0-.005,0-.008A6.154,6.154,0,0,1,42.649,46.7l.016.016.15.15a3,3,0,1,0,4.247-4.246l-.151-.151-.016-.016A6.158,6.158,0,0,1,51.267,32H51.5a3,3,0,1,0,0-6h-.433a6.122,6.122,0,0,1-5.605-3.712,2,2,0,0,1-.151-.578A6.126,6.126,0,0,1,46.7,15.352l.015-.016.15-.15a3,3,0,1,0-4.246-4.247l-.151.151-.016.016A6.159,6.159,0,0,1,32,6.733s0-.005,0-.008V6.5a3,3,0,1,0-6,0v.425s0,.005,0,.008a6.122,6.122,0,0,1-3.712,5.605,2,2,0,0,1-.577.151A6.126,6.126,0,0,1,15.352,11.3l-.016-.015-.15-.15a3,3,0,1,0-4.247,4.246l.151.151.016.016a6.125,6.125,0,0,1,1.25,6.7A6.125,6.125,0,0,1,6.772,26.2H6.5a3,3,0,1,0,0,6h.433A6.152,6.152,0,0,1,11.3,42.649l-.016.016-.15.15a3,3,0,1,0,4.246,4.247l.151-.151.016-.016a6.124,6.124,0,0,1,6.7-1.25Z" transform="translate(0 0)" fill="url(#radial-gradient-51)"/>
      </g>
      <g id="Icon_feather-settings-2" data-name="Icon feather-settings" transform="translate(278.8 3203.756) rotate(-9)">
        <path id="Path_864-2" data-name="Path 864" d="M18.041,24.081a6.041,6.041,0,1,1,6.041-6.041A6.047,6.047,0,0,1,18.041,24.081Zm0-9.081a3.041,3.041,0,1,0,3.041,3.041A3.044,3.044,0,0,0,18.041,15Z" transform="translate(0.108 0.108)" fill="url(#radial-gradient-51)"/>
        <path id="Path_865-2" data-name="Path 865" d="M18.27,36.3a4.532,4.532,0,0,1-4.527-4.527v-.115a.992.992,0,0,0-.652-.9q-.044-.016-.088-.036a1,1,0,0,0-1.1.195L11.823,31a4.529,4.529,0,1,1-6.4-6.405l.083-.083a.993.993,0,0,0,.195-1.1L5.691,23.4a1,1,0,0,0-.911-.6H4.527a4.527,4.527,0,1,1,0-9.054h.115a.992.992,0,0,0,.9-.652q.016-.044.036-.088a.992.992,0,0,0-.195-1.1L5.3,11.823a4.529,4.529,0,1,1,6.405-6.4l.083.083a1,1,0,0,0,1.1.195,1.5,1.5,0,0,1,.3-.1,1,1,0,0,0,.439-.821V4.527a4.527,4.527,0,1,1,9.054,0v.132a1,1,0,0,0,.6.911l.015.006a1,1,0,0,0,1.1-.195l.084-.084a4.529,4.529,0,1,1,6.4,6.405l-.083.083a.992.992,0,0,0-.195,1.1,1.5,1.5,0,0,1,.1.3,1,1,0,0,0,.821.439h.253a4.527,4.527,0,0,1,0,9.054h-.132a1,1,0,0,0-.911.6l-.006.015a.992.992,0,0,0,.195,1.1l.084.084a4.529,4.529,0,1,1-6.405,6.4l-.083-.083a1,1,0,0,0-1.1-.195l-.015.006a1,1,0,0,0-.6.911v.253A4.532,4.532,0,0,1,18.27,36.3Zm-4.1-8.34A3.975,3.975,0,0,1,16.742,31.6q0,.018,0,.035v.136a1.527,1.527,0,0,0,3.054,0v-.257s0,0,0-.006a4.015,4.015,0,0,1,6.817-2.852l.012.012.091.091A1.529,1.529,0,1,0,28.879,26.6l-.091-.091-.012-.012a4.018,4.018,0,0,1,2.852-6.817h.142a1.527,1.527,0,0,0,0-3.054h-.263A4,4,0,0,1,27.849,14.2a1.5,1.5,0,0,1-.109-.4,3.976,3.976,0,0,1,.915-4.119l.012-.012.091-.091A1.529,1.529,0,1,0,26.6,7.418L26.5,7.51l-.012.012a4.018,4.018,0,0,1-6.817-2.852s0,0,0-.006V4.527a1.527,1.527,0,1,0-3.054,0v.257s0,0,0,.006A4,4,0,0,1,14.2,8.448a1.5,1.5,0,0,1-.4.109,4,4,0,0,1-4.119-.915l-.012-.012L9.581,7.54A1.529,1.529,0,1,0,7.418,9.7l.091.091.012.012A3.978,3.978,0,0,1,8.34,14.17,3.975,3.975,0,0,1,4.7,16.742H4.527a1.527,1.527,0,1,0,0,3.054H4.79a4.018,4.018,0,0,1,2.852,6.817l-.012.012-.091.091A1.529,1.529,0,1,0,9.7,28.879l.091-.091.012-.012a4,4,0,0,1,4.365-.818Z" transform="translate(0 0)" fill="url(#radial-gradient-51)"/>
      </g>
    </g>
  </g>
</svg>
