<svg xmlns="http://www.w3.org/2000/svg" width="477.289" height="88.3" viewBox="0 0 477.289 88.3">
  <g id="logo_surma_29lat" transform="translate(-0.011)">
    <path id="Path_415" data-name="Path 415" d="M477.3,88.3H400.8V0h76.5Zm-74.5-2h72.5V2H402.8V86.3Z" fill="#939598"/>
    <path id="Path_416" data-name="Path 416" d="M412.7,55.3V48.6l10.8-17c.8-1.3,1.6-2.5,2.3-3.6a20.168,20.168,0,0,0,1.8-3.6,9.857,9.857,0,0,0,.7-3.8,4.551,4.551,0,0,0-.8-3,2.512,2.512,0,0,0-2.1-1,2.814,2.814,0,0,0-2.3.9,3.84,3.84,0,0,0-1.1,2.3,16.55,16.55,0,0,0-.3,3.2v2.3h-9V22.9a20.068,20.068,0,0,1,1.3-7.3,10.76,10.76,0,0,1,4.1-5.1,13.3,13.3,0,0,1,7.3-1.9c4,0,7.1,1.1,9.2,3.2s3.1,5.1,3.1,9a15.376,15.376,0,0,1-.9,5.2,24.71,24.71,0,0,1-2.3,4.6c-.9,1.5-2,3.1-3,4.7l-8.2,12.6h13.2v7.5Z" fill="#939598"/>
    <path id="Path_417" data-name="Path 417" d="M453.5,56a14.332,14.332,0,0,1-6.8-1.4,8.243,8.243,0,0,1-3.6-4,18.136,18.136,0,0,1-1.1-6.5v-.7h8.7a11.28,11.28,0,0,0,.5,4.1,2.217,2.217,0,0,0,2.4,1.3,2.094,2.094,0,0,0,1.9-.8,5.656,5.656,0,0,0,.8-2.8c.1-1.4.2-3.2.2-5.5V35.6a4.326,4.326,0,0,1-2.2,1.8,9.765,9.765,0,0,1-3.3.7,8.3,8.3,0,0,1-5.7-1.8,9.975,9.975,0,0,1-3.1-5.1,23.38,23.38,0,0,1-.9-6.9,23.537,23.537,0,0,1,1.2-8.3,10.69,10.69,0,0,1,3.9-5.4,11.687,11.687,0,0,1,7.2-1.9,13.1,13.1,0,0,1,7.2,1.8,10.683,10.683,0,0,1,4,5.1,20.362,20.362,0,0,1,1.2,7.7V40.5a30.778,30.778,0,0,1-1,8,10.057,10.057,0,0,1-3.7,5.5C459.4,55.4,456.9,56,453.5,56Zm.2-25.1a2.792,2.792,0,0,0,1.8-.6,11.988,11.988,0,0,0,1.1-1.2V21.6a26.415,26.415,0,0,0-.2-2.9,5.838,5.838,0,0,0-.8-2.2,2.094,2.094,0,0,0-1.9-.8,2.138,2.138,0,0,0-1.8.9,4.957,4.957,0,0,0-.8,2.6c-.1,1.4-.2,2.9-.2,4.3,0,1.5,0,2.8.1,3.9a4.957,4.957,0,0,0,.8,2.6A1.9,1.9,0,0,0,453.7,30.9Z" fill="#939598"/>
    <path id="Path_418" data-name="Path 418" d="M426.9,79.4v2.2H416.6V63.2H419V79.4Z" fill="#939598"/>
    <path id="Path_419" data-name="Path 419" d="M442.1,63.2l7.2,18.4h-2.8l-1.8-4.7h-8.5l-1.9,4.7h-2.7L439,63.2Zm-5,11.3h6.7l-3.3-8.4Z" fill="#939598"/>
    <path id="Path_420" data-name="Path 420" d="M466.8,63.2v2.3h-5.9V81.6h-2.5V65.4h-5.6V63.2Z" fill="#939598"/>
    <g id="Layer-1" transform="translate(-50.937 -44.452)">
      <g id="Group_62" data-name="Group 62" transform="translate(65.98 97.001)">
        <path id="Path_421" data-name="Path 421" d="M-1.252,9.57,5.633-2.438,12.519,9.57Z" fill="#e42528"/>
      </g>
      <g id="Group_63" data-name="Group 63" transform="translate(81.013 97.001)">
        <path id="Path_422" data-name="Path 422" d="M-2.414,9.57,4.471-2.438l6.8,12.007Z" fill="#e42528"/>
      </g>
      <g id="Group_64" data-name="Group 64" transform="translate(96.045 97.001)">
        <path id="Path_423" data-name="Path 423" d="M-3.666,9.57,3.487-2.438l6.8,12.007Z" fill="#29a9e1"/>
      </g>
      <g id="Group_65" data-name="Group 65" transform="translate(81.013 123.56)">
        <path id="Path_424" data-name="Path 424" d="M-2.414,7.493,4.471-4.6l6.8,12.188H-2.414Z" fill="#e42528"/>
      </g>
      <g id="Group_66" data-name="Group 66" transform="translate(96.045 123.56)">
        <path id="Path_425" data-name="Path 425" d="M-3.666,7.493,3.487-4.6l6.8,12.188H-3.666Z" fill="#29a9e1"/>
      </g>
      <g id="Group_67" data-name="Group 67" transform="translate(111.328 123.56)">
        <path id="Path_426" data-name="Path 426" d="M-4.918,7.493,1.967-4.514,8.942,7.493Z" fill="#29a9e1"/>
      </g>
      <g id="Group_68" data-name="Group 68" transform="translate(118.844 110.153)">
        <path id="Path_427" data-name="Path 427" d="M-5.544,8.848,1.431-3.521,8.316,8.848Z" fill="#29a9e1"/>
      </g>
      <g id="Group_69" data-name="Group 69" transform="translate(126.36 97.001)">
        <path id="Path_428" data-name="Path 428" d="M-6.081,9.57.8-2.438,7.69,9.57Z" fill="#f29222"/>
      </g>
      <g id="Group_70" data-name="Group 70" transform="translate(133.877 83.847)">
        <path id="Path_429" data-name="Path 429" d="M-6.706,10.744.268-1.354l6.885,12.1Z" fill="#2b255d"/>
      </g>
      <g id="Group_71" data-name="Group 71" transform="translate(111.328 70.693)">
        <path id="Path_430" data-name="Path 430" d="M-4.918,11.737,1.967-.361,8.942,11.646H-4.918Z" fill="#e42528"/>
      </g>
      <g id="Group_72" data-name="Group 72" transform="translate(126.36 70.693)">
        <path id="Path_431" data-name="Path 431" d="M-6.081,11.737.8-.361,7.69,11.646H-6.081Z" fill="#e42528"/>
      </g>
      <g id="Group_73" data-name="Group 73" transform="translate(103.812 136.714)">
        <path id="Path_432" data-name="Path 432" d="M-4.292-17.785-11.446-5.778l-6.885-12.007Z" fill="#f29222"/>
      </g>
      <g id="Group_74" data-name="Group 74" transform="translate(88.529 110.153)">
        <path id="Path_433" data-name="Path 433" d="M-3.04-15.619-9.926-3.611l-6.885-12.007Z" fill="#29a9e1"/>
      </g>
      <g id="Group_75" data-name="Group 75" transform="translate(103.812 110.153)">
        <path id="Path_434" data-name="Path 434" d="M-4.292-15.619-11.446-3.611l-6.885-12.007Z" fill="#f29222"/>
      </g>
      <g id="Group_76" data-name="Group 76" transform="translate(118.844 110.153)">
        <path id="Path_435" data-name="Path 435" d="M-5.544-15.619-12.429-3.611l-6.885-12.007Z" fill="#2b255d"/>
      </g>
      <g id="Group_77" data-name="Group 77" transform="translate(88.529 136.714)">
        <path id="Path_436" data-name="Path 436" d="M-3.04-17.785-9.926-5.778l-6.885-12.007Z" fill="#2b255d"/>
      </g>
      <g id="Group_78" data-name="Group 78" transform="translate(118.844 136.714)">
        <path id="Path_437" data-name="Path 437" d="M-5.544-17.785-12.429-5.778l-6.885-12.007Z" fill="#f29222"/>
      </g>
      <g id="Group_79" data-name="Group 79" transform="translate(133.877 136.714)">
        <path id="Path_438" data-name="Path 438" d="M-6.706-17.785-13.592-5.778l-6.975-12.007Z" fill="#e42528"/>
      </g>
      <g id="Group_80" data-name="Group 80" transform="translate(141.393 123.56)">
        <path id="Path_439" data-name="Path 439" d="M-7.332-16.973-14.307-4.6l-6.885-12.369Z" fill="#e42528"/>
      </g>
      <g id="Group_81" data-name="Group 81" transform="translate(148.909 110.153)">
        <path id="Path_440" data-name="Path 440" d="M-7.958-15.619-14.844-3.611l-6.885-12.007Z" fill="#29a9e1"/>
      </g>
      <g id="Group_82" data-name="Group 82" transform="translate(141.393 97)">
        <path id="Path_441" data-name="Path 441" d="M-7.332-14.535l-6.975,12.1-6.885-12.007h13.86Z" fill="#f29222"/>
      </g>
      <g id="Group_83" data-name="Group 83" transform="translate(133.877 83.846)">
        <path id="Path_442" data-name="Path 442" d="M-6.706-13.452-13.592-1.445l-6.975-12.007Z" fill="#29a9e1"/>
      </g>
      <g id="Group_84" data-name="Group 84" transform="translate(118.844 83.846)">
        <path id="Path_443" data-name="Path 443" d="M-5.544-13.452-12.429-1.445l-6.885-12.007Z" fill="#f29222"/>
      </g>
      <g id="Group_85" data-name="Group 85" transform="translate(103.812 83.846)">
        <path id="Path_444" data-name="Path 444" d="M-4.292-13.452-11.446-1.445l-6.885-12.007Z" fill="#e42528"/>
      </g>
      <g id="Group_86" data-name="Group 86" transform="translate(118.844 57.539)">
        <path id="Path_445" data-name="Path 445" d="M-5.544-11.375-12.429.632l-6.885-12.007Z" fill="#29a9e1"/>
      </g>
      <g id="Group_87" data-name="Group 87" transform="translate(103.812 57.539)">
        <path id="Path_446" data-name="Path 446" d="M-4.292-11.375-11.446.632l-6.885-12.007Z" fill="#f29222"/>
      </g>
      <g id="Group_88" data-name="Group 88" transform="translate(88.529 57.539)">
        <path id="Path_447" data-name="Path 447" d="M-3.04-11.375-9.926.632l-6.885-12.007Z" fill="#2b255d"/>
      </g>
      <g id="Group_89" data-name="Group 89" transform="translate(81.013 70.693)">
        <path id="Path_448" data-name="Path 448" d="M-2.414-12.459-9.3-.451l-6.885-12.007Z" fill="#e42528"/>
      </g>
      <g id="Group_90" data-name="Group 90" transform="translate(73.496 83.846)">
        <path id="Path_449" data-name="Path 449" d="M-1.878-13.452-8.763-1.445l-6.8-12.007H-1.878Z" fill="#29a9e1"/>
      </g>
      <g id="Group_91" data-name="Group 91" transform="translate(65.98 97)">
        <path id="Path_450" data-name="Path 450" d="M-1.252-14.535l-6.885,12.1-6.885-12.007C-15.022-14.535-1.252-14.535-1.252-14.535Z" fill="#29a9e1"/>
      </g>
      <g id="Group_92" data-name="Group 92" transform="translate(73.496 110.153)">
        <path id="Path_451" data-name="Path 451" d="M-1.878-15.619-8.763-3.611l-6.8-12.007Z" fill="#29a9e1"/>
      </g>
      <g id="Group_93" data-name="Group 93" transform="translate(96.045 44.386)">
        <path id="Path_452" data-name="Path 452" d="M-3.666,13.813,3.487,1.806l6.885,12.007Z" fill="#e42528"/>
      </g>
      <g id="Group_94" data-name="Group 94" transform="translate(96.045 70.693)">
        <path id="Path_453" data-name="Path 453" d="M-3.666,11.737,3.487-.361l6.885,12.007H-3.666Z" fill="#29a9e1"/>
      </g>
      <g id="Group_95" data-name="Group 95" transform="translate(81.013 70.693)">
        <path id="Path_454" data-name="Path 454" d="M-2.414,11.737,4.471-.361l6.885,12.007H-2.414Z" fill="#f29222"/>
      </g>
      <g id="Group_96" data-name="Group 96" transform="translate(111.328 44.386)">
        <path id="Path_455" data-name="Path 455" d="M-4.918,13.813,1.967,1.806,8.942,13.813Z" fill="#f29222"/>
      </g>
      <g id="Group_97" data-name="Group 97" transform="translate(81.013 44.386)">
        <path id="Path_456" data-name="Path 456" d="M-2.414,13.813,4.471,1.806l6.885,12.007Z" fill="#29a9e1"/>
      </g>
      <g id="Group_98" data-name="Group 98" transform="translate(65.98 44.386)">
        <path id="Path_457" data-name="Path 457" d="M-1.252,13.813,5.633,1.806l6.885,12.007Z" fill="#29a9e1"/>
      </g>
      <g id="Group_99" data-name="Group 99" transform="translate(58.464 57.539)">
        <path id="Path_458" data-name="Path 458" d="M-.626,12.82,6.259.722,13.145,12.73C13.145,12.82-.626,12.82-.626,12.82Z" fill="#f29222"/>
      </g>
      <g id="Group_100" data-name="Group 100" transform="translate(50.948 70.693)">
        <path id="Path_459" data-name="Path 459" d="M0,11.737,6.885-.361l6.885,12.007H0Z" fill="#e42528"/>
      </g>
      <g id="Group_101" data-name="Group 101" transform="translate(58.464 83.847)">
        <path id="Path_460" data-name="Path 460" d="M-.626,10.744,6.259-1.445l6.885,12.007H-.626Z" fill="#f29222"/>
      </g>
      <g id="Group_102" data-name="Group 102" transform="translate(445.765 87.411)">
        <path id="Path_461" data-name="Path 461" d="M-31.923,12.188-36.394-.542l-4.739,12.73ZM-288.2,23.383l9.21-11.014A29.872,29.872,0,0,0-260.836,18.6c3.04,0,4.2-.9,4.2-2.257V16.07c0-1.445-1.431-2.257-7.064-3.431-11.446-2.257-21.818-5.6-21.818-16.7v-.271c0-9.931,7.779-17.515,21.818-17.515,10.1,0,17.347,2.528,23.16,7.4l-8.405,11.556a27.711,27.711,0,0,0-15.38-5.056c-2.5,0-3.666.9-3.666,2.257s1.431,2.257,6.706,3.431c13.145,2.528,22.176,6.229,22.176,16.883,0,11.014-8.942,17.515-22.712,17.515-10.462,0-19.672-2.8-26.379-8.757M-235.62,7.855V-20.675H-218V7.855c0,6.229,3.4,9.028,7.779,9.028,4.739,0,8.048-2.528,8.048-8.757v-28.89h17.347V7.584c0,17.786-10.1,24.557-25.484,24.557-15.2,0-25.306-6.952-25.306-24.286m81.193-3.882c3.934,0,6.438-1.625,6.438-4.785v-.271c0-3.431-2.5-5.056-6.438-5.056h-7.6V3.972Zm-24.59-24.557h24.948c9.21,0,15.112,2.257,18.778,5.959,3.04,3.07,4.739,7.132,4.739,12.459,0,7.674-3.934,12.73-10.373,15.8l12.072,17.786h-19.672l-9.747-14.987h-3.666V31.418h-17.079v-52Zm52.489,0h17.884L-97.735-2.257l10.909-18.327h17.884v52H-86.021V5.6L-97.735,23.925H-98L-109.718,5.6v25.73h-16.721l-.089-51.912Zm81.729-.271h17.169l21.55,52.273H-24.859l-2.5-7.132H-45.514l-2.5,7.132h-18.51Z" fill="#0f1011"/>
      </g>
      <g id="Group_103" data-name="Group 103" transform="translate(0.873 -79.465)">
        <rect id="Rectangle_73" data-name="Rectangle 73" width="85.395" height="1.445" transform="translate(159.792 130.728)" fill="#0f1011"/>
      </g>
      <g id="Group_104" data-name="Group 104" transform="translate(0.873 -79.465)">
        <rect id="Rectangle_74" data-name="Rectangle 74" width="85.395" height="1.445" transform="translate(354.548 130.728)" fill="#0f1011"/>
      </g>
      <g id="Group_105" data-name="Group 105" transform="translate(277.679 54.333)">
        <path id="Path_462" data-name="Path 462" d="M-18.331-5.868V-3.25h4.918v1.264h-4.918V.9h5.365V2.257h-6.706V-7.132h6.706v1.264Z" fill="#0f1011"/>
      </g>
      <g id="Group_106" data-name="Group 106" transform="translate(288.289 47.02)">
        <path id="Path_463" data-name="Path 463" d="M-19.136,8.216l.894-.993a3.893,3.893,0,0,0,2.951,1.264c1.252,0,1.878-.722,1.878-1.445,0-.9-.8-1.264-2.325-1.535-1.878-.542-3.04-.993-3.04-2.8C-18.778,1.174-17.437,0-15.559,0a4.49,4.49,0,0,1,3.4,1.354l-.8,1.083a4.005,4.005,0,0,0-2.593-1.174,1.552,1.552,0,0,0-1.7,1.445c0,.9.8,1.174,2.325,1.535,1.788.361,3.04,1.083,3.04,2.708,0,1.535-1.162,2.708-3.4,2.708a4.842,4.842,0,0,1-3.845-1.445" fill="#0f1011"/>
      </g>
      <g id="Group_107" data-name="Group 107" transform="translate(303.642 54.333)">
        <path id="Path_464" data-name="Path 464" d="M-20.388-5.868h-3.04V-7.132h7.422v1.264h-2.951V2.167H-20.3V-5.868Z" fill="#0f1011"/>
      </g>
      <g id="Group_108" data-name="Group 108" transform="translate(314.339 53.934) rotate(90)">
        <path id="Path_465" data-name="Path 465" d="M1.9,22.176a.9.9,0,0,1-.9-.894.849.849,0,0,1,.9-.894.894.894,0,1,1,0,1.788" fill="#0f1011"/>
      </g>
      <g id="Group_109" data-name="Group 109" transform="translate(330.105 53.95)">
        <path id="Path_466" data-name="Path 466" d="M-22.534-5.056l-1.61,1.083-.537-.993,2.414-1.625h1.073v9.3h-1.341V-5.056h0Z" fill="#0f1011"/>
      </g>
      <g id="Group_110" data-name="Group 110" transform="translate(342.946 52.195)">
        <path id="Path_467" data-name="Path 467" d="M-23.517-1.715c-.179-1.354-.894-2.257-2.146-2.257A2.014,2.014,0,0,0-27.72-1.986,1.823,1.823,0,0,0-25.663-.181a2.355,2.355,0,0,0,2.146-1.535m1.431,1.264c0,2.8-1.61,4.965-3.934,4.965A3.358,3.358,0,0,1-28.7,3.431l.715-1.083a3.116,3.116,0,0,0,2.057.9c1.431,0,2.5-1.535,2.5-3.611A3.428,3.428,0,0,1-26.021.9a2.878,2.878,0,0,1-3.04-2.889,3.126,3.126,0,0,1,3.4-3.07c2.5-.09,3.577,1.986,3.577,4.6" fill="#0f1011"/>
      </g>
      <g id="Group_111" data-name="Group 111" transform="translate(355.57 52.195)">
        <path id="Path_468" data-name="Path 468" d="M-24.59-1.715c-.179-1.354-.894-2.257-2.146-2.257a2.014,2.014,0,0,0-2.057,1.986A1.823,1.823,0,0,0-26.736-.181,2.178,2.178,0,0,0-24.59-1.715m1.52,1.264c0,2.8-1.61,4.965-3.934,4.965a3.358,3.358,0,0,1-2.683-1.083l.715-1.083a3.116,3.116,0,0,0,2.057.9c1.431,0,2.5-1.535,2.5-3.611A3.293,3.293,0,0,1-27,.9a2.878,2.878,0,0,1-3.04-2.889,3.126,3.126,0,0,1,3.4-3.07c2.414-.09,3.577,1.986,3.577,4.6" fill="#0f1011"/>
      </g>
      <g id="Group_112" data-name="Group 112" transform="translate(362.222 46.636)">
        <path id="Path_469" data-name="Path 469" d="M-25.127,8.848l3.4-2.8c1.252-1.083,1.7-1.806,1.7-2.708a1.684,1.684,0,0,0-1.7-1.625A3.193,3.193,0,0,0-24.143,3.07l-.894-.813a3.96,3.96,0,0,1,3.4-1.806,2.865,2.865,0,0,1,3.04,2.8c0,1.264-.537,2.257-2.235,3.521l-2.146,1.806h4.471V9.841h-6.528V8.848Z" fill="#0f1011"/>
      </g>
      <g id="Group_113" data-name="Group 113" transform="translate(471.729 76.352)">
        <path id="Path_470" data-name="Path 470" d="M-33.979-5.868v2.076h1.341a2.35,2.35,0,0,0,1.252-.271.883.883,0,0,0,.358-.813c0-.361-.089-.722-.358-.813a2.649,2.649,0,0,0-1.341-.181Zm0,5.959h-1.162V-6.861h2.414a7.164,7.164,0,0,1,1.788.181,1.423,1.423,0,0,1,.894.722,2.073,2.073,0,0,1,.268.993,1.847,1.847,0,0,1-.537,1.354,2.02,2.02,0,0,1-1.431.542,3.1,3.1,0,0,1,.8.542,12.36,12.36,0,0,0,.894,1.264L-29.151.09h-1.341L-31.207-.9A6.828,6.828,0,0,0-32.28-2.438a1.422,1.422,0,0,0-.984-.361h-.715Zm1.52-8.938a4.9,4.9,0,0,0-3.756,1.535,5.133,5.133,0,0,0-1.52,3.792A5,5,0,0,0-36.215.271a5.033,5.033,0,0,0,3.756,1.535A4.9,4.9,0,0,0-28.7.271a5.133,5.133,0,0,0,1.52-3.792,4.991,4.991,0,0,0-1.52-3.7,5.5,5.5,0,0,0-3.756-1.625m0-.993a5.8,5.8,0,0,1,3.219.9,6.7,6.7,0,0,1,2.414,2.347,6.807,6.807,0,0,1,.894,3.25,5.937,5.937,0,0,1-.894,3.25,6.469,6.469,0,0,1-2.325,2.347,6.989,6.989,0,0,1-3.309.9,6.308,6.308,0,0,1-3.309-.9A5.846,5.846,0,0,1-38.093-.09a7.161,7.161,0,0,1-.894-3.34,6.463,6.463,0,0,1,.894-3.34,6.085,6.085,0,0,1,2.414-2.347,7.652,7.652,0,0,1,3.219-.722" fill="#0f1011"/>
      </g>
    </g>
  </g>
</svg>
