<svg xmlns="http://www.w3.org/2000/svg" xmlns:xlink="http://www.w3.org/1999/xlink" width="148" height="164.316" viewBox="0 0 148 164.316">
  <defs>
    <radialGradient id="radial-gradient" cx="0.5" cy="0.5" r="0.478" gradientTransform="translate(0 -0.081) scale(1 1.161)" gradientUnits="objectBoundingBox">
      <stop offset="0" stop-color="#bfc1c6"/>
      <stop offset="1" stop-color="#e7ebf5"/>
    </radialGradient>
    <radialGradient id="radial-gradient-2" cx="0.085" cy="0.287" r="0.797" gradientTransform="translate(0 -0.027) scale(1 1.161)" gradientUnits="objectBoundingBox">
      <stop offset="0" stop-color="#ecedf1"/>
      <stop offset="1" stop-color="#d0d3db"/>
    </radialGradient>
    <linearGradient id="linear-gradient" x1="0.403" y1="0.545" x2="0.174" y2="0.267" gradientUnits="objectBoundingBox">
      <stop offset="0" stop-color="#ef7c1b"/>
      <stop offset="1" stop-color="#fefefe"/>
    </linearGradient>
  </defs>
  <g id="Group_263" data-name="Group 263" transform="translate(-328 -2660)">
    <g id="Group_254" data-name="Group 254">
      <g id="Group_234" data-name="Group 234" transform="translate(149 -2797)">
        <g id="Group_226" data-name="Group 226" transform="translate(-123 191)">
          <ellipse id="Ellipse_309" data-name="Ellipse 309" cx="55.5" cy="7" rx="55.5" ry="7" transform="translate(339 5416.316)" opacity="0.14" fill="url(#radial-gradient)"/>
          <g id="Group_224" data-name="Group 224" transform="translate(67 -18)">
            <g id="Group_219" data-name="Group 219" transform="translate(56.433 5104.561)" opacity="0.259">
              <g id="Group_3" data-name="Group 3" transform="translate(178.669 179.875)">
                <circle id="Ellipse_1" data-name="Ellipse 1" cx="4" cy="4" r="4" transform="translate(-0.102 102.564)" fill="url(#radial-gradient-2)"/>
                <circle id="Ellipse_14" data-name="Ellipse 14" cx="4" cy="4" r="4" transform="translate(-0.102 85.564)" fill="url(#radial-gradient-2)"/>
                <ellipse id="Ellipse_21" data-name="Ellipse 21" cx="4" cy="4.5" rx="4" ry="4.5" transform="translate(-0.102 68.564)" fill="url(#radial-gradient-2)"/>
                <ellipse id="Ellipse_28" data-name="Ellipse 28" cx="4" cy="3.5" rx="4" ry="3.5" transform="translate(-0.102 51.564)" fill="url(#radial-gradient-2)"/>
                <circle id="Ellipse_35" data-name="Ellipse 35" cx="4" cy="4" r="4" transform="translate(-0.102 33.564)" fill="url(#radial-gradient-2)"/>
                <circle id="Ellipse_42" data-name="Ellipse 42" cx="4" cy="4" r="4" transform="translate(-0.102 16.564)" fill="url(#radial-gradient-2)"/>
                <circle id="Ellipse_49" data-name="Ellipse 49" cx="4" cy="4" r="4" transform="translate(-0.102 -0.436)" fill="url(#radial-gradient-2)"/>
                <circle id="Ellipse_2" data-name="Ellipse 2" cx="4" cy="4" r="4" transform="translate(16.898 102.564)" fill="url(#radial-gradient-2)"/>
                <circle id="Ellipse_13" data-name="Ellipse 13" cx="4" cy="4" r="4" transform="translate(16.898 85.564)" fill="url(#radial-gradient-2)"/>
                <ellipse id="Ellipse_20" data-name="Ellipse 20" cx="4" cy="4.5" rx="4" ry="4.5" transform="translate(16.898 68.564)" fill="url(#radial-gradient-2)"/>
                <ellipse id="Ellipse_27" data-name="Ellipse 27" cx="4" cy="3.5" rx="4" ry="3.5" transform="translate(16.898 51.564)" fill="url(#radial-gradient-2)"/>
                <circle id="Ellipse_34" data-name="Ellipse 34" cx="4" cy="4" r="4" transform="translate(16.898 33.564)" fill="url(#radial-gradient-2)"/>
                <circle id="Ellipse_41" data-name="Ellipse 41" cx="4" cy="4" r="4" transform="translate(16.898 16.564)" fill="url(#radial-gradient-2)"/>
                <circle id="Ellipse_48" data-name="Ellipse 48" cx="4" cy="4" r="4" transform="translate(16.898 -0.436)" fill="url(#radial-gradient-2)"/>
                <circle id="Ellipse_7" data-name="Ellipse 7" cx="4" cy="4" r="4" transform="translate(68.898 102.564)" fill="url(#radial-gradient-2)"/>
                <circle id="Ellipse_10" data-name="Ellipse 10" cx="4" cy="4" r="4" transform="translate(68.898 85.564)" fill="url(#radial-gradient-2)"/>
                <ellipse id="Ellipse_17" data-name="Ellipse 17" cx="4" cy="4.5" rx="4" ry="4.5" transform="translate(68.898 68.564)" fill="url(#radial-gradient-2)"/>
                <ellipse id="Ellipse_24" data-name="Ellipse 24" cx="4" cy="3.5" rx="4" ry="3.5" transform="translate(68.898 51.564)" fill="url(#radial-gradient-2)"/>
                <circle id="Ellipse_31" data-name="Ellipse 31" cx="4" cy="4" r="4" transform="translate(68.898 33.564)" fill="url(#radial-gradient-2)"/>
                <circle id="Ellipse_38" data-name="Ellipse 38" cx="4" cy="4" r="4" transform="translate(68.898 16.564)" fill="url(#radial-gradient-2)"/>
                <circle id="Ellipse_45" data-name="Ellipse 45" cx="4" cy="4" r="4" transform="translate(68.898 -0.436)" fill="url(#radial-gradient-2)"/>
                <circle id="Ellipse_3" data-name="Ellipse 3" cx="4" cy="4" r="4" transform="translate(33.898 102.564)" fill="url(#radial-gradient-2)"/>
                <circle id="Ellipse_12" data-name="Ellipse 12" cx="4" cy="4" r="4" transform="translate(33.898 85.564)" fill="url(#radial-gradient-2)"/>
                <ellipse id="Ellipse_19" data-name="Ellipse 19" cx="4" cy="4.5" rx="4" ry="4.5" transform="translate(33.898 68.564)" fill="url(#radial-gradient-2)"/>
                <ellipse id="Ellipse_26" data-name="Ellipse 26" cx="4" cy="3.5" rx="4" ry="3.5" transform="translate(33.898 51.564)" fill="url(#radial-gradient-2)"/>
                <circle id="Ellipse_33" data-name="Ellipse 33" cx="4" cy="4" r="4" transform="translate(33.898 33.564)" fill="url(#radial-gradient-2)"/>
                <circle id="Ellipse_40" data-name="Ellipse 40" cx="4" cy="4" r="4" transform="translate(33.898 16.564)" fill="url(#radial-gradient-2)"/>
                <circle id="Ellipse_47" data-name="Ellipse 47" cx="4" cy="4" r="4" transform="translate(33.898 -0.436)" fill="url(#radial-gradient-2)"/>
                <circle id="Ellipse_6" data-name="Ellipse 6" cx="4" cy="4" r="4" transform="translate(84.898 102.564)" fill="url(#radial-gradient-2)"/>
                <circle id="Ellipse_9" data-name="Ellipse 9" cx="4" cy="4" r="4" transform="translate(84.898 85.564)" fill="url(#radial-gradient-2)"/>
                <ellipse id="Ellipse_16" data-name="Ellipse 16" cx="4" cy="4.5" rx="4" ry="4.5" transform="translate(84.898 68.564)" fill="url(#radial-gradient-2)"/>
                <ellipse id="Ellipse_23" data-name="Ellipse 23" cx="4" cy="3.5" rx="4" ry="3.5" transform="translate(84.898 51.564)" fill="url(#radial-gradient-2)"/>
                <circle id="Ellipse_30" data-name="Ellipse 30" cx="4" cy="4" r="4" transform="translate(84.898 33.564)" fill="url(#radial-gradient-2)"/>
                <circle id="Ellipse_37" data-name="Ellipse 37" cx="4" cy="4" r="4" transform="translate(84.898 16.564)" fill="url(#radial-gradient-2)"/>
                <circle id="Ellipse_44" data-name="Ellipse 44" cx="4" cy="4" r="4" transform="translate(84.898 -0.436)" fill="url(#radial-gradient-2)"/>
                <circle id="Ellipse_4" data-name="Ellipse 4" cx="4" cy="4" r="4" transform="translate(50.898 102.564)" fill="url(#radial-gradient-2)"/>
                <circle id="Ellipse_11" data-name="Ellipse 11" cx="4" cy="4" r="4" transform="translate(50.898 85.564)" fill="url(#radial-gradient-2)"/>
                <ellipse id="Ellipse_18" data-name="Ellipse 18" cx="4" cy="4.5" rx="4" ry="4.5" transform="translate(50.898 68.564)" fill="url(#radial-gradient-2)"/>
                <ellipse id="Ellipse_25" data-name="Ellipse 25" cx="4" cy="3.5" rx="4" ry="3.5" transform="translate(50.898 51.564)" fill="url(#radial-gradient-2)"/>
                <circle id="Ellipse_32" data-name="Ellipse 32" cx="4" cy="4" r="4" transform="translate(50.898 33.564)" fill="url(#radial-gradient-2)"/>
                <circle id="Ellipse_39" data-name="Ellipse 39" cx="4" cy="4" r="4" transform="translate(50.898 16.564)" fill="url(#radial-gradient-2)"/>
                <circle id="Ellipse_46" data-name="Ellipse 46" cx="4" cy="4" r="4" transform="translate(50.898 -0.436)" fill="url(#radial-gradient-2)"/>
                <circle id="Ellipse_5" data-name="Ellipse 5" cx="4" cy="4" r="4" transform="translate(101.898 102.564)" fill="url(#radial-gradient-2)"/>
                <circle id="Ellipse_8" data-name="Ellipse 8" cx="4" cy="4" r="4" transform="translate(101.898 85.564)" fill="url(#radial-gradient-2)"/>
                <ellipse id="Ellipse_15" data-name="Ellipse 15" cx="4" cy="4.5" rx="4" ry="4.5" transform="translate(101.898 68.564)" fill="url(#radial-gradient-2)"/>
                <ellipse id="Ellipse_22" data-name="Ellipse 22" cx="4" cy="3.5" rx="4" ry="3.5" transform="translate(101.898 51.564)" fill="url(#radial-gradient-2)"/>
                <circle id="Ellipse_29" data-name="Ellipse 29" cx="4" cy="4" r="4" transform="translate(101.898 33.564)" fill="url(#radial-gradient-2)"/>
                <circle id="Ellipse_36" data-name="Ellipse 36" cx="4" cy="4" r="4" transform="translate(101.898 16.564)" fill="url(#radial-gradient-2)"/>
                <circle id="Ellipse_43" data-name="Ellipse 43" cx="4" cy="4" r="4" transform="translate(101.898 -0.436)" fill="url(#radial-gradient-2)"/>
              </g>
            </g>
          </g>
        </g>
      </g>
    </g>
    <g id="Layer_x0020_1" transform="translate(378.984 2719)">
      <path id="Path_471" data-name="Path 471" d="M2783.351,4296.814h-1.718v9.227a1.58,1.58,0,0,0,.245,1.031,1.33,1.33,0,0,0,.982.27h.466v2.135h-.638a6.633,6.633,0,0,1-1.693-.184,2.607,2.607,0,0,1-1.1-.564,2.055,2.055,0,0,1-.589-.97,5.006,5.006,0,0,1-.172-1.4v-9.546h-.908v-2.037h.908v-4.466h2.5v4.466h1.718Zm8.466,9.792a7.324,7.324,0,0,1-.147,1.644,1.755,1.755,0,0,1-.528.945,2.029,2.029,0,0,1-1.067.429,15.877,15.877,0,0,1-3.534,0,2.1,2.1,0,0,1-1.08-.429,1.658,1.658,0,0,1-.528-.945,7.959,7.959,0,0,1-.135-1.644v-8.958a7.963,7.963,0,0,1,.135-1.645,1.654,1.654,0,0,1,.528-.944,2.1,2.1,0,0,1,1.08-.43,15.877,15.877,0,0,1,3.534,0,2.024,2.024,0,0,1,1.067.43,1.75,1.75,0,0,1,.528.944,7.327,7.327,0,0,1,.147,1.645Zm-2.429-8.688a1.233,1.233,0,0,0-.2-.834,1.335,1.335,0,0,0-.883-.2,1.278,1.278,0,0,0-.884.208,1.239,1.239,0,0,0-.2.822v8.442a1.287,1.287,0,0,0,.2.847,1.274,1.274,0,0,0,.884.209q.711,0,.9-.233a1.366,1.366,0,0,0,.184-.822v-8.442Zm6.921,11.559h-2.5v-14.7h2.331v.982a2.04,2.04,0,0,1,.822-.8,3.006,3.006,0,0,1,1.46-.307,2.148,2.148,0,0,1,1.779.638,3.985,3.985,0,0,1,.5,2.356v3.656h-2.258v-3.362a1.243,1.243,0,0,0-.2-.81,1.134,1.134,0,0,0-.834-.221,1.073,1.073,0,0,0-1.1.81Zm12.811-2.871a8.967,8.967,0,0,1-.1,1.46,2.02,2.02,0,0,1-.368.92,1.4,1.4,0,0,1-.736.479,4.417,4.417,0,0,1-1.2.135,3.2,3.2,0,0,1-1.423-.27,1.934,1.934,0,0,1-.859-.908v1.056H2802.1V4290.09h2.5v5.6a1.876,1.876,0,0,1,.773-.762,2.9,2.9,0,0,1,1.362-.27,3.675,3.675,0,0,1,1.178.16,1.511,1.511,0,0,1,.736.515,2.1,2.1,0,0,1,.368.92,8.373,8.373,0,0,1,.1,1.4Zm-4.589,0a1.12,1.12,0,0,0,1.1.76,1.1,1.1,0,0,0,.846-.246,1.606,1.606,0,0,0,.209-.981v-8a1.61,1.61,0,0,0-.209-.982,1.1,1.1,0,0,0-.846-.245,1.12,1.12,0,0,0-1.1.761v8.933Zm9.473,3.116a9.754,9.754,0,0,1-1.534-.1,1.891,1.891,0,0,1-.945-.392,1.576,1.576,0,0,1-.478-.859,6.66,6.66,0,0,1-.135-1.5v-3.559a3.04,3.04,0,0,1,.5-1.938,2.125,2.125,0,0,1,1.73-.613h.466a7.7,7.7,0,0,1,1.178.061,1.685,1.685,0,0,1,.515.16v-3.043a1.722,1.722,0,0,0-.208-1.043,1.226,1.226,0,0,0-.9-.232q-.663,0-.835.27a2.042,2.042,0,0,0-.172,1.006v1.448h-2.282v-1.742a7.961,7.961,0,0,1,.135-1.645,1.725,1.725,0,0,1,.5-.944,1.9,1.9,0,0,1,1.006-.43,11.18,11.18,0,0,1,1.644-.1,13.145,13.145,0,0,1,1.791.1,2.026,2.026,0,0,1,1.068.43,1.753,1.753,0,0,1,.528.944,7.358,7.358,0,0,1,.147,1.645v11.829a7.347,7.347,0,0,1-1.35.184q-.908.062-2.381.062Zm.2-2.062q.539,0,.785-.012a1.6,1.6,0,0,0,.319-.037V4302.8a1.044,1.044,0,0,0-.417-.122q-.245-.025-.663-.025c-.474,0-.765.089-.871.27a2.258,2.258,0,0,0-.159,1.031v2.307q0,.417.025.687a.986.986,0,0,0,.123.43.512.512,0,0,0,.307.221A2.013,2.013,0,0,0,2814.2,4307.661Zm-41.892,10.8v-2.4a7.63,7.63,0,0,0-.037-.835.972.972,0,0,0-.159-.479.643.643,0,0,0-.368-.22,3.4,3.4,0,0,0-1.289,0,.635.635,0,0,0-.356.22.965.965,0,0,0-.159.479,7.5,7.5,0,0,0-.037.835v1.914a3.182,3.182,0,0,0,.049.614,1,1,0,0,0,.208.442,1.948,1.948,0,0,0,.466.393,9.4,9.4,0,0,0,.847.466q1.276.663,2.012,1.129a4.237,4.237,0,0,1,1.1.945,2.364,2.364,0,0,1,.466,1.079,10,10,0,0,1,.1,1.559v3.117a11.652,11.652,0,0,1-.16,2.159,2.3,2.3,0,0,1-.6,1.239,2.268,2.268,0,0,1-1.239.564,12.7,12.7,0,0,1-2.049.135,11.443,11.443,0,0,1-1.939-.135,2.231,2.231,0,0,1-1.2-.564,2.364,2.364,0,0,1-.614-1.239,10.832,10.832,0,0,1-.172-2.159v-3.854h2.749v3.854a7.266,7.266,0,0,0,.037.822,1.025,1.025,0,0,0,.16.479.611.611,0,0,0,.356.233,2.572,2.572,0,0,0,.626.061q.786,0,.994-.294a2.589,2.589,0,0,0,.208-1.3v-2.921a7.332,7.332,0,0,0-.037-.81,1.289,1.289,0,0,0-.2-.564,1.6,1.6,0,0,0-.479-.454c-.213-.139-.5-.307-.859-.5q-1.277-.664-2-1.129a4.291,4.291,0,0,1-1.092-.945,2.355,2.355,0,0,1-.466-1.055,8.6,8.6,0,0,1-.1-1.411v-1.865a11.638,11.638,0,0,1,.159-2.16,2.365,2.365,0,0,1,.6-1.251,2.21,2.21,0,0,1,1.227-.577,12.472,12.472,0,0,1,2.037-.135,12.049,12.049,0,0,1,2,.135,2.133,2.133,0,0,1,1.2.577,2.419,2.419,0,0,1,.589,1.251,11.614,11.614,0,0,1,.16,2.16v2.4h-2.749Zm15.706-6.283v19.388h-2.307V4317.87h-.1l-1.791,13.694h-2.528l-1.792-13.792h-.1v13.792h-2.331v-19.388h3.951l1.472,13.031h.1l1.5-13.031Zm7.166,19.388v-4.319h-2.38v4.319h-2.749v-15.559a11.43,11.43,0,0,1,.159-2.147,2.286,2.286,0,0,1,.6-1.227,2.246,2.246,0,0,1,1.215-.564,11.867,11.867,0,0,1,1.976-.135,10.932,10.932,0,0,1,1.975.146,2.338,2.338,0,0,1,1.227.59,2.372,2.372,0,0,1,.626,1.239,10.323,10.323,0,0,1,.172,2.1v15.559Zm-1.2-17.1a2.4,2.4,0,0,0-.6.062.7.7,0,0,0-.368.22.872.872,0,0,0-.171.466,6.935,6.935,0,0,0-.037.8v8.933h2.38v-8.933a5.21,5.21,0,0,0-.049-.8,1.034,1.034,0,0,0-.172-.466.641.641,0,0,0-.368-.22A2.548,2.548,0,0,0,2793.977,4314.459Zm14.381-2.283-2.9,8.05,3.289,11.338h-3.068l-2.675-10.185h-.123v10.185h-2.847V4312.2h2.847v7.313h.123l2.38-7.338Zm5.424,19.633a12.045,12.045,0,0,1-2-.135,2.246,2.246,0,0,1-1.215-.564,2.366,2.366,0,0,1-.614-1.239,10.851,10.851,0,0,1-.172-2.159v-15.535h2.822v15.535a5.415,5.415,0,0,0,.049.822.946.946,0,0,0,.184.466.7.7,0,0,0,.368.221,2.547,2.547,0,0,0,.626.061,2.424,2.424,0,0,0,.6-.061.64.64,0,0,0,.356-.221,1.037,1.037,0,0,0,.172-.466,5.447,5.447,0,0,0,.049-.822v-15.535h2.749v15.535a10.832,10.832,0,0,1-.172,2.159,2.364,2.364,0,0,1-.614,1.239,2.245,2.245,0,0,1-1.215.564A11.858,11.858,0,0,1,2813.782,4331.81Z" transform="translate(-2749.695 -4263.162)" fill="#0a0a0a"/>
      <path id="Path_472" data-name="Path 472" d="M1483.3,14.114h9.624V10.887A10.92,10.92,0,0,1,1503.813,0h13.278a10.928,10.928,0,0,1,10.123,6.892c.047.117.1.158.016.188-.529.183-1.632.681-1.982.756-.1.021-.116-.115-.167-.229a8.671,8.671,0,0,0-7.99-5.36h-13.278a8.666,8.666,0,0,0-8.641,8.641v1.17c-.028.036-.018.322-.045.358-.9,1.195-1.691,2.377-2.583,3.708-.037.056-.226-.015-.264.042H1483.3v9.517q-1.059.609-2.051,1.234V16.165a2.056,2.056,0,0,1,2.051-2.051Zm56.545,4.544V30.2a3.721,3.721,0,0,0-2.051-.749V18.09c.036.009-.019-.121.017-.112.586.151,1.387.3,2.005.5.052.017.03.1.029.184Zm-11.868-1.668v1.272a1.123,1.123,0,0,1-2.246,0V17.184c0-.126-.045-.213.057-.224.577-.064,1.558-.13,2.167-.16.033,0,.019.133.023.192Zm-44.677,25.1V70.66h56.649v2.051H1483.3a2.06,2.06,0,0,1-2.051-2.051V43.581a3.382,3.382,0,0,0,1.317-.741l.734-.752Z" transform="translate(-1471.937)" fill="#0a0a0a" fill-rule="evenodd"/>
      <path id="Path_473" data-name="Path 473" d="M12897.93,1264.589l-.01-.029A.028.028,0,0,1,12897.93,1264.589Z" transform="translate(-12816.945 -1256.623)" fill="#3c5a33" fill-rule="evenodd"/>
      <path id="Path_474" data-name="Path 474" d="M12873.988,1263.589l-.059-.173a.816.816,0,0,1,.137,0C12874.117,1263.421,12874.09,1263.484,12873.988,1263.589Z" transform="translate(-12793.105 -1255.48)" fill="#3c5a33" fill-rule="evenodd"/>
      <path id="Path_475" data-name="Path 475" d="M12850.821,1263.855l-.091-.268c.1-.01.17-.015.219-.017l.04.117A1.465,1.465,0,0,1,12850.821,1263.855Z" transform="translate(-12770.052 -1255.639)" fill="#3c5a33" fill-rule="evenodd"/>
      <path id="Path_476" data-name="Path 476" d="M12827.8,1265.583l-.117-.351.217-.022.075.223c-.048.045-.105.095-.175.15Z" transform="translate(-12747.146 -1257.269)" fill="#3c5933" fill-rule="evenodd"/>
      <path id="Path_477" data-name="Path 477" d="M12804.813,1267.951l-.144-.427.217-.024.1.31C12804.939,1267.854,12804.88,1267.9,12804.813,1267.951Z" transform="translate(-12724.28 -1259.544)" fill="#3c5933" fill-rule="evenodd"/>
      <path id="Path_478" data-name="Path 478" d="M12781.868,1270.544l-.168-.5.217-.025.131.389C12781.993,1270.452,12781.934,1270.5,12781.868,1270.544Z" transform="translate(-12701.455 -1262.048)" fill="#3c5933" fill-rule="evenodd"/>
      <path id="Path_479" data-name="Path 479" d="M12758.932,1273.273l-.191-.567.216-.026.156.464C12759.057,1273.185,12759,1273.228,12758.932,1273.273Z" transform="translate(-12678.64 -1264.692)" fill="#3b5732" fill-rule="evenodd"/>
      <path id="Path_480" data-name="Path 480" d="M12736.033,1276.07l-.215-.633.217-.026.18.534q-.085.06-.182.126Z" transform="translate(-12655.861 -1267.405)" fill="#3b5732" fill-rule="evenodd"/>
      <path id="Path_481" data-name="Path 481" d="M12713.135,1278.953l-.234-.7.216-.027.2.6C12713.261,1278.87,12713.2,1278.911,12713.135,1278.953Z" transform="translate(-12633.087 -1270.207)" fill="#3a5732" fill-rule="evenodd"/>
      <path id="Path_482" data-name="Path 482" d="M12690.236,1281.865l-.256-.757.217-.027.223.665Z" transform="translate(-12610.312 -1273.039)" fill="#3a5732" fill-rule="evenodd"/>
      <path id="Path_483" data-name="Path 483" d="M12667.355,1284.824l-.275-.816.217-.028.244.727c-.059.038-.121.077-.186.117Z" transform="translate(-12587.555 -1275.921)" fill="#3a5732" fill-rule="evenodd"/>
      <path id="Path_484" data-name="Path 484" d="M12644.494,1287.811l-.295-.874.217-.028.266.787-.187.115Z" transform="translate(-12564.817 -1278.832)" fill="#395632" fill-rule="evenodd"/>
      <path id="Path_485" data-name="Path 485" d="M12621.644,1290.8l-.313-.93.215-.028.286.845Z" transform="translate(-12542.092 -1281.744)" fill="#395632" fill-rule="evenodd"/>
      <path id="Path_486" data-name="Path 486" d="M12598.761,1293.822l-.331-.984.216-.028.3.9C12598.889,1293.748,12598.826,1293.785,12598.761,1293.822Z" transform="translate(-12519.335 -1284.695)" fill="#3a5532" fill-rule="evenodd"/>
      <path id="Path_487" data-name="Path 487" d="M12575.91,1296.835l-.35-1.037.215-.028.322.957Z" transform="translate(-12496.609 -1287.637)" fill="#395431" fill-rule="evenodd"/>
      <path id="Path_488" data-name="Path 488" d="M12553.057,1299.887l-.368-1.089.217-.028.341,1.011Z" transform="translate(-12473.881 -1290.618)" fill="#395431" fill-rule="evenodd"/>
      <path id="Path_489" data-name="Path 489" d="M12530.193,1302.938l-.385-1.14.217-.028.357,1.063Z" transform="translate(-12451.145 -1293.599)" fill="#395431" fill-rule="evenodd"/>
      <path id="Path_490" data-name="Path 490" d="M12507.351,1306l-.4-1.189.215-.028.376,1.114Z" transform="translate(-12428.43 -1296.59)" fill="#395431" fill-rule="evenodd"/>
      <path id="Path_491" data-name="Path 491" d="M12484.487,1309.066l-.417-1.237.215-.028.393,1.164-.19.1Z" transform="translate(-12405.693 -1299.591)" fill="#395431" fill-rule="evenodd"/>
      <path id="Path_492" data-name="Path 492" d="M12461.652,1312.123l-.434-1.285.217-.028.408,1.213Z" transform="translate(-12382.985 -1302.582)" fill="#385231" fill-rule="evenodd"/>
      <path id="Path_493" data-name="Path 493" d="M12438.8,1315.2l-.448-1.331.215-.028.426,1.261Z" transform="translate(-12360.26 -1305.593)" fill="#385231" fill-rule="evenodd"/>
      <path id="Path_494" data-name="Path 494" d="M12415.944,1318.265l-.464-1.376.215-.029.441,1.308Z" transform="translate(-12337.534 -1308.594)" fill="#385231" fill-rule="evenodd"/>
      <path id="Path_495" data-name="Path 495" d="M12393.1,1321.349l-.479-1.42.215-.028.456,1.353-.192.1Z" transform="translate(-12314.817 -1311.615)" fill="#385231" fill-rule="evenodd"/>
      <path id="Path_496" data-name="Path 496" d="M12370.233,1324.412l-.494-1.464.216-.029.471,1.4Z" transform="translate(-12292.08 -1314.616)" fill="#375131" fill-rule="evenodd"/>
      <path id="Path_497" data-name="Path 497" d="M12347.387,1327.475l-.508-1.506.217-.029.486,1.442Z" transform="translate(-12269.363 -1317.617)" fill="#375131" fill-rule="evenodd"/>
      <path id="Path_498" data-name="Path 498" d="M12324.541,1330.557l-.521-1.548.215-.029.5,1.485Z" transform="translate(-12246.647 -1320.638)" fill="#375131" fill-rule="evenodd"/>
      <path id="Path_499" data-name="Path 499" d="M12301.7,1333.637l-.535-1.589.215-.028.516,1.527Z" transform="translate(-12223.932 -1323.659)" fill="#375131" fill-rule="evenodd"/>
      <path id="Path_500" data-name="Path 500" d="M12278.828,1336.708l-.548-1.629.214-.028.53,1.569Z" transform="translate(-12201.195 -1326.67)" fill="#375131" fill-rule="evenodd"/>
      <path id="Path_501" data-name="Path 501" d="M12255.982,1339.767l-.562-1.668.215-.028.543,1.609Z" transform="translate(-12178.479 -1329.671)" fill="#375131" fill-rule="evenodd"/>
      <path id="Path_502" data-name="Path 502" d="M12233.145,1342.825l-.574-1.707.215-.029.556,1.649Z" transform="translate(-12155.771 -1332.672)" fill="#374f30" fill-rule="evenodd"/>
      <path id="Path_503" data-name="Path 503" d="M12210.268,1345.883l-.588-1.744.215-.029.57,1.688Z" transform="translate(-12133.025 -1335.673)" fill="#374f30" fill-rule="evenodd"/>
      <path id="Path_504" data-name="Path 504" d="M12187.43,1348.96l-.6-1.781.216-.028.581,1.726Z" transform="translate(-12110.317 -1338.694)" fill="#374f30" fill-rule="evenodd"/>
      <path id="Path_505" data-name="Path 505" d="M12164.581,1352.016l-.612-1.817.215-.028.594,1.763Z" transform="translate(-12087.601 -1341.695)" fill="#374f30" fill-rule="evenodd"/>
      <path id="Path_506" data-name="Path 506" d="M12141.715,1355.051l-.625-1.853.215-.029.607,1.8Z" transform="translate(-12064.865 -1344.677)" fill="#364e30" fill-rule="evenodd"/>
      <path id="Path_507" data-name="Path 507" d="M12118.847,1358.106l-.637-1.888.216-.028.618,1.835Z" transform="translate(-12042.129 -1347.677)" fill="#364e30" fill-rule="evenodd"/>
      <path id="Path_508" data-name="Path 508" d="M12095.979,1361.17l-.648-1.922.216-.028.631,1.87Z" transform="translate(-12019.394 -1350.688)" fill="#364e30" fill-rule="evenodd"/>
      <path id="Path_509" data-name="Path 509" d="M12073.129,1364.2l-.659-1.955.215-.028.643,1.9Z" transform="translate(-11996.676 -1353.67)" fill="#374f30" fill-rule="evenodd"/>
      <path id="Path_510" data-name="Path 510" d="M12050.259,1367.216l-.669-1.987.215-.028.653,1.938Z" transform="translate(-11973.94 -1356.631)" fill="#374f30" fill-rule="evenodd"/>
      <path id="Path_511" data-name="Path 511" d="M12027.391,1370.248l-.68-2.02.215-.028.664,1.971Z" transform="translate(-11951.205 -1359.612)" fill="#374f30" fill-rule="evenodd"/>
      <path id="Path_512" data-name="Path 512" d="M12004.521,1373.279l-.691-2.051.215-.028.676,2Z" transform="translate(-11928.468 -1362.593)" fill="#374f30" fill-rule="evenodd"/>
      <path id="Path_513" data-name="Path 513" d="M11981.661,1376.309l-.7-2.081.215-.028.687,2.035Z" transform="translate(-11905.741 -1365.574)" fill="#375131" fill-rule="evenodd"/>
      <path id="Path_514" data-name="Path 514" d="M11958.771,1379.3l-.712-2.111.216-.028.7,2.066Z" transform="translate(-11882.984 -1368.516)" fill="#375131" fill-rule="evenodd"/>
      <path id="Path_515" data-name="Path 515" d="M11935.9,1382.319l-.722-2.141.215-.028.708,2.1Z" transform="translate(-11860.248 -1371.487)" fill="#375131" fill-rule="evenodd"/>
      <path id="Path_516" data-name="Path 516" d="M11913.031,1385.307l-.731-2.17.215-.028.717,2.126Z" transform="translate(-11837.512 -1374.428)" fill="#375131" fill-rule="evenodd"/>
      <path id="Path_517" data-name="Path 517" d="M11890.142,1388.3l-.742-2.2.217-.028.727,2.155Z" transform="translate(-11814.755 -1377.37)" fill="#375131" fill-rule="evenodd"/>
      <path id="Path_518" data-name="Path 518" d="M11867.27,1391.283l-.75-2.225.215-.028.736,2.184-.112.039Z" transform="translate(-11792.019 -1380.311)" fill="#375131" fill-rule="evenodd"/>
      <path id="Path_519" data-name="Path 519" d="M11844.379,1394.271l-.76-2.254.216-.028.746,2.212Z" transform="translate(-11769.263 -1383.253)" fill="#385231" fill-rule="evenodd"/>
      <path id="Path_520" data-name="Path 520" d="M11821.489,1397.23l-.77-2.283.216-.028.754,2.24Z" transform="translate(-11746.507 -1386.164)" fill="#385231" fill-rule="evenodd"/>
      <path id="Path_521" data-name="Path 521" d="M11798.609,1400.2l-.779-2.312.215-.028.766,2.268Z" transform="translate(-11723.761 -1389.086)" fill="#385231" fill-rule="evenodd"/>
      <path id="Path_522" data-name="Path 522" d="M11775.7,1403.169l-.79-2.342.216-.027.774,2.3Z" transform="translate(-11700.984 -1392.008)" fill="#385231" fill-rule="evenodd"/>
      <path id="Path_523" data-name="Path 523" d="M11752.809,1406.119l-.8-2.372.215-.027.785,2.327Z" transform="translate(-11678.229 -1394.909)" fill="#395431" fill-rule="evenodd"/>
      <path id="Path_524" data-name="Path 524" d="M11729.92,1409.05l-.81-2.4.216-.027.794,2.357Z" transform="translate(-11655.473 -1397.791)" fill="#395431" fill-rule="evenodd"/>
      <path id="Path_525" data-name="Path 525" d="M11707.01,1411.99l-.82-2.433.217-.027.8,2.387Z" transform="translate(-11632.695 -1400.683)" fill="#395431" fill-rule="evenodd"/>
      <path id="Path_526" data-name="Path 526" d="M11684.1,1414.921l-.831-2.464.216-.027.815,2.418Z" transform="translate(-11609.919 -1403.565)" fill="#395431" fill-rule="evenodd"/>
      <path id="Path_527" data-name="Path 527" d="M11661.21,1417.832l-.841-2.495.216-.027.825,2.448Z" transform="translate(-11587.162 -1406.427)" fill="#395431" fill-rule="evenodd"/>
      <path id="Path_528" data-name="Path 528" d="M11638.3,1420.742l-.852-2.525.216-.027.836,2.479Z" transform="translate(-11564.387 -1409.288)" fill="#3a5532" fill-rule="evenodd"/>
      <path id="Path_529" data-name="Path 529" d="M11618.322,1432.375l-.084-.25a.363.363,0,0,1,.1.2A.1.1,0,0,1,11618.322,1432.375Zm-2.941-8.722-.861-2.556.217-.027.846,2.51Z" transform="translate(-11541.601 -1412.15)" fill="#395632" fill-rule="evenodd"/>
      <path id="Path_530" data-name="Path 530" d="M11595.418,1435.291l-.191-.572c.227.223.348.384.34.461C11595.561,1435.239,11595.508,1435.275,11595.418,1435.291Zm-2.945-8.737-.873-2.587.217-.027.857,2.541Z" transform="translate(-11518.824 -1415.002)" fill="#395632" fill-rule="evenodd"/>
      <path id="Path_531" data-name="Path 531" d="M11572.5,1438.144l-.266-.788c.133.121.246.229.334.323l.146.435a.569.569,0,0,1-.215.03Zm-2.934-8.7-.883-2.618.217-.027.867,2.571Z" transform="translate(-11496.049 -1417.844)" fill="#3a5732" fill-rule="evenodd"/>
      <path id="Path_532" data-name="Path 532" d="M11549.546,1440.957l-.326-.967q.182.155.322.287l.231.686A1.5,1.5,0,0,1,11549.546,1440.957Zm-2.914-8.643-.893-2.648.216-.027.878,2.6Z" transform="translate(-11473.252 -1420.666)" fill="#3a5732" fill-rule="evenodd"/>
      <path id="Path_533" data-name="Path 533" d="M11526.595,1443.751l-.379-1.125c.113.094.219.184.314.268l.3.881C11526.759,1443.771,11526.682,1443.764,11526.595,1443.751Zm-2.892-8.576-.9-2.678.216-.026.888,2.633Z" transform="translate(-11450.457 -1423.479)" fill="#3a5732" fill-rule="evenodd"/>
      <path id="Path_534" data-name="Path 534" d="M11503.649,1446.528l-.427-1.268c.109.089.214.174.311.256l.353,1.048C11503.813,1446.555,11503.735,1446.543,11503.649,1446.528Zm-2.867-8.5-.912-2.708.215-.027.9,2.663Z" transform="translate(-11427.671 -1426.281)" fill="#3b5732" fill-rule="evenodd"/>
      <path id="Path_535" data-name="Path 535" d="M11480.693,1449.3l-.472-1.4c.108.085.211.167.309.247l.4,1.2C11480.858,1449.331,11480.779,1449.317,11480.693,1449.3Zm-2.84-8.425-.924-2.738.216-.026.908,2.693Z" transform="translate(-11404.875 -1429.083)" fill="#3b5732" fill-rule="evenodd"/>
      <path id="Path_536" data-name="Path 536" d="M11457.715,1452.057l-.514-1.524c.106.082.208.162.306.239l.45,1.335c-.076-.015-.157-.031-.242-.05Zm-2.812-8.343-.934-2.768.217-.026.918,2.723Z" transform="translate(-11382.058 -1431.876)" fill="#3c5933" fill-rule="evenodd"/>
      <path id="Path_537" data-name="Path 537" d="M11434.757,1454.782l-.553-1.64c.105.079.206.157.3.233l.494,1.463C11434.923,1454.82,11434.843,1454.8,11434.757,1454.782Zm-2.784-8.259-.942-2.8.216-.026.928,2.753Z" transform="translate(-11359.263 -1434.638)" fill="#3c5933" fill-rule="evenodd"/>
      <path id="Path_538" data-name="Path 538" d="M11411.788,1457.5l-.591-1.752c.1.077.205.153.3.228l.534,1.583Zm-2.756-8.173-.953-2.825.217-.026.938,2.782-.2.069Z" transform="translate(-11336.456 -1437.401)" fill="#3c5933" fill-rule="evenodd"/>
      <path id="Path_539" data-name="Path 539" d="M11388.808,1460.225l-.626-1.858.3.224.571,1.7Zm-2.726-8.085-.962-2.854.216-.026.948,2.811Z" transform="translate(-11313.642 -1440.163)" fill="#3c5a33" fill-rule="evenodd"/>
      <path id="Path_540" data-name="Path 540" d="M11365.817,1462.914l-.66-1.959.3.219.608,1.805Zm-2.7-8-.971-2.882.216-.026.957,2.84Z" transform="translate(-11290.815 -1442.896)" fill="#3c5a33" fill-rule="evenodd"/>
      <path id="Path_541" data-name="Path 541" d="M11342.836,1465.591l-.693-2.057.3.215.645,1.909Zm-2.666-7.907-.98-2.909.217-.026.967,2.868Z" transform="translate(-11267.999 -1445.619)" fill="#3c5a33" fill-rule="evenodd"/>
      <path id="Path_542" data-name="Path 542" d="M11319.836,1468.3l-.727-2.151c.1.071.2.142.3.212l.678,2.009Zm-2.635-7.816-.99-2.936.217-.026.975,2.9Z" transform="translate(-11245.164 -1448.371)" fill="#3c5a33" fill-rule="evenodd"/>
      <path id="Path_543" data-name="Path 543" d="M11296.844,1470.923l-.756-2.242.295.209.71,2.1Zm-2.6-7.725-1-2.962.217-.025.984,2.922-.2.065Z" transform="translate(-11222.338 -1451.044)" fill="#3c5a33" fill-rule="evenodd"/>
      <path id="Path_544" data-name="Path 544" d="M11273.861,1473.567l-.786-2.33.295.206.74,2.2Zm-2.574-7.634-1.007-2.988.216-.025.994,2.949Z" transform="translate(-11199.522 -1453.738)" fill="#3d5b34" fill-rule="evenodd"/>
      <path id="Path_545" data-name="Path 545" d="M11250.838,1476.191l-.813-2.416.293.2.771,2.287-.249-.074Zm-2.542-7.543-1.017-3.013.217-.025,1,2.975Z" transform="translate(-11176.666 -1456.411)" fill="#3d5c34" fill-rule="evenodd"/>
      <path id="Path_546" data-name="Path 546" d="M11227.826,1478.814l-.843-2.5.293.2.8,2.373Zm-2.512-7.451-1.024-3.038.217-.025,1.011,3Z" transform="translate(-11153.82 -1459.084)" fill="#3d5c34" fill-rule="evenodd"/>
      <path id="Path_547" data-name="Path 547" d="M10966.936,779.857l-.869-2.579.291.2.828,2.458-.25-.076Zm-2.481-7.359-1.031-3.062.216-.025,1.021,3.026Zm-2.489-7.384-.045-.134a.6.6,0,0,1,.112.087l-.067.047Z" transform="translate(-10893.098 -760.178)" fill="#3d5c34" fill-rule="evenodd"/>
      <path id="Path_548" data-name="Path 548" d="M10938.666,766.788l-.895-2.657.291.195.855,2.539Zm-2.449-7.268-1.041-3.085.217-.025,1.029,3.05Zm-2.475-7.337-.1-.3a.783.783,0,0,1,.279.16l0,.014Q10933.836,752.115,10933.742,752.183Z" transform="translate(-10864.995 -747.161)" fill="#3d5c34" fill-rule="evenodd"/>
      <path id="Path_549" data-name="Path 549" d="M10912.225,759.223l-.921-2.733.29.193.882,2.618Zm-2.419-7.177-1.048-3.108.216-.025,1.037,3.074Zm-2.457-7.286-.148-.441a1.332,1.332,0,0,1,.253.082l.076.225C10907.47,744.669,10907.41,744.714,10907.349,744.761Z" transform="translate(-10838.721 -739.648)" fill="#3d5c34" fill-rule="evenodd"/>
      <path id="Path_550" data-name="Path 550" d="M10886.806,754.629l-.946-2.807.289.19.908,2.7Zm-2.389-7.085-1.056-3.13.217-.025,1.044,3.1Zm-2.438-7.233-.189-.561a1.874,1.874,0,0,1,.241.05l.126.375Z" transform="translate(-10813.47 -735.107)" fill="#405f35" fill-rule="evenodd"/>
      <path id="Path_551" data-name="Path 551" d="M10861.914,751.675l-.971-2.879.288.188.934,2.77-.251-.079Zm-2.358-6.995-1.062-3.151.217-.024,1.051,3.119-.205.057Zm-2.42-7.177-.227-.673q.125.011.234.031l.17.5Z" transform="translate(-10788.746 -732.205)" fill="#405f35" fill-rule="evenodd"/>
      <path id="Path_552" data-name="Path 552" d="M10837.5,750.121l-.993-2.949.287.186.958,2.843-.252-.08Zm-2.327-6.9-1.07-3.172.217-.024,1.06,3.141Zm-2.4-7.12-.262-.777c.08,0,.157.009.23.018l.208.618-.177.141Z" transform="translate(-10764.499 -730.705)" fill="#405f35" fill-rule="evenodd"/>
      <path id="Path_553" data-name="Path 553" d="M10813.383,749.5l-1.016-3.017.286.183.981,2.914Zm-2.3-6.814-1.076-3.192.217-.024,1.066,3.162Zm-2.381-7.062-.295-.875c.079,0,.155,0,.228.008l.245.725Z" transform="translate(-10740.552 -730.138)" fill="#405f35" fill-rule="evenodd"/>
      <path id="Path_554" data-name="Path 554" d="M10789.554,749.4l-1.039-3.083.286.181,1.006,2.983Zm-2.267-6.725-1.083-3.212.216-.024,1.074,3.183Zm-2.361-7-.326-.968c.078,0,.152,0,.225,0l.279.826Z" transform="translate(-10716.891 -730.096)" fill="#406034" fill-rule="evenodd"/>
      <path id="Path_555" data-name="Path 555" d="M10765.895,749.312l-1.062-3.148.286.179,1.028,3.05-.253-.082Zm-2.237-6.635-1.089-3.231.217-.024,1.08,3.2-.208.052Zm-2.341-6.943-.355-1.057c.076,0,.15-.006.223-.006l.311.922Z" transform="translate(-10693.399 -730.059)" fill="#406034" fill-rule="evenodd"/>
      <path id="Path_556" data-name="Path 556" d="M10742.423,749.734l-1.082-3.211.284.177,1.051,3.116Zm-2.207-6.547-1.095-3.249.217-.024,1.085,3.221-.207.051Zm-2.321-6.884-.385-1.142c.076,0,.15-.009.221-.011l.343,1.013-.179.14Z" transform="translate(-10670.096 -730.536)" fill="#416135" fill-rule="evenodd"/>
      <path id="Path_557" data-name="Path 557" d="M10719.1,750.733l-1.1-3.272.283.175,1.072,3.18-.252-.082Zm-2.179-6.46-1.1-3.266.217-.024,1.092,3.24Zm-2.3-6.824-.412-1.224c.074-.006.148-.011.22-.015l.37,1.1Z" transform="translate(-10646.941 -731.589)" fill="#416235" fill-rule="evenodd"/>
      <path id="Path_558" data-name="Path 558" d="M10695.879,752.148l-1.123-3.332.282.173,1.093,3.242Zm-2.148-6.372-1.106-3.282.217-.023,1.1,3.257Zm-2.28-6.764-.439-1.3c.074-.007.146-.014.219-.019l.4,1.184Z" transform="translate(-10623.889 -733.06)" fill="#416235" fill-rule="evenodd"/>
      <path id="Path_559" data-name="Path 559" d="M10672.795,754.011l-1.143-3.39.281.17,1.113,3.3-.252-.083Zm-2.119-6.286-1.112-3.3.217-.023,1.1,3.274-.209.047Zm-2.261-6.7-.465-1.378c.074-.008.146-.016.218-.022l.426,1.264Z" transform="translate(-10600.973 -734.978)" fill="#416235" fill-rule="evenodd"/>
      <path id="Path_560" data-name="Path 560" d="M10649.81,756.241l-1.162-3.447.281.169,1.134,3.361Zm-2.091-6.2-1.116-3.312.217-.023,1.109,3.29Zm-2.24-6.645-.488-1.451.216-.025.452,1.341Z" transform="translate(-10578.157 -737.263)" fill="#426335" fill-rule="evenodd"/>
      <path id="Path_561" data-name="Path 561" d="M10626.914,758.769l-1.181-3.5.281.166,1.152,3.419Zm-2.062-6.116-1.122-3.327.218-.023,1.114,3.305Zm-2.221-6.586-.513-1.52.216-.027.477,1.415Z" transform="translate(-10555.43 -739.847)" fill="#426335" fill-rule="evenodd"/>
      <path id="Path_562" data-name="Path 562" d="M10604.088,761.585l-1.2-3.555.281.164,1.171,3.474Zm-2.033-6.032-1.126-3.34.217-.022,1.119,3.32Zm-2.2-6.527-.534-1.587.214-.03.5,1.485C10599.976,748.939,10599.916,748.982,10599.854,749.027Z" transform="translate(-10532.772 -742.719)" fill="#436436" fill-rule="evenodd"/>
      <path id="Path_563" data-name="Path 563" d="M10581.362,764.63l-1.216-3.607.279.162,1.189,3.529-.253-.084Zm-2-5.948-1.131-3.353.217-.022,1.124,3.334Zm-2.182-6.468-.557-1.651.214-.032.524,1.554-.182.129Z" transform="translate(-10510.215 -745.819)" fill="#436436" fill-rule="evenodd"/>
      <path id="Path_564" data-name="Path 564" d="M10558.666,767.883l-1.233-3.658.279.16,1.207,3.581-.253-.084Zm-1.978-5.866-1.134-3.365.217-.022,1.128,3.347Zm-2.161-6.41-.578-1.713.214-.034.546,1.62-.182.128Z" transform="translate(-10487.688 -749.128)" fill="#426536" fill-rule="evenodd"/>
      <path id="Path_565" data-name="Path 565" d="M10536.051,771.345l-1.25-3.707.277.158,1.225,3.633Zm-1.951-5.785-1.139-3.376.218-.022,1.133,3.359Zm-2.141-6.352-.6-1.773.213-.036.567,1.683-.182.126Z" transform="translate(-10465.24 -752.646)" fill="#436636" fill-rule="evenodd"/>
      <path id="Path_566" data-name="Path 566" d="M10513.482,775.036l-1.267-3.755.278.156,1.24,3.682Zm-1.924-5.7-1.142-3.386.218-.022,1.137,3.371Zm-2.121-6.294-.617-1.831.211-.037.589,1.744Z" transform="translate(-10442.842 -756.392)" fill="#436636" fill-rule="evenodd"/>
      <path id="Path_567" data-name="Path 567" d="M10490.965,778.9l-1.281-3.8.275.154,1.258,3.731-.252-.084Zm-1.9-5.624-1.146-3.4.218-.021,1.14,3.381Zm-2.1-6.236-.636-1.886.211-.039.607,1.8C10487.09,766.962,10487.027,767,10486.966,767.044Z" transform="translate(-10420.493 -760.318)" fill="#446737" fill-rule="evenodd"/>
      <path id="Path_568" data-name="Path 568" d="M10468.547,782.9l-1.3-3.845.275.151,1.273,3.777Zm-1.87-5.546-1.147-3.4.217-.021,1.144,3.391-.213.035Zm-2.083-6.178-.653-1.939.211-.04.626,1.859C10464.719,771.1,10464.656,771.139,10464.594,771.179Z" transform="translate(-10398.243 -764.372)" fill="#436836" fill-rule="evenodd"/>
      <path id="Path_569" data-name="Path 569" d="M10446.107,787.051l-1.311-3.888.274.149,1.289,3.823-.253-.084Zm-1.843-5.468-1.151-3.413.218-.021,1.146,3.4Zm-2.064-6.121-.671-1.99.211-.042.645,1.913Z" transform="translate(-10375.973 -768.575)" fill="#466835" fill-rule="evenodd"/>
      <path id="Path_570" data-name="Path 570" d="M10423.749,791.358l-1.324-3.93.274.147,1.3,3.867Zm-1.816-5.391-1.153-3.42.218-.021,1.149,3.409Zm-2.045-6.064-.687-2.04.21-.043.662,1.965Z" transform="translate(-10353.784 -772.938)" fill="#466936" fill-rule="evenodd"/>
      <path id="Path_571" data-name="Path 571" d="M10401.4,795.793l-1.338-3.97.273.145,1.318,3.909Zm-1.791-5.315-1.156-3.427.219-.02,1.151,3.416Zm-2.025-6.007-.705-2.087.211-.044.68,2.015Z" transform="translate(-10331.603 -777.429)" fill="#466936" fill-rule="evenodd"/>
      <path id="Path_572" data-name="Path 572" d="M10379.123,800.359l-1.352-4.009.272.142,1.333,3.95Zm-1.767-5.241-1.157-3.432.218-.02,1.154,3.423Zm-2.007-5.95-.719-2.133.21-.045.7,2.063Z" transform="translate(-10309.495 -782.05)" fill="#476a36" fill-rule="evenodd"/>
      <path id="Path_573" data-name="Path 573" d="M10356.862,805l-1.364-4.046.272.139,1.345,3.989Zm-1.742-5.167-1.158-3.437.218-.02,1.156,3.43Zm-1.987-5.893-.733-2.177.209-.046.712,2.11-.187.113Z" transform="translate(-10287.402 -786.751)" fill="#476a36" fill-rule="evenodd"/>
      <path id="Path_574" data-name="Path 574" d="M10334.634,809.817l-1.376-4.081.271.137,1.357,4.027Zm-1.718-5.095-1.16-3.441.219-.019,1.157,3.435-.216.026Zm-1.968-5.836-.749-2.219.209-.047.729,2.155Z" transform="translate(-10265.342 -791.62)" fill="#486c37" fill-rule="evenodd"/>
      <path id="Path_575" data-name="Path 575" d="M10312.454,814.691l-1.387-4.116.27.135,1.371,4.064Zm-1.693-5.024-1.161-3.445.219-.019,1.159,3.44-.217.024Zm-1.948-5.779-.762-2.26.208-.048.741,2.2Z" transform="translate(-10243.332 -796.549)" fill="#486c37" fill-rule="evenodd"/>
      <path id="Path_576" data-name="Path 576" d="M10290.285,819.674l-1.4-4.148.27.132,1.381,4.1Zm-1.67-4.953-1.162-3.448.218-.019,1.161,3.443Zm-1.93-5.723-.775-2.3.209-.049.755,2.24Z" transform="translate(-10221.331 -801.587)" fill="#486c36" fill-rule="evenodd"/>
      <path id="Path_577" data-name="Path 577" d="M10268.175,824.757l-1.409-4.179.269.13,1.393,4.132Zm-1.646-4.884-1.163-3.45.218-.018,1.162,3.446-.218.022Zm-1.91-5.666-.788-2.337.208-.05.769,2.28-.188.107Z" transform="translate(-10199.389 -806.725)" fill="#486e37" fill-rule="evenodd"/>
      <path id="Path_578" data-name="Path 578" d="M10246.064,829.919l-1.419-4.209.268.127,1.4,4.164-.252-.082Zm-1.623-4.817-1.164-3.451.219-.018,1.162,3.449-.218.02Zm-1.892-5.609-.8-2.373.208-.05.781,2.318Z" transform="translate(-10177.448 -811.942)" fill="#496f37" fill-rule="evenodd"/>
      <path id="Path_579" data-name="Path 579" d="M10223.984,835.181l-1.429-4.237.267.124,1.414,4.195Zm-1.6-4.75-1.164-3.451.219-.018,1.164,3.45Zm-1.872-5.552-.812-2.408.208-.051.794,2.355-.19.1Z" transform="translate(-10155.535 -817.258)" fill="#4a7037" fill-rule="evenodd"/>
      <path id="Path_580" data-name="Path 580" d="M10201.926,840.5l-1.437-4.263.266.122,1.424,4.223Zm-1.58-4.685-1.163-3.451.219-.017,1.164,3.451Zm-1.853-5.495-.823-2.441.208-.052.806,2.39Z" transform="translate(-10133.645 -822.634)" fill="#4a7037" fill-rule="evenodd"/>
      <path id="Path_581" data-name="Path 581" d="M10179.915,845.914l-1.444-4.288.264.119,1.434,4.25-.253-.081Zm-1.558-4.62-1.162-3.45.219-.017,1.163,3.451Zm-1.833-5.438-.834-2.473.207-.053.817,2.424Z" transform="translate(-10111.803 -828.099)" fill="#4b7137" fill-rule="evenodd"/>
      <path id="Path_582" data-name="Path 582" d="M10157.914,851.405l-1.453-4.311.264.116,1.441,4.276-.252-.081Zm-1.536-4.558-1.163-3.449.22-.016,1.164,3.451-.221.014Zm-1.813-5.38-.845-2.5.207-.053.828,2.457Z" transform="translate(-10089.97 -833.644)" fill="#4c7338" fill-rule="evenodd"/>
      <path id="Path_583" data-name="Path 583" d="M10135.944,856.977l-1.461-4.332.263.113,1.45,4.3Zm-1.517-4.5-1.162-3.447.22-.015,1.163,3.449-.221.013Zm-1.794-5.323-.854-2.534.206-.054.84,2.489-.191.1Z" transform="translate(-10068.167 -839.269)" fill="#4c7338" fill-rule="evenodd"/>
      <path id="Path_584" data-name="Path 584" d="M10113.983,862.608l-1.467-4.352.262.109,1.457,4.322Zm-1.5-4.436-1.161-3.443.22-.016,1.162,3.448Zm-1.775-5.265-.863-2.562.206-.055.85,2.519-.192.1Z" transform="translate(-10046.375 -844.953)" fill="#4c7438" fill-rule="evenodd"/>
      <path id="Path_585" data-name="Path 585" d="M10092.063,868.279l-1.473-4.37.261.107,1.464,4.342Zm-1.475-4.377-1.16-3.44.219-.015,1.162,3.445-.221.01Zm-1.756-5.207-.873-2.59.207-.055.858,2.548Z" transform="translate(-10024.622 -850.677)" fill="#4c7538" fill-rule="evenodd"/>
      <path id="Path_586" data-name="Path 586" d="M10070.145,874.06l-2.615-7.756.22-.014,1.161,3.442-.089,0,.1.042,1.471,4.361Zm-3.192-9.469-.882-2.615.206-.056.868,2.576Z" transform="translate(-10002.871 -856.51)" fill="#4d7637" fill-rule="evenodd"/>
      <path id="Path_587" data-name="Path 587" d="M10048.244,879.892l-2.595-7.7.221-.014,2.625,7.787Zm-3.154-9.355-.89-2.64.205-.056.878,2.6Z" transform="translate(-9981.138 -862.393)" fill="#4d7637" fill-rule="evenodd"/>
      <path id="Path_588" data-name="Path 588" d="M10026.385,885.773l-2.575-7.636.221-.012,2.6,7.726Zm-3.116-9.242-.9-2.664.206-.057.886,2.628-.193.093Z" transform="translate(-9959.444 -868.325)" fill="#4e7738" fill-rule="evenodd"/>
      <path id="Path_589" data-name="Path 589" d="M10004.533,891.7l-2.555-7.577.221-.013,2.585,7.666Zm-3.078-9.13-.905-2.687.206-.057.893,2.653Z" transform="translate(-9937.762 -874.308)" fill="#4e7938" fill-rule="evenodd"/>
      <path id="Path_590" data-name="Path 590" d="M9982.705,897.716l-2.537-7.52.222-.011,2.564,7.607-.249-.075Zm-3.042-9.019-.913-2.709.205-.058.9,2.676Z" transform="translate(-9916.099 -880.369)" fill="#507938" fill-rule="evenodd"/>
      <path id="Path_591" data-name="Path 591" d="M9960.854,903.778l-2.517-7.464.223-.011,2.544,7.549Zm-3-8.91-.92-2.73.205-.059.909,2.7Z" transform="translate(-9894.415 -886.481)" fill="#517b39" fill-rule="evenodd"/>
      <path id="Path_592" data-name="Path 592" d="M9939.074,909.891l-2.5-7.409.222-.01,2.526,7.492Zm-2.968-8.8-.927-2.75.205-.059L9936.3,901Z" transform="translate(-9872.802 -892.642)" fill="#517b38" fill-rule="evenodd"/>
      <path id="Path_593" data-name="Path 593" d="M9917.3,916.073l-2.48-7.356.222-.008,2.508,7.436Zm-2.933-8.7-.933-2.768.205-.059.924,2.74Z" transform="translate(-9851.189 -898.872)" fill="#527c38" fill-rule="evenodd"/>
      <path id="Path_594" data-name="Path 594" d="M9895.536,922.257l-2.463-7.3.223-.008,2.489,7.382-.249-.071Zm-2.9-8.591-.938-2.786.2-.06.931,2.759Z" transform="translate(-9829.596 -905.103)" fill="#537e38" fill-rule="evenodd"/>
      <path id="Path_595" data-name="Path 595" d="M9873.787,928.531l-2.445-7.253.223-.006,2.471,7.329-.248-.069Zm-2.861-8.488-.945-2.8.205-.06.936,2.777Z" transform="translate(-9808.012 -911.423)" fill="#527e38" fill-rule="evenodd"/>
      <path id="Path_596" data-name="Path 596" d="M9852.047,934.846l-2.428-7.2.223-.006,2.453,7.278Zm-2.826-8.386-.951-2.819.2-.061.942,2.795Z" transform="translate(-9786.437 -917.783)" fill="#537f39" fill-rule="evenodd"/>
      <path id="Path_597" data-name="Path 597" d="M9830.339,941.2l-2.413-7.159.224,0,2.437,7.229Zm-2.793-8.286-.956-2.834.2-.061.948,2.811-.2.084Z" transform="translate(-9764.894 -924.182)" fill="#568139" fill-rule="evenodd"/>
      <path id="Path_598" data-name="Path 598" d="M9808.611,947.628l-2.4-7.114.224,0,2.422,7.182-.247-.065Zm-2.761-8.188-.96-2.849.2-.062.953,2.827Z" transform="translate(-9743.33 -930.652)" fill="#558239" fill-rule="evenodd"/>
      <path id="Path_599" data-name="Path 599" d="M9786.941,954.1l-2.385-7.074h.225l2.406,7.136ZM9784.213,946l-.965-2.862.205-.062.958,2.841Z" transform="translate(-9721.823 -937.161)" fill="#568338" fill-rule="evenodd"/>
      <path id="Path_600" data-name="Path 600" d="M9765.265,960.6l-2.371-7.035h.226l2.391,7.094Zm-2.7-8-.969-2.875.2-.062.964,2.855Z" transform="translate(-9700.312 -943.709)" fill="#578438" fill-rule="evenodd"/>
      <path id="Path_601" data-name="Path 601" d="M9743.6,967.115l-2.361-7,.227,0,2.379,7.053-.244-.057Zm-2.666-7.906-.973-2.887.2-.063.967,2.869Z" transform="translate(-9678.808 -950.258)" fill="#578538" fill-rule="evenodd"/>
      <path id="Path_602" data-name="Path 602" d="M9721.963,973.717l-2.35-6.969.227.006,2.366,7.017-.243-.055Zm-2.635-7.816-.978-2.9.2-.063.971,2.881Z" transform="translate(-9657.334 -956.896)" fill="#578639" fill-rule="evenodd"/>
      <path id="Path_603" data-name="Path 603" d="M9700.326,980.362l-2.341-6.942.229.01,2.354,6.984Zm-2.606-7.73-.98-2.908.2-.064.976,2.892Z" transform="translate(-9635.858 -963.574)" fill="#588739" fill-rule="evenodd"/>
      <path id="Path_604" data-name="Path 604" d="M9678.7,987.029l-2.334-6.922c.073.006.149.01.229.014l2.346,6.956C9678.859,987.059,9678.779,987.043,9678.7,987.029Zm-2.578-7.647-.983-2.917.2-.064.979,2.9Z" transform="translate(-9614.395 -970.271)" fill="#588739" fill-rule="evenodd"/>
      <path id="Path_605" data-name="Path 605" d="M9657.117,993.759l-2.329-6.909c.073.007.149.014.231.02l2.337,6.932C9657.273,993.785,9657.193,993.771,9657.117,993.759Zm-2.552-7.568-.986-2.926.2-.065.981,2.913Z" transform="translate(-9592.969 -977.029)" fill="#598938" fill-rule="evenodd"/>
      <path id="Path_606" data-name="Path 606" d="M9635.535,1000.512l-2.328-6.9c.074.01.15.02.234.027l2.331,6.914C9635.689,1000.535,9635.609,1000.523,9635.535,1000.512Zm-2.526-7.493-.989-2.934.2-.065.984,2.922-.2.077Z" transform="translate(-9571.544 -983.806)" fill="#598938" fill-rule="evenodd"/>
      <path id="Path_607" data-name="Path 607" d="M9613.965,1007.341l-2.33-6.912c.07.014.15.026.236.036l2.328,6.9c-.082-.012-.162-.023-.234-.03Zm-2.5-7.424-.991-2.942.2-.065.988,2.93-.2.076Z" transform="translate(-9550.13 -990.653)" fill="#5a8a39" fill-rule="evenodd"/>
      <path id="Path_608" data-name="Path 608" d="M9592.405,1014.2l-2.34-6.94a2.04,2.04,0,0,0,.243.054l2.328,6.906C9592.555,1014.206,9592.477,1014.2,9592.405,1014.2Zm-2.481-7.362-.994-2.948.2-.066.99,2.938Z" transform="translate(-9528.726 -997.519)" fill="#5c8c38" fill-rule="evenodd"/>
      <path id="Path_609" data-name="Path 609" d="M9570.879,1021.117l-2.361-7a1,1,0,0,0,.256.091l2.334,6.923c-.064,0-.125-.008-.181-.009Zm-2.448-7.262-1.011-3,.2-.066.993,2.945-.139.052A.485.485,0,0,0,9568.431,1013.854Z" transform="translate(-9507.351 -1004.445)" fill="#5d8e39" fill-rule="evenodd"/>
      <path id="Path_610" data-name="Path 610" d="M9549.34,1028.06l-3.44-10.2.2-.066,1,2.951,0,0c-.141.164-.085.284.13.368l2.349,6.964h-.029C9549.488,1028.074,9549.421,1028.069,9549.34,1028.06Z" transform="translate(-9485.965 -1011.402)" fill="#5d8e39" fill-rule="evenodd"/>
      <path id="Path_611" data-name="Path 611" d="M9527.829,1035.038l-3.419-10.141.2-.067,3.449,10.234c-.065-.006-.145-.015-.233-.026Z" transform="translate(-9464.611 -1018.397)" fill="#5e8f39" fill-rule="evenodd"/>
      <path id="Path_612" data-name="Path 612" d="M9506.317,1042.022l-3.4-10.075.2-.067,3.429,10.173Z" transform="translate(-9443.256 -1025.403)" fill="#5d8f39" fill-rule="evenodd"/>
      <path id="Path_613" data-name="Path 613" d="M9484.854,1049.065l-3.373-10.007.2-.067,3.407,10.108Z" transform="translate(-9421.95 -1032.469)" fill="#5e913a" fill-rule="evenodd"/>
      <path id="Path_614" data-name="Path 614" d="M9463.36,1056.156l-3.351-9.939.2-.068,3.386,10.041Z" transform="translate(-9400.614 -1039.584)" fill="#5e913a" fill-rule="evenodd"/>
      <path id="Path_615" data-name="Path 615" d="M9441.907,1063.278l-3.327-9.87.2-.068,3.362,9.973Z" transform="translate(-9379.319 -1046.728)" fill="#5f9238" fill-rule="evenodd"/>
      <path id="Path_616" data-name="Path 616" d="M9420.455,1070.449l-3.3-9.8.2-.068,3.339,9.9Z" transform="translate(-9358.024 -1053.923)" fill="#5e9338" fill-rule="evenodd"/>
      <path id="Path_617" data-name="Path 617" d="M9399,1077.65l-3.28-9.731.2-.069,3.315,9.835Z" transform="translate(-9336.728 -1061.147)" fill="#5f9438" fill-rule="evenodd"/>
      <path id="Path_618" data-name="Path 618" d="M9377.588,1084.9l-3.258-9.662.2-.069,3.293,9.766Z" transform="translate(-9315.473 -1068.422)" fill="#5f9438" fill-rule="evenodd"/>
      <path id="Path_619" data-name="Path 619" d="M9356.2,1092.183l-3.234-9.594.2-.07,3.269,9.7Z" transform="translate(-9294.246 -1075.725)" fill="#609539" fill-rule="evenodd"/>
      <path id="Path_620" data-name="Path 620" d="M9334.811,1099.535l-3.211-9.525.2-.07,3.246,9.628Z" transform="translate(-9273.011 -1083.099)" fill="#609539" fill-rule="evenodd"/>
      <path id="Path_621" data-name="Path 621" d="M9313.438,1106.918l-3.188-9.457.2-.071,3.223,9.559Z" transform="translate(-9251.795 -1090.502)" fill="#619739" fill-rule="evenodd"/>
      <path id="Path_622" data-name="Path 622" d="M9291.438,1114.36l-3.169-9.4.127-.031.078-.028,3.2,9.491Z" transform="translate(-9229.952 -1097.965)" fill="#639839" fill-rule="evenodd"/>
      <path id="Path_623" data-name="Path 623" d="M9269.371,1120.958l-3.151-9.347.207-.052,3.179,9.428Z" transform="translate(-9208.041 -1104.583)" fill="#639839" fill-rule="evenodd"/>
      <path id="Path_624" data-name="Path 624" d="M9247.352,1126.355l-3.133-9.293.208-.052,3.161,9.374Z" transform="translate(-9186.178 -1109.999)" fill="#649939" fill-rule="evenodd"/>
      <path id="Path_625" data-name="Path 625" d="M9225.346,1131.872l-3.115-9.239.207-.053,3.143,9.32Z" transform="translate(-9164.327 -1115.534)" fill="#649a39" fill-rule="evenodd"/>
      <path id="Path_626" data-name="Path 626" d="M9203.387,1137.419l-3.1-9.185.206-.054,3.124,9.266Z" transform="translate(-9142.524 -1121.099)" fill="#649b3a" fill-rule="evenodd"/>
      <path id="Path_627" data-name="Path 627" d="M9181.439,1143.037l-3.08-9.132.207-.055,3.106,9.213Z" transform="translate(-9120.731 -1126.733)" fill="#649b38" fill-rule="evenodd"/>
      <path id="Path_628" data-name="Path 628" d="M9159.5,1148.764l-3.062-9.079.206-.055,3.088,9.159Z" transform="translate(-9098.95 -1132.477)" fill="#649b38" fill-rule="evenodd"/>
      <path id="Path_629" data-name="Path 629" d="M9137.593,1154.552l-3.043-9.026.206-.056,3.07,9.105Z" transform="translate(-9077.197 -1138.28)" fill="#659c39" fill-rule="evenodd"/>
      <path id="Path_630" data-name="Path 630" d="M9115.717,1160.39l-3.026-8.974.206-.056,3.052,9.053Z" transform="translate(-9055.476 -1144.133)" fill="#659c39" fill-rule="evenodd"/>
      <path id="Path_631" data-name="Path 631" d="M9093.848,1166.3l-3.008-8.922.205-.057,3.035,9Z" transform="translate(-9033.762 -1150.056)" fill="#659d39" fill-rule="evenodd"/>
      <path id="Path_632" data-name="Path 632" d="M9072.01,1172.268l-2.99-8.87.205-.058,3.018,8.948Z" transform="translate(-9012.078 -1156.038)" fill="#659e39" fill-rule="evenodd"/>
      <path id="Path_633" data-name="Path 633" d="M9050.184,1178.287l-2.974-8.819.205-.058,3,8.9Z" transform="translate(-8990.406 -1162.07)" fill="#659e39" fill-rule="evenodd"/>
      <path id="Path_634" data-name="Path 634" d="M9028.406,1184.417l-2.956-8.768.205-.058,2.981,8.845Z" transform="translate(-8968.782 -1168.211)" fill="#699f38" fill-rule="evenodd"/>
      <path id="Path_635" data-name="Path 635" d="M9006.6,1190.567l-2.939-8.718.205-.059,2.965,8.794Z" transform="translate(-8947.129 -1174.372)" fill="#69a139" fill-rule="evenodd"/>
      <path id="Path_636" data-name="Path 636" d="M8984.842,1196.737l-2.922-8.668.2-.06,2.948,8.743Z" transform="translate(-8925.525 -1180.553)" fill="#69a139" fill-rule="evenodd"/>
      <path id="Path_637" data-name="Path 637" d="M8963.1,1203.028l-2.905-8.618.2-.06,2.932,8.693Z" transform="translate(-8903.933 -1186.853)" fill="#69a136" fill-rule="evenodd"/>
      <path id="Path_638" data-name="Path 638" d="M8941.349,1209.319l-2.889-8.568.2-.061,2.914,8.643Z" transform="translate(-8882.339 -1193.153)" fill="#6aa237" fill-rule="evenodd"/>
      <path id="Path_639" data-name="Path 639" d="M8919.631,1215.69l-2.871-8.519.2-.061,2.9,8.593Z" transform="translate(-8860.774 -1199.533)" fill="#6aa237" fill-rule="evenodd"/>
      <path id="Path_640" data-name="Path 640" d="M8897.945,1222.1l-2.855-8.471.2-.061,2.881,8.544Z" transform="translate(-8839.24 -1205.953)" fill="#6aa237" fill-rule="evenodd"/>
      <path id="Path_641" data-name="Path 641" d="M8876.24,1228.545l-2.84-8.423.2-.062,2.864,8.5Z" transform="translate(-8817.687 -1212.402)" fill="#6ba437" fill-rule="evenodd"/>
      <path id="Path_642" data-name="Path 642" d="M8854.584,1235.047l-2.824-8.375.2-.062,2.848,8.447Z" transform="translate(-8796.183 -1218.911)" fill="#6ba437" fill-rule="evenodd"/>
      <path id="Path_643" data-name="Path 643" d="M8832.918,1241.6l-2.809-8.328.2-.063,2.832,8.4Z" transform="translate(-8774.668 -1225.469)" fill="#6ba437" fill-rule="evenodd"/>
      <path id="Path_644" data-name="Path 644" d="M8811.282,1248.174l-2.792-8.281.2-.063,2.816,8.351Z" transform="translate(-8753.185 -1232.048)" fill="#6ba537" fill-rule="evenodd"/>
      <path id="Path_645" data-name="Path 645" d="M8789.635,1254.828l-2.775-8.235.2-.063,2.8,8.3Z" transform="translate(-8731.689 -1238.706)" fill="#6ba637" fill-rule="evenodd"/>
      <path id="Path_646" data-name="Path 646" d="M8768.031,1261.483l-2.762-8.189.2-.064,2.784,8.258Z" transform="translate(-8710.235 -1245.364)" fill="#6ba637" fill-rule="evenodd"/>
      <path id="Path_647" data-name="Path 647" d="M8746.425,1268.178l-2.745-8.144.2-.064,2.77,8.212Z" transform="translate(-8688.78 -1252.061)" fill="#6ca737" fill-rule="evenodd"/>
      <path id="Path_648" data-name="Path 648" d="M8724.83,1274.953l-2.73-8.1.2-.064,2.753,8.166Z" transform="translate(-8667.336 -1258.839)" fill="#6ca737" fill-rule="evenodd"/>
      <path id="Path_649" data-name="Path 649" d="M8703.246,1281.719l-2.716-8.054.2-.065,2.738,8.121Z" transform="translate(-8645.902 -1265.606)" fill="#6ca737" fill-rule="evenodd"/>
      <path id="Path_650" data-name="Path 650" d="M8681.66,1288.535l-2.7-8.01.2-.065,2.723,8.076Z" transform="translate(-8624.468 -1272.423)" fill="#6ca737" fill-rule="evenodd"/>
      <path id="Path_651" data-name="Path 651" d="M8660.127,1295.391l-2.687-7.966.2-.065,2.709,8.032Z" transform="translate(-8603.083 -1279.28)" fill="#6ca737" fill-rule="evenodd"/>
      <path id="Path_652" data-name="Path 652" d="M8638.561,1302.269l-2.671-7.923.2-.066,2.693,7.988Z" transform="translate(-8581.667 -1286.156)" fill="#6daa38" fill-rule="evenodd"/>
      <path id="Path_653" data-name="Path 653" d="M8617.036,1309.2l-2.657-7.88.2-.066,2.678,7.945Z" transform="translate(-8560.291 -1293.082)" fill="#6daa38" fill-rule="evenodd"/>
      <path id="Path_654" data-name="Path 654" d="M8595.5,1316.135l-2.643-7.839.2-.066,2.664,7.9Z" transform="translate(-8538.908 -1300.019)" fill="#6daa38" fill-rule="evenodd"/>
      <path id="Path_655" data-name="Path 655" d="M8573.979,1323.113l-2.629-7.8.2-.066,2.648,7.859Z" transform="translate(-8517.532 -1306.994)" fill="#6eab36" fill-rule="evenodd"/>
      <path id="Path_656" data-name="Path 656" d="M8552.475,1330.122l-2.614-7.756.2-.067,2.637,7.818Z" transform="translate(-8496.178 -1314)" fill="#6eab36" fill-rule="evenodd"/>
      <path id="Path_657" data-name="Path 657" d="M8530.95,1337.162l-2.6-7.715.2-.067,2.622,7.776Z" transform="translate(-8474.802 -1321.036)" fill="#70ab36" fill-rule="evenodd"/>
      <path id="Path_658" data-name="Path 658" d="M8509.477,1344.241l-2.588-7.674.2-.067,2.607,7.735Z" transform="translate(-8453.476 -1328.111)" fill="#70ac36" fill-rule="evenodd"/>
      <path id="Path_659" data-name="Path 659" d="M8487.994,1351.312l-2.574-7.635.2-.067,2.595,7.694Z" transform="translate(-8432.142 -1335.176)" fill="#70ac36" fill-rule="evenodd"/>
      <path id="Path_660" data-name="Path 660" d="M8466.53,1358.433l-2.561-7.6.2-.068,2.581,7.655Z" transform="translate(-8410.826 -1342.292)" fill="#70ae36" fill-rule="evenodd"/>
      <path id="Path_661" data-name="Path 661" d="M8445.048,1365.565l-2.548-7.557.2-.068,2.567,7.615Z" transform="translate(-8389.491 -1349.417)" fill="#70ae36" fill-rule="evenodd"/>
      <path id="Path_662" data-name="Path 662" d="M8423.585,1372.726l-2.535-7.518.2-.068,2.554,7.576Z" transform="translate(-8368.176 -1356.571)" fill="#70ae36" fill-rule="evenodd"/>
      <path id="Path_663" data-name="Path 663" d="M8402.151,1379.919l-2.521-7.48.2-.068,2.542,7.538Z" transform="translate(-8346.891 -1363.756)" fill="#71af36" fill-rule="evenodd"/>
      <path id="Path_664" data-name="Path 664" d="M8380.689,1387.122l-2.51-7.443.2-.068,2.528,7.5Z" transform="translate(-8325.575 -1370.951)" fill="#71af36" fill-rule="evenodd"/>
      <path id="Path_665" data-name="Path 665" d="M8359.247,1394.345l-2.5-7.406.2-.069,2.516,7.462Z" transform="translate(-8304.28 -1378.165)" fill="#71af36" fill-rule="evenodd"/>
      <path id="Path_666" data-name="Path 666" d="M8337.824,1401.6l-2.484-7.37.2-.069,2.5,7.425Z" transform="translate(-8283.004 -1385.409)" fill="#71af36" fill-rule="evenodd"/>
      <path id="Path_667" data-name="Path 667" d="M8316.413,1408.863l-2.473-7.334.2-.069,2.491,7.388Z" transform="translate(-8261.739 -1392.663)" fill="#71af36" fill-rule="evenodd"/>
      <path id="Path_668" data-name="Path 668" d="M8294.991,1416.158l-2.461-7.3.2-.069,2.479,7.352Z" transform="translate(-8240.463 -1399.947)" fill="#72b036" fill-rule="evenodd"/>
      <path id="Path_669" data-name="Path 669" d="M8273.549,1423.453l-2.449-7.264.2-.069,2.467,7.316Z" transform="translate(-8219.167 -1407.231)" fill="#72b136" fill-rule="evenodd"/>
      <path id="Path_670" data-name="Path 670" d="M8252.156,1430.779l-2.437-7.23.2-.069,2.454,7.281-.219.017Z" transform="translate(-8197.92 -1414.545)" fill="#72b134" fill-rule="evenodd"/>
      <path id="Path_671" data-name="Path 671" d="M8230.747,1438.116l-2.427-7.2.2-.069,2.443,7.247Z" transform="translate(-8176.656 -1421.869)" fill="#72b134" fill-rule="evenodd"/>
      <path id="Path_672" data-name="Path 672" d="M8209.355,1445.462l-2.415-7.163.2-.07,2.432,7.213Z" transform="translate(-8155.411 -1429.203)" fill="#72b134" fill-rule="evenodd"/>
      <path id="Path_673" data-name="Path 673" d="M8187.954,1452.82l-2.4-7.13.2-.07,2.42,7.18Z" transform="translate(-8134.154 -1436.546)" fill="#72b134" fill-rule="evenodd"/>
      <path id="Path_674" data-name="Path 674" d="M8166.553,1460.208l-2.393-7.1.2-.07,2.41,7.146Z" transform="translate(-8112.898 -1443.92)" fill="#73b234" fill-rule="evenodd"/>
      <path id="Path_675" data-name="Path 675" d="M8145.172,1467.586l-2.382-7.066.2-.07,2.4,7.114Z" transform="translate(-8091.663 -1451.283)" fill="#73b234" fill-rule="evenodd"/>
      <path id="Path_676" data-name="Path 676" d="M8123.771,1475.015l-2.372-7.035.2-.07,2.387,7.082Z" transform="translate(-8070.406 -1458.696)" fill="#73b234" fill-rule="evenodd"/>
      <path id="Path_677" data-name="Path 677" d="M8102.4,1482.415l-2.362-7,.2-.07,2.377,7.05Z" transform="translate(-8049.181 -1466.079)" fill="#76b433" fill-rule="evenodd"/>
      <path id="Path_678" data-name="Path 678" d="M8081.042,1489.834l-2.351-6.974.2-.07,2.367,7.02Z" transform="translate(-8027.965 -1473.483)" fill="#77b633" fill-rule="evenodd"/>
      <path id="Path_679" data-name="Path 679" d="M8059.661,1497.285l-2.341-6.945.2-.07,2.356,6.989Z" transform="translate(-8006.729 -1480.916)" fill="#77b633" fill-rule="evenodd"/>
      <path id="Path_680" data-name="Path 680" d="M8038.282,1504.726l-2.332-6.916.2-.07,2.347,6.959Z" transform="translate(-7985.493 -1488.339)" fill="#77b633" fill-rule="evenodd"/>
      <path id="Path_681" data-name="Path 681" d="M8016.9,1512.177l-2.322-6.887.2-.07,2.337,6.93Z" transform="translate(-7964.258 -1495.772)" fill="#77b633" fill-rule="evenodd"/>
      <path id="Path_682" data-name="Path 682" d="M7995.542,1519.64l-2.312-6.859.2-.071,2.326,6.9Z" transform="translate(-7943.041 -1503.215)" fill="#77b633" fill-rule="evenodd"/>
      <path id="Path_683" data-name="Path 683" d="M7974.173,1527.1l-2.3-6.832.2-.071,2.317,6.873Z" transform="translate(-7921.816 -1510.658)" fill="#77b633" fill-rule="evenodd"/>
      <path id="Path_684" data-name="Path 684" d="M7952.814,1534.6l-2.294-6.8.2-.071,2.308,6.845Z" transform="translate(-7900.6 -1518.131)" fill="#77b633" fill-rule="evenodd"/>
      <path id="Path_685" data-name="Path 685" d="M7931.455,1542.079l-2.285-6.779.2-.071,2.3,6.818Z" transform="translate(-7879.384 -1525.594)" fill="#77b633" fill-rule="evenodd"/>
      <path id="Path_686" data-name="Path 686" d="M7910.1,1549.543l-2.276-6.753.2-.071,2.29,6.792Z" transform="translate(-7858.167 -1533.037)" fill="#77b633" fill-rule="evenodd"/>
      <path id="Path_687" data-name="Path 687" d="M7888.738,1557.038l-2.269-6.728.2-.071,2.281,6.766Z" transform="translate(-7836.951 -1540.51)" fill="#77b633" fill-rule="evenodd"/>
      <path id="Path_688" data-name="Path 688" d="M7867.36,1564.524l-2.26-6.7.2-.071,2.271,6.74-.213.034Z" transform="translate(-7815.716 -1547.972)" fill="#77b633" fill-rule="evenodd"/>
      <path id="Path_689" data-name="Path 689" d="M7846.011,1572.029l-2.251-6.679.2-.071,2.264,6.715Z" transform="translate(-7794.509 -1555.455)" fill="#77b633" fill-rule="evenodd"/>
      <path id="Path_690" data-name="Path 690" d="M7824.653,1579.526l-2.244-6.655.2-.071,2.256,6.691Z" transform="translate(-7773.293 -1562.928)" fill="#77b633" fill-rule="evenodd"/>
      <path id="Path_691" data-name="Path 691" d="M7803.3,1587.033l-2.236-6.632.2-.071,2.248,6.667Z" transform="translate(-7752.077 -1570.411)" fill="#77b633" fill-rule="evenodd"/>
      <path id="Path_692" data-name="Path 692" d="M7781.958,1594.53l-2.229-6.61.2-.071,2.24,6.644Z" transform="translate(-7730.882 -1577.883)" fill="#77b633" fill-rule="evenodd"/>
      <path id="Path_693" data-name="Path 693" d="M7760.581,1602.019l-2.221-6.588.2-.071,2.232,6.621Z" transform="translate(-7709.645 -1585.346)" fill="#77b633" fill-rule="evenodd"/>
      <path id="Path_694" data-name="Path 694" d="M7739.224,1609.508l-2.214-6.567.2-.071,2.225,6.6Z" transform="translate(-7688.43 -1592.809)" fill="#77b633" fill-rule="evenodd"/>
      <path id="Path_695" data-name="Path 695" d="M7717.857,1617l-2.207-6.546.2-.071,2.218,6.577Z" transform="translate(-7667.204 -1600.272)" fill="#77b633" fill-rule="evenodd"/>
      <path id="Path_696" data-name="Path 696" d="M7696.5,1624.5l-2.2-6.526.2-.071,2.211,6.556Z" transform="translate(-7645.987 -1607.745)" fill="#77b633" fill-rule="evenodd"/>
      <path id="Path_697" data-name="Path 697" d="M7675.144,1631.967l-2.194-6.507.2-.071,2.2,6.536Z" transform="translate(-7624.772 -1615.188)" fill="#77b633" fill-rule="evenodd"/>
      <path id="Path_698" data-name="Path 698" d="M7653.767,1639.468l-2.187-6.487.2-.071,2.2,6.516Z" transform="translate(-7603.536 -1622.66)" fill="#77b633" fill-rule="evenodd"/>
      <path id="Path_699" data-name="Path 699" d="M7632.391,1646.94l-2.181-6.469.2-.071,2.19,6.5Z" transform="translate(-7582.3 -1630.104)" fill="#77b733" fill-rule="evenodd"/>
      <path id="Path_700" data-name="Path 700" d="M7611.035,1654.412l-2.175-6.451.2-.071,2.185,6.478Z" transform="translate(-7561.083 -1637.546)" fill="#77b733" fill-rule="evenodd"/>
      <path id="Path_701" data-name="Path 701" d="M7589.669,1661.874l-2.169-6.434.2-.07,2.178,6.46Z" transform="translate(-7539.858 -1644.98)" fill="#77b733" fill-rule="evenodd"/>
      <path id="Path_702" data-name="Path 702" d="M7568.274,1669.328l-2.164-6.418.2-.07,2.172,6.443Z" transform="translate(-7518.603 -1652.403)" fill="#77b736" fill-rule="evenodd"/>
      <path id="Path_703" data-name="Path 703" d="M7546.9,1676.792l-2.158-6.4.2-.07,2.166,6.425Z" transform="translate(-7497.367 -1659.836)" fill="#77b736" fill-rule="evenodd"/>
      <path id="Path_704" data-name="Path 704" d="M7525.523,1684.226l-2.153-6.386.2-.07,2.161,6.41Z" transform="translate(-7476.131 -1667.239)" fill="#77b736" fill-rule="evenodd"/>
      <path id="Path_705" data-name="Path 705" d="M7504.128,1691.641l-2.148-6.371.2-.07,2.155,6.394Z" transform="translate(-7454.875 -1674.622)" fill="#77b736" fill-rule="evenodd"/>
      <path id="Path_706" data-name="Path 706" d="M7482.744,1699.047l-2.144-6.358.2-.07,2.15,6.379Z" transform="translate(-7433.629 -1681.996)" fill="#77b736" fill-rule="evenodd"/>
      <path id="Path_707" data-name="Path 707" d="M7461.349,1706.444l-2.139-6.344.2-.07,2.146,6.365Z" transform="translate(-7412.374 -1689.359)" fill="#77b736" fill-rule="evenodd"/>
      <path id="Path_708" data-name="Path 708" d="M7439.914,1713.85l-2.134-6.331.2-.069,2.142,6.351Z" transform="translate(-7391.078 -1696.733)" fill="#77b736" fill-rule="evenodd"/>
      <path id="Path_709" data-name="Path 709" d="M7418.5,1721.208l-2.131-6.319.2-.069,2.137,6.337Z" transform="translate(-7369.801 -1704.057)" fill="#77b736" fill-rule="evenodd"/>
      <path id="Path_710" data-name="Path 710" d="M7397.086,1728.576l-2.126-6.307.2-.069,2.132,6.325Z" transform="translate(-7348.526 -1711.39)" fill="#77b736" fill-rule="evenodd"/>
      <path id="Path_711" data-name="Path 711" d="M7375.682,1735.9l-2.122-6.3.2-.069,2.128,6.313-.208.052Z" transform="translate(-7327.261 -1718.684)" fill="#77b736" fill-rule="evenodd"/>
      <path id="Path_712" data-name="Path 712" d="M7354.249,1743.225l-2.119-6.286.2-.069,2.125,6.3Z" transform="translate(-7305.965 -1725.968)" fill="#77b736" fill-rule="evenodd"/>
      <path id="Path_713" data-name="Path 713" d="M7332.8,1750.505l-2.116-6.277.2-.068,2.121,6.291Z" transform="translate(-7284.65 -1733.212)" fill="#77b736" fill-rule="evenodd"/>
      <path id="Path_714" data-name="Path 714" d="M7311.373,1757.8l-2.113-6.267.2-.068,2.118,6.281-.207.054Z" transform="translate(-7263.364 -1740.467)" fill="#77b736" fill-rule="evenodd"/>
      <path id="Path_715" data-name="Path 715" d="M7289.92,1765.057l-2.11-6.259.2-.068,2.114,6.272Z" transform="translate(-7242.049 -1747.691)" fill="#77b736" fill-rule="evenodd"/>
      <path id="Path_716" data-name="Path 716" d="M7268.447,1772.29l-2.108-6.252.2-.068,2.111,6.263Z" transform="translate(-7220.713 -1754.885)" fill="#77b737" fill-rule="evenodd"/>
      <path id="Path_717" data-name="Path 717" d="M7247,1779.512l-2.105-6.245.2-.068,2.109,6.255Z" transform="translate(-7199.399 -1762.07)" fill="#77b737" fill-rule="evenodd"/>
      <path id="Path_718" data-name="Path 718" d="M7225.513,1786.686l-2.1-6.238.2-.067,2.106,6.248Z" transform="translate(-7178.054 -1769.205)" fill="#77b737" fill-rule="evenodd"/>
      <path id="Path_719" data-name="Path 719" d="M7204.021,1793.86l-2.1-6.233.2-.067,2.1,6.241Z" transform="translate(-7156.698 -1776.34)" fill="#7bb837" fill-rule="evenodd"/>
      <path id="Path_720" data-name="Path 720" d="M7182.53,1800.985l-2.1-6.228.2-.067,2.1,6.236Z" transform="translate(-7135.343 -1783.425)" fill="#7bb837" fill-rule="evenodd"/>
      <path id="Path_721" data-name="Path 721" d="M7161,1808.08l-2.1-6.223.2-.066,2.1,6.231-.205.059Z" transform="translate(-7113.948 -1790.481)" fill="#7bb837" fill-rule="evenodd"/>
      <path id="Path_722" data-name="Path 722" d="M7139.488,1815.127l-2.1-6.221.2-.066,2.1,6.226Z" transform="translate(-7092.574 -1797.486)" fill="#7bb837" fill-rule="evenodd"/>
      <path id="Path_723" data-name="Path 723" d="M7117.966,1822.164l-2.1-6.218.012,0,.191-.062,2.1,6.222Z" transform="translate(-7071.188 -1804.482)" fill="#7bb837" fill-rule="evenodd"/>
      <path id="Path_724" data-name="Path 724" d="M7096.435,1829.161l-2.1-6.216.147-.048.056-.018,2.1,6.219Z" transform="translate(-7049.793 -1811.438)" fill="#7bb837" fill-rule="evenodd"/>
      <path id="Path_725" data-name="Path 725" d="M7074.905,1836.13l-2.1-6.214.2-.066,2.1,6.217Z" transform="translate(-7028.398 -1818.365)" fill="#7bb837" fill-rule="evenodd"/>
      <path id="Path_726" data-name="Path 726" d="M7053.4,1843.139l-2.095-6.213.2-.066,2.1,6.214Z" transform="translate(-7007.033 -1825.33)" fill="#7bb837" fill-rule="evenodd"/>
      <path id="Path_727" data-name="Path 727" d="M7031.874,1850.168l-2.094-6.212.2-.066,2.1,6.213Z" transform="translate(-6985.639 -1832.316)" fill="#7bb837" fill-rule="evenodd"/>
      <path id="Path_728" data-name="Path 728" d="M7010.384,1857.217l-2.094-6.21.2-.067,2.094,6.212Z" transform="translate(-6964.284 -1839.322)" fill="#7bb837" fill-rule="evenodd"/>
      <path id="Path_729" data-name="Path 729" d="M6988.914,1864.3l-2.094-6.21.2-.067,2.094,6.211Z" transform="translate(-6942.948 -1846.357)" fill="#7cb937" fill-rule="evenodd"/>
      <path id="Path_730" data-name="Path 730" d="M6967.454,1871.417l-2.094-6.21.2-.067,2.094,6.21Z" transform="translate(-6921.623 -1853.433)" fill="#7cba39" fill-rule="evenodd"/>
      <path id="Path_731" data-name="Path 731" d="M6945.983,1878.547l-2.093-6.21.2-.068,2.094,6.21Z" transform="translate(-6900.288 -1860.518)" fill="#7cba39" fill-rule="evenodd"/>
      <path id="Path_732" data-name="Path 732" d="M6924.534,1885.728l-2.094-6.21.2-.068,2.094,6.21Z" transform="translate(-6878.973 -1867.653)" fill="#7cba39" fill-rule="evenodd"/>
      <path id="Path_733" data-name="Path 733" d="M6903.064,1892.919l-2.094-6.211.2-.068,2.093,6.21Z" transform="translate(-6857.637 -1874.798)" fill="#7cba39" fill-rule="evenodd"/>
      <path id="Path_734" data-name="Path 734" d="M6881.635,1900.161l-2.095-6.212.2-.068,2.094,6.211Z" transform="translate(-6836.342 -1881.992)" fill="#7cba39" fill-rule="evenodd"/>
      <path id="Path_735" data-name="Path 735" d="M6860.215,1907.422l-2.095-6.213.2-.068,2.094,6.212Z" transform="translate(-6815.057 -1889.207)" fill="#7cba39" fill-rule="evenodd"/>
      <path id="Path_736" data-name="Path 736" d="M6838.805,1914.714l-2.1-6.215.2-.069,2.095,6.213Z" transform="translate(-6793.781 -1896.451)" fill="#7eba39" fill-rule="evenodd"/>
      <path id="Path_737" data-name="Path 737" d="M6817.4,1922.007l-2.1-6.218.2-.069,2.1,6.214Z" transform="translate(-6772.504 -1903.695)" fill="#7eba39" fill-rule="evenodd"/>
      <path id="Path_738" data-name="Path 738" d="M6796.006,1929.369l-2.1-6.22.2-.069,2.1,6.216Z" transform="translate(-6751.249 -1911.009)" fill="#7eba39" fill-rule="evenodd"/>
      <path id="Path_739" data-name="Path 739" d="M6774.618,1936.722l-2.1-6.222.2-.07,2.1,6.219Z" transform="translate(-6729.994 -1918.313)" fill="#7eba39" fill-rule="evenodd"/>
      <path id="Path_740" data-name="Path 740" d="M6753.229,1944.125l-2.1-6.226.2-.07,2.1,6.221Z" transform="translate(-6708.738 -1925.667)" fill="#7eba39" fill-rule="evenodd"/>
      <path id="Path_741" data-name="Path 741" d="M6731.85,1951.539l-2.1-6.229.2-.07,2.1,6.224Z" transform="translate(-6687.492 -1933.03)" fill="#7eba39" fill-rule="evenodd"/>
      <path id="Path_742" data-name="Path 742" d="M6710.491,1958.973l-2.1-6.232.2-.07,2.1,6.227Z" transform="translate(-6666.266 -1940.414)" fill="#7eba39" fill-rule="evenodd"/>
      <path id="Path_743" data-name="Path 743" d="M6689.127,1966.442l-2.1-6.221.2-.071,2.1,6.231-.115.044Z" transform="translate(-6645.04 -1947.846)" fill="#7eba39" fill-rule="evenodd"/>
      <path id="Path_744" data-name="Path 744" d="M6667.8,1973.925l-2.092-6.2.2-.071,2.1,6.231Z" transform="translate(-6623.854 -1955.299)" fill="#7eba3a" fill-rule="evenodd"/>
      <path id="Path_745" data-name="Path 745" d="M6646.437,1981.391l-2.087-6.19.2-.071,2.095,6.213Z" transform="translate(-6602.628 -1962.732)" fill="#7eba3a" fill-rule="evenodd"/>
      <path id="Path_746" data-name="Path 746" d="M6625.112,1988.938l-2.082-6.177.2-.072,2.089,6.2C6625.252,1988.9,6625.183,1988.92,6625.112,1988.938Z" transform="translate(-6581.442 -1970.245)" fill="#7eba3a" fill-rule="evenodd"/>
      <path id="Path_747" data-name="Path 747" d="M6603.769,1996.5l-2.079-6.165.2-.071,2.084,6.183Z" transform="translate(-6560.236 -1977.768)" fill="#7eba3a" fill-rule="evenodd"/>
      <path id="Path_748" data-name="Path 748" d="M6582.465,2004.067l-2.075-6.155.2-.072,2.081,6.171Z" transform="translate(-6539.07 -1985.3)" fill="#7eba3a" fill-rule="evenodd"/>
      <path id="Path_749" data-name="Path 749" d="M6561.152,2011.668l-2.072-6.146.2-.072,2.077,6.16Z" transform="translate(-6517.894 -1992.862)" fill="#7eba3a" fill-rule="evenodd"/>
      <path id="Path_750" data-name="Path 750" d="M6539.84,2019.29l-2.069-6.138.2-.072,2.074,6.15Z" transform="translate(-6496.718 -2000.444)" fill="#7eba3a" fill-rule="evenodd"/>
      <path id="Path_751" data-name="Path 751" d="M6518.547,2026.944l-2.067-6.131.2-.073,2.071,6.142Z" transform="translate(-6475.56 -2008.056)" fill="#7eba3a" fill-rule="evenodd"/>
      <path id="Path_752" data-name="Path 752" d="M6497.235,2034.608l-2.065-6.125.2-.073,2.068,6.135Z" transform="translate(-6454.384 -2015.678)" fill="#7eba3a" fill-rule="evenodd"/>
      <path id="Path_753" data-name="Path 753" d="M6475.974,2042.313l-2.063-6.12.2-.073,2.066,6.128Z" transform="translate(-6433.258 -2023.339)" fill="#7eba3a" fill-rule="evenodd"/>
      <path id="Path_754" data-name="Path 754" d="M6454.7,2050.019l-2.062-6.116.2-.073,2.064,6.123Z" transform="translate(-6412.121 -2031.001)" fill="#7eba3a" fill-rule="evenodd"/>
      <path id="Path_755" data-name="Path 755" d="M6433.431,2057.765l-2.061-6.112.2-.073,2.063,6.118Z" transform="translate(-6390.985 -2038.703)" fill="#7eba3a" fill-rule="evenodd"/>
      <path id="Path_756" data-name="Path 756" d="M6412.18,2065.522l-2.06-6.109.2-.073,2.061,6.114Z" transform="translate(-6369.869 -2046.414)" fill="#7eba3a" fill-rule="evenodd"/>
      <path id="Path_757" data-name="Path 757" d="M6390.929,2073.29l-2.059-6.106.2-.073,2.06,6.11Z" transform="translate(-6348.752 -2054.135)" fill="#7eba3a" fill-rule="evenodd"/>
      <path id="Path_758" data-name="Path 758" d="M6369.678,2081.1l-2.058-6.1.2-.074,2.06,6.107Z" transform="translate(-6327.635 -2061.896)" fill="#7eba3a" fill-rule="evenodd"/>
      <path id="Path_759" data-name="Path 759" d="M6348.447,2088.906l-2.057-6.1.2-.074,2.058,6.1Z" transform="translate(-6306.539 -2069.657)" fill="#7eba3a" fill-rule="evenodd"/>
      <path id="Path_760" data-name="Path 760" d="M6327.2,2096.755l-2.057-6.1.2-.074,2.057,6.1Z" transform="translate(-6285.422 -2077.458)" fill="#7eba3a" fill-rule="evenodd"/>
      <path id="Path_761" data-name="Path 761" d="M6305.967,2104.614l-2.057-6.1.2-.074,2.057,6.1Z" transform="translate(-6264.325 -2085.269)" fill="#7eba3a" fill-rule="evenodd"/>
      <path id="Path_762" data-name="Path 762" d="M6284.767,2112.5l-2.057-6.1.2-.074,2.056,6.1Z" transform="translate(-6243.258 -2093.109)" fill="#7eba3a" fill-rule="evenodd"/>
      <path id="Path_763" data-name="Path 763" d="M6263.536,2120.393l-2.057-6.1.2-.075,2.057,6.1Z" transform="translate(-6222.161 -2100.949)" fill="#7eba3a" fill-rule="evenodd"/>
      <path id="Path_764" data-name="Path 764" d="M6242.326,2128.3l-2.057-6.1.2-.075,2.056,6.1Z" transform="translate(-6201.084 -2108.81)" fill="#7eba3a" fill-rule="evenodd"/>
      <path id="Path_765" data-name="Path 765" d="M6221.137,2136.234l-2.057-6.1.2-.075,2.056,6.1Z" transform="translate(-6180.027 -2116.69)" fill="#7eba3a" fill-rule="evenodd"/>
      <path id="Path_766" data-name="Path 766" d="M6199.927,2144.185l-2.057-6.1.2-.075,2.056,6.1Z" transform="translate(-6158.951 -2124.59)" fill="#7eba3a" fill-rule="evenodd"/>
      <path id="Path_767" data-name="Path 767" d="M6178.736,2152.135l-2.057-6.1.2-.075,2.056,6.1Z" transform="translate(-6137.894 -2132.49)" fill="#7eba3a" fill-rule="evenodd"/>
      <path id="Path_768" data-name="Path 768" d="M6157.547,2160.126l-2.057-6.1.2-.075,2.057,6.1Z" transform="translate(-6116.836 -2140.43)" fill="#7eba3a" fill-rule="evenodd"/>
      <path id="Path_769" data-name="Path 769" d="M6136.377,2168.137l-2.057-6.1.2-.075,2.057,6.1Z" transform="translate(-6095.799 -2148.39)" fill="#7eba3a" fill-rule="evenodd"/>
      <path id="Path_770" data-name="Path 770" d="M6115.188,2176.149l-2.058-6.1.2-.076,2.057,6.1Z" transform="translate(-6074.743 -2156.35)" fill="#7eba3a" fill-rule="evenodd"/>
      <path id="Path_771" data-name="Path 771" d="M6094.038,2184.19l-2.058-6.1.2-.076,2.057,6.1Z" transform="translate(-6053.725 -2164.339)" fill="#7eba3a" fill-rule="evenodd"/>
      <path id="Path_772" data-name="Path 772" d="M6072.869,2192.242l-2.059-6.106.2-.076,2.059,6.1Z" transform="translate(-6032.688 -2172.339)" fill="#7eba3a" fill-rule="evenodd"/>
      <path id="Path_773" data-name="Path 773" d="M6051.7,2200.274l-2.059-6.108.2-.076,2.059,6.105Z" transform="translate(-6011.651 -2180.318)" fill="#7eba3a" fill-rule="evenodd"/>
      <path id="Path_774" data-name="Path 774" d="M6030.53,2208.365l-2.061-6.109.2-.076,2.06,6.107Z" transform="translate(-5990.614 -2188.357)" fill="#7eba3a" fill-rule="evenodd"/>
      <path id="Path_775" data-name="Path 775" d="M6009.38,2216.458l-2.061-6.111.2-.076,2.059,6.108Z" transform="translate(-5969.597 -2196.396)" fill="#7eba3a" fill-rule="evenodd"/>
      <path id="Path_776" data-name="Path 776" d="M5988.25,2224.55l-2.061-6.113.2-.076,2.06,6.11Z" transform="translate(-5948.6 -2204.436)" fill="#7eba3a" fill-rule="evenodd"/>
      <path id="Path_777" data-name="Path 777" d="M5967.1,2232.681l-2.062-6.115.2-.076,2.061,6.112Z" transform="translate(-5927.582 -2212.515)" fill="#7eba3a" fill-rule="evenodd"/>
      <path id="Path_778" data-name="Path 778" d="M5945.982,2240.813l-2.062-6.117.2-.076,2.061,6.114Z" transform="translate(-5906.595 -2220.594)" fill="#7eba3a" fill-rule="evenodd"/>
      <path id="Path_779" data-name="Path 779" d="M5924.833,2248.945l-2.063-6.118.2-.077,2.062,6.116Z" transform="translate(-5885.577 -2228.673)" fill="#7eba3a" fill-rule="evenodd"/>
      <path id="Path_780" data-name="Path 780" d="M5903.7,2257.117,5901.64,2251l.2-.077,2.063,6.118Z" transform="translate(-5864.58 -2236.791)" fill="#7eba3a" fill-rule="evenodd"/>
      <path id="Path_781" data-name="Path 781" d="M5882.574,2265.28l-2.064-6.123.2-.077,2.063,6.12Z" transform="translate(-5843.583 -2244.9)" fill="#7eba39" fill-rule="evenodd"/>
      <path id="Path_782" data-name="Path 782" d="M5861.465,2273.452l-2.065-6.125.2-.077,2.064,6.122Z" transform="translate(-5822.605 -2253.019)" fill="#7eba39" fill-rule="evenodd"/>
      <path id="Path_783" data-name="Path 783" d="M5845.493,2281.674l-1.842-5.462a5.368,5.368,0,0,0-.191-.677h0l.166-.064,2.064,6.124Z" transform="translate(-5806.765 -2261.188)" fill="#7eba39" fill-rule="evenodd"/>
      <path id="Path_784" data-name="Path 784" d="M5845.362,2289.846l-1.627-4.826a4.426,4.426,0,0,0-.274-1.366h0l.034-.013,2.065,6.126Z" transform="translate(-5806.766 -2269.306)" fill="#7eba39" fill-rule="evenodd"/>
      <path id="Path_785" data-name="Path 785" d="M5885.7,2465.153l-1.514-4.49a2.972,2.972,0,0,0,0-.663l1.71,5.073Z" transform="translate(-5847.239 -2444.559)" fill="#7eba39" fill-rule="evenodd"/>
      <path id="Path_786" data-name="Path 786" d="M5877.195,2542.071l-1.435-4.256a2.381,2.381,0,0,0,.068-.465l1.564,4.64Z" transform="translate(-5838.862 -2521.423)" fill="#7eba39" fill-rule="evenodd"/>
      <path id="Path_787" data-name="Path 787" d="M5865.605,2594.434l-1.375-4.079a2.109,2.109,0,0,0,.1-.365l1.471,4.364-.2.08Z" transform="translate(-5827.405 -2573.733)" fill="#7eba39" fill-rule="evenodd"/>
      <path id="Path_788" data-name="Path 788" d="M5851.919,2634.962l-1.329-3.942a1.89,1.89,0,0,0,.124-.3l1.4,4.161Z" transform="translate(-5813.851 -2614.207)" fill="#7eba39" fill-rule="evenodd"/>
      <path id="Path_789" data-name="Path 789" d="M5834.656,2668.077l-1.305-3.872.1-.1c.02-.037.039-.075.056-.114l1.351,4.007Z" transform="translate(-5796.719 -2647.268)" fill="#7cba39" fill-rule="evenodd"/>
      <path id="Path_790" data-name="Path 790" d="M5816.994,2692.994l-1.284-3.81.166-.174,1.316,3.9Z" transform="translate(-5779.189 -2672.132)" fill="#7cba39" fill-rule="evenodd"/>
      <path id="Path_791" data-name="Path 791" d="M5799.313,2711.4l-1.263-3.748.166-.174,1.295,3.841Z" transform="translate(-5761.64 -2690.486)" fill="#7cba39" fill-rule="evenodd"/>
      <path id="Path_792" data-name="Path 792" d="M5781.622,2729.809l-1.242-3.686.166-.173,1.274,3.778Z" transform="translate(-5744.081 -2708.84)" fill="#7cba39" fill-rule="evenodd"/>
      <path id="Path_793" data-name="Path 793" d="M5763.931,2748.187l-1.221-3.623.166-.173,1.253,3.716Z" transform="translate(-5726.522 -2727.164)" fill="#7cba39" fill-rule="evenodd"/>
      <path id="Path_794" data-name="Path 794" d="M5746.22,2766.554l-1.2-3.561.167-.173,1.231,3.654Z" transform="translate(-5708.943 -2745.478)" fill="#7cba39" fill-rule="evenodd"/>
      <path id="Path_795" data-name="Path 795" d="M5728.529,2784.913l-1.179-3.5.166-.173,1.211,3.592Z" transform="translate(-5691.385 -2763.783)" fill="#7cb937" fill-rule="evenodd"/>
      <path id="Path_796" data-name="Path 796" d="M5710.818,2803.26l-1.158-3.437.166-.173,1.19,3.53Z" transform="translate(-5673.805 -2782.077)" fill="#7bb837" fill-rule="evenodd"/>
      <path id="Path_797" data-name="Path 797" d="M5693.107,2821.588l-1.137-3.375.167-.173,1.169,3.468Z" transform="translate(-5656.226 -2800.352)" fill="#7bb837" fill-rule="evenodd"/>
      <path id="Path_798" data-name="Path 798" d="M5675.376,2839.885l-1.116-3.313.167-.173,1.147,3.406Z" transform="translate(-5638.627 -2818.596)" fill="#7bb837" fill-rule="evenodd"/>
      <path id="Path_799" data-name="Path 799" d="M5657.666,2858.193l-1.1-3.25.167-.173,1.127,3.344Z" transform="translate(-5621.048 -2836.851)" fill="#7bb837" fill-rule="evenodd"/>
      <path id="Path_800" data-name="Path 800" d="M5639.935,2876.5l-1.075-3.188.167-.173,1.106,3.282Z" transform="translate(-5603.449 -2855.106)" fill="#7bb837" fill-rule="evenodd"/>
      <path id="Path_801" data-name="Path 801" d="M5622.2,2894.758l-1.055-3.126.167-.173,1.086,3.22Z" transform="translate(-5585.85 -2873.311)" fill="#7bb837" fill-rule="evenodd"/>
      <path id="Path_802" data-name="Path 802" d="M5604.492,2913.026l-1.032-3.064.167-.172,1.064,3.157Z" transform="translate(-5568.271 -2891.526)" fill="#7bb837" fill-rule="evenodd"/>
      <path id="Path_803" data-name="Path 803" d="M5586.732,2931.293l-1.012-3,.167-.172,1.043,3.095Z" transform="translate(-5550.643 -2909.741)" fill="#7bb837" fill-rule="evenodd"/>
      <path id="Path_804" data-name="Path 804" d="M5569,2949.54l-.99-2.938.167-.172,1.022,3.032Z" transform="translate(-5533.044 -2927.936)" fill="#7bb837" fill-rule="evenodd"/>
      <path id="Path_805" data-name="Path 805" d="M5551.25,2967.78l-.97-2.878.167-.172,1,2.969-.162.063Z" transform="translate(-5515.425 -2946.121)" fill="#7bb837" fill-rule="evenodd"/>
      <path id="Path_806" data-name="Path 806" d="M5533.521,2985.995l-.951-2.823.167-.172.98,2.907-.029.012Z" transform="translate(-5497.827 -2964.276)" fill="#77b737" fill-rule="evenodd"/>
      <path id="Path_807" data-name="Path 807" d="M5515.773,3004.229l-.933-2.768.167-.172.961,2.85Z" transform="translate(-5480.208 -2982.451)" fill="#77b737" fill-rule="evenodd"/>
      <path id="Path_808" data-name="Path 808" d="M5498.024,3022.454l-.915-2.712.167-.172.942,2.8Z" transform="translate(-5462.589 -3000.617)" fill="#77b737" fill-rule="evenodd"/>
      <path id="Path_809" data-name="Path 809" d="M5480.275,3040.668l-.9-2.656.167-.172.924,2.74Z" transform="translate(-5444.971 -3018.772)" fill="#77b736" fill-rule="evenodd"/>
      <path id="Path_810" data-name="Path 810" d="M5462.526,3058.843l-.877-2.6.167-.172.905,2.685Z" transform="translate(-5427.351 -3036.887)" fill="#77b736" fill-rule="evenodd"/>
      <path id="Path_811" data-name="Path 811" d="M5444.758,3077.037l-.858-2.545.167-.172.886,2.629Z" transform="translate(-5409.713 -3055.023)" fill="#77b736" fill-rule="evenodd"/>
      <path id="Path_812" data-name="Path 812" d="M5426.989,3095.2l-.839-2.489.167-.172.868,2.573Z" transform="translate(-5392.074 -3073.129)" fill="#77b736" fill-rule="evenodd"/>
      <path id="Path_813" data-name="Path 813" d="M5409.24,3113.394l-.82-2.433.167-.171.849,2.517Z" transform="translate(-5374.456 -3091.264)" fill="#77b736" fill-rule="evenodd"/>
      <path id="Path_814" data-name="Path 814" d="M5391.471,3131.548l-.8-2.376.167-.172.83,2.461Z" transform="translate(-5356.817 -3109.36)" fill="#77b736" fill-rule="evenodd"/>
      <path id="Path_815" data-name="Path 815" d="M5373.7,3149.721l-.782-2.32.167-.171.81,2.4Z" transform="translate(-5339.179 -3127.475)" fill="#77b736" fill-rule="evenodd"/>
      <path id="Path_816" data-name="Path 816" d="M5355.933,3167.864l-.763-2.263.167-.171.792,2.348Z" transform="translate(-5321.54 -3145.561)" fill="#77b736" fill-rule="evenodd"/>
      <path id="Path_817" data-name="Path 817" d="M5338.164,3185.978l-.744-2.206.167-.171.772,2.292Z" transform="translate(-5303.902 -3163.617)" fill="#77b736" fill-rule="evenodd"/>
      <path id="Path_818" data-name="Path 818" d="M5320.374,3204.131l-.724-2.149.167-.171.753,2.235Z" transform="translate(-5286.243 -3181.713)" fill="#77b736" fill-rule="evenodd"/>
      <path id="Path_819" data-name="Path 819" d="M5302.605,3222.263l-.706-2.092.168-.171.733,2.178Z" transform="translate(-5268.604 -3199.789)" fill="#77b736" fill-rule="evenodd"/>
      <path id="Path_820" data-name="Path 820" d="M5284.806,3240.4l-.686-2.035.167-.171.715,2.121Z" transform="translate(-5250.936 -3217.865)" fill="#77b736" fill-rule="evenodd"/>
      <path id="Path_821" data-name="Path 821" d="M5267.037,3258.5l-.667-1.978.167-.171.7,2.063Z" transform="translate(-5233.297 -3235.91)" fill="#77b736" fill-rule="evenodd"/>
      <path id="Path_822" data-name="Path 822" d="M5249.248,3276.631l-.647-1.92.167-.171.676,2.006Z" transform="translate(-5215.64 -3253.986)" fill="#77b736" fill-rule="evenodd"/>
      <path id="Path_823" data-name="Path 823" d="M5231.478,3294.7l-.628-1.863.167-.171.657,1.949Z" transform="translate(-5198 -3272.002)" fill="#77b733" fill-rule="evenodd"/>
      <path id="Path_824" data-name="Path 824" d="M5213.688,3312.816l-.608-1.805.167-.171.638,1.892Z" transform="translate(-5180.342 -3290.058)" fill="#77b733" fill-rule="evenodd"/>
      <path id="Path_825" data-name="Path 825" d="M5195.879,3330.908l-.589-1.747.167-.171.618,1.834Z" transform="translate(-5162.664 -3308.094)" fill="#77b733" fill-rule="evenodd"/>
      <path id="Path_826" data-name="Path 826" d="M5178.109,3348.97l-.569-1.689.167-.171.6,1.776Z" transform="translate(-5145.025 -3326.101)" fill="#77b633" fill-rule="evenodd"/>
      <path id="Path_827" data-name="Path 827" d="M5160.3,3367.062l-.55-1.632.167-.171.58,1.718Z" transform="translate(-5127.347 -3344.136)" fill="#77b633" fill-rule="evenodd"/>
      <path id="Path_828" data-name="Path 828" d="M5142.511,3385.154l-.531-1.573.167-.17.56,1.66Z" transform="translate(-5109.688 -3362.173)" fill="#77b633" fill-rule="evenodd"/>
      <path id="Path_829" data-name="Path 829" d="M5124.721,3403.206l-.511-1.515.167-.171.54,1.6Z" transform="translate(-5092.03 -3380.169)" fill="#77b633" fill-rule="evenodd"/>
      <path id="Path_830" data-name="Path 830" d="M5106.931,3421.277l-.491-1.457.167-.171.521,1.544Z" transform="translate(-5074.371 -3398.185)" fill="#77b633" fill-rule="evenodd"/>
      <path id="Path_831" data-name="Path 831" d="M5089.122,3439.339l-.472-1.4.167-.17.5,1.486Z" transform="translate(-5056.693 -3416.192)" fill="#77b633" fill-rule="evenodd"/>
      <path id="Path_832" data-name="Path 832" d="M5071.332,3457.411l-.452-1.34.167-.17.481,1.428Z" transform="translate(-5039.035 -3434.208)" fill="#77b633" fill-rule="evenodd"/>
      <path id="Path_833" data-name="Path 833" d="M5053.522,3475.462l-.432-1.282.167-.17.462,1.369Z" transform="translate(-5021.356 -3452.204)" fill="#77b633" fill-rule="evenodd"/>
      <path id="Path_834" data-name="Path 834" d="M5035.712,3493.494l-.413-1.223.168-.17.441,1.311Z" transform="translate(-5003.678 -3470.181)" fill="#77b633" fill-rule="evenodd"/>
      <path id="Path_835" data-name="Path 835" d="M5017.922,3511.545l-.393-1.165.167-.17.422,1.252Z" transform="translate(-4986.019 -3488.177)" fill="#77b633" fill-rule="evenodd"/>
      <path id="Path_836" data-name="Path 836" d="M5000.113,3529.576l-.373-1.106.167-.171.4,1.194Z" transform="translate(-4968.341 -3506.154)" fill="#77b633" fill-rule="evenodd"/>
      <path id="Path_837" data-name="Path 837" d="M4982.3,3547.618l-.353-1.047.167-.17.383,1.135Z" transform="translate(-4950.663 -3524.14)" fill="#77b633" fill-rule="evenodd"/>
      <path id="Path_838" data-name="Path 838" d="M4964.513,3565.649l-.333-.989.167-.17.364,1.077Z" transform="translate(-4933.005 -3542.116)" fill="#77b633" fill-rule="evenodd"/>
      <path id="Path_839" data-name="Path 839" d="M4946.684,3583.68l-.313-.93.167-.17.343,1.018Z" transform="translate(-4915.306 -3560.093)" fill="#77b633" fill-rule="evenodd"/>
      <path id="Path_840" data-name="Path 840" d="M4928.894,3601.731l-.293-.871.167-.17.323.959Z" transform="translate(-4897.647 -3578.089)" fill="#77b633" fill-rule="evenodd"/>
      <path id="Path_841" data-name="Path 841" d="M4911.083,3619.742l-.273-.812.167-.17.3.9Z" transform="translate(-4879.969 -3596.046)" fill="#77b633" fill-rule="evenodd"/>
      <path id="Path_842" data-name="Path 842" d="M4893.273,3637.773l-.253-.753.167-.17.284.841Z" transform="translate(-4862.291 -3614.022)" fill="#77b633" fill-rule="evenodd"/>
      <path id="Path_843" data-name="Path 843" d="M4875.444,3655.774l-.234-.694.167-.17.264.783Z" transform="translate(-4844.593 -3631.969)" fill="#77b633" fill-rule="evenodd"/>
      <path id="Path_844" data-name="Path 844" d="M4857.634,3673.785l-.214-.635.167-.17.244.724Z" transform="translate(-4826.915 -3649.925)" fill="#77b633" fill-rule="evenodd"/>
      <path id="Path_845" data-name="Path 845" d="M4839.824,3691.8l-.194-.576.167-.17.225.665Z" transform="translate(-4809.236 -3667.882)" fill="#77b633" fill-rule="evenodd"/>
      <path id="Path_846" data-name="Path 846" d="M4821.995,3709.807l-.174-.517.167-.17.2.606Z" transform="translate(-4791.538 -3685.839)" fill="#77b633" fill-rule="evenodd"/>
      <path id="Path_847" data-name="Path 847" d="M4804.184,3727.818l-.154-.458.167-.17.185.546Z" transform="translate(-4773.859 -3703.795)" fill="#76b433" fill-rule="evenodd"/>
      <path id="Path_848" data-name="Path 848" d="M4786.375,3745.809l-.135-.4.168-.17.164.488Z" transform="translate(-4756.182 -3721.732)" fill="#73b234" fill-rule="evenodd"/>
      <path id="Path_849" data-name="Path 849" d="M4768.565,3763.82l-.115-.34.167-.17.145.428Z" transform="translate(-4738.503 -3739.688)" fill="#73b234" fill-rule="evenodd"/>
      <path id="Path_850" data-name="Path 850" d="M4750.735,3781.821l-.1-.281.168-.17.125.37Z" transform="translate(-4720.804 -3757.635)" fill="#73b234" fill-rule="evenodd"/>
      <path id="Path_851" data-name="Path 851" d="M4732.9,3799.812l-.075-.222.168-.17.1.311Z" transform="translate(-4703.107 -3775.571)" fill="#72b134" fill-rule="evenodd"/>
      <path id="Path_852" data-name="Path 852" d="M4715.095,3817.8l-.055-.163.167-.17.085.251Z" transform="translate(-4685.428 -3793.508)" fill="#72b134" fill-rule="evenodd"/>
      <path id="Path_853" data-name="Path 853" d="M4697.265,3835.793l-.035-.1.167-.17.065.192Z" transform="translate(-4667.73 -3811.445)" fill="#72b134" fill-rule="evenodd"/>
      <path id="Path_854" data-name="Path 854" d="M4679.445,3853.785l-.015-.045.167-.17.045.133Z" transform="translate(-4650.042 -3829.382)" fill="#72b134" fill-rule="evenodd"/>
      <path id="Path_855" data-name="Path 855" d="M4666.14,3871.62l.025.074-.165.068Z" transform="translate(-4636.696 -3847.319)" fill="#72b136" fill-rule="evenodd"/>
      <path id="Path_856" data-name="Path 856" d="M4666.028,3889.67l.005.015-.034.014Z" transform="translate(-4636.696 -3865.255)" fill="#72b036" fill-rule="evenodd"/>
      <path id="Path_857" data-name="Path 857" d="M181.509,3690.676a8.994,8.994,0,0,1-2.62-.98,14.94,14.94,0,0,1-3.088-2.461c.932-3.119,2.305-4.076,4.406-6.135a46.519,46.519,0,0,1,10.7-7.351,116.681,116.681,0,0,0-5.846,12.361,33.055,33.055,0,0,0-3.555,4.565Z" transform="translate(-174.68 -3650.69)" fill="#fefefe" fill-rule="evenodd"/>
      <path id="Path_858" data-name="Path 858" d="M42.713,626.057c-6.7,2.429-16.636,6.245-22.659,9.71-4.682,2.693-9.757,5.6-12.107,10.3-.813,1.624-3.171.561-4.345-.056A10.719,10.719,0,0,1,.438,643.68c-.575-.681-.471-.759-.222-1.618,2.515-8.7,18.865-14.98,32.573-20.863,4.771-2.047,8.942-3.609,11.618-4.475,2.464-.8,24.009-9.3,26-6.224.554.859-3.34,3.029-5.759,4.225,2.622-.214,7.061-.631,9.218-.8.429-.034,5.294-.478,8.2-.742,2.1-.19,2.74-.294.539,1.185a44.668,44.668,0,0,1-13.209,5.5,34.194,34.194,0,0,1,4.33,2.577c.883.623,4.392,3.475,4.288,5.151-.047.747-.333.54-.8.361-8.926-3.446-14.778-5.339-21.484-4.94a46.106,46.106,0,0,0-13.019,3.046Zm18.39-9.792q-.579.234-1.179.474a36.323,36.323,0,0,1,6.223,1.746c4.274-.051,7.082-1.441,11.339-3.333-1.169.114-2.337.224-3.5.316-1.6.128-3.21.313-4.81.481-1.853.2-4.035.319-5.9.348-.341.039-1.458-.022-2.175-.033ZM72.778,624.6q.937.332,1.868.68a20.341,20.341,0,0,0-1.831-1.549,34.176,34.176,0,0,0-4.962-2.847c-6.549-3.123-14.544-3.425-21.784-2.975q-.58.195-1.154.381c-4,1.293-7.977,3.127-11.882,4.685-8.617,3.884-27.8,10.262-31.271,19.724a9.7,9.7,0,0,0,2.606,1.858,5.879,5.879,0,0,0,2.133.733c2.385-4.735,6.074-6.8,10.4-9.675,4.536-3.014,15.411-7.462,24.533-10.823C53.81,620.232,59.842,620,72.778,624.6ZM51.72,615.905c1.723.082,3.3.185,4.8.344,1.826-.683,3.511-1.3,5.4-2.087a25.775,25.775,0,0,0,5.366-2.788c-4.688.576-10.164,2.568-15.567,4.531Z" transform="translate(0 -606.004)" fill="#0a0a0a" fill-rule="evenodd"/>
      <path id="Path_859" data-name="Path 859" d="M1377.823,1317.6c-.554-.3,1.838-5.208,2.766-8.008.717-2.164,6.326-13.478,7.811-15.922.742-1.221,6.456-10.317,8.031-10.011a9.029,9.029,0,0,0,3.9-.318c1.469-.833,2.128-.53,3.226.438,2.3,2.03.764,2.4,1,4.028.155,1.056,1.014,2.1.7,3.07-.356,1.108-1.58,1.818-2.337,2.6-3.267,3.392-8.284,8.38-13.015,13.158-3.172,3.2-6.491,6-8.323,8.359-.319.411-2.881,3.077-3.768,2.6h0Z" transform="translate(-1369.076 -1274.809)" fill-rule="evenodd" fill="url(#linear-gradient)"/>
      <path id="Path_860" data-name="Path 860" d="M3796.741,2459.312l-3.695-2.972a.618.618,0,0,1-.095-.868h0a.619.619,0,0,1,.869-.094l3.695,2.971a.62.62,0,0,1,.094.869h0A.619.619,0,0,1,3796.741,2459.312Z" transform="translate(-3768.992 -2439.83)" fill="#585757" fill-rule="evenodd"/>
      <path id="Path_861" data-name="Path 861" d="M4160.818,2331.688l-3.694-2.972a.619.619,0,0,1-.094-.869h0a.619.619,0,0,1,.868-.094l3.7,2.971a.619.619,0,0,1,.094.868h0A.62.62,0,0,1,4160.818,2331.688Z" transform="translate(-4130.785 -2313.007)" fill="#585757" fill-rule="evenodd"/>
      <path id="Path_862" data-name="Path 862" d="M1250.768,564.945l-.337-.514a.439.439,0,0,0-.607-.126l-3.05,2-.143-.128,2.266-2.772a.44.44,0,0,0-.062-.617l-.476-.389a.439.439,0,0,0-.617.062l-2.224,2.72-.185-.166,1.382-3.389a.44.44,0,0,0-.24-.572l-.57-.232a.439.439,0,0,0-.572.24l-1.326,3.252a2.478,2.478,0,0,0-2.293.78l-.334.373a4.427,4.427,0,0,0-5.1,1.216c-7.049,8.056-14.4,22.71-17.392,32.8-.182.615-.7,1.683.137,2.012a3.013,3.013,0,0,0,2.5-.8c11.607-11.916,20.611-20.837,26.1-26.583.527-.984.155-2.479-.748-3.968l.207-.231a2.478,2.478,0,0,0,.524-2.366l3.032-1.988a.439.439,0,0,0,.126-.607Zm-18.6,18.564-3.41-2.742q-.6,1.09-1.176,2.191c-1.321,2.526-2.556,5.105-3.687,7.725l1.927,1.6a.623.623,0,0,1,.095.869h0a.617.617,0,0,1-.869.094l-1.657-1.376-.225.543c-.911,2.216-1.766,4.492-2.478,6.8q4.627-4.748,9.285-9.465l-.022-.017-2.46-2.042a.617.617,0,0,1-.094-.869h0a.621.621,0,0,1,.869-.094l2.46,2.042a.625.625,0,0,1,.1.11q2.439-2.473,4.883-4.942c3.519-3.56,7.057-7.114,10.517-10.731a3.545,3.545,0,0,0-.388-1.549,9.842,9.842,0,0,0-2.311-2.984c-1.6-1.426-4.255-2.911-6.011-.9a60.145,60.145,0,0,0-5.095,6.864q-1.6,2.47-3.055,5.045l3.573,2.874a.618.618,0,0,1,.095.868h0a.618.618,0,0,1-.868.094Zm10.747-17.322a11.915,11.915,0,0,1,3,2.6.858.858,0,0,0-.1-1.167l-1.685-1.51a.857.857,0,0,0-1.205.067Z" transform="translate(-1210.898 -557.269)" fill="#0a0a0a" fill-rule="evenodd"/>
      <path id="Path_863" data-name="Path 863" d="M3127.932,3408.166l-3.7-2.971a.619.619,0,0,1-.094-.869h0a.619.619,0,0,1,.868-.094l3.7,2.971a.618.618,0,0,1,.095.868v0A.619.619,0,0,1,3127.932,3408.166Z" transform="translate(-3104.381 -3382.728)" fill="#585757" fill-rule="evenodd"/>
    </g>
  </g>
</svg>
