<svg xmlns="http://www.w3.org/2000/svg" width="258.201" height="134.576" viewBox="0 0 258.201 134.576"><defs><style>.a{fill:#272727;opacity:0.7;}.b{fill:#4b63fd;}.b,.c{stroke:#4b63fd;stroke-width:5px;}.c{fill:#4c64fd;}</style></defs><g transform="translate(258.201 134.576) rotate(180)"><path class="a" d="M833,336.061a3.035,3.035,0,1,1,3.035,3.036A3.035,3.035,0,0,1,833,336.061Z" transform="translate(-748.955 -281.638)"/><path class="a" d="M762.219,336.061a3.035,3.035,0,1,1,3.036,3.036A3.035,3.035,0,0,1,762.219,336.061Z" transform="translate(-706.19 -281.638)"/><path class="a" d="M691.44,336.061a3.035,3.035,0,1,1,3.035,3.036A3.035,3.035,0,0,1,691.44,336.061Z" transform="translate(-663.425 -281.638)"/><path class="a" d="M620.66,336.061A3.035,3.035,0,1,1,623.7,339.1,3.035,3.035,0,0,1,620.66,336.061Z" transform="translate(-620.66 -281.638)"/><path class="a" d="M833,401.008a3.035,3.035,0,1,1,3.035,3.036A3.035,3.035,0,0,1,833,401.008Z" transform="translate(-748.955 -320.879)"/><path class="a" d="M762.219,401.008a3.035,3.035,0,1,1,3.036,3.036A3.035,3.035,0,0,1,762.219,401.008Z" transform="translate(-706.19 -320.879)"/><path class="a" d="M691.44,401.008a3.035,3.035,0,1,1,3.035,3.036A3.035,3.035,0,0,1,691.44,401.008Z" transform="translate(-663.425 -320.879)"/><path class="a" d="M620.66,401.008a3.035,3.035,0,1,1,3.036,3.036A3.035,3.035,0,0,1,620.66,401.008Z" transform="translate(-620.66 -320.879)"/><path class="a" d="M833,465.954a3.035,3.035,0,1,1,3.035,3.036A3.035,3.035,0,0,1,833,465.954Z" transform="translate(-748.955 -360.119)"/><path class="b" d="M762.219,465.954a3.035,3.035,0,1,1,3.036,3.036A3.035,3.035,0,0,1,762.219,465.954Z" transform="translate(-706.19 -360.119)"/><path class="a" d="M691.44,465.954a3.035,3.035,0,1,1,3.035,3.036A3.035,3.035,0,0,1,691.44,465.954Z" transform="translate(-663.425 -360.119)"/><path class="a" d="M620.66,465.954a3.035,3.035,0,1,1,3.036,3.036A3.035,3.035,0,0,1,620.66,465.954Z" transform="translate(-620.66 -360.119)"/><path class="a" d="M833,530.9a3.035,3.035,0,1,1,3.035,3.034A3.035,3.035,0,0,1,833,530.9Z" transform="translate(-748.955 -399.359)"/><path class="a" d="M762.219,530.9a3.035,3.035,0,1,1,3.036,3.034A3.035,3.035,0,0,1,762.219,530.9Z" transform="translate(-706.19 -399.359)"/><path class="a" d="M691.44,530.9a3.035,3.035,0,1,1,3.035,3.034A3.035,3.035,0,0,1,691.44,530.9Z" transform="translate(-663.425 -399.359)"/><path class="a" d="M620.66,530.9a3.035,3.035,0,1,1,3.036,3.034A3.035,3.035,0,0,1,620.66,530.9Z" transform="translate(-620.66 -399.359)"/><path class="a" d="M1045.339,336.061a3.035,3.035,0,1,1,3.034,3.036A3.034,3.034,0,0,1,1045.339,336.061Z" transform="translate(-877.25 -281.638)"/><path class="a" d="M974.558,336.061a3.035,3.035,0,1,1,3.035,3.036A3.034,3.034,0,0,1,974.558,336.061Z" transform="translate(-834.485 -281.638)"/><path class="a" d="M903.778,336.061a3.035,3.035,0,1,1,3.035,3.036A3.035,3.035,0,0,1,903.778,336.061Z" transform="translate(-791.72 -281.638)"/><path class="a" d="M1045.339,401.008a3.035,3.035,0,1,1,3.034,3.036A3.034,3.034,0,0,1,1045.339,401.008Z" transform="translate(-877.25 -320.879)"/><path class="a" d="M974.558,401.008a3.035,3.035,0,1,1,3.034,3.036A3.034,3.034,0,0,1,974.558,401.008Z" transform="translate(-834.485 -320.879)"/><path class="a" d="M903.778,401.008a3.035,3.035,0,1,1,3.035,3.036A3.035,3.035,0,0,1,903.778,401.008Z" transform="translate(-791.72 -320.879)"/><path class="a" d="M1045.339,465.954a3.035,3.035,0,1,1,3.034,3.036A3.034,3.034,0,0,1,1045.339,465.954Z" transform="translate(-877.25 -360.119)"/><path class="a" d="M833,206.223a3.035,3.035,0,1,1,3.035,3.036A3.035,3.035,0,0,1,833,206.223Z" transform="translate(-748.955 -203.19)"/><path class="a" d="M762.221,206.223a3.035,3.035,0,1,1,3.035,3.036A3.034,3.034,0,0,1,762.221,206.223Z" transform="translate(-706.191 -203.19)"/><path class="a" d="M691.44,206.223a3.035,3.035,0,1,1,3.035,3.036A3.035,3.035,0,0,1,691.44,206.223Z" transform="translate(-663.425 -203.19)"/><path class="a" d="M620.66,206.223a3.035,3.035,0,1,1,3.036,3.036A3.035,3.035,0,0,1,620.66,206.223Z" transform="translate(-620.66 -203.19)"/><path class="a" d="M833,271.17a3.035,3.035,0,1,1,3.035,3.036A3.035,3.035,0,0,1,833,271.17Z" transform="translate(-748.955 -242.431)"/><path class="a" d="M762.219,271.17a3.035,3.035,0,1,1,3.036,3.036A3.035,3.035,0,0,1,762.219,271.17Z" transform="translate(-706.19 -242.431)"/><path class="a" d="M691.44,271.17a3.035,3.035,0,1,1,3.035,3.036A3.035,3.035,0,0,1,691.44,271.17Z" transform="translate(-663.425 -242.431)"/><path class="a" d="M620.66,271.17a3.035,3.035,0,1,1,3.036,3.036A3.035,3.035,0,0,1,620.66,271.17Z" transform="translate(-620.66 -242.431)"/><path class="a" d="M1045.339,206.223a3.035,3.035,0,1,1,3.034,3.036A3.034,3.034,0,0,1,1045.339,206.223Z" transform="translate(-877.25 -203.19)"/><path class="a" d="M974.558,206.223a3.035,3.035,0,1,1,3.035,3.036A3.034,3.034,0,0,1,974.558,206.223Z" transform="translate(-834.485 -203.19)"/><path class="a" d="M903.778,206.223a3.035,3.035,0,1,1,3.035,3.036A3.035,3.035,0,0,1,903.778,206.223Z" transform="translate(-791.72 -203.19)"/><path class="c" d="M1045.339,271.17a3.035,3.035,0,1,1,3.034,3.036A3.034,3.034,0,0,1,1045.339,271.17Z" transform="translate(-877.25 -242.431)"/><path class="a" d="M974.558,271.17a3.035,3.035,0,1,1,3.035,3.036A3.034,3.034,0,0,1,974.558,271.17Z" transform="translate(-834.485 -242.431)"/><path class="a" d="M903.778,271.17a3.035,3.035,0,1,1,3.035,3.036A3.035,3.035,0,0,1,903.778,271.17Z" transform="translate(-791.72 -242.431)"/><path class="a" d="M974.558,465.954a3.035,3.035,0,1,1,3.034,3.036A3.034,3.034,0,0,1,974.558,465.954Z" transform="translate(-834.485 -360.119)"/><path class="a" d="M903.778,465.954a3.035,3.035,0,1,1,3.035,3.036A3.035,3.035,0,0,1,903.778,465.954Z" transform="translate(-791.72 -360.119)"/><path class="a" d="M1045.339,530.9a3.035,3.035,0,1,1,3.034,3.034A3.034,3.034,0,0,1,1045.339,530.9Z" transform="translate(-877.25 -399.359)"/><path class="a" d="M974.558,530.9a3.035,3.035,0,1,1,3.034,3.034A3.034,3.034,0,0,1,974.558,530.9Z" transform="translate(-834.485 -399.359)"/><path class="a" d="M903.778,530.9a3.035,3.035,0,1,1,3.035,3.034A3.035,3.035,0,0,1,903.778,530.9Z" transform="translate(-791.72 -399.359)"/><path class="a" d="M1257.673,336.061a3.035,3.035,0,1,1,3.036,3.036A3.035,3.035,0,0,1,1257.673,336.061Z" transform="translate(-1005.542 -281.638)"/><path class="a" d="M1186.9,336.061a3.035,3.035,0,1,1,3.034,3.036A3.034,3.034,0,0,1,1186.9,336.061Z" transform="translate(-962.778 -281.638)"/><path class="a" d="M1116.116,336.061a3.035,3.035,0,1,1,3.034,3.036A3.035,3.035,0,0,1,1116.116,336.061Z" transform="translate(-920.014 -281.638)"/><path class="a" d="M1257.673,401.008a3.035,3.035,0,1,1,3.036,3.036A3.035,3.035,0,0,1,1257.673,401.008Z" transform="translate(-1005.542 -320.879)"/><path class="a" d="M1186.9,401.008a3.035,3.035,0,1,1,3.034,3.036A3.034,3.034,0,0,1,1186.9,401.008Z" transform="translate(-962.778 -320.879)"/><path class="a" d="M1116.116,401.008a3.035,3.035,0,1,1,3.034,3.036A3.035,3.035,0,0,1,1116.116,401.008Z" transform="translate(-920.014 -320.879)"/><path class="a" d="M1257.673,465.954a3.035,3.035,0,1,1,3.036,3.036A3.035,3.035,0,0,1,1257.673,465.954Z" transform="translate(-1005.542 -360.119)"/><path class="a" d="M1257.673,206.223a3.035,3.035,0,1,1,3.036,3.036A3.035,3.035,0,0,1,1257.673,206.223Z" transform="translate(-1005.542 -203.19)"/><path class="a" d="M1186.9,206.223a3.035,3.035,0,1,1,3.034,3.036A3.034,3.034,0,0,1,1186.9,206.223Z" transform="translate(-962.778 -203.19)"/><path class="a" d="M1116.116,206.223a3.035,3.035,0,1,1,3.034,3.036A3.035,3.035,0,0,1,1116.116,206.223Z" transform="translate(-920.014 -203.19)"/><path class="a" d="M1257.673,271.17a3.035,3.035,0,1,1,3.036,3.036A3.035,3.035,0,0,1,1257.673,271.17Z" transform="translate(-1005.542 -242.431)"/><path class="a" d="M1186.9,271.17a3.035,3.035,0,1,1,3.034,3.036A3.034,3.034,0,0,1,1186.9,271.17Z" transform="translate(-962.778 -242.431)"/><path class="a" d="M1116.116,271.17a3.035,3.035,0,1,1,3.034,3.036A3.035,3.035,0,0,1,1116.116,271.17Z" transform="translate(-920.014 -242.431)"/><path class="a" d="M1186.9,465.954a3.035,3.035,0,1,1,3.034,3.036A3.035,3.035,0,0,1,1186.9,465.954Z" transform="translate(-962.778 -360.119)"/><path class="a" d="M1116.116,465.954a3.035,3.035,0,1,1,3.034,3.036A3.035,3.035,0,0,1,1116.116,465.954Z" transform="translate(-920.014 -360.119)"/><path class="a" d="M1257.673,530.9a3.035,3.035,0,1,1,3.036,3.034A3.035,3.035,0,0,1,1257.673,530.9Z" transform="translate(-1005.542 -399.359)"/><path class="a" d="M1186.9,530.9a3.035,3.035,0,1,1,3.034,3.034A3.035,3.035,0,0,1,1186.9,530.9Z" transform="translate(-962.778 -399.359)"/><path class="a" d="M1116.116,530.9a3.035,3.035,0,1,1,3.034,3.034A3.035,3.035,0,0,1,1116.116,530.9Z" transform="translate(-920.014 -399.359)"/></g></svg>