<svg xmlns="http://www.w3.org/2000/svg" width="348.946" height="108.371" viewBox="0 0 348.946 108.371"><defs><style>.a{fill:#272727;opacity:0.7;}.b{fill:#4b63fd;}.b,.c{stroke:#4b63fd;stroke-width:5px;}.c{fill:#4c64fd;}</style></defs><g transform="translate(258.201 108.371) rotate(180)"><path class="a" d="M762.219,336.061a3.035,3.035,0,1,1,3.036,3.036A3.035,3.035,0,0,1,762.219,336.061Z" transform="translate(-686.554 -281.569)"/><path class="a" d="M691.44,336.061a3.035,3.035,0,1,1,3.035,3.036A3.035,3.035,0,0,1,691.44,336.061Z" transform="translate(-638.887 -281.569)"/><path class="a" d="M691.44,336.061a3.035,3.035,0,1,1,3.035,3.036A3.035,3.035,0,0,1,691.44,336.061Z" transform="translate(-638.887 -307.228)"/><path class="a" d="M833,401.008a3.035,3.035,0,1,1,3.035,3.036A3.035,3.035,0,0,1,833,401.008Z" transform="translate(-734.22 -320.857)"/><path class="a" d="M833,401.008a3.035,3.035,0,1,1,3.035,3.036A3.035,3.035,0,0,1,833,401.008Z" transform="translate(-734.22 -346.563)"/><path class="a" d="M762.219,401.008a3.035,3.035,0,1,1,3.036,3.036A3.035,3.035,0,0,1,762.219,401.008Z" transform="translate(-686.554 -320.857)"/><path class="a" d="M691.44,401.008a3.035,3.035,0,1,1,3.035,3.036A3.035,3.035,0,0,1,691.44,401.008Z" transform="translate(-638.887 -320.857)"/><path class="a" d="M833,465.954a3.035,3.035,0,1,1,3.035,3.036A3.035,3.035,0,0,1,833,465.954Z" transform="translate(-734.221 -363.119)"/><path class="a" d="M833,465.954a3.035,3.035,0,1,1,3.035,3.036A3.035,3.035,0,0,1,833,465.954Z" transform="translate(-709.074 -363.119)"/><path class="a" d="M833,465.954a3.035,3.035,0,1,1,3.035,3.036A3.035,3.035,0,0,1,833,465.954Z" transform="translate(-683.927 -363.119)"/><path class="a" d="M833,465.954a3.035,3.035,0,1,1,3.035,3.036A3.035,3.035,0,0,1,833,465.954Z" transform="translate(-659.927 -363.119)"/><path class="a" d="M833,465.954a3.035,3.035,0,1,1,3.035,3.036A3.035,3.035,0,0,1,833,465.954Z" transform="translate(-633.164 -363.119)"/><path class="a" d="M833,465.954a3.035,3.035,0,1,1,3.035,3.036A3.035,3.035,0,0,1,833,465.954Z" transform="translate(-610.051 -363.119)"/><path class="a" d="M833,465.954a3.035,3.035,0,1,1,3.035,3.036A3.035,3.035,0,0,1,833,465.954Z" transform="translate(-580.868 -363.119)"/><path class="b" d="M762.219,465.954a3.035,3.035,0,1,1,3.036,3.036A3.035,3.035,0,0,1,762.219,465.954Z" transform="translate(-686.554 -363.119)"/><path class="a" d="M691.44,465.954a3.035,3.035,0,1,1,3.035,3.036A3.035,3.035,0,0,1,691.44,465.954Z" transform="translate(-638.887 -363.119)"/><path class="a" d="M1045.339,401.008a3.035,3.035,0,1,1,3.034,3.036A3.034,3.034,0,0,1,1045.339,401.008Z" transform="translate(-871.25 -346.563)"/><path class="a" d="M974.558,401.008a3.035,3.035,0,1,1,3.034,3.036A3.034,3.034,0,0,1,974.558,401.008Z" transform="translate(-825.485 -346.563)"/><path class="a" d="M903.778,401.008a3.035,3.035,0,1,1,3.035,3.036A3.035,3.035,0,0,1,903.778,401.008Z" transform="translate(-780.452 -346.563)"/><path class="a" d="M1045.339,465.954a3.035,3.035,0,1,1,3.034,3.036A3.034,3.034,0,0,1,1045.339,465.954Z" transform="translate(-871.318 -385.802)"/><path class="a" d="M833,271.17a3.035,3.035,0,1,1,3.035,3.036A3.035,3.035,0,0,1,833,271.17Z" transform="translate(-734.22 -242.431)"/><path class="a" d="M762.219,271.17a3.035,3.035,0,1,1,3.036,3.036A3.035,3.035,0,0,1,762.219,271.17Z" transform="translate(-686.554 -242.431)"/><path class="a" d="M691.44,271.17a3.035,3.035,0,1,1,3.035,3.036A3.035,3.035,0,0,1,691.44,271.17Z" transform="translate(-663.425 -242.336)"/><path class="a" d="M691.44,271.17a3.035,3.035,0,1,1,3.035,3.036A3.035,3.035,0,0,1,691.44,271.17Z" transform="translate(-686.538 -242.336)"/><path class="a" d="M691.44,271.17a3.035,3.035,0,1,1,3.035,3.036A3.035,3.035,0,0,1,691.44,271.17Z" transform="translate(-709.65 -242.336)"/><path class="a" d="M691.44,271.17a3.035,3.035,0,1,1,3.035,3.036A3.035,3.035,0,0,1,691.44,271.17Z" transform="translate(-733.649 -242.336)"/><path class="a" d="M691.44,271.17a3.035,3.035,0,1,1,3.035,3.036A3.035,3.035,0,0,1,691.44,271.17Z" transform="translate(-758.186 -242.336)"/><path class="a" d="M691.44,271.17a3.035,3.035,0,1,1,3.035,3.036A3.035,3.035,0,0,1,691.44,271.17Z" transform="translate(-782.185 -242.336)"/><path class="a" d="M691.44,271.17a3.035,3.035,0,1,1,3.035,3.036A3.035,3.035,0,0,1,691.44,271.17Z" transform="translate(-663.425 -216.677)"/><path class="a" d="M691.44,271.17a3.035,3.035,0,1,1,3.035,3.036A3.035,3.035,0,0,1,691.44,271.17Z" transform="translate(-686.538 -216.677)"/><path class="a" d="M691.44,271.17a3.035,3.035,0,1,1,3.035,3.036A3.035,3.035,0,0,1,691.44,271.17Z" transform="translate(-709.65 -216.677)"/><path class="a" d="M691.44,271.17a3.035,3.035,0,1,1,3.035,3.036A3.035,3.035,0,0,1,691.44,271.17Z" transform="translate(-733.649 -216.677)"/><path class="a" d="M691.44,271.17a3.035,3.035,0,1,1,3.035,3.036A3.035,3.035,0,0,1,691.44,271.17Z" transform="translate(-758.186 -216.677)"/><path class="a" d="M691.44,271.17a3.035,3.035,0,1,1,3.035,3.036A3.035,3.035,0,0,1,691.44,271.17Z" transform="translate(-782.185 -216.677)"/><path class="a" d="M691.44,271.17a3.035,3.035,0,1,1,3.035,3.036A3.035,3.035,0,0,1,691.44,271.17Z" transform="translate(-663.425 -191.019)"/><path class="a" d="M691.44,271.17a3.035,3.035,0,1,1,3.035,3.036A3.035,3.035,0,0,1,691.44,271.17Z" transform="translate(-686.538 -191.019)"/><path class="a" d="M691.44,271.17a3.035,3.035,0,1,1,3.035,3.036A3.035,3.035,0,0,1,691.44,271.17Z" transform="translate(-709.65 -191.019)"/><path class="a" d="M691.44,271.17a3.035,3.035,0,1,1,3.035,3.036A3.035,3.035,0,0,1,691.44,271.17Z" transform="translate(-733.649 -191.019)"/><path class="a" d="M691.44,271.17a3.035,3.035,0,1,1,3.035,3.036A3.035,3.035,0,0,1,691.44,271.17Z" transform="translate(-758.186 -191.019)"/><path class="a" d="M691.44,271.17a3.035,3.035,0,1,1,3.035,3.036A3.035,3.035,0,0,1,691.44,271.17Z" transform="translate(-782.185 -191.019)"/><path class="a" d="M691.44,271.17a3.035,3.035,0,1,1,3.035,3.036A3.035,3.035,0,0,1,691.44,271.17Z" transform="translate(-663.425 -168.335)"/><path class="a" d="M691.44,271.17a3.035,3.035,0,1,1,3.035,3.036A3.035,3.035,0,0,1,691.44,271.17Z" transform="translate(-686.538 -168.335)"/><path class="a" d="M691.44,271.17a3.035,3.035,0,1,1,3.035,3.036A3.035,3.035,0,0,1,691.44,271.17Z" transform="translate(-709.65 -168.335)"/><path class="a" d="M691.44,271.17a3.035,3.035,0,1,1,3.035,3.036A3.035,3.035,0,0,1,691.44,271.17Z" transform="translate(-733.649 -168.335)"/><path class="a" d="M691.44,271.17a3.035,3.035,0,1,1,3.035,3.036A3.035,3.035,0,0,1,691.44,271.17Z" transform="translate(-758.186 -168.335)"/><path class="a" d="M691.44,271.17a3.035,3.035,0,1,1,3.035,3.036A3.035,3.035,0,0,1,691.44,271.17Z" transform="translate(-782.185 -168.335)"/><path class="a" d="M1045.339,206.223a3.035,3.035,0,1,1,3.034,3.036A3.034,3.034,0,0,1,1045.339,206.223Z" transform="translate(-871.25 -203.19)"/><path class="a" d="M974.558,206.223a3.035,3.035,0,1,1,3.035,3.036A3.034,3.034,0,0,1,974.558,206.223Z" transform="translate(-825.485 -203.19)"/><path class="a" d="M903.778,206.223a3.035,3.035,0,1,1,3.035,3.036A3.035,3.035,0,0,1,903.778,206.223Z" transform="translate(-780.718 -203.19)"/><path class="c" d="M1045.339,271.17a3.035,3.035,0,1,1,3.034,3.036A3.034,3.034,0,0,1,1045.339,271.17Z" transform="translate(-871.318 -242.431)"/><path class="a" d="M974.558,271.17a3.035,3.035,0,1,1,3.035,3.036A3.034,3.034,0,0,1,974.558,271.17Z" transform="translate(-825.584 -242.431)"/><path class="a" d="M903.778,271.17a3.035,3.035,0,1,1,3.035,3.036A3.035,3.035,0,0,1,903.778,271.17Z" transform="translate(-780.718 -242.431)"/><path class="a" d="M974.558,465.954a3.035,3.035,0,1,1,3.034,3.036A3.034,3.034,0,0,1,974.558,465.954Z" transform="translate(-825.584 -385.802)"/><path class="a" d="M903.778,465.954a3.035,3.035,0,1,1,3.035,3.036A3.035,3.035,0,0,1,903.778,465.954Z" transform="translate(-779.852 -385.802)"/><path class="a" d="M1257.673,401.008a3.035,3.035,0,1,1,3.036,3.036A3.035,3.035,0,0,1,1257.673,401.008Z" transform="translate(-1005.542 -346.563)"/><path class="a" d="M1186.9,401.008a3.035,3.035,0,1,1,3.034,3.036A3.034,3.034,0,0,1,1186.9,401.008Z" transform="translate(-962.778 -346.563)"/><path class="a" d="M1116.116,401.008a3.035,3.035,0,1,1,3.034,3.036A3.035,3.035,0,0,1,1116.116,401.008Z" transform="translate(-916.28 -346.563)"/><path class="a" d="M1257.673,465.954a3.035,3.035,0,1,1,3.036,3.036A3.035,3.035,0,0,1,1257.673,465.954Z" transform="translate(-1005.542 -385.802)"/><path class="a" d="M1257.673,206.223a3.035,3.035,0,1,1,3.036,3.036A3.035,3.035,0,0,1,1257.673,206.223Z" transform="translate(-1005.542 -203.19)"/><path class="a" d="M1186.9,206.223a3.035,3.035,0,1,1,3.034,3.036A3.034,3.034,0,0,1,1186.9,206.223Z" transform="translate(-960.778 -203.19)"/><path class="a" d="M1116.116,206.223a3.035,3.035,0,1,1,3.034,3.036A3.035,3.035,0,0,1,1116.116,206.223Z" transform="translate(-916.013 -203.19)"/><path class="a" d="M1257.673,271.17a3.035,3.035,0,1,1,3.036,3.036A3.035,3.035,0,0,1,1257.673,271.17Z" transform="translate(-1005.542 -242.431)"/><path class="a" d="M1186.9,271.17a3.035,3.035,0,1,1,3.034,3.036A3.034,3.034,0,0,1,1186.9,271.17Z" transform="translate(-960.912 -242.431)"/><path class="a" d="M1116.116,271.17a3.035,3.035,0,1,1,3.034,3.036A3.035,3.035,0,0,1,1116.116,271.17Z" transform="translate(-916.28 -242.431)"/><path class="a" d="M1186.9,465.954a3.035,3.035,0,1,1,3.034,3.036A3.035,3.035,0,0,1,1186.9,465.954Z" transform="translate(-962.778 -385.802)"/><path class="a" d="M1116.116,465.954a3.035,3.035,0,1,1,3.034,3.036A3.035,3.035,0,0,1,1116.116,465.954Z" transform="translate(-916.28 -385.802)"/></g></svg>