<svg xmlns="http://www.w3.org/2000/svg" width="137.077" height="258.202" viewBox="0 0 137.077 258.202"><defs><style>.a{isolation:isolate;}.b{fill:#272727;}.b,.d{opacity:0.7;}.c{fill:#4c64fd;stroke:#4c64fd;}.c,.d{stroke-width:5px;}.d{fill:#0023fc;stroke:#0023fc;}</style></defs><g class="a" transform="translate(2.5)"><path class="b" d="M2885.72,1354.853a3.035,3.035,0,1,1,3.036-3.035A3.035,3.035,0,0,1,2885.72,1354.853Z" transform="translate(-2831.297 -1180.695)"/><path class="b" d="M2885.72,1425.631a3.035,3.035,0,1,1,3.036-3.036A3.035,3.035,0,0,1,2885.72,1425.631Z" transform="translate(-2831.297 -1223.458)"/><path class="b" d="M2885.72,1496.412a3.035,3.035,0,1,1,3.036-3.036A3.035,3.035,0,0,1,2885.72,1496.412Z" transform="translate(-2831.297 -1266.225)"/><path class="b" d="M2885.72,1567.191a3.035,3.035,0,1,1,3.036-3.036A3.035,3.035,0,0,1,2885.72,1567.191Z" transform="translate(-2831.297 -1308.989)"/><path class="b" d="M2950.667,1354.853a3.035,3.035,0,1,1,3.036-3.035A3.035,3.035,0,0,1,2950.667,1354.853Z" transform="translate(-2870.538 -1180.695)"/><path class="b" d="M2950.667,1425.631a3.035,3.035,0,1,1,3.036-3.036A3.035,3.035,0,0,1,2950.667,1425.631Z" transform="translate(-2870.538 -1223.458)"/><path class="b" d="M2950.667,1496.412a3.035,3.035,0,1,1,3.036-3.036A3.035,3.035,0,0,1,2950.667,1496.412Z" transform="translate(-2870.538 -1266.225)"/><path class="b" d="M2950.667,1567.191a3.035,3.035,0,1,1,3.036-3.036A3.035,3.035,0,0,1,2950.667,1567.191Z" transform="translate(-2870.538 -1308.989)"/><path class="b" d="M3015.613,1354.851a3.035,3.035,0,1,1,3.036-3.035A3.036,3.036,0,0,1,3015.613,1354.851Z" transform="translate(-2909.778 -1180.694)"/><path class="b" d="M3015.613,1425.631a3.035,3.035,0,1,1,3.036-3.036A3.036,3.036,0,0,1,3015.613,1425.631Z" transform="translate(-2909.778 -1223.458)"/><path class="b" d="M3015.613,1496.412a3.035,3.035,0,1,1,3.036-3.036A3.036,3.036,0,0,1,3015.613,1496.412Z" transform="translate(-2909.778 -1266.225)"/><path class="b" d="M3015.613,1567.191a3.035,3.035,0,1,1,3.036-3.036A3.036,3.036,0,0,1,3015.613,1567.191Z" transform="translate(-2909.778 -1308.989)"/><path class="b" d="M3080.56,1354.851a3.035,3.035,0,1,1,3.035-3.035A3.035,3.035,0,0,1,3080.56,1354.851Z" transform="translate(-2949.018 -1180.694)"/><path class="b" d="M3080.56,1425.631a3.035,3.035,0,1,1,3.035-3.036A3.035,3.035,0,0,1,3080.56,1425.631Z" transform="translate(-2949.018 -1223.458)"/><path class="b" d="M3080.56,1496.412a3.035,3.035,0,1,1,3.035-3.036A3.036,3.036,0,0,1,3080.56,1496.412Z" transform="translate(-2949.018 -1266.225)"/><path class="b" d="M3080.56,1567.191a3.035,3.035,0,1,1,3.035-3.036A3.036,3.036,0,0,1,3080.56,1567.191Z" transform="translate(-2949.018 -1308.989)"/><path class="b" d="M2885.72,1142.513a3.035,3.035,0,1,1,3.036-3.035A3.034,3.034,0,0,1,2885.72,1142.513Z" transform="translate(-2831.297 -1052.399)"/><path class="b" d="M2885.72,1213.295a3.035,3.035,0,1,1,3.036-3.035A3.034,3.034,0,0,1,2885.72,1213.295Z" transform="translate(-2831.297 -1095.166)"/><path class="b" d="M2885.72,1284.075a3.035,3.035,0,1,1,3.036-3.035A3.035,3.035,0,0,1,2885.72,1284.075Z" transform="translate(-2831.297 -1137.932)"/><path class="b" d="M2950.667,1142.512a3.035,3.035,0,1,1,3.036-3.034A3.034,3.034,0,0,1,2950.667,1142.512Z" transform="translate(-2870.538 -1052.399)"/><path class="b" d="M2950.667,1213.293a3.035,3.035,0,1,1,3.036-3.034A3.034,3.034,0,0,1,2950.667,1213.293Z" transform="translate(-2870.538 -1095.165)"/><path class="b" d="M2950.667,1284.075a3.035,3.035,0,1,1,3.036-3.035A3.035,3.035,0,0,1,2950.667,1284.075Z" transform="translate(-2870.538 -1137.932)"/><path class="b" d="M3015.613,1142.512a3.035,3.035,0,1,1,3.036-3.034A3.034,3.034,0,0,1,3015.613,1142.512Z" transform="translate(-2909.778 -1052.399)"/><path class="c" d="M2755.883,1354.852a3.035,3.035,0,1,1,3.036-3.035A3.035,3.035,0,0,1,2755.883,1354.852Z" transform="translate(-2752.849 -1180.694)"/><path class="b" d="M2755.883,1425.63a3.035,3.035,0,1,1,3.036-3.035A3.035,3.035,0,0,1,2755.883,1425.63Z" transform="translate(-2752.849 -1223.458)"/><path class="b" d="M2755.883,1496.412a3.035,3.035,0,1,1,3.036-3.036A3.035,3.035,0,0,1,2755.883,1496.412Z" transform="translate(-2752.849 -1266.225)"/><path class="b" d="M2755.883,1567.191a3.035,3.035,0,1,1,3.036-3.036A3.035,3.035,0,0,1,2755.883,1567.191Z" transform="translate(-2752.849 -1308.989)"/><path class="b" d="M2820.829,1354.853a3.035,3.035,0,1,1,3.037-3.035A3.035,3.035,0,0,1,2820.829,1354.853Z" transform="translate(-2792.09 -1180.695)"/><path class="b" d="M2820.829,1425.631a3.035,3.035,0,1,1,3.037-3.036A3.035,3.035,0,0,1,2820.829,1425.631Z" transform="translate(-2792.09 -1223.458)"/><path class="b" d="M2820.829,1496.412a3.035,3.035,0,1,1,3.037-3.036A3.035,3.035,0,0,1,2820.829,1496.412Z" transform="translate(-2792.09 -1266.225)"/><path class="b" d="M2820.829,1567.191a3.035,3.035,0,1,1,3.037-3.036A3.035,3.035,0,0,1,2820.829,1567.191Z" transform="translate(-2792.09 -1308.989)"/><path class="b" d="M2755.882,1142.514a3.035,3.035,0,1,1,3.036-3.034A3.034,3.034,0,0,1,2755.882,1142.514Z" transform="translate(-2752.849 -1052.401)"/><path class="b" d="M2755.882,1213.295a3.035,3.035,0,1,1,3.036-3.035A3.034,3.034,0,0,1,2755.882,1213.295Z" transform="translate(-2752.849 -1095.166)"/><path class="b" d="M2755.882,1284.075a3.035,3.035,0,1,1,3.036-3.035A3.035,3.035,0,0,1,2755.882,1284.075Z" transform="translate(-2752.849 -1137.932)"/><path class="b" d="M2820.829,1142.514a3.035,3.035,0,1,1,3.036-3.034A3.034,3.034,0,0,1,2820.829,1142.514Z" transform="translate(-2792.09 -1052.401)"/><path class="b" d="M2820.829,1213.295a3.035,3.035,0,1,1,3.036-3.035A3.034,3.034,0,0,1,2820.829,1213.295Z" transform="translate(-2792.09 -1095.166)"/><path class="b" d="M2820.829,1284.075a3.035,3.035,0,1,1,3.036-3.035A3.035,3.035,0,0,1,2820.829,1284.075Z" transform="translate(-2792.09 -1137.932)"/><path class="b" d="M3015.613,1213.294a3.035,3.035,0,1,1,3.036-3.034A3.035,3.035,0,0,1,3015.613,1213.294Z" transform="translate(-2909.778 -1095.166)"/><path class="b" d="M3015.613,1284.073a3.035,3.035,0,1,1,3.036-3.035A3.036,3.036,0,0,1,3015.613,1284.073Z" transform="translate(-2909.778 -1137.93)"/><path class="b" d="M3080.56,1142.512a3.035,3.035,0,1,1,3.035-3.034A3.035,3.035,0,0,1,3080.56,1142.512Z" transform="translate(-2949.018 -1052.399)"/><path class="b" d="M3080.56,1213.294a3.035,3.035,0,1,1,3.035-3.034A3.035,3.035,0,0,1,3080.56,1213.294Z" transform="translate(-2949.018 -1095.166)"/><path class="b" d="M3080.56,1284.073a3.035,3.035,0,1,1,3.035-3.035A3.035,3.035,0,0,1,3080.56,1284.073Z" transform="translate(-2949.018 -1137.93)"/><path class="b" d="M2885.72,930.176a3.035,3.035,0,1,1,3.036-3.036A3.035,3.035,0,0,1,2885.72,930.176Z" transform="translate(-2831.297 -924.105)"/><path class="b" d="M2885.72,1000.956a3.035,3.035,0,1,1,3.036-3.034A3.034,3.034,0,0,1,2885.72,1000.956Z" transform="translate(-2831.297 -966.871)"/><path class="b" d="M2885.72,1071.735a3.035,3.035,0,1,1,3.036-3.034A3.035,3.035,0,0,1,2885.72,1071.735Z" transform="translate(-2831.297 -1009.636)"/><path class="b" d="M2950.667,930.176a3.035,3.035,0,1,1,3.036-3.036A3.035,3.035,0,0,1,2950.667,930.176Z" transform="translate(-2870.538 -924.105)"/><path class="b" d="M2950.667,1000.956a3.035,3.035,0,1,1,3.036-3.034A3.034,3.034,0,0,1,2950.667,1000.956Z" transform="translate(-2870.538 -966.871)"/><path class="d" d="M2950.667,1071.735a3.035,3.035,0,1,1,3.036-3.034A3.035,3.035,0,0,1,2950.667,1071.735Z" transform="translate(-2870.538 -1009.636)"/><path class="b" d="M3015.613,930.176a3.035,3.035,0,1,1,3.036-3.036A3.035,3.035,0,0,1,3015.613,930.176Z" transform="translate(-2909.778 -924.105)"/><path class="b" d="M2755.882,930.178a3.035,3.035,0,1,1,3.036-3.036A3.035,3.035,0,0,1,2755.882,930.178Z" transform="translate(-2752.849 -924.106)"/><path class="b" d="M2755.882,1000.958a3.035,3.035,0,1,1,3.036-3.034A3.034,3.034,0,0,1,2755.882,1000.958Z" transform="translate(-2752.849 -966.873)"/><path class="b" d="M2755.882,1071.737a3.035,3.035,0,1,1,3.036-3.034A3.035,3.035,0,0,1,2755.882,1071.737Z" transform="translate(-2752.849 -1009.637)"/><path class="b" d="M2820.829,930.176a3.035,3.035,0,1,1,3.036-3.036A3.035,3.035,0,0,1,2820.829,930.176Z" transform="translate(-2792.09 -924.105)"/><path class="b" d="M2820.829,1000.957a3.035,3.035,0,1,1,3.036-3.035A3.034,3.034,0,0,1,2820.829,1000.957Z" transform="translate(-2792.09 -966.871)"/><path class="b" d="M2820.829,1071.737a3.035,3.035,0,1,1,3.036-3.034A3.035,3.035,0,0,1,2820.829,1071.737Z" transform="translate(-2792.09 -1009.637)"/><path class="b" d="M3015.613,1000.956a3.035,3.035,0,1,1,3.036-3.034A3.035,3.035,0,0,1,3015.613,1000.956Z" transform="translate(-2909.778 -966.871)"/><path class="b" d="M3015.613,1071.735a3.035,3.035,0,1,1,3.036-3.034A3.035,3.035,0,0,1,3015.613,1071.735Z" transform="translate(-2909.778 -1009.636)"/><path class="b" d="M3080.559,930.176a3.035,3.035,0,1,1,3.034-3.036A3.036,3.036,0,0,1,3080.559,930.176Z" transform="translate(-2949.017 -924.105)"/><path class="b" d="M3080.559,1000.956a3.035,3.035,0,1,1,3.034-3.034A3.035,3.035,0,0,1,3080.559,1000.956Z" transform="translate(-2949.017 -966.871)"/><path class="b" d="M3080.559,1071.735a3.035,3.035,0,1,1,3.034-3.034A3.035,3.035,0,0,1,3080.559,1071.735Z" transform="translate(-2949.017 -1009.636)"/></g></svg>