<svg xmlns="http://www.w3.org/2000/svg" width="99" height="56.163" viewBox="0 0 99 56.163"><defs><style>.a,.b{fill:#ccc;}.b{font-size:18px;font-family:Poppins-Regular, Poppins;}</style></defs><g transform="translate(-1196 -903)"><g transform="translate(1135.54 830.837)"><path class="a" d="M154.411,108.953a3.239,3.239,0,1,1-4.585,0,3.241,3.241,0,0,1,4.585,0Z" transform="translate(-26.81 -0.001)"/><path class="a" d="M140.778,122.577a3.239,3.239,0,1,1-4.578,0,3.233,3.233,0,0,1,4.578,0Z" transform="translate(-20.107 -6.703)"/><path class="a" d="M127.155,136.2a3.239,3.239,0,1,1-4.579,0,3.24,3.24,0,0,1,4.579,0Z" transform="translate(-13.405 -13.406)"/><path class="a" d="M127.155,108.951a3.237,3.237,0,1,1-4.579,0,3.234,3.234,0,0,1,4.579,0Z" transform="translate(-13.405)"/><path class="a" d="M113.524,122.577a3.24,3.24,0,1,1-4.581,0,3.241,3.241,0,0,1,4.581,0Z" transform="translate(-6.7 -6.703)"/><path class="a" d="M99.9,108.951a3.236,3.236,0,1,1-4.576,0,3.233,3.233,0,0,1,4.576,0Z"/></g></g></svg>