<svg xmlns="http://www.w3.org/2000/svg" xmlns:xlink="http://www.w3.org/1999/xlink" width="87" height="87" viewBox="0 0 87 87">
  <defs>
    <radialGradient id="radial-gradient" cx="0.211" cy="0.077" r="0.82" gradientTransform="translate(0 0) scale(1 1.22)" gradientUnits="objectBoundingBox">
      <stop offset="0" stop-color="#864bf6"/>
      <stop offset="1" stop-color="#501eaf"/>
    </radialGradient>
  </defs>
  <g id="Group_19" data-name="Group 19" transform="translate(-1406 -3493)">
    <circle id="Ellipse_5" data-name="Ellipse 5" cx="43.5" cy="43.5" r="43.5" transform="translate(1406 3493)" fill="url(#radial-gradient)"/>
    <g id="Icon_ionic-ios-rocket" data-name="Icon ionic-ios-rocket" transform="translate(1424.946 3511.957)">
      <path id="Path_120" data-name="Path 120" d="M45.519,3.947a.45.45,0,0,0-.336-.346c-5.54-1.354-18.341,3.473-25.276,10.408a29.977,29.977,0,0,0-3.371,3.982,12.543,12.543,0,0,0-6.1.764c-5.143,2.261-6.64,8.167-7.057,10.7a.912.912,0,0,0,1,1.059l8.259-.906a18.36,18.36,0,0,0,.112,1.864,1.848,1.848,0,0,0,.54,1.13l3.2,3.2a1.848,1.848,0,0,0,1.13.54,18.327,18.327,0,0,0,1.853.112L18.563,44.7a.912.912,0,0,0,1.059,1c2.536-.407,8.452-1.9,10.7-7.047a12.6,12.6,0,0,0,.774-6.08A30.025,30.025,0,0,0,35.091,29.2C42.057,22.277,46.853,9.761,45.519,3.947ZM28.9,20.23a4.349,4.349,0,1,1,6.151,0A4.346,4.346,0,0,1,28.9,20.23Z" transform="translate(0 0)" fill="#fff"/>
      <path id="Path_121" data-name="Path 121" d="M15.176,28.284h0a3.863,3.863,0,0,1-2.016.815A2.741,2.741,0,0,1,10,25.942a3.787,3.787,0,0,1,.8-2.006l.01-.01a.34.34,0,0,0-.285-.58,4.681,4.681,0,0,0-2.739,1.334c-1.833,1.833-2.006,8.636-2.006,8.636s6.813-.173,8.646-2.006a4.65,4.65,0,0,0,1.334-2.739A.348.348,0,0,0,15.176,28.284Z" transform="translate(1.085 8.953)" fill="#fff"/>
    </g>
  </g>
</svg>
